%TF.GenerationSoftware,KiCad,Pcbnew,8.0.3*%
%TF.CreationDate,2024-11-02T12:13:14+01:00*%
%TF.ProjectId,ESP-Now-Gateway,4553502d-4e6f-4772-9d47-617465776179,rev?*%
%TF.SameCoordinates,Original*%
%TF.FileFunction,Copper,L2,Bot*%
%TF.FilePolarity,Positive*%
%FSLAX46Y46*%
G04 Gerber Fmt 4.6, Leading zero omitted, Abs format (unit mm)*
G04 Created by KiCad (PCBNEW 8.0.3) date 2024-11-02 12:13:14*
%MOMM*%
%LPD*%
G01*
G04 APERTURE LIST*
%TA.AperFunction,ComponentPad*%
%ADD10R,1.700000X1.700000*%
%TD*%
%TA.AperFunction,ComponentPad*%
%ADD11O,1.700000X1.700000*%
%TD*%
%TA.AperFunction,ComponentPad*%
%ADD12R,1.398000X1.398000*%
%TD*%
%TA.AperFunction,ComponentPad*%
%ADD13C,1.398000*%
%TD*%
%TA.AperFunction,ComponentPad*%
%ADD14C,1.530000*%
%TD*%
%TA.AperFunction,ComponentPad*%
%ADD15C,2.445000*%
%TD*%
%TA.AperFunction,ComponentPad*%
%ADD16C,0.650000*%
%TD*%
%TA.AperFunction,ComponentPad*%
%ADD17O,1.000000X2.100000*%
%TD*%
%TA.AperFunction,ComponentPad*%
%ADD18O,1.000000X1.800000*%
%TD*%
%TA.AperFunction,HeatsinkPad*%
%ADD19C,0.600000*%
%TD*%
%TA.AperFunction,ViaPad*%
%ADD20C,0.600000*%
%TD*%
%TA.AperFunction,ViaPad*%
%ADD21C,0.800000*%
%TD*%
%TA.AperFunction,ViaPad*%
%ADD22C,0.400000*%
%TD*%
%TA.AperFunction,ViaPad*%
%ADD23C,0.500000*%
%TD*%
%TA.AperFunction,Conductor*%
%ADD24C,0.200000*%
%TD*%
%TA.AperFunction,Conductor*%
%ADD25C,0.160000*%
%TD*%
%TA.AperFunction,Conductor*%
%ADD26C,0.500000*%
%TD*%
%TA.AperFunction,Conductor*%
%ADD27C,0.350000*%
%TD*%
G04 APERTURE END LIST*
D10*
%TO.P,J5,1,Pin_1*%
%TO.N,VBUS*%
X104300000Y-81600000D03*
D11*
%TO.P,J5,2,Pin_2*%
X106840000Y-81600000D03*
%TO.P,J5,3,Pin_3*%
X104300000Y-84140000D03*
%TO.P,J5,4,Pin_4*%
X106840000Y-84140000D03*
%TO.P,J5,5,Pin_5*%
%TO.N,GND*%
X104300000Y-86680000D03*
%TO.P,J5,6,Pin_6*%
X106840000Y-86680000D03*
%TO.P,J5,7,Pin_7*%
X104300000Y-89220000D03*
%TO.P,J5,8,Pin_8*%
X106840000Y-89220000D03*
%TO.P,J5,9,Pin_9*%
%TO.N,+3V3*%
X104300000Y-91760000D03*
%TO.P,J5,10,Pin_10*%
X106840000Y-91760000D03*
%TO.P,J5,11,Pin_11*%
X104300000Y-94300000D03*
%TO.P,J5,12,Pin_12*%
X106840000Y-94300000D03*
%TD*%
D10*
%TO.P,J4,1,Pin_1*%
%TO.N,/ESP_IO14*%
X106800000Y-77900000D03*
D11*
%TO.P,J4,2,Pin_2*%
%TO.N,/ESP_IO4*%
X104260000Y-77900000D03*
%TO.P,J4,3,Pin_3*%
%TO.N,/ESP_IO12*%
X106800000Y-75360000D03*
%TO.P,J4,4,Pin_4*%
%TO.N,/ESP_IO13*%
X104260000Y-75360000D03*
%TO.P,J4,5,Pin_5*%
%TO.N,/ESP_IO5*%
X106800000Y-72820000D03*
%TO.P,J4,6,Pin_6*%
%TO.N,/ESP_IO33*%
X104260000Y-72820000D03*
%TO.P,J4,7,Pin_7*%
%TO.N,/ESP_IO2*%
X106800000Y-70280000D03*
%TO.P,J4,8,Pin_8*%
%TO.N,/ESP_IO15*%
X104260000Y-70280000D03*
%TO.P,J4,9,Pin_9*%
%TO.N,/ESP_SENSOR_VP_IO36*%
X106800000Y-67740000D03*
%TO.P,J4,10,Pin_10*%
%TO.N,/ESP_IO34*%
X104260000Y-67740000D03*
%TO.P,J4,11,Pin_11*%
%TO.N,/ESP_SENSOR_VN_IO39*%
X106800000Y-65200000D03*
%TO.P,J4,12,Pin_12*%
%TO.N,/ESP_IO35*%
X104260000Y-65200000D03*
%TD*%
D10*
%TO.P,J2,1,Pin_1*%
%TO.N,+3V3*%
X110650000Y-78600000D03*
D11*
%TO.P,J2,2,Pin_2*%
%TO.N,/BOOT0*%
X110650000Y-81140000D03*
%TO.P,J2,3,Pin_3*%
%TO.N,/EN*%
X110650000Y-83680000D03*
%TO.P,J2,4,Pin_4*%
%TO.N,/TX*%
X110650000Y-86220000D03*
%TO.P,J2,5,Pin_5*%
%TO.N,/RX*%
X110650000Y-88760000D03*
%TO.P,J2,6,Pin_6*%
%TO.N,GND*%
X110650000Y-91300000D03*
%TD*%
D12*
%TO.P,J1,1*%
%TO.N,/TX+*%
X119835000Y-109250000D03*
D13*
%TO.P,J1,2*%
%TO.N,/TX-*%
X121105000Y-106710000D03*
%TO.P,J1,3*%
%TO.N,/RX+*%
X122375000Y-109250000D03*
%TO.P,J1,4*%
%TO.N,+3V3*%
X123645000Y-106710000D03*
%TO.P,J1,5*%
X124915000Y-109250000D03*
%TO.P,J1,6*%
%TO.N,/RX-*%
X126185000Y-106710000D03*
%TO.P,J1,7*%
%TO.N,N/C*%
X127455000Y-109250000D03*
%TO.P,J1,8*%
%TO.N,GND*%
X128725000Y-106710000D03*
D14*
%TO.P,J1,9*%
%TO.N,+3V3*%
X117660000Y-120500000D03*
%TO.P,J1,10*%
%TO.N,Net-(J1-Pad10)*%
X120200000Y-120500000D03*
%TO.P,J1,11*%
%TO.N,GND*%
X128370000Y-120500000D03*
%TO.P,J1,12*%
%TO.N,Net-(J1-Pad12)*%
X130910000Y-120500000D03*
D15*
%TO.P,J1,15,SHIELD*%
%TO.N,GND*%
X116540000Y-112550000D03*
%TO.P,J1,16,SHIELD*%
X132030000Y-112550000D03*
%TD*%
D16*
%TO.P,USBC1,*%
%TO.N,*%
X106430000Y-117092500D03*
X112210000Y-117092500D03*
D17*
%TO.P,USBC1,1,SHIELD*%
%TO.N,GND*%
X105000000Y-116592500D03*
D18*
%TO.P,USBC1,2,SHIELD*%
X105000000Y-120772500D03*
%TO.P,USBC1,3,SHIELD*%
X113640000Y-120772500D03*
D17*
%TO.P,USBC1,4,SHIELD*%
X113640000Y-116592500D03*
%TD*%
D19*
%TO.P,U2,39,GND*%
%TO.N,GND*%
X121295000Y-72772500D03*
X121295000Y-74297500D03*
X122057500Y-72010000D03*
X122057500Y-73535000D03*
X122057500Y-75060000D03*
X122820000Y-72772500D03*
X122820000Y-74297500D03*
X123582500Y-72010000D03*
X123582500Y-73535000D03*
X123582500Y-75060000D03*
X124345000Y-72772500D03*
X124345000Y-74297500D03*
%TD*%
D20*
%TO.N,GND*%
X129000000Y-104600000D03*
X129000000Y-103800000D03*
X129000000Y-103000000D03*
D21*
%TO.N,+3V3*%
X131895502Y-96200000D03*
D20*
%TO.N,GND*%
X131300000Y-92800000D03*
X130600000Y-93500000D03*
X129700000Y-93900000D03*
X114300000Y-98400000D03*
X114300000Y-97600000D03*
X114300000Y-96800000D03*
X114300000Y-96000000D03*
X118700000Y-100400000D03*
X117200000Y-101700000D03*
X117600000Y-100900000D03*
X117400000Y-100000000D03*
X115100000Y-103700000D03*
X116200000Y-103800000D03*
X117000000Y-104300000D03*
X115300000Y-104500000D03*
X116200000Y-104600000D03*
X116000000Y-105375735D03*
X115200000Y-105300000D03*
X118000000Y-108200000D03*
X116600000Y-106800000D03*
X115800000Y-106800000D03*
X115800000Y-107700000D03*
X114992892Y-108692892D03*
X115000000Y-107700000D03*
X115000000Y-106750735D03*
D22*
%TO.N,/BOOT0*%
X119230760Y-102737868D03*
D21*
%TO.N,+3V3*%
X112400000Y-69800000D03*
D23*
%TO.N,GND*%
X116600000Y-90700000D03*
X116600000Y-89300000D03*
X117300000Y-90000000D03*
X117300000Y-88600000D03*
X115700000Y-85700000D03*
X119100000Y-85550000D03*
X120350000Y-85550000D03*
X121600000Y-85550000D03*
X122900000Y-85550000D03*
X124150000Y-85550000D03*
X125450000Y-85500000D03*
X126750000Y-85650000D03*
%TO.N,/ESP_IO2*%
X127913917Y-79285308D03*
X117400000Y-79782718D03*
%TO.N,/ESP_IO15*%
X117423845Y-79083122D03*
X128625396Y-79431101D03*
%TO.N,GND*%
X107200000Y-103900000D03*
X106700000Y-104400000D03*
X106100000Y-104850000D03*
X109050000Y-102050000D03*
X109050000Y-101400000D03*
X109050000Y-100750000D03*
X109050000Y-100100000D03*
X109050000Y-99450000D03*
X109050000Y-98800000D03*
%TO.N,/RX*%
X119397088Y-104996368D03*
%TO.N,/TX*%
X119645001Y-104341738D03*
%TO.N,/RX*%
X107422473Y-109950000D03*
%TO.N,/TX*%
X106913927Y-109468976D03*
X109500000Y-94950000D03*
%TO.N,GND*%
X115650000Y-85000000D03*
%TO.N,/PHY_INT*%
X117779465Y-86570535D03*
%TO.N,/ETH_RXD0*%
X117017313Y-86586784D03*
X117049489Y-81555000D03*
%TO.N,/PHY_INT*%
X117749492Y-81555000D03*
%TO.N,/ETH_CRS_DV*%
X116250000Y-86650000D03*
X116264316Y-81576670D03*
%TO.N,GND*%
X126500000Y-76100000D03*
X126000001Y-73600000D03*
X126000000Y-74600000D03*
X126000000Y-72600000D03*
X126500000Y-74099999D03*
X126500000Y-75100000D03*
X126500000Y-73100000D03*
X126000000Y-75600000D03*
X126000000Y-71600000D03*
X126500000Y-72100000D03*
%TO.N,/RX*%
X130400000Y-74300000D03*
%TO.N,/TX*%
X129900000Y-77300000D03*
%TO.N,GND*%
X116600000Y-90000000D03*
X117300000Y-90700000D03*
X119400000Y-90700000D03*
X120800000Y-90700000D03*
X118700000Y-90700000D03*
X120100000Y-90700000D03*
X118000000Y-90700000D03*
X119400000Y-90000000D03*
X120800000Y-90000000D03*
X118700000Y-90000000D03*
X120100000Y-90000000D03*
X118000000Y-90000000D03*
X117300000Y-89300000D03*
X119400000Y-89300000D03*
X120800000Y-89300000D03*
X118700000Y-89300000D03*
X120100000Y-89300000D03*
X118000000Y-89300000D03*
X113200000Y-87900000D03*
X113200000Y-90700000D03*
X113200000Y-86500000D03*
X113200000Y-89300000D03*
X113800000Y-87200000D03*
X113800000Y-90000000D03*
X113800000Y-88600000D03*
X113800000Y-91400000D03*
X114500000Y-87900000D03*
X114500000Y-90700000D03*
X114500000Y-86500000D03*
X114500000Y-89300000D03*
X115200000Y-87200000D03*
X115200000Y-90000000D03*
X115200000Y-88600000D03*
X115200000Y-91400000D03*
X115900000Y-87900000D03*
X115900000Y-90700000D03*
X115900000Y-89300000D03*
X120100000Y-88600000D03*
X120800000Y-88600000D03*
X118000000Y-88600000D03*
X119400000Y-88600000D03*
X121500000Y-88600000D03*
X116600000Y-88600000D03*
X118700000Y-88600000D03*
X120100000Y-87900000D03*
X120800000Y-87900000D03*
X119400000Y-87900000D03*
X121500000Y-87900000D03*
X123000000Y-88800000D03*
X123250000Y-88200000D03*
X123000000Y-87600000D03*
X123800000Y-87700000D03*
X124100000Y-88350000D03*
%TO.N,/BOOT0*%
X128392603Y-81575001D03*
%TO.N,/ETH_RXD1*%
X130093413Y-80121300D03*
X117542272Y-78300000D03*
%TO.N,/BOOT0*%
X115950000Y-82572182D03*
%TO.N,/EN*%
X113650123Y-93400000D03*
X112645707Y-92414343D03*
%TO.N,/PHY_INT*%
X123206007Y-89684802D03*
X126201013Y-86873195D03*
%TO.N,/TX*%
X104633633Y-109623583D03*
%TO.N,/RX*%
X109393560Y-94258138D03*
X104083634Y-110250000D03*
%TO.N,GND*%
X116950000Y-109750000D03*
X117150000Y-110400000D03*
X117850000Y-110650000D03*
X118150000Y-111250000D03*
X118750000Y-111550000D03*
X119100000Y-112150000D03*
X119750000Y-112450000D03*
D20*
X121600000Y-118200000D03*
X121600000Y-119000000D03*
X121600000Y-117400000D03*
X121600000Y-116600000D03*
X121600000Y-115000000D03*
X121600000Y-115800000D03*
X132000000Y-109000000D03*
X132000000Y-109800000D03*
X132000000Y-108200000D03*
X132000000Y-107400000D03*
X132000000Y-105800000D03*
X132000000Y-106600000D03*
X133200000Y-99100000D03*
X133200000Y-99900000D03*
X133200000Y-98300000D03*
X133200000Y-97500000D03*
X133200000Y-95900000D03*
X133200000Y-96700000D03*
D23*
X131000000Y-90050000D03*
D20*
X130885823Y-90843779D03*
X133000000Y-87150000D03*
X132850000Y-89418628D03*
X133200000Y-95100000D03*
X133200000Y-94300000D03*
X133200000Y-93500000D03*
X133200000Y-92700000D03*
D23*
X111250000Y-105750000D03*
X120600000Y-81800000D03*
D20*
X111200000Y-66750000D03*
X111200000Y-66000000D03*
X111200000Y-65200000D03*
X118270000Y-118730000D03*
X119250000Y-118090000D03*
D21*
%TO.N,+3V3*%
X123195013Y-97875000D03*
X125050000Y-98594744D03*
D23*
%TO.N,GND*%
X118500000Y-75500000D03*
X107500000Y-99750000D03*
X121250000Y-69750000D03*
X112750000Y-100000000D03*
X106750000Y-99000000D03*
X120250000Y-69750000D03*
X119000000Y-76000000D03*
X107500000Y-99000000D03*
X119750000Y-80300000D03*
X122250000Y-69750000D03*
X122750000Y-70250000D03*
X124300000Y-81800000D03*
X127000000Y-95250000D03*
X120500000Y-80300000D03*
X123250000Y-69750000D03*
X122750000Y-80300000D03*
X119000000Y-72000000D03*
X118500000Y-74500000D03*
X127000000Y-94250000D03*
X122050000Y-81050000D03*
X118500000Y-72500000D03*
X112750000Y-100750000D03*
X103980000Y-95960000D03*
X123550000Y-81800000D03*
X125000000Y-96250000D03*
X112750000Y-99250000D03*
X110750000Y-92750000D03*
X126000000Y-96250000D03*
D21*
X103250000Y-106250000D03*
D23*
X126000000Y-95250000D03*
X125500000Y-95750000D03*
X122000000Y-80300000D03*
X126000000Y-94250000D03*
X107500000Y-102000000D03*
X106750000Y-102000000D03*
X124250000Y-80300000D03*
X118500000Y-73500001D03*
X112750000Y-102250000D03*
X111250000Y-101500000D03*
X112750000Y-101500000D03*
X120550000Y-81050000D03*
X105000000Y-96000000D03*
X123550000Y-81050000D03*
X122800000Y-81050000D03*
X124300000Y-81050000D03*
X119800000Y-81050000D03*
X112000000Y-102250000D03*
X119000000Y-75000000D03*
X112000000Y-101500000D03*
X125000000Y-94250000D03*
X112000000Y-100750000D03*
X122050000Y-81800000D03*
X121300000Y-81050000D03*
X119000000Y-73000000D03*
X126500000Y-94750000D03*
X111250000Y-100750000D03*
X110000000Y-92750000D03*
X112000000Y-100000000D03*
X107500000Y-101250000D03*
X123500000Y-80300000D03*
X110000000Y-93500000D03*
X106000000Y-96000000D03*
X124250000Y-69750000D03*
X111250000Y-99250000D03*
X121300000Y-81800000D03*
X124750000Y-70250000D03*
X106750000Y-101250000D03*
X121250000Y-80300000D03*
X123750000Y-70250000D03*
D21*
X118850000Y-95050000D03*
D23*
X118999999Y-74000000D03*
X126500000Y-95750000D03*
X121750000Y-70250000D03*
X106750000Y-99750000D03*
X107500000Y-100500000D03*
X127000000Y-96250000D03*
X122800000Y-81800000D03*
X125000000Y-95250000D03*
X106750000Y-100500000D03*
X118500000Y-71500000D03*
X125500000Y-94750000D03*
X110250000Y-105750000D03*
X109250000Y-105750000D03*
X111250000Y-100000000D03*
X112000000Y-99250000D03*
X120750000Y-70250000D03*
D21*
%TO.N,+3V3*%
X113421594Y-73154527D03*
X132255025Y-91755025D03*
X105405000Y-105884052D03*
X108650000Y-79050000D03*
X128279289Y-87799389D03*
X103250000Y-107750000D03*
X127289339Y-88789339D03*
D20*
%TO.N,Net-(U3-VDD1A)*%
X124000000Y-97250000D03*
X128000000Y-97250000D03*
D21*
%TO.N,VBUS*%
X104250000Y-101500000D03*
X105250000Y-101500000D03*
X103250000Y-101500000D03*
D20*
%TO.N,/TX+*%
X125612500Y-100412500D03*
X122650001Y-100917109D03*
%TO.N,/RX+*%
X126925041Y-98073571D03*
X124000000Y-102600000D03*
%TO.N,/PHY_L2*%
X121686568Y-102936568D03*
X128959221Y-96209221D03*
D23*
%TO.N,/BOOT0*%
X128650000Y-82705000D03*
%TO.N,/ETH_RXD1*%
X115892299Y-78548795D03*
X129845404Y-86445405D03*
%TO.N,/ESP_IO34*%
X112500000Y-72273176D03*
%TO.N,/ESP_IO15*%
X127974441Y-82888366D03*
%TO.N,/ESP_IO13*%
X114148503Y-83604999D03*
%TO.N,/ESP_IO5*%
X116007092Y-75034274D03*
%TO.N,/ESP_IO4*%
X114960661Y-83639339D03*
%TO.N,/ESP_IO35*%
X115900000Y-73810000D03*
%TO.N,/ESP_IO33*%
X108600000Y-75430000D03*
X113575000Y-75975000D03*
%TO.N,/ESP_SENSOR_VP_IO36*%
X113750000Y-69950000D03*
%TO.N,/ESP_IO2*%
X108571522Y-74727357D03*
X127919209Y-85154999D03*
%TO.N,/ESP_IO12*%
X113554977Y-81951753D03*
%TO.N,/ESP_IO14*%
X112454977Y-77850000D03*
%TO.N,/ESP_SENSOR_VN_IO39*%
X115950002Y-70100000D03*
%TO.N,/PHY_RXER*%
X124812776Y-91200000D03*
X130250000Y-80803564D03*
%TO.N,/ETH_MDIO*%
X130650000Y-76350000D03*
X123211740Y-91817900D03*
%TO.N,/ETH_TXD0*%
X131050000Y-75250000D03*
X122733883Y-96138278D03*
%TO.N,/ETH_TXEN*%
X123000001Y-95450000D03*
X131150000Y-72540000D03*
%TO.N,/ETH_TXD1*%
X131125000Y-68730000D03*
X123300000Y-96550000D03*
%TO.N,/ETH_MDC*%
X124124024Y-93624024D03*
X131150000Y-67500000D03*
D20*
%TO.N,GND*%
X132900000Y-88350000D03*
D22*
X110700000Y-113700000D03*
%TD*%
D24*
%TO.N,/PHY_L2*%
X124248529Y-103200000D02*
X124600000Y-102848529D01*
X128959221Y-98479994D02*
X128959221Y-96209221D01*
X121686568Y-102936568D02*
X121950000Y-103200000D01*
X121950000Y-103200000D02*
X124248529Y-103200000D01*
X124600000Y-102839215D02*
X128959221Y-98479994D01*
X124600000Y-102848529D02*
X124600000Y-102839215D01*
%TO.N,/RX*%
X119095001Y-104694281D02*
X119095001Y-104113920D01*
X122818236Y-90867900D02*
X123549813Y-90867900D01*
X129200000Y-81662753D02*
X128900000Y-81362753D01*
X121650001Y-101558920D02*
X121650001Y-94890811D01*
X121650001Y-94890811D02*
X121950000Y-94590812D01*
X128900000Y-79934314D02*
X130000000Y-78834314D01*
X119095001Y-104113920D02*
X121650001Y-101558920D01*
X121950000Y-94590812D02*
X121950000Y-91736136D01*
X121950000Y-91736136D02*
X122818236Y-90867900D01*
X123549813Y-90867900D02*
X129200000Y-85217713D01*
X130000000Y-78834314D02*
X130000000Y-78177818D01*
X130000000Y-78177818D02*
X129350000Y-77527818D01*
X128900000Y-81362753D02*
X128900000Y-79934314D01*
X129350000Y-77527818D02*
X129350000Y-75350000D01*
X129200000Y-85217713D02*
X129200000Y-81662753D01*
X119397088Y-104996368D02*
X119095001Y-104694281D01*
X129350000Y-75350000D02*
X130400000Y-74300000D01*
%TO.N,/TX*%
X122050001Y-95056496D02*
X122350000Y-94756497D01*
X119645001Y-104129606D02*
X122050001Y-101724606D01*
X119645001Y-104341738D02*
X119645001Y-104129606D01*
X122050001Y-101724606D02*
X122050001Y-95056496D01*
X122350000Y-94756497D02*
X122350000Y-91901822D01*
X123715499Y-91267900D02*
X129600000Y-85383399D01*
X122350000Y-91901822D02*
X122983922Y-91267900D01*
X130400000Y-79000000D02*
X130400000Y-77800000D01*
X122983922Y-91267900D02*
X123715499Y-91267900D01*
X129600000Y-85383399D02*
X129600000Y-81497067D01*
X129600000Y-81497067D02*
X129300000Y-81197067D01*
X129300000Y-81197067D02*
X129300000Y-80100000D01*
X129300000Y-80100000D02*
X130400000Y-79000000D01*
X130400000Y-77800000D02*
X129900000Y-77300000D01*
%TO.N,/TX+*%
X125267892Y-100412500D02*
X125612500Y-100412500D01*
X124763283Y-100917109D02*
X125267892Y-100412500D01*
X122650001Y-100917109D02*
X124763283Y-100917109D01*
%TO.N,/EN*%
X112645707Y-92414343D02*
X113631364Y-93400000D01*
X113631364Y-93400000D02*
X113650123Y-93400000D01*
D25*
%TO.N,/RX*%
X107422473Y-109950000D02*
X107122473Y-110250000D01*
X107122473Y-110250000D02*
X104083634Y-110250000D01*
D24*
%TO.N,/TX*%
X106913927Y-109468976D02*
X104788240Y-109468976D01*
X104788240Y-109468976D02*
X104633633Y-109623583D01*
%TO.N,/BOOT0*%
X119230760Y-102737868D02*
X119862132Y-102737868D01*
X119862132Y-102737868D02*
X121250001Y-101349999D01*
X128800000Y-85052027D02*
X128800000Y-82855000D01*
X128800000Y-82855000D02*
X128650000Y-82705000D01*
X121250001Y-91870449D02*
X122652550Y-90467900D01*
X121250001Y-101349999D02*
X121250001Y-91870449D01*
X122652550Y-90467900D02*
X123384127Y-90467900D01*
X123384127Y-90467900D02*
X128800000Y-85052027D01*
%TO.N,/RX+*%
X126925041Y-99948488D02*
X126925041Y-98073571D01*
X124273529Y-102600000D02*
X126925041Y-99948488D01*
X124000000Y-102600000D02*
X124273529Y-102600000D01*
D26*
%TO.N,+3V3*%
X132255025Y-95840477D02*
X132255025Y-91755025D01*
X131895502Y-96200000D02*
X132255025Y-95840477D01*
X116582500Y-119422500D02*
X117660000Y-120500000D01*
X103250000Y-107750000D02*
X105115948Y-105884052D01*
X105115948Y-105884052D02*
X105405000Y-105884052D01*
X103250000Y-107750000D02*
X103250000Y-117950000D01*
X103250000Y-117950000D02*
X104722500Y-119422500D01*
X104722500Y-119422500D02*
X116582500Y-119422500D01*
X113421594Y-70821594D02*
X112400000Y-69800000D01*
X113421594Y-73154527D02*
X113421594Y-70821594D01*
D24*
%TO.N,/ESP_SENSOR_VP_IO36*%
X113750000Y-69950000D02*
X113750000Y-68431372D01*
X113750000Y-68431372D02*
X113568628Y-68250000D01*
X113568628Y-68250000D02*
X108998529Y-68250000D01*
X108998529Y-68250000D02*
X108488529Y-67740000D01*
X108488529Y-67740000D02*
X106800000Y-67740000D01*
%TO.N,/ESP_IO35*%
X115900000Y-73810000D02*
X116000000Y-73710000D01*
X107904215Y-66590000D02*
X105650000Y-66590000D01*
X116000000Y-73710000D02*
X116000000Y-70927816D01*
X115400002Y-69515688D02*
X113734314Y-67850000D01*
X113734314Y-67850000D02*
X109164215Y-67850000D01*
X116000000Y-70927816D02*
X115400002Y-70327818D01*
X115400002Y-70327818D02*
X115400002Y-69515688D01*
X109164215Y-67850000D02*
X107904215Y-66590000D01*
X105650000Y-66590000D02*
X104260000Y-65200000D01*
%TO.N,/ESP_SENSOR_VN_IO39*%
X115950002Y-70100000D02*
X115950002Y-69500002D01*
X115950002Y-69500002D02*
X113900000Y-67450000D01*
X107079901Y-65200000D02*
X106800000Y-65200000D01*
X113900000Y-67450000D02*
X109329901Y-67450000D01*
X109329901Y-67450000D02*
X107079901Y-65200000D01*
%TO.N,/ESP_IO34*%
X111959437Y-72273176D02*
X111120016Y-71433755D01*
X111120016Y-71221623D02*
X110709966Y-70811573D01*
X112500000Y-72273176D02*
X111959437Y-72273176D01*
X111120016Y-71433755D02*
X111120016Y-71221623D01*
X110709966Y-70811573D02*
X109011573Y-70811573D01*
X109011573Y-70811573D02*
X107200000Y-69000000D01*
X105520000Y-69000000D02*
X104260000Y-67740000D01*
X107200000Y-69000000D02*
X105520000Y-69000000D01*
%TO.N,/PHY_INT*%
X117599489Y-86390559D02*
X117599489Y-81705003D01*
X117779465Y-86570535D02*
X117599489Y-86390559D01*
X117599489Y-81705003D02*
X117749492Y-81555000D01*
%TO.N,/ETH_RXD0*%
X117017313Y-86586784D02*
X117049489Y-86554608D01*
X117049489Y-86554608D02*
X117049489Y-81555000D01*
%TO.N,/ETH_CRS_DV*%
X116250000Y-86650000D02*
X116500000Y-86400000D01*
X116500000Y-86400000D02*
X116500000Y-81812354D01*
X116500000Y-81812354D02*
X116264316Y-81576670D01*
%TO.N,/PHY_INT*%
X126201013Y-87085328D02*
X123601539Y-89684802D01*
X126201013Y-86873195D02*
X126201013Y-87085328D01*
X123601539Y-89684802D02*
X123206007Y-89684802D01*
D27*
%TO.N,+3V3*%
X128279289Y-87799389D02*
X127289339Y-88789339D01*
D24*
%TO.N,/ETH_RXD1*%
X129700000Y-81031381D02*
X129700000Y-80575746D01*
X130093413Y-80182333D02*
X130093413Y-80121300D01*
X129845404Y-86445405D02*
X129845404Y-86388910D01*
X130000000Y-86234314D02*
X130000000Y-81331381D01*
X129700000Y-80575746D02*
X130093413Y-80182333D01*
X130000000Y-81331381D02*
X129700000Y-81031381D01*
X129845404Y-86388910D02*
X130000000Y-86234314D01*
%TO.N,/ESP_IO2*%
X127400000Y-84635790D02*
X127400000Y-81224100D01*
X127919209Y-85154999D02*
X127400000Y-84635790D01*
X127913917Y-80710183D02*
X127913917Y-79285308D01*
X127400000Y-81224100D02*
X127913917Y-80710183D01*
%TO.N,/PHY_RXER*%
X130400000Y-86668628D02*
X130400000Y-80953564D01*
X124812776Y-91200000D02*
X125868628Y-91200000D01*
X130400000Y-80953564D02*
X130250000Y-80803564D01*
X125868628Y-91200000D02*
X130400000Y-86668628D01*
%TO.N,/ETH_MDC*%
X124124024Y-93624024D02*
X124274024Y-93474024D01*
X124274024Y-93474024D02*
X126423034Y-93474024D01*
X126423034Y-93474024D02*
X132400000Y-87497058D01*
X132400000Y-87497058D02*
X132400000Y-68750000D01*
X132400000Y-68750000D02*
X131150000Y-67500000D01*
%TO.N,/ETH_TXD1*%
X131125000Y-68730000D02*
X132000000Y-69605000D01*
X123896206Y-93074024D02*
X123550000Y-93420230D01*
X132000000Y-87331372D02*
X126257348Y-93074024D01*
X132000000Y-69605000D02*
X132000000Y-87331372D01*
X126257348Y-93074024D02*
X123896206Y-93074024D01*
X123550000Y-96300000D02*
X123300000Y-96550000D01*
X123550000Y-93420230D02*
X123550000Y-96300000D01*
%TO.N,/ETH_TXEN*%
X123000001Y-95450000D02*
X123150000Y-95300001D01*
X123150000Y-95300001D02*
X123150000Y-93254544D01*
X123730520Y-92674024D02*
X126091662Y-92674024D01*
X123150000Y-93254544D02*
X123730520Y-92674024D01*
X126091662Y-92674024D02*
X131600000Y-87165686D01*
X131600000Y-87165686D02*
X131600000Y-72990000D01*
X131600000Y-72990000D02*
X131150000Y-72540000D01*
%TO.N,/ETH_TXD0*%
X122733883Y-96138278D02*
X122450001Y-95854396D01*
X131200000Y-87000000D02*
X131200000Y-75400000D01*
X122450001Y-95854396D02*
X122450001Y-95222182D01*
X122750000Y-94922183D02*
X122750000Y-93088858D01*
X123564834Y-92274024D02*
X125925976Y-92274024D01*
X122750000Y-93088858D02*
X123564834Y-92274024D01*
X122450001Y-95222182D02*
X122750000Y-94922183D01*
X125925976Y-92274024D02*
X131200000Y-87000000D01*
X131200000Y-75400000D02*
X131050000Y-75250000D01*
%TO.N,/ETH_MDIO*%
X123211740Y-91817900D02*
X123279640Y-91750000D01*
X123279640Y-91750000D02*
X125884314Y-91750000D01*
X130800000Y-76500000D02*
X130650000Y-76350000D01*
X125884314Y-91750000D02*
X130800000Y-86834314D01*
X130800000Y-86834314D02*
X130800000Y-76500000D01*
%TO.N,/ESP_IO15*%
X128625396Y-79431101D02*
X128500000Y-79556497D01*
X128500000Y-80689786D02*
X127842603Y-81347183D01*
X128500000Y-79556497D02*
X128500000Y-80689786D01*
X127842603Y-81347183D02*
X127842603Y-81802819D01*
X127842603Y-81802819D02*
X127974441Y-81934657D01*
X127974441Y-81934657D02*
X127974441Y-82888366D01*
%TO.N,/BOOT0*%
X128392603Y-81575001D02*
X128800000Y-81982398D01*
X128800000Y-82555000D02*
X128650000Y-82705000D01*
X128800000Y-81982398D02*
X128800000Y-82555000D01*
%TO.N,/ESP_IO2*%
X115782718Y-79782718D02*
X117400000Y-79782718D01*
X114941094Y-78941094D02*
X115782718Y-79782718D01*
%TO.N,/ESP_IO15*%
X117408172Y-79098795D02*
X117423845Y-79083122D01*
X115664481Y-79098795D02*
X117408172Y-79098795D01*
X115615686Y-79050000D02*
X115664481Y-79098795D01*
%TO.N,/ETH_RXD1*%
X117293477Y-78548795D02*
X117542272Y-78300000D01*
X115892299Y-78548795D02*
X117293477Y-78548795D01*
%TO.N,/TX*%
X104633633Y-109623583D02*
X104633633Y-108222003D01*
X108450000Y-96000000D02*
X109500000Y-94950000D01*
X108450000Y-104405636D02*
X108450000Y-96000000D01*
%TO.N,/RX*%
X104083634Y-110250000D02*
X104083634Y-108206316D01*
X104083634Y-108206316D02*
X108050000Y-104239950D01*
X108050000Y-104239950D02*
X108050000Y-95601698D01*
X108050000Y-95601698D02*
X109393560Y-94258138D01*
%TO.N,/ESP_IO5*%
X116007092Y-75034274D02*
X115801546Y-75034274D01*
X115392272Y-74625000D02*
X109812669Y-74625000D01*
X108965026Y-73777357D02*
X107757356Y-73777357D01*
X107757356Y-73777357D02*
X106800000Y-72820001D01*
X115801546Y-75034274D02*
X115392272Y-74625000D01*
X109812669Y-74625000D02*
X108965026Y-73777357D01*
%TO.N,/BOOT0*%
X115950000Y-82572182D02*
X115950000Y-83427818D01*
X115950000Y-83427818D02*
X114822819Y-84554999D01*
X113754999Y-84554999D02*
X110650000Y-81450000D01*
X114822819Y-84554999D02*
X113754999Y-84554999D01*
X110650000Y-81450000D02*
X110650000Y-81140000D01*
%TO.N,/ESP_IO4*%
X114960661Y-83639339D02*
X114445001Y-84154999D01*
X114445001Y-84154999D02*
X113920685Y-84154999D01*
X111875000Y-79875000D02*
X106235000Y-79875000D01*
X113920685Y-84154999D02*
X112604977Y-82839291D01*
X112604977Y-82839291D02*
X112604977Y-80604977D01*
X112604977Y-80604977D02*
X111875000Y-79875000D01*
X106235000Y-79875000D02*
X104260000Y-77900000D01*
%TO.N,/ESP_IO13*%
X114004999Y-83604999D02*
X113004977Y-82604977D01*
X114148503Y-83604999D02*
X114004999Y-83604999D01*
X113004977Y-82604977D02*
X113004977Y-76920663D01*
X105525000Y-76625000D02*
X104260000Y-75360000D01*
X113004977Y-76920663D02*
X112709314Y-76625000D01*
X112709314Y-76625000D02*
X105525000Y-76625000D01*
%TO.N,/ESP_IO14*%
X111825000Y-77025000D02*
X107675000Y-77025000D01*
X112454977Y-77850000D02*
X112454977Y-77654977D01*
X112454977Y-77654977D02*
X111825000Y-77025000D01*
X107675000Y-77025000D02*
X106800000Y-77900000D01*
%TO.N,/ESP_IO12*%
X113554977Y-81951753D02*
X113499999Y-81896775D01*
X113499999Y-81896775D02*
X113499999Y-76849999D01*
X112875000Y-76225000D02*
X107665000Y-76225000D01*
X113499999Y-76849999D02*
X112875000Y-76225000D01*
X107665000Y-76225000D02*
X106800000Y-75360000D01*
%TO.N,/ESP_IO33*%
X113425000Y-75825000D02*
X108995000Y-75825000D01*
X108995000Y-75825000D02*
X108600000Y-75430000D01*
X113575000Y-75975000D02*
X113425000Y-75825000D01*
%TO.N,/ESP_IO2*%
X114941094Y-75856780D02*
X114509314Y-75425000D01*
X114941094Y-78941094D02*
X114941094Y-75856780D01*
X114509314Y-75425000D02*
X109372818Y-75425000D01*
X109372818Y-75425000D02*
X108675175Y-74727357D01*
X108675175Y-74727357D02*
X108571522Y-74727357D01*
%TO.N,/ESP_IO15*%
X115341094Y-75691094D02*
X114675000Y-75025000D01*
X106377357Y-74177357D02*
X105525000Y-73325000D01*
X108799340Y-74177357D02*
X106377357Y-74177357D01*
X109646983Y-75025000D02*
X108799340Y-74177357D01*
X115341094Y-78775408D02*
X115341094Y-75691094D01*
X115615686Y-79050000D02*
X115341094Y-78775408D01*
X114675000Y-75025000D02*
X109646983Y-75025000D01*
X105525000Y-73325000D02*
X105525000Y-71545000D01*
X105525000Y-71545000D02*
X104260000Y-70280000D01*
D26*
%TO.N,+3V3*%
X123195013Y-97875000D02*
X123320013Y-98000000D01*
X123320013Y-98000000D02*
X124455256Y-98000000D01*
X124455256Y-98000000D02*
X125050000Y-98594744D01*
X108650000Y-79050000D02*
X109200000Y-78500000D01*
X109200000Y-78500000D02*
X110550000Y-78500000D01*
X110550000Y-78500000D02*
X110650000Y-78600000D01*
D24*
%TO.N,/BOOT0*%
X110650000Y-81427818D02*
X110650000Y-81140000D01*
D26*
%TO.N,VBUS*%
X103000000Y-100250000D02*
X103250000Y-100500000D01*
X104300000Y-84140000D02*
X103000000Y-85440000D01*
X103000000Y-85440000D02*
X103000000Y-100250000D01*
D24*
%TO.N,/ESP_IO14*%
X106800000Y-77820000D02*
X106800000Y-77900000D01*
X107350000Y-77270000D02*
X106800000Y-77820000D01*
D26*
%TO.N,VBUS*%
X105250000Y-101500000D02*
X104860000Y-101500000D01*
X104860000Y-101500000D02*
X103000000Y-99640000D01*
X103160000Y-100410000D02*
X103210000Y-100410000D01*
X104250000Y-101450000D02*
X104250000Y-101500000D01*
X103210000Y-100410000D02*
X104250000Y-101450000D01*
X103250000Y-101500000D02*
X103250000Y-100500000D01*
X103250000Y-100500000D02*
X103160000Y-100410000D01*
X104250000Y-101500000D02*
X103250000Y-101500000D01*
D24*
%TO.N,Net-(U3-VDD1A)*%
X124250000Y-97000000D02*
X124000000Y-97250000D01*
X127750000Y-97000000D02*
X124250000Y-97000000D01*
X128000000Y-97250000D02*
X127750000Y-97000000D01*
D26*
%TO.N,VBUS*%
X105250000Y-101500000D02*
X104250000Y-101500000D01*
D24*
%TO.N,/TX*%
X104633633Y-108222003D02*
X108450000Y-104405636D01*
%TD*%
%TA.AperFunction,Conductor*%
%TO.N,VBUS*%
G36*
X108193039Y-80519685D02*
G01*
X108238794Y-80572489D01*
X108250000Y-80624000D01*
X108250000Y-84870500D01*
X108230315Y-84937539D01*
X108177511Y-84983294D01*
X108126000Y-84994500D01*
X104001350Y-84994500D01*
X103893913Y-85006052D01*
X103893908Y-85006053D01*
X103759107Y-85056332D01*
X103643926Y-85142557D01*
X103643922Y-85142560D01*
X103617515Y-85168968D01*
X103572800Y-85213682D01*
X103511480Y-85247166D01*
X103485121Y-85250000D01*
X103374000Y-85250000D01*
X103306961Y-85230315D01*
X103261206Y-85177511D01*
X103250000Y-85126000D01*
X103250000Y-80624000D01*
X103269685Y-80556961D01*
X103322489Y-80511206D01*
X103374000Y-80500000D01*
X108126000Y-80500000D01*
X108193039Y-80519685D01*
G37*
%TD.AperFunction*%
%TD*%
%TA.AperFunction,Conductor*%
%TO.N,+3V3*%
G36*
X108193039Y-90775185D02*
G01*
X108238794Y-90827989D01*
X108250000Y-90879500D01*
X108250000Y-94501100D01*
X108230315Y-94568139D01*
X108213681Y-94588781D01*
X107681286Y-95121176D01*
X107681284Y-95121178D01*
X107620677Y-95181785D01*
X107588780Y-95213682D01*
X107527456Y-95247166D01*
X107501099Y-95250000D01*
X106053547Y-95250000D01*
X106039663Y-95249220D01*
X106003861Y-95245186D01*
X106000001Y-95244751D01*
X105999999Y-95244751D01*
X105996139Y-95245186D01*
X105960336Y-95249220D01*
X105946453Y-95250000D01*
X105053547Y-95250000D01*
X105039663Y-95249220D01*
X105003861Y-95245186D01*
X105000001Y-95244751D01*
X104999999Y-95244751D01*
X104996139Y-95245186D01*
X104960336Y-95249220D01*
X104946453Y-95250000D01*
X104244327Y-95250000D01*
X104203373Y-95243042D01*
X104148057Y-95223686D01*
X104148054Y-95223685D01*
X103980003Y-95204751D01*
X103979996Y-95204751D01*
X103888383Y-95215073D01*
X103819561Y-95203018D01*
X103768182Y-95155669D01*
X103750500Y-95091853D01*
X103750500Y-90879500D01*
X103770185Y-90812461D01*
X103822989Y-90766706D01*
X103874500Y-90755500D01*
X108126000Y-90755500D01*
X108193039Y-90775185D01*
G37*
%TD.AperFunction*%
%TD*%
%TA.AperFunction,Conductor*%
%TO.N,GND*%
G36*
X102955703Y-118717516D02*
G01*
X102962181Y-118723548D01*
X104062149Y-119823516D01*
X104095634Y-119884839D01*
X104090650Y-119954531D01*
X104089029Y-119958649D01*
X104038430Y-120080806D01*
X104038427Y-120080818D01*
X104000000Y-120274004D01*
X104000000Y-120522500D01*
X104700000Y-120522500D01*
X104700000Y-121022500D01*
X104000000Y-121022500D01*
X104000000Y-121270992D01*
X104015976Y-121351308D01*
X104009749Y-121420900D01*
X103966886Y-121476077D01*
X103900996Y-121499322D01*
X103894359Y-121499500D01*
X102874500Y-121499500D01*
X102807461Y-121479815D01*
X102761706Y-121427011D01*
X102750500Y-121375500D01*
X102750500Y-118811229D01*
X102770185Y-118744190D01*
X102822989Y-118698435D01*
X102892147Y-118688491D01*
X102955703Y-118717516D01*
G37*
%TD.AperFunction*%
%TA.AperFunction,Conductor*%
G36*
X112583039Y-120192685D02*
G01*
X112628794Y-120245489D01*
X112640000Y-120297000D01*
X112640000Y-120522500D01*
X113340000Y-120522500D01*
X113340000Y-121022500D01*
X112640000Y-121022500D01*
X112640000Y-121270992D01*
X112655976Y-121351308D01*
X112649749Y-121420900D01*
X112606886Y-121476077D01*
X112540996Y-121499322D01*
X112534359Y-121499500D01*
X106105641Y-121499500D01*
X106038602Y-121479815D01*
X105992847Y-121427011D01*
X105982903Y-121357853D01*
X105984024Y-121351308D01*
X105999999Y-121270992D01*
X106000000Y-121270992D01*
X106000000Y-121022500D01*
X105300000Y-121022500D01*
X105300000Y-120522500D01*
X106000000Y-120522500D01*
X106000000Y-120297000D01*
X106019685Y-120229961D01*
X106072489Y-120184206D01*
X106124000Y-120173000D01*
X112516000Y-120173000D01*
X112583039Y-120192685D01*
G37*
%TD.AperFunction*%
%TA.AperFunction,Conductor*%
G36*
X116287308Y-120192685D02*
G01*
X116307949Y-120209318D01*
X116365589Y-120266957D01*
X116399075Y-120328280D01*
X116401437Y-120365446D01*
X116389666Y-120499997D01*
X116389666Y-120500001D01*
X116408964Y-120720585D01*
X116408965Y-120720592D01*
X116466275Y-120934475D01*
X116466279Y-120934486D01*
X116507321Y-121022500D01*
X116559858Y-121135167D01*
X116678341Y-121304378D01*
X116700668Y-121370582D01*
X116683658Y-121438349D01*
X116632710Y-121486163D01*
X116576766Y-121499500D01*
X114745641Y-121499500D01*
X114678602Y-121479815D01*
X114632847Y-121427011D01*
X114622903Y-121357853D01*
X114624024Y-121351308D01*
X114639999Y-121270992D01*
X114640000Y-121270992D01*
X114640000Y-121022500D01*
X113940000Y-121022500D01*
X113940000Y-120522500D01*
X114640000Y-120522500D01*
X114640000Y-120297000D01*
X114659685Y-120229961D01*
X114712489Y-120184206D01*
X114764000Y-120173000D01*
X116220269Y-120173000D01*
X116287308Y-120192685D01*
G37*
%TD.AperFunction*%
%TA.AperFunction,Conductor*%
G36*
X133692539Y-64664685D02*
G01*
X133738294Y-64717489D01*
X133749500Y-64769000D01*
X133749500Y-111620486D01*
X133729815Y-111687525D01*
X133677011Y-111733280D01*
X133607853Y-111743224D01*
X133544297Y-111714199D01*
X133518113Y-111682487D01*
X133457184Y-111576957D01*
X133412557Y-111520995D01*
X132757326Y-112176225D01*
X132752243Y-112163953D01*
X132663051Y-112030468D01*
X132549532Y-111916949D01*
X132416047Y-111827757D01*
X132403773Y-111822672D01*
X133059377Y-111167068D01*
X132893665Y-111054088D01*
X132893657Y-111054083D01*
X132661067Y-110942075D01*
X132661069Y-110942075D01*
X132414375Y-110865980D01*
X132414369Y-110865979D01*
X132159089Y-110827500D01*
X131900910Y-110827500D01*
X131645630Y-110865979D01*
X131645624Y-110865980D01*
X131398931Y-110942075D01*
X131166340Y-111054085D01*
X131166327Y-111054092D01*
X131000621Y-111167067D01*
X131656226Y-111822672D01*
X131643953Y-111827757D01*
X131510468Y-111916949D01*
X131396949Y-112030468D01*
X131307757Y-112163953D01*
X131302673Y-112176226D01*
X130647442Y-111520996D01*
X130602812Y-111576960D01*
X130473729Y-111800539D01*
X130379412Y-112040855D01*
X130379406Y-112040874D01*
X130321962Y-112292554D01*
X130321962Y-112292556D01*
X130302670Y-112549995D01*
X130302670Y-112550004D01*
X130321962Y-112807443D01*
X130321962Y-112807445D01*
X130379406Y-113059125D01*
X130379412Y-113059144D01*
X130473729Y-113299460D01*
X130473728Y-113299460D01*
X130602813Y-113523039D01*
X130668897Y-113605906D01*
X130695305Y-113670593D01*
X130682550Y-113739288D01*
X130634679Y-113790182D01*
X130566893Y-113807116D01*
X130539857Y-113802994D01*
X130492041Y-113790182D01*
X130366677Y-113756591D01*
X130325939Y-113751227D01*
X130122934Y-113724500D01*
X130122927Y-113724500D01*
X129877073Y-113724500D01*
X129877065Y-113724500D01*
X129645059Y-113755045D01*
X129633323Y-113756591D01*
X129507959Y-113790182D01*
X129395847Y-113820222D01*
X129395837Y-113820225D01*
X129168714Y-113914303D01*
X129168705Y-113914307D01*
X128955787Y-114037236D01*
X128760745Y-114186897D01*
X128760738Y-114186903D01*
X128586903Y-114360738D01*
X128586897Y-114360745D01*
X128437236Y-114555787D01*
X128314307Y-114768705D01*
X128314303Y-114768714D01*
X128220225Y-114995837D01*
X128220222Y-114995847D01*
X128156592Y-115233320D01*
X128156590Y-115233331D01*
X128124500Y-115477065D01*
X128124500Y-115722934D01*
X128134968Y-115802441D01*
X128156591Y-115966677D01*
X128156592Y-115966679D01*
X128220222Y-116204152D01*
X128220225Y-116204162D01*
X128314303Y-116431285D01*
X128314307Y-116431294D01*
X128325856Y-116451297D01*
X128437233Y-116644208D01*
X128437235Y-116644211D01*
X128437236Y-116644212D01*
X128586897Y-116839254D01*
X128586903Y-116839261D01*
X128760738Y-117013096D01*
X128760745Y-117013102D01*
X128875335Y-117101030D01*
X128955792Y-117162767D01*
X129168708Y-117285694D01*
X129395847Y-117379778D01*
X129633323Y-117443409D01*
X129877073Y-117475500D01*
X129877080Y-117475500D01*
X130122920Y-117475500D01*
X130122927Y-117475500D01*
X130366677Y-117443409D01*
X130604153Y-117379778D01*
X130831292Y-117285694D01*
X131044208Y-117162767D01*
X131239256Y-117013101D01*
X131413101Y-116839256D01*
X131562767Y-116644208D01*
X131685694Y-116431292D01*
X131779778Y-116204153D01*
X131843409Y-115966677D01*
X131875500Y-115722927D01*
X131875500Y-115477073D01*
X131843409Y-115233323D01*
X131779778Y-114995847D01*
X131685694Y-114768708D01*
X131562767Y-114555792D01*
X131450443Y-114409409D01*
X131425250Y-114344241D01*
X131439288Y-114275797D01*
X131488102Y-114225807D01*
X131556193Y-114210143D01*
X131585371Y-114215433D01*
X131645629Y-114234020D01*
X131900910Y-114272499D01*
X131900917Y-114272500D01*
X132159083Y-114272500D01*
X132159089Y-114272499D01*
X132414369Y-114234020D01*
X132414375Y-114234019D01*
X132661068Y-114157924D01*
X132893657Y-114045916D01*
X132893658Y-114045915D01*
X133059377Y-113932930D01*
X132403773Y-113277326D01*
X132416047Y-113272243D01*
X132549532Y-113183051D01*
X132663051Y-113069532D01*
X132752243Y-112936047D01*
X132757326Y-112923773D01*
X133412556Y-113579003D01*
X133457187Y-113523039D01*
X133518113Y-113417513D01*
X133568680Y-113369297D01*
X133637287Y-113356074D01*
X133702152Y-113382043D01*
X133742680Y-113438957D01*
X133749500Y-113479513D01*
X133749500Y-121375500D01*
X133729815Y-121442539D01*
X133677011Y-121488294D01*
X133625500Y-121499500D01*
X131993234Y-121499500D01*
X131926195Y-121479815D01*
X131880440Y-121427011D01*
X131870496Y-121357853D01*
X131891657Y-121304378D01*
X132010142Y-121135167D01*
X132103723Y-120934480D01*
X132161035Y-120720591D01*
X132180334Y-120500000D01*
X132161035Y-120279409D01*
X132103723Y-120065520D01*
X132091574Y-120039467D01*
X132051968Y-119954531D01*
X132010142Y-119864833D01*
X131883132Y-119683445D01*
X131726555Y-119526868D01*
X131545167Y-119399858D01*
X131545163Y-119399856D01*
X131344486Y-119306279D01*
X131344475Y-119306275D01*
X131130592Y-119248965D01*
X131130585Y-119248964D01*
X130910002Y-119229666D01*
X130909998Y-119229666D01*
X130689414Y-119248964D01*
X130689407Y-119248965D01*
X130475524Y-119306275D01*
X130475513Y-119306279D01*
X130274836Y-119399856D01*
X130274834Y-119399857D01*
X130093444Y-119526868D01*
X129936868Y-119683444D01*
X129809857Y-119864833D01*
X129752106Y-119988683D01*
X129705934Y-120041122D01*
X129638740Y-120060274D01*
X129571859Y-120040058D01*
X129527342Y-119988683D01*
X129469707Y-119865085D01*
X129469706Y-119865083D01*
X129423894Y-119799657D01*
X129423894Y-119799656D01*
X128861127Y-120362422D01*
X128845245Y-120303147D01*
X128778102Y-120186853D01*
X128683147Y-120091898D01*
X128566853Y-120024755D01*
X128507575Y-120008872D01*
X129070342Y-119446105D01*
X129070341Y-119446103D01*
X129004919Y-119400295D01*
X128804309Y-119306749D01*
X128804300Y-119306745D01*
X128590509Y-119249461D01*
X128590499Y-119249459D01*
X128370001Y-119230168D01*
X128369999Y-119230168D01*
X128149500Y-119249459D01*
X128149490Y-119249461D01*
X127935699Y-119306745D01*
X127935690Y-119306749D01*
X127735084Y-119400293D01*
X127669657Y-119446104D01*
X128232424Y-120008871D01*
X128173147Y-120024755D01*
X128056853Y-120091898D01*
X127961898Y-120186853D01*
X127894755Y-120303147D01*
X127878871Y-120362424D01*
X127316104Y-119799657D01*
X127270293Y-119865084D01*
X127176749Y-120065690D01*
X127176745Y-120065699D01*
X127119461Y-120279490D01*
X127119459Y-120279500D01*
X127100168Y-120499999D01*
X127100168Y-120500000D01*
X127119459Y-120720499D01*
X127119461Y-120720509D01*
X127176745Y-120934300D01*
X127176749Y-120934309D01*
X127270293Y-121134916D01*
X127270297Y-121134922D01*
X127388951Y-121304376D01*
X127411279Y-121370582D01*
X127394269Y-121438349D01*
X127343322Y-121486163D01*
X127287377Y-121499500D01*
X121283234Y-121499500D01*
X121216195Y-121479815D01*
X121170440Y-121427011D01*
X121160496Y-121357853D01*
X121181657Y-121304378D01*
X121300142Y-121135167D01*
X121393723Y-120934480D01*
X121451035Y-120720591D01*
X121470334Y-120500000D01*
X121451035Y-120279409D01*
X121393723Y-120065520D01*
X121381574Y-120039467D01*
X121341968Y-119954531D01*
X121300142Y-119864833D01*
X121173132Y-119683445D01*
X121016555Y-119526868D01*
X120835167Y-119399858D01*
X120835163Y-119399856D01*
X120634486Y-119306279D01*
X120634475Y-119306275D01*
X120420592Y-119248965D01*
X120420585Y-119248964D01*
X120200002Y-119229666D01*
X120199998Y-119229666D01*
X119979414Y-119248964D01*
X119979407Y-119248965D01*
X119765524Y-119306275D01*
X119765513Y-119306279D01*
X119564836Y-119399856D01*
X119564834Y-119399857D01*
X119383444Y-119526868D01*
X119226868Y-119683444D01*
X119099857Y-119864834D01*
X119099856Y-119864836D01*
X119042382Y-119988091D01*
X118996210Y-120040531D01*
X118929017Y-120059683D01*
X118862135Y-120039467D01*
X118817618Y-119988091D01*
X118789050Y-119926828D01*
X118760142Y-119864833D01*
X118633132Y-119683445D01*
X118476555Y-119526868D01*
X118295167Y-119399858D01*
X118295163Y-119399856D01*
X118094486Y-119306279D01*
X118094475Y-119306275D01*
X117880592Y-119248965D01*
X117880585Y-119248964D01*
X117660002Y-119229666D01*
X117659998Y-119229666D01*
X117525445Y-119241437D01*
X117456945Y-119227670D01*
X117426957Y-119205590D01*
X117060921Y-118839552D01*
X117060914Y-118839546D01*
X116987229Y-118790312D01*
X116987229Y-118790313D01*
X116937991Y-118757413D01*
X116801417Y-118700843D01*
X116801407Y-118700840D01*
X116656420Y-118672000D01*
X116656418Y-118672000D01*
X105084729Y-118672000D01*
X105017690Y-118652315D01*
X104997048Y-118635681D01*
X104694177Y-118332810D01*
X104660692Y-118271487D01*
X104665676Y-118201795D01*
X104704721Y-118149638D01*
X104704665Y-118149570D01*
X104704942Y-118149341D01*
X104707548Y-118145862D01*
X104710545Y-118144744D01*
X104750000Y-118112363D01*
X104750000Y-117309499D01*
X104759940Y-117326716D01*
X104815795Y-117382571D01*
X104884204Y-117422067D01*
X104960504Y-117442511D01*
X105039496Y-117442511D01*
X105115796Y-117422067D01*
X105184205Y-117382571D01*
X105240060Y-117326716D01*
X105250000Y-117309499D01*
X105250000Y-118112362D01*
X105291690Y-118104069D01*
X105291692Y-118104069D01*
X105473671Y-118028692D01*
X105473684Y-118028685D01*
X105637462Y-117919251D01*
X105637466Y-117919248D01*
X105781059Y-117775656D01*
X105782455Y-117777052D01*
X105832658Y-117742829D01*
X105902501Y-117740932D01*
X105939695Y-117757709D01*
X105955878Y-117768521D01*
X105959842Y-117771284D01*
X106014976Y-117811342D01*
X106020248Y-117813689D01*
X106020259Y-117813694D01*
X106038714Y-117823871D01*
X106038763Y-117823903D01*
X106038979Y-117824048D01*
X106102630Y-117850412D01*
X106105514Y-117851651D01*
X106173501Y-117881922D01*
X106177813Y-117883323D01*
X106183225Y-117885020D01*
X106183381Y-117884507D01*
X106189208Y-117886274D01*
X106189211Y-117886276D01*
X106262931Y-117900939D01*
X106264390Y-117901240D01*
X106343236Y-117918000D01*
X106516763Y-117918000D01*
X106516764Y-117918000D01*
X106595626Y-117901236D01*
X106597051Y-117900943D01*
X106670789Y-117886276D01*
X106670794Y-117886273D01*
X106670798Y-117886273D01*
X106676627Y-117884505D01*
X106676782Y-117885016D01*
X106682255Y-117883300D01*
X106686495Y-117881923D01*
X106686495Y-117881922D01*
X106686499Y-117881922D01*
X106754494Y-117851647D01*
X106757358Y-117850417D01*
X106821021Y-117824048D01*
X106821274Y-117823878D01*
X106839742Y-117813693D01*
X106845024Y-117811342D01*
X106900163Y-117771279D01*
X106904127Y-117768518D01*
X106951546Y-117736834D01*
X106956225Y-117733708D01*
X106960870Y-117729062D01*
X106975667Y-117716423D01*
X106985410Y-117709345D01*
X107026852Y-117663317D01*
X107031283Y-117658648D01*
X107071208Y-117618725D01*
X107078340Y-117608049D01*
X107089285Y-117593977D01*
X107101522Y-117580389D01*
X107129373Y-117532147D01*
X107133633Y-117525296D01*
X107161548Y-117483521D01*
X107168846Y-117465902D01*
X107176017Y-117451359D01*
X107188286Y-117430111D01*
X107203577Y-117383048D01*
X107206932Y-117373953D01*
X107223776Y-117333289D01*
X107228715Y-117308457D01*
X107232401Y-117294335D01*
X107235208Y-117285696D01*
X107241908Y-117265076D01*
X107246427Y-117222076D01*
X107248125Y-117210873D01*
X107255500Y-117173805D01*
X107255500Y-117142261D01*
X107256179Y-117129300D01*
X107260047Y-117092500D01*
X107260047Y-117092499D01*
X111379953Y-117092499D01*
X111383821Y-117129300D01*
X111384500Y-117142261D01*
X111384500Y-117173809D01*
X111391868Y-117210851D01*
X111393571Y-117222076D01*
X111398091Y-117265072D01*
X111398091Y-117265074D01*
X111398092Y-117265076D01*
X111403262Y-117280990D01*
X111407601Y-117294344D01*
X111411285Y-117308463D01*
X111416224Y-117333291D01*
X111433057Y-117373932D01*
X111436425Y-117383062D01*
X111451711Y-117430105D01*
X111451712Y-117430108D01*
X111451714Y-117430111D01*
X111463975Y-117451349D01*
X111463982Y-117451360D01*
X111471154Y-117465904D01*
X111478450Y-117483518D01*
X111478451Y-117483520D01*
X111478452Y-117483521D01*
X111506344Y-117525264D01*
X111510627Y-117532151D01*
X111538476Y-117580386D01*
X111538480Y-117580391D01*
X111550715Y-117593980D01*
X111561666Y-117608060D01*
X111568793Y-117618727D01*
X111568794Y-117618728D01*
X111608697Y-117658630D01*
X111613168Y-117663341D01*
X111654588Y-117709344D01*
X111664325Y-117716418D01*
X111679123Y-117729057D01*
X111683770Y-117733704D01*
X111683773Y-117733706D01*
X111683775Y-117733708D01*
X111735878Y-117768521D01*
X111739843Y-117771284D01*
X111794976Y-117811342D01*
X111800248Y-117813689D01*
X111800259Y-117813694D01*
X111818714Y-117823871D01*
X111818763Y-117823903D01*
X111818979Y-117824048D01*
X111882630Y-117850412D01*
X111885514Y-117851651D01*
X111953501Y-117881922D01*
X111957813Y-117883323D01*
X111963225Y-117885020D01*
X111963381Y-117884507D01*
X111969208Y-117886274D01*
X111969211Y-117886276D01*
X112042931Y-117900939D01*
X112044390Y-117901240D01*
X112123236Y-117918000D01*
X112296763Y-117918000D01*
X112296764Y-117918000D01*
X112375626Y-117901236D01*
X112377051Y-117900943D01*
X112450789Y-117886276D01*
X112450794Y-117886273D01*
X112450798Y-117886273D01*
X112456627Y-117884505D01*
X112456782Y-117885016D01*
X112462255Y-117883300D01*
X112466495Y-117881923D01*
X112466495Y-117881922D01*
X112466499Y-117881922D01*
X112534494Y-117851647D01*
X112537358Y-117850417D01*
X112601021Y-117824048D01*
X112601274Y-117823878D01*
X112619742Y-117813693D01*
X112625024Y-117811342D01*
X112680163Y-117771279D01*
X112684126Y-117768518D01*
X112700300Y-117757711D01*
X112766977Y-117736834D01*
X112834357Y-117755319D01*
X112858321Y-117776275D01*
X112858941Y-117775656D01*
X113002533Y-117919248D01*
X113002537Y-117919251D01*
X113166315Y-118028685D01*
X113166328Y-118028692D01*
X113348308Y-118104069D01*
X113390000Y-118112362D01*
X113390000Y-117309487D01*
X113399940Y-117326704D01*
X113455795Y-117382559D01*
X113524204Y-117422055D01*
X113600504Y-117442499D01*
X113679496Y-117442499D01*
X113755796Y-117422055D01*
X113824205Y-117382559D01*
X113880060Y-117326704D01*
X113890000Y-117309487D01*
X113890000Y-118112362D01*
X113931690Y-118104069D01*
X113931692Y-118104069D01*
X114113671Y-118028692D01*
X114113684Y-118028685D01*
X114277462Y-117919251D01*
X114277466Y-117919248D01*
X114416748Y-117779966D01*
X114416751Y-117779962D01*
X114526185Y-117616184D01*
X114526192Y-117616171D01*
X114601569Y-117434193D01*
X114601572Y-117434181D01*
X114639999Y-117240995D01*
X114640000Y-117240992D01*
X114640000Y-116842500D01*
X113940000Y-116842500D01*
X113940000Y-116342500D01*
X114640000Y-116342500D01*
X114640000Y-115944008D01*
X114639999Y-115944004D01*
X114601572Y-115750818D01*
X114601569Y-115750806D01*
X114526192Y-115568828D01*
X114526185Y-115568815D01*
X114416751Y-115405037D01*
X114416748Y-115405033D01*
X114277466Y-115265751D01*
X114277462Y-115265748D01*
X114113684Y-115156314D01*
X114113671Y-115156307D01*
X113931691Y-115080929D01*
X113931683Y-115080927D01*
X113890000Y-115072635D01*
X113890000Y-115875512D01*
X113880060Y-115858296D01*
X113824205Y-115802441D01*
X113755796Y-115762945D01*
X113679496Y-115742501D01*
X113600504Y-115742501D01*
X113524204Y-115762945D01*
X113455795Y-115802441D01*
X113399940Y-115858296D01*
X113390000Y-115875512D01*
X113390000Y-115072636D01*
X113389999Y-115072635D01*
X113348316Y-115080927D01*
X113348308Y-115080929D01*
X113166328Y-115156307D01*
X113166315Y-115156314D01*
X113002537Y-115265748D01*
X113002533Y-115265751D01*
X112863251Y-115405033D01*
X112863248Y-115405037D01*
X112753814Y-115568815D01*
X112753807Y-115568828D01*
X112678430Y-115750806D01*
X112678427Y-115750818D01*
X112640000Y-115944004D01*
X112640000Y-116189382D01*
X112620315Y-116256421D01*
X112567511Y-116302176D01*
X112498353Y-116312120D01*
X112472796Y-116304747D01*
X112472686Y-116305088D01*
X112463170Y-116301996D01*
X112456766Y-116300002D01*
X112456618Y-116300492D01*
X112450788Y-116298723D01*
X112377155Y-116284076D01*
X112375567Y-116283749D01*
X112296768Y-116267000D01*
X112296764Y-116267000D01*
X112123236Y-116267000D01*
X112044372Y-116283762D01*
X112042786Y-116284088D01*
X111969203Y-116298725D01*
X111963380Y-116300492D01*
X111963237Y-116300023D01*
X111956296Y-116302169D01*
X111953504Y-116303076D01*
X111885571Y-116333321D01*
X111882595Y-116334599D01*
X111818982Y-116360950D01*
X111818975Y-116360954D01*
X111818696Y-116361141D01*
X111800269Y-116371301D01*
X111794983Y-116373654D01*
X111794973Y-116373660D01*
X111739864Y-116413698D01*
X111735875Y-116416478D01*
X111683778Y-116451289D01*
X111683768Y-116451297D01*
X111679122Y-116455944D01*
X111664336Y-116468572D01*
X111654595Y-116475649D01*
X111613167Y-116521659D01*
X111608701Y-116526364D01*
X111568795Y-116566271D01*
X111568790Y-116566276D01*
X111561659Y-116576949D01*
X111550715Y-116591019D01*
X111538479Y-116604608D01*
X111510632Y-116652840D01*
X111506349Y-116659726D01*
X111478454Y-116701474D01*
X111478453Y-116701476D01*
X111471153Y-116719098D01*
X111463986Y-116733630D01*
X111451713Y-116754889D01*
X111436428Y-116801933D01*
X111433059Y-116811064D01*
X111416223Y-116851711D01*
X111416222Y-116851713D01*
X111411283Y-116876541D01*
X111407600Y-116890656D01*
X111398092Y-116919922D01*
X111393571Y-116962924D01*
X111391869Y-116974148D01*
X111384500Y-117011196D01*
X111384500Y-117042737D01*
X111383821Y-117055698D01*
X111379953Y-117092499D01*
X107260047Y-117092499D01*
X107256179Y-117055698D01*
X107255500Y-117042737D01*
X107255500Y-117011190D01*
X107248130Y-116974147D01*
X107246425Y-116962909D01*
X107241908Y-116919928D01*
X107241908Y-116919924D01*
X107232396Y-116890651D01*
X107228715Y-116876541D01*
X107223776Y-116851711D01*
X107206933Y-116811049D01*
X107203579Y-116801957D01*
X107188286Y-116754889D01*
X107176018Y-116733640D01*
X107168844Y-116719092D01*
X107161550Y-116701483D01*
X107161549Y-116701482D01*
X107161548Y-116701479D01*
X107133641Y-116659713D01*
X107129367Y-116652840D01*
X107101522Y-116604611D01*
X107089284Y-116591019D01*
X107078337Y-116576945D01*
X107071208Y-116566275D01*
X107031297Y-116526364D01*
X107026831Y-116521658D01*
X106985410Y-116475655D01*
X106975666Y-116468575D01*
X106960875Y-116455941D01*
X106956227Y-116451293D01*
X106904135Y-116416487D01*
X106900140Y-116413703D01*
X106900133Y-116413698D01*
X106845024Y-116373658D01*
X106845023Y-116373657D01*
X106845021Y-116373656D01*
X106839740Y-116371305D01*
X106821282Y-116361126D01*
X106821025Y-116360954D01*
X106821018Y-116360950D01*
X106757426Y-116334610D01*
X106754444Y-116333329D01*
X106686500Y-116303078D01*
X106683170Y-116301996D01*
X106676766Y-116300002D01*
X106676618Y-116300492D01*
X106670788Y-116298723D01*
X106597155Y-116284076D01*
X106595567Y-116283749D01*
X106516768Y-116267000D01*
X106516764Y-116267000D01*
X106343236Y-116267000D01*
X106264372Y-116283762D01*
X106262786Y-116284088D01*
X106189203Y-116298725D01*
X106183380Y-116300492D01*
X106183237Y-116300023D01*
X106176296Y-116302169D01*
X106167325Y-116305085D01*
X106166868Y-116303679D01*
X106105173Y-116311944D01*
X106041900Y-116282310D01*
X106004692Y-116223171D01*
X106000000Y-116189382D01*
X106000000Y-115944008D01*
X105999999Y-115944004D01*
X105961572Y-115750818D01*
X105961569Y-115750806D01*
X105886192Y-115568828D01*
X105886185Y-115568815D01*
X105776751Y-115405037D01*
X105776748Y-115405033D01*
X105637466Y-115265751D01*
X105637462Y-115265748D01*
X105473684Y-115156314D01*
X105473671Y-115156307D01*
X105291691Y-115080929D01*
X105291683Y-115080927D01*
X105250000Y-115072635D01*
X105250000Y-115875500D01*
X105240060Y-115858284D01*
X105184205Y-115802429D01*
X105115796Y-115762933D01*
X105039496Y-115742489D01*
X104960504Y-115742489D01*
X104884204Y-115762933D01*
X104815795Y-115802429D01*
X104759940Y-115858284D01*
X104750000Y-115875500D01*
X104750000Y-115072636D01*
X104749999Y-115072635D01*
X104708316Y-115080927D01*
X104708308Y-115080929D01*
X104526328Y-115156307D01*
X104526315Y-115156314D01*
X104362537Y-115265748D01*
X104362533Y-115265751D01*
X104223250Y-115405034D01*
X104220353Y-115408565D01*
X104162607Y-115447899D01*
X104092762Y-115449770D01*
X104032994Y-115413582D01*
X104002278Y-115350826D01*
X104000500Y-115329900D01*
X104000500Y-112549995D01*
X114812670Y-112549995D01*
X114812670Y-112550004D01*
X114831962Y-112807443D01*
X114831962Y-112807445D01*
X114889406Y-113059125D01*
X114889412Y-113059144D01*
X114983729Y-113299460D01*
X114983728Y-113299460D01*
X115112815Y-113523043D01*
X115157441Y-113579003D01*
X115157442Y-113579003D01*
X115812672Y-112923772D01*
X115817757Y-112936047D01*
X115906949Y-113069532D01*
X116020468Y-113183051D01*
X116153953Y-113272243D01*
X116166225Y-113277326D01*
X115510621Y-113932930D01*
X115676334Y-114045911D01*
X115676342Y-114045916D01*
X115908932Y-114157924D01*
X115908930Y-114157924D01*
X116155624Y-114234019D01*
X116155630Y-114234020D01*
X116410910Y-114272499D01*
X116410917Y-114272500D01*
X116669083Y-114272500D01*
X116669089Y-114272499D01*
X116924369Y-114234020D01*
X116924370Y-114234020D01*
X116984628Y-114215433D01*
X117054491Y-114214482D01*
X117113778Y-114251453D01*
X117143665Y-114314608D01*
X117134664Y-114383895D01*
X117119555Y-114409410D01*
X117007236Y-114555787D01*
X116884307Y-114768705D01*
X116884303Y-114768714D01*
X116790225Y-114995837D01*
X116790222Y-114995847D01*
X116726592Y-115233320D01*
X116726590Y-115233331D01*
X116694500Y-115477065D01*
X116694500Y-115722934D01*
X116704968Y-115802441D01*
X116726591Y-115966677D01*
X116726592Y-115966679D01*
X116790222Y-116204152D01*
X116790225Y-116204162D01*
X116884303Y-116431285D01*
X116884307Y-116431294D01*
X116895856Y-116451297D01*
X117007233Y-116644208D01*
X117007235Y-116644211D01*
X117007236Y-116644212D01*
X117156897Y-116839254D01*
X117156903Y-116839261D01*
X117330738Y-117013096D01*
X117330745Y-117013102D01*
X117445335Y-117101030D01*
X117525792Y-117162767D01*
X117738708Y-117285694D01*
X117965847Y-117379778D01*
X118203323Y-117443409D01*
X118447073Y-117475500D01*
X118447080Y-117475500D01*
X118692920Y-117475500D01*
X118692927Y-117475500D01*
X118936677Y-117443409D01*
X119174153Y-117379778D01*
X119401292Y-117285694D01*
X119614208Y-117162767D01*
X119809256Y-117013101D01*
X119983101Y-116839256D01*
X120132767Y-116644208D01*
X120255694Y-116431292D01*
X120349778Y-116204153D01*
X120413409Y-115966677D01*
X120445500Y-115722927D01*
X120445500Y-115477073D01*
X120413409Y-115233323D01*
X120349778Y-114995847D01*
X120255694Y-114768708D01*
X120132767Y-114555792D01*
X120020444Y-114409410D01*
X119983102Y-114360745D01*
X119983096Y-114360738D01*
X119809261Y-114186903D01*
X119809254Y-114186897D01*
X119614212Y-114037236D01*
X119614211Y-114037235D01*
X119614208Y-114037233D01*
X119401292Y-113914306D01*
X119401285Y-113914303D01*
X119174162Y-113820225D01*
X119174155Y-113820223D01*
X119174153Y-113820222D01*
X118936677Y-113756591D01*
X118895939Y-113751227D01*
X118692934Y-113724500D01*
X118692927Y-113724500D01*
X118447073Y-113724500D01*
X118447065Y-113724500D01*
X118215059Y-113755045D01*
X118203323Y-113756591D01*
X118140278Y-113773483D01*
X118030142Y-113802994D01*
X117960292Y-113801331D01*
X117902430Y-113762168D01*
X117874926Y-113697939D01*
X117886513Y-113629037D01*
X117901103Y-113605905D01*
X117967186Y-113523040D01*
X118096270Y-113299460D01*
X118190587Y-113059144D01*
X118190593Y-113059125D01*
X118248037Y-112807445D01*
X118248037Y-112807443D01*
X118267330Y-112550004D01*
X118267330Y-112549995D01*
X118248037Y-112292556D01*
X118248037Y-112292554D01*
X118190593Y-112040874D01*
X118190587Y-112040855D01*
X118096270Y-111800539D01*
X118096271Y-111800539D01*
X117967186Y-111576960D01*
X117922557Y-111520995D01*
X117267326Y-112176225D01*
X117262243Y-112163953D01*
X117173051Y-112030468D01*
X117059532Y-111916949D01*
X116926047Y-111827757D01*
X116913773Y-111822672D01*
X117569377Y-111167068D01*
X117403665Y-111054088D01*
X117403657Y-111054083D01*
X117171067Y-110942075D01*
X117171069Y-110942075D01*
X116924375Y-110865980D01*
X116924369Y-110865979D01*
X116669089Y-110827500D01*
X116410910Y-110827500D01*
X116155630Y-110865979D01*
X116155624Y-110865980D01*
X115908931Y-110942075D01*
X115676340Y-111054085D01*
X115676327Y-111054092D01*
X115510621Y-111167067D01*
X116166226Y-111822672D01*
X116153953Y-111827757D01*
X116020468Y-111916949D01*
X115906949Y-112030468D01*
X115817757Y-112163953D01*
X115812672Y-112176226D01*
X115157442Y-111520996D01*
X115112812Y-111576960D01*
X114983729Y-111800539D01*
X114889412Y-112040855D01*
X114889406Y-112040874D01*
X114831962Y-112292554D01*
X114831962Y-112292556D01*
X114812670Y-112549995D01*
X104000500Y-112549995D01*
X104000500Y-111125429D01*
X104020185Y-111058390D01*
X104072989Y-111012635D01*
X104110617Y-111002209D01*
X104251689Y-110986314D01*
X104251691Y-110986313D01*
X104251693Y-110986313D01*
X104411324Y-110930456D01*
X104540153Y-110849507D01*
X104606126Y-110830500D01*
X107198896Y-110830500D01*
X107198898Y-110830500D01*
X107276983Y-110809577D01*
X107346538Y-110790940D01*
X107478908Y-110714516D01*
X107478908Y-110714515D01*
X107485947Y-110710452D01*
X107487115Y-110712475D01*
X107537033Y-110692341D01*
X107590526Y-110686314D01*
X107590529Y-110686313D01*
X107590532Y-110686313D01*
X107750163Y-110630456D01*
X107750165Y-110630454D01*
X107750167Y-110630454D01*
X107750170Y-110630452D01*
X107893357Y-110540481D01*
X107893358Y-110540480D01*
X107893363Y-110540477D01*
X108012950Y-110420890D01*
X108020639Y-110408653D01*
X108102925Y-110277697D01*
X108102927Y-110277694D01*
X108102927Y-110277692D01*
X108102929Y-110277690D01*
X108158786Y-110118059D01*
X108158786Y-110118058D01*
X108158787Y-110118056D01*
X108177722Y-109950002D01*
X108177722Y-109949997D01*
X108158787Y-109781943D01*
X108123975Y-109682457D01*
X108102929Y-109622310D01*
X108102928Y-109622309D01*
X108102927Y-109622305D01*
X108102925Y-109622302D01*
X108012954Y-109479115D01*
X108012949Y-109479109D01*
X107893363Y-109359523D01*
X107893357Y-109359518D01*
X107750170Y-109269547D01*
X107750161Y-109269543D01*
X107680152Y-109245045D01*
X107623377Y-109204323D01*
X107604067Y-109168959D01*
X107594384Y-109141289D01*
X107594379Y-109141278D01*
X107504408Y-108998091D01*
X107504403Y-108998085D01*
X107384817Y-108878499D01*
X107384811Y-108878494D01*
X107241624Y-108788523D01*
X107241621Y-108788521D01*
X107081983Y-108732661D01*
X106913930Y-108713727D01*
X106913924Y-108713727D01*
X106745870Y-108732661D01*
X106586234Y-108788521D01*
X106519681Y-108830340D01*
X106490317Y-108848791D01*
X106489236Y-108849470D01*
X106423264Y-108868476D01*
X105358133Y-108868476D01*
X105291094Y-108848791D01*
X105245339Y-108795987D01*
X105234133Y-108744476D01*
X105234133Y-108522099D01*
X105239701Y-108503135D01*
X118635500Y-108503135D01*
X118635500Y-109996870D01*
X118635501Y-109996876D01*
X118641908Y-110056483D01*
X118692202Y-110191328D01*
X118692206Y-110191335D01*
X118778452Y-110306544D01*
X118778455Y-110306547D01*
X118893664Y-110392793D01*
X118893671Y-110392797D01*
X119028517Y-110443091D01*
X119028516Y-110443091D01*
X119035444Y-110443835D01*
X119088127Y-110449500D01*
X120581872Y-110449499D01*
X120641483Y-110443091D01*
X120776331Y-110392796D01*
X120891546Y-110306546D01*
X120977796Y-110191331D01*
X121028091Y-110056483D01*
X121034500Y-109996873D01*
X121034499Y-109776168D01*
X121054183Y-109709131D01*
X121106987Y-109663376D01*
X121176145Y-109653432D01*
X121239701Y-109682457D01*
X121269499Y-109720898D01*
X121350795Y-109884161D01*
X121484762Y-110061562D01*
X121546737Y-110118059D01*
X121649043Y-110211323D01*
X121838046Y-110328349D01*
X121838047Y-110328349D01*
X121838048Y-110328350D01*
X121907142Y-110355117D01*
X122045335Y-110408653D01*
X122263850Y-110449500D01*
X122263853Y-110449500D01*
X122486147Y-110449500D01*
X122486150Y-110449500D01*
X122704665Y-110408653D01*
X122911954Y-110328349D01*
X123100957Y-110211323D01*
X123265239Y-110061560D01*
X123399205Y-109884161D01*
X123498292Y-109685166D01*
X123525734Y-109588715D01*
X123563013Y-109529624D01*
X123626323Y-109500067D01*
X123695563Y-109509429D01*
X123748749Y-109554739D01*
X123764264Y-109588714D01*
X123773824Y-109622310D01*
X123791707Y-109685163D01*
X123791712Y-109685176D01*
X123890795Y-109884161D01*
X124024762Y-110061562D01*
X124086737Y-110118059D01*
X124189043Y-110211323D01*
X124378046Y-110328349D01*
X124378047Y-110328349D01*
X124378048Y-110328350D01*
X124447142Y-110355117D01*
X124585335Y-110408653D01*
X124803850Y-110449500D01*
X124803853Y-110449500D01*
X125026147Y-110449500D01*
X125026150Y-110449500D01*
X125244665Y-110408653D01*
X125451954Y-110328349D01*
X125640957Y-110211323D01*
X125805239Y-110061560D01*
X125939205Y-109884161D01*
X126038292Y-109685166D01*
X126065734Y-109588715D01*
X126103013Y-109529624D01*
X126166323Y-109500067D01*
X126235563Y-109509429D01*
X126288749Y-109554739D01*
X126304264Y-109588714D01*
X126313824Y-109622310D01*
X126331707Y-109685163D01*
X126331712Y-109685176D01*
X126430795Y-109884161D01*
X126564762Y-110061562D01*
X126626737Y-110118059D01*
X126729043Y-110211323D01*
X126918046Y-110328349D01*
X126918047Y-110328349D01*
X126918048Y-110328350D01*
X126987142Y-110355117D01*
X127125335Y-110408653D01*
X127343850Y-110449500D01*
X127343853Y-110449500D01*
X127566147Y-110449500D01*
X127566150Y-110449500D01*
X127784665Y-110408653D01*
X127991954Y-110328349D01*
X128180957Y-110211323D01*
X128345239Y-110061560D01*
X128479205Y-109884161D01*
X128578292Y-109685166D01*
X128639128Y-109471352D01*
X128659639Y-109250000D01*
X128657352Y-109225324D01*
X128639128Y-109028648D01*
X128578292Y-108814834D01*
X128568907Y-108795987D01*
X128527947Y-108713727D01*
X128479205Y-108615839D01*
X128394080Y-108503116D01*
X128345237Y-108438437D01*
X128180958Y-108288678D01*
X128180957Y-108288677D01*
X127991954Y-108171651D01*
X127991952Y-108171650D01*
X127991951Y-108171649D01*
X127784668Y-108091348D01*
X127784667Y-108091347D01*
X127784665Y-108091347D01*
X127566150Y-108050500D01*
X127343850Y-108050500D01*
X127125335Y-108091347D01*
X127125333Y-108091347D01*
X127125331Y-108091348D01*
X126918048Y-108171649D01*
X126918047Y-108171650D01*
X126729041Y-108288678D01*
X126564762Y-108438437D01*
X126430795Y-108615838D01*
X126331712Y-108814823D01*
X126331707Y-108814836D01*
X126304266Y-108911282D01*
X126266987Y-108970375D01*
X126203677Y-108999932D01*
X126134437Y-108990570D01*
X126081251Y-108945260D01*
X126065734Y-108911282D01*
X126056405Y-108878494D01*
X126038292Y-108814834D01*
X126028907Y-108795987D01*
X125987947Y-108713727D01*
X125939205Y-108615839D01*
X125854080Y-108503116D01*
X125805237Y-108438437D01*
X125640958Y-108288678D01*
X125640957Y-108288677D01*
X125451954Y-108171651D01*
X125451952Y-108171650D01*
X125451951Y-108171649D01*
X125244668Y-108091348D01*
X125244667Y-108091347D01*
X125244665Y-108091347D01*
X125026150Y-108050500D01*
X124803850Y-108050500D01*
X124585335Y-108091347D01*
X124585333Y-108091347D01*
X124585331Y-108091348D01*
X124378048Y-108171649D01*
X124378047Y-108171650D01*
X124189041Y-108288678D01*
X124024762Y-108438437D01*
X123890795Y-108615838D01*
X123791712Y-108814823D01*
X123791707Y-108814836D01*
X123764266Y-108911282D01*
X123726987Y-108970375D01*
X123663677Y-108999932D01*
X123594437Y-108990570D01*
X123541251Y-108945260D01*
X123525734Y-108911282D01*
X123516405Y-108878494D01*
X123498292Y-108814834D01*
X123488907Y-108795987D01*
X123447947Y-108713727D01*
X123399205Y-108615839D01*
X123314080Y-108503116D01*
X123265237Y-108438437D01*
X123100958Y-108288678D01*
X123100957Y-108288677D01*
X122911954Y-108171651D01*
X122911952Y-108171650D01*
X122911951Y-108171649D01*
X122704668Y-108091348D01*
X122704667Y-108091347D01*
X122704665Y-108091347D01*
X122486150Y-108050500D01*
X122263850Y-108050500D01*
X122045335Y-108091347D01*
X122045333Y-108091347D01*
X122045331Y-108091348D01*
X121838048Y-108171649D01*
X121838047Y-108171650D01*
X121649041Y-108288678D01*
X121484762Y-108438437D01*
X121350795Y-108615838D01*
X121269499Y-108779103D01*
X121221996Y-108830340D01*
X121154333Y-108847761D01*
X121087993Y-108825835D01*
X121044038Y-108771524D01*
X121034499Y-108723831D01*
X121034499Y-108503129D01*
X121034498Y-108503123D01*
X121034497Y-108503116D01*
X121028091Y-108443517D01*
X121026197Y-108438440D01*
X120977797Y-108308671D01*
X120977793Y-108308664D01*
X120891547Y-108193455D01*
X120891544Y-108193452D01*
X120778005Y-108108456D01*
X120736134Y-108052522D01*
X120731150Y-107982831D01*
X120764636Y-107921508D01*
X120825959Y-107888024D01*
X120875094Y-107887301D01*
X120993850Y-107909500D01*
X120993853Y-107909500D01*
X121216147Y-107909500D01*
X121216150Y-107909500D01*
X121434665Y-107868653D01*
X121641954Y-107788349D01*
X121830957Y-107671323D01*
X121995239Y-107521560D01*
X122129205Y-107344161D01*
X122228292Y-107145166D01*
X122255734Y-107048715D01*
X122293013Y-106989624D01*
X122356323Y-106960067D01*
X122425563Y-106969429D01*
X122478749Y-107014739D01*
X122494264Y-107048714D01*
X122514480Y-107119765D01*
X122521707Y-107145163D01*
X122521712Y-107145176D01*
X122620795Y-107344161D01*
X122754762Y-107521562D01*
X122896088Y-107650397D01*
X122919043Y-107671323D01*
X123108046Y-107788349D01*
X123108047Y-107788349D01*
X123108048Y-107788350D01*
X123166187Y-107810873D01*
X123315335Y-107868653D01*
X123533850Y-107909500D01*
X123533853Y-107909500D01*
X123756147Y-107909500D01*
X123756150Y-107909500D01*
X123974665Y-107868653D01*
X124181954Y-107788349D01*
X124370957Y-107671323D01*
X124535239Y-107521560D01*
X124669205Y-107344161D01*
X124768292Y-107145166D01*
X124795734Y-107048715D01*
X124833013Y-106989624D01*
X124896323Y-106960067D01*
X124965563Y-106969429D01*
X125018749Y-107014739D01*
X125034264Y-107048714D01*
X125054480Y-107119765D01*
X125061707Y-107145163D01*
X125061712Y-107145176D01*
X125160795Y-107344161D01*
X125294762Y-107521562D01*
X125436088Y-107650397D01*
X125459043Y-107671323D01*
X125648046Y-107788349D01*
X125648047Y-107788349D01*
X125648048Y-107788350D01*
X125706187Y-107810873D01*
X125855335Y-107868653D01*
X126073850Y-107909500D01*
X126073853Y-107909500D01*
X126296147Y-107909500D01*
X126296150Y-107909500D01*
X126514665Y-107868653D01*
X126721954Y-107788349D01*
X126910957Y-107671323D01*
X127075239Y-107521560D01*
X127209205Y-107344161D01*
X127308292Y-107145166D01*
X127335995Y-107047799D01*
X127373271Y-106988711D01*
X127436581Y-106959153D01*
X127505820Y-106968515D01*
X127559007Y-107013824D01*
X127574525Y-107047803D01*
X127602175Y-107144981D01*
X127602180Y-107144994D01*
X127701224Y-107343900D01*
X127716851Y-107364594D01*
X128286944Y-106794502D01*
X128310326Y-106881764D01*
X128368911Y-106983236D01*
X128451764Y-107066089D01*
X128553236Y-107124674D01*
X128640497Y-107148055D01*
X128072397Y-107716153D01*
X128188268Y-107787898D01*
X128188270Y-107787899D01*
X128395473Y-107868169D01*
X128613899Y-107909000D01*
X128836101Y-107909000D01*
X129054525Y-107868169D01*
X129054535Y-107868166D01*
X129261729Y-107787899D01*
X129261731Y-107787898D01*
X129377601Y-107716153D01*
X128809503Y-107148055D01*
X128896764Y-107124674D01*
X128998236Y-107066089D01*
X129081089Y-106983236D01*
X129139674Y-106881764D01*
X129163055Y-106794502D01*
X129733147Y-107364594D01*
X129748776Y-107343898D01*
X129748783Y-107343886D01*
X129847817Y-107144999D01*
X129847825Y-107144979D01*
X129908633Y-106931261D01*
X129908634Y-106931259D01*
X129929137Y-106710000D01*
X129929137Y-106709999D01*
X129908634Y-106488740D01*
X129908633Y-106488738D01*
X129847825Y-106275020D01*
X129847819Y-106275005D01*
X129748781Y-106076110D01*
X129748776Y-106076103D01*
X129733146Y-106055404D01*
X129163055Y-106625496D01*
X129139674Y-106538236D01*
X129081089Y-106436764D01*
X128998236Y-106353911D01*
X128896764Y-106295326D01*
X128809503Y-106271944D01*
X129377601Y-105703845D01*
X129377600Y-105703844D01*
X129261733Y-105632102D01*
X129261727Y-105632099D01*
X129054526Y-105551830D01*
X128836101Y-105511000D01*
X128613899Y-105511000D01*
X128395474Y-105551830D01*
X128395473Y-105551830D01*
X128188272Y-105632099D01*
X128188266Y-105632103D01*
X128072398Y-105703844D01*
X128072397Y-105703845D01*
X128640497Y-106271944D01*
X128553236Y-106295326D01*
X128451764Y-106353911D01*
X128368911Y-106436764D01*
X128310326Y-106538236D01*
X128286944Y-106625496D01*
X127716852Y-106055404D01*
X127701223Y-106076101D01*
X127602180Y-106275005D01*
X127602176Y-106275015D01*
X127574525Y-106372197D01*
X127537245Y-106431290D01*
X127473935Y-106460847D01*
X127404695Y-106451483D01*
X127351510Y-106406173D01*
X127335997Y-106372206D01*
X127308292Y-106274834D01*
X127303395Y-106265000D01*
X127259997Y-106177845D01*
X127209205Y-106075839D01*
X127075239Y-105898440D01*
X127075237Y-105898437D01*
X126910958Y-105748678D01*
X126910957Y-105748677D01*
X126721954Y-105631651D01*
X126721952Y-105631650D01*
X126721951Y-105631649D01*
X126514668Y-105551348D01*
X126514667Y-105551347D01*
X126514665Y-105551347D01*
X126296150Y-105510500D01*
X126073850Y-105510500D01*
X125855335Y-105551347D01*
X125855333Y-105551347D01*
X125855331Y-105551348D01*
X125648048Y-105631649D01*
X125648047Y-105631650D01*
X125459041Y-105748678D01*
X125294762Y-105898437D01*
X125160795Y-106075838D01*
X125061712Y-106274823D01*
X125061707Y-106274836D01*
X125034266Y-106371282D01*
X124996987Y-106430375D01*
X124933677Y-106459932D01*
X124864437Y-106450570D01*
X124811251Y-106405260D01*
X124795734Y-106371282D01*
X124791513Y-106356447D01*
X124768292Y-106274834D01*
X124763395Y-106265000D01*
X124719997Y-106177845D01*
X124669205Y-106075839D01*
X124535239Y-105898440D01*
X124535237Y-105898437D01*
X124370958Y-105748678D01*
X124370957Y-105748677D01*
X124181954Y-105631651D01*
X124181952Y-105631650D01*
X124181951Y-105631649D01*
X123974668Y-105551348D01*
X123974667Y-105551347D01*
X123974665Y-105551347D01*
X123756150Y-105510500D01*
X123533850Y-105510500D01*
X123315335Y-105551347D01*
X123315333Y-105551347D01*
X123315331Y-105551348D01*
X123108048Y-105631649D01*
X123108047Y-105631650D01*
X122919041Y-105748678D01*
X122754762Y-105898437D01*
X122620795Y-106075838D01*
X122521712Y-106274823D01*
X122521707Y-106274836D01*
X122494266Y-106371282D01*
X122456987Y-106430375D01*
X122393677Y-106459932D01*
X122324437Y-106450570D01*
X122271251Y-106405260D01*
X122255734Y-106371282D01*
X122251513Y-106356447D01*
X122228292Y-106274834D01*
X122223395Y-106265000D01*
X122179997Y-106177845D01*
X122129205Y-106075839D01*
X121995239Y-105898440D01*
X121995237Y-105898437D01*
X121830958Y-105748678D01*
X121830957Y-105748677D01*
X121641954Y-105631651D01*
X121641952Y-105631650D01*
X121641951Y-105631649D01*
X121434668Y-105551348D01*
X121434667Y-105551347D01*
X121434665Y-105551347D01*
X121216150Y-105510500D01*
X120993850Y-105510500D01*
X120775335Y-105551347D01*
X120775333Y-105551347D01*
X120775331Y-105551348D01*
X120568048Y-105631649D01*
X120568047Y-105631650D01*
X120379041Y-105748678D01*
X120214762Y-105898437D01*
X120080795Y-106075838D01*
X119981712Y-106274823D01*
X119981707Y-106274836D01*
X119920871Y-106488648D01*
X119900361Y-106709999D01*
X119900361Y-106710000D01*
X119920871Y-106931351D01*
X119981707Y-107145163D01*
X119981712Y-107145176D01*
X120080795Y-107344161D01*
X120214762Y-107521562D01*
X120356088Y-107650397D01*
X120379043Y-107671323D01*
X120568046Y-107788349D01*
X120568047Y-107788349D01*
X120568048Y-107788350D01*
X120626187Y-107810873D01*
X120681589Y-107853446D01*
X120705179Y-107919213D01*
X120689468Y-107987293D01*
X120639444Y-108036072D01*
X120581393Y-108050500D01*
X119088129Y-108050500D01*
X119088123Y-108050501D01*
X119028516Y-108056908D01*
X118893671Y-108107202D01*
X118893664Y-108107206D01*
X118778455Y-108193452D01*
X118778452Y-108193455D01*
X118692206Y-108308664D01*
X118692202Y-108308671D01*
X118641908Y-108443517D01*
X118638982Y-108470738D01*
X118635501Y-108503123D01*
X118635500Y-108503135D01*
X105239701Y-108503135D01*
X105253818Y-108455060D01*
X105270447Y-108434423D01*
X108808506Y-104896363D01*
X108808511Y-104896360D01*
X108818714Y-104886156D01*
X108818716Y-104886156D01*
X108930520Y-104774352D01*
X108931107Y-104773335D01*
X118494499Y-104773335D01*
X118494500Y-104773338D01*
X118530035Y-104905956D01*
X118535425Y-104926068D01*
X118544760Y-104942236D01*
X118544761Y-104942238D01*
X118614478Y-105062993D01*
X118614482Y-105062998D01*
X118623092Y-105071608D01*
X118656577Y-105132931D01*
X118658631Y-105145401D01*
X118660775Y-105164425D01*
X118660775Y-105164427D01*
X118716632Y-105324060D01*
X118716635Y-105324065D01*
X118806606Y-105467252D01*
X118806611Y-105467258D01*
X118926197Y-105586844D01*
X118926203Y-105586849D01*
X119069390Y-105676820D01*
X119069393Y-105676822D01*
X119069397Y-105676823D01*
X119069398Y-105676824D01*
X119142001Y-105702228D01*
X119229031Y-105732682D01*
X119397085Y-105751617D01*
X119397088Y-105751617D01*
X119397091Y-105751617D01*
X119565144Y-105732682D01*
X119565147Y-105732681D01*
X119724778Y-105676824D01*
X119724780Y-105676822D01*
X119724782Y-105676822D01*
X119724785Y-105676820D01*
X119867972Y-105586849D01*
X119867973Y-105586848D01*
X119867978Y-105586845D01*
X119987565Y-105467258D01*
X119987569Y-105467252D01*
X120077540Y-105324065D01*
X120077542Y-105324062D01*
X120077542Y-105324060D01*
X120077544Y-105324058D01*
X120133401Y-105164427D01*
X120133401Y-105164426D01*
X120133402Y-105164424D01*
X120152337Y-104996370D01*
X120152337Y-104996368D01*
X120148835Y-104965296D01*
X120160887Y-104896478D01*
X120184371Y-104863734D01*
X120235478Y-104812628D01*
X120325457Y-104669428D01*
X120381314Y-104509797D01*
X120381314Y-104509796D01*
X120381315Y-104509794D01*
X120400250Y-104341740D01*
X120400250Y-104341738D01*
X120397684Y-104318966D01*
X120394971Y-104294894D01*
X120407024Y-104226076D01*
X120430507Y-104193333D01*
X121036483Y-103587357D01*
X121097805Y-103553874D01*
X121167497Y-103558858D01*
X121190135Y-103570047D01*
X121337041Y-103662355D01*
X121337045Y-103662356D01*
X121337046Y-103662357D01*
X121388953Y-103680520D01*
X121507313Y-103721936D01*
X121507318Y-103721937D01*
X121662639Y-103739437D01*
X121710757Y-103755271D01*
X121718215Y-103759577D01*
X121870943Y-103800500D01*
X124161860Y-103800500D01*
X124161876Y-103800501D01*
X124169472Y-103800501D01*
X124327583Y-103800501D01*
X124327586Y-103800501D01*
X124480314Y-103759577D01*
X124530433Y-103730639D01*
X124617245Y-103680520D01*
X124729049Y-103568716D01*
X124729049Y-103568714D01*
X124739257Y-103558507D01*
X124739259Y-103558504D01*
X124968713Y-103329050D01*
X124968716Y-103329049D01*
X125080520Y-103217245D01*
X125085083Y-103209339D01*
X125104785Y-103183663D01*
X129317727Y-98970722D01*
X129317732Y-98970718D01*
X129327935Y-98960514D01*
X129327937Y-98960514D01*
X129439741Y-98848710D01*
X129518798Y-98711778D01*
X129559721Y-98559051D01*
X129559721Y-96791633D01*
X129579406Y-96724594D01*
X129586776Y-96714318D01*
X129589031Y-96711488D01*
X129589037Y-96711483D01*
X129685010Y-96558743D01*
X129744589Y-96388476D01*
X129744590Y-96388470D01*
X129764786Y-96209224D01*
X129764786Y-96209217D01*
X129763748Y-96200000D01*
X130990042Y-96200000D01*
X131009828Y-96388256D01*
X131011794Y-96394309D01*
X131068320Y-96568277D01*
X131068323Y-96568284D01*
X131162969Y-96732216D01*
X131289631Y-96872888D01*
X131442767Y-96984148D01*
X131442772Y-96984151D01*
X131615694Y-97061142D01*
X131615699Y-97061144D01*
X131800856Y-97100500D01*
X131800857Y-97100500D01*
X131990146Y-97100500D01*
X131990148Y-97100500D01*
X132175305Y-97061144D01*
X132348232Y-96984151D01*
X132501373Y-96872888D01*
X132628035Y-96732216D01*
X132722681Y-96568284D01*
X132778024Y-96397955D01*
X132808272Y-96348596D01*
X132837976Y-96318893D01*
X132920109Y-96195972D01*
X132976683Y-96059390D01*
X133005525Y-95914395D01*
X133005525Y-95766560D01*
X133005525Y-92289346D01*
X133022138Y-92227346D01*
X133055414Y-92169710D01*
X133082204Y-92123309D01*
X133140699Y-91943281D01*
X133160485Y-91755025D01*
X133140699Y-91566769D01*
X133082204Y-91386741D01*
X132987558Y-91222809D01*
X132860896Y-91082137D01*
X132860895Y-91082136D01*
X132707759Y-90970876D01*
X132707754Y-90970873D01*
X132534832Y-90893882D01*
X132534827Y-90893880D01*
X132389026Y-90862890D01*
X132349671Y-90854525D01*
X132160379Y-90854525D01*
X132127922Y-90861423D01*
X131975222Y-90893880D01*
X131975217Y-90893882D01*
X131802295Y-90970873D01*
X131802290Y-90970876D01*
X131649154Y-91082136D01*
X131522491Y-91222810D01*
X131427846Y-91386740D01*
X131427843Y-91386747D01*
X131369352Y-91566765D01*
X131369351Y-91566769D01*
X131349565Y-91755025D01*
X131369351Y-91943281D01*
X131369352Y-91943284D01*
X131427843Y-92123302D01*
X131427846Y-92123309D01*
X131454380Y-92169268D01*
X131487912Y-92227346D01*
X131504525Y-92289346D01*
X131504525Y-95308604D01*
X131484840Y-95375643D01*
X131447477Y-95411270D01*
X131448029Y-95412029D01*
X131289631Y-95527111D01*
X131162968Y-95667785D01*
X131068323Y-95831715D01*
X131068320Y-95831722D01*
X131009829Y-96011740D01*
X131009828Y-96011744D01*
X130990042Y-96200000D01*
X129763748Y-96200000D01*
X129744590Y-96029971D01*
X129744589Y-96029966D01*
X129738211Y-96011740D01*
X129685010Y-95859699D01*
X129667426Y-95831715D01*
X129618546Y-95753922D01*
X129589037Y-95706959D01*
X129461483Y-95579405D01*
X129399528Y-95540476D01*
X129308744Y-95483432D01*
X129138475Y-95423852D01*
X129138470Y-95423851D01*
X128959225Y-95403656D01*
X128959217Y-95403656D01*
X128779971Y-95423851D01*
X128779966Y-95423852D01*
X128609697Y-95483432D01*
X128456958Y-95579405D01*
X128329405Y-95706958D01*
X128233432Y-95859697D01*
X128173852Y-96029966D01*
X128173851Y-96029971D01*
X128153656Y-96209217D01*
X128153656Y-96209225D01*
X128165064Y-96310482D01*
X128153009Y-96379304D01*
X128105660Y-96430683D01*
X128038049Y-96448307D01*
X128027958Y-96447585D01*
X128003636Y-96444844D01*
X127985429Y-96441399D01*
X127856983Y-96406982D01*
X127829057Y-96399499D01*
X127670943Y-96399499D01*
X127663347Y-96399499D01*
X127663331Y-96399500D01*
X124274500Y-96399500D01*
X124207461Y-96379815D01*
X124161706Y-96327011D01*
X124150500Y-96275500D01*
X124150500Y-94487102D01*
X124170185Y-94420063D01*
X124222989Y-94374308D01*
X124260614Y-94363882D01*
X124292083Y-94360337D01*
X124451714Y-94304480D01*
X124451717Y-94304477D01*
X124451721Y-94304476D01*
X124594908Y-94214505D01*
X124594909Y-94214504D01*
X124594914Y-94214501D01*
X124698572Y-94110843D01*
X124759895Y-94077358D01*
X124786253Y-94074524D01*
X126336365Y-94074524D01*
X126336381Y-94074525D01*
X126343977Y-94074525D01*
X126502088Y-94074525D01*
X126502091Y-94074525D01*
X126654819Y-94033601D01*
X126725592Y-93992740D01*
X126791750Y-93954544D01*
X126903554Y-93842740D01*
X126903554Y-93842738D01*
X126913758Y-93832535D01*
X126913762Y-93832530D01*
X132758506Y-87987786D01*
X132758511Y-87987782D01*
X132768714Y-87977578D01*
X132768716Y-87977578D01*
X132880520Y-87865774D01*
X132959577Y-87728842D01*
X133000500Y-87576115D01*
X133000500Y-68839059D01*
X133000501Y-68839046D01*
X133000501Y-68670945D01*
X133000501Y-68670943D01*
X132959577Y-68518215D01*
X132930639Y-68468095D01*
X132880520Y-68381284D01*
X132768716Y-68269480D01*
X132768715Y-68269479D01*
X132764385Y-68265149D01*
X132764374Y-68265139D01*
X131923995Y-67424760D01*
X131890510Y-67363437D01*
X131888457Y-67350973D01*
X131886313Y-67331941D01*
X131830456Y-67172310D01*
X131830453Y-67172305D01*
X131830452Y-67172302D01*
X131740481Y-67029115D01*
X131740476Y-67029109D01*
X131620890Y-66909523D01*
X131620884Y-66909518D01*
X131477697Y-66819547D01*
X131477694Y-66819545D01*
X131318056Y-66763685D01*
X131150003Y-66744751D01*
X131149997Y-66744751D01*
X130981943Y-66763685D01*
X130822305Y-66819545D01*
X130822302Y-66819547D01*
X130679115Y-66909518D01*
X130679109Y-66909523D01*
X130559523Y-67029109D01*
X130559518Y-67029115D01*
X130469547Y-67172302D01*
X130469545Y-67172305D01*
X130413685Y-67331943D01*
X130394751Y-67499997D01*
X130394751Y-67500002D01*
X130413685Y-67668056D01*
X130469545Y-67827694D01*
X130469547Y-67827697D01*
X130559518Y-67970884D01*
X130559523Y-67970890D01*
X130603451Y-68014818D01*
X130636936Y-68076141D01*
X130631952Y-68145833D01*
X130603452Y-68190179D01*
X130534524Y-68259108D01*
X130534518Y-68259115D01*
X130444547Y-68402302D01*
X130444545Y-68402305D01*
X130388685Y-68561943D01*
X130369751Y-68729997D01*
X130369751Y-68730002D01*
X130388685Y-68898056D01*
X130444545Y-69057694D01*
X130444547Y-69057697D01*
X130534518Y-69200884D01*
X130534523Y-69200890D01*
X130654109Y-69320476D01*
X130654115Y-69320481D01*
X130797302Y-69410452D01*
X130797308Y-69410455D01*
X130797310Y-69410456D01*
X130956941Y-69466313D01*
X130975961Y-69468455D01*
X131040373Y-69495520D01*
X131049760Y-69503995D01*
X131363181Y-69817416D01*
X131396666Y-69878739D01*
X131399500Y-69905097D01*
X131399500Y-71674106D01*
X131379815Y-71741145D01*
X131327011Y-71786900D01*
X131261617Y-71797326D01*
X131150004Y-71784751D01*
X131149997Y-71784751D01*
X130981943Y-71803685D01*
X130822305Y-71859545D01*
X130822302Y-71859547D01*
X130679115Y-71949518D01*
X130679109Y-71949523D01*
X130559523Y-72069109D01*
X130559518Y-72069115D01*
X130469547Y-72212302D01*
X130469545Y-72212305D01*
X130413685Y-72371943D01*
X130394751Y-72539997D01*
X130394751Y-72540002D01*
X130413685Y-72708056D01*
X130469545Y-72867694D01*
X130469547Y-72867697D01*
X130559518Y-73010884D01*
X130559523Y-73010890D01*
X130679109Y-73130476D01*
X130679115Y-73130481D01*
X130822302Y-73220452D01*
X130822308Y-73220455D01*
X130822310Y-73220456D01*
X130916454Y-73253398D01*
X130973230Y-73294120D01*
X130998978Y-73359072D01*
X130999500Y-73370440D01*
X130999500Y-73565972D01*
X130979815Y-73633011D01*
X130927011Y-73678766D01*
X130857853Y-73688710D01*
X130809528Y-73670966D01*
X130727692Y-73619545D01*
X130727691Y-73619544D01*
X130727690Y-73619544D01*
X130689370Y-73606135D01*
X130568056Y-73563685D01*
X130400003Y-73544751D01*
X130399997Y-73544751D01*
X130231943Y-73563685D01*
X130072305Y-73619545D01*
X130072302Y-73619547D01*
X129929115Y-73709518D01*
X129929109Y-73709523D01*
X129809523Y-73829109D01*
X129809518Y-73829115D01*
X129719547Y-73972302D01*
X129719544Y-73972307D01*
X129663687Y-74131940D01*
X129663687Y-74131943D01*
X129661543Y-74150966D01*
X129634473Y-74215379D01*
X129626004Y-74224759D01*
X128981286Y-74869478D01*
X128869481Y-74981282D01*
X128869477Y-74981287D01*
X128845491Y-75022834D01*
X128826893Y-75055047D01*
X128790423Y-75118215D01*
X128749499Y-75270943D01*
X128749499Y-75270945D01*
X128749499Y-75439046D01*
X128749500Y-75439059D01*
X128749500Y-77441148D01*
X128749499Y-77441166D01*
X128749499Y-77606872D01*
X128749498Y-77606872D01*
X128754490Y-77625500D01*
X128773913Y-77697989D01*
X128790424Y-77759605D01*
X128801241Y-77778340D01*
X128801242Y-77778342D01*
X128869477Y-77896530D01*
X128869481Y-77896535D01*
X128988349Y-78015403D01*
X128988355Y-78015408D01*
X129363181Y-78390234D01*
X129396666Y-78451557D01*
X129399500Y-78477915D01*
X129399500Y-78534216D01*
X129379815Y-78601255D01*
X129363181Y-78621898D01*
X129195790Y-78789288D01*
X129134467Y-78822772D01*
X129064775Y-78817788D01*
X129042136Y-78806599D01*
X128953088Y-78750646D01*
X128953090Y-78750646D01*
X128793452Y-78694786D01*
X128625399Y-78675852D01*
X128625393Y-78675852D01*
X128457336Y-78694787D01*
X128454153Y-78695514D01*
X128452038Y-78695384D01*
X128450418Y-78695567D01*
X128450386Y-78695283D01*
X128384415Y-78691238D01*
X128360593Y-78679616D01*
X128241609Y-78604853D01*
X128241608Y-78604852D01*
X128241607Y-78604852D01*
X128191020Y-78587151D01*
X128081973Y-78548993D01*
X127913920Y-78530059D01*
X127913914Y-78530059D01*
X127745860Y-78548993D01*
X127586222Y-78604853D01*
X127586219Y-78604855D01*
X127443032Y-78694826D01*
X127443026Y-78694831D01*
X127323440Y-78814417D01*
X127323435Y-78814423D01*
X127233464Y-78957610D01*
X127233462Y-78957613D01*
X127177602Y-79117251D01*
X127158668Y-79285305D01*
X127158668Y-79285310D01*
X127177603Y-79453365D01*
X127233461Y-79612998D01*
X127294410Y-79709997D01*
X127313417Y-79775970D01*
X127313417Y-80410085D01*
X127293732Y-80477124D01*
X127277098Y-80497766D01*
X126919481Y-80855382D01*
X126919479Y-80855385D01*
X126910129Y-80871581D01*
X126891070Y-80904592D01*
X126890914Y-80904863D01*
X126843958Y-80986193D01*
X126840423Y-80992315D01*
X126799499Y-81145043D01*
X126799499Y-81145045D01*
X126799499Y-81313146D01*
X126799500Y-81313159D01*
X126799500Y-84549120D01*
X126799499Y-84549138D01*
X126799499Y-84714844D01*
X126799498Y-84714844D01*
X126839771Y-84865145D01*
X126840423Y-84867575D01*
X126842110Y-84870497D01*
X126842113Y-84870501D01*
X126842116Y-84870507D01*
X126919477Y-85004502D01*
X126919481Y-85004507D01*
X127038349Y-85123375D01*
X127038355Y-85123380D01*
X127145213Y-85230238D01*
X127178698Y-85291561D01*
X127180751Y-85304030D01*
X127182896Y-85323058D01*
X127191833Y-85348599D01*
X127238753Y-85482691D01*
X127294708Y-85571740D01*
X127313709Y-85638977D01*
X127293342Y-85705812D01*
X127277396Y-85725394D01*
X126771408Y-86231382D01*
X126710085Y-86264867D01*
X126640393Y-86259883D01*
X126617754Y-86248694D01*
X126528706Y-86192740D01*
X126369069Y-86136880D01*
X126201016Y-86117946D01*
X126201010Y-86117946D01*
X126032956Y-86136880D01*
X125873318Y-86192740D01*
X125873315Y-86192742D01*
X125730128Y-86282713D01*
X125730122Y-86282718D01*
X125610536Y-86402304D01*
X125610531Y-86402310D01*
X125520560Y-86545497D01*
X125520558Y-86545500D01*
X125464698Y-86705138D01*
X125445764Y-86873192D01*
X125445764Y-86873200D01*
X125451041Y-86920039D01*
X125438986Y-86988860D01*
X125415502Y-87021602D01*
X123514017Y-88923087D01*
X123452694Y-88956572D01*
X123385385Y-88952449D01*
X123374064Y-88948488D01*
X123374065Y-88948488D01*
X123206010Y-88929553D01*
X123206004Y-88929553D01*
X123037950Y-88948487D01*
X122878312Y-89004347D01*
X122878309Y-89004349D01*
X122735122Y-89094320D01*
X122735116Y-89094325D01*
X122615530Y-89213911D01*
X122615525Y-89213917D01*
X122525554Y-89357104D01*
X122525552Y-89357107D01*
X122469692Y-89516745D01*
X122450758Y-89684799D01*
X122450758Y-89684804D01*
X122463482Y-89797734D01*
X122451428Y-89866556D01*
X122404078Y-89917936D01*
X122402263Y-89919004D01*
X122376231Y-89934034D01*
X122376230Y-89934035D01*
X122283837Y-89987377D01*
X122283832Y-89987381D01*
X120769482Y-91501731D01*
X120769480Y-91501734D01*
X120719362Y-91588543D01*
X120719360Y-91588545D01*
X120690426Y-91638658D01*
X120690425Y-91638659D01*
X120679876Y-91678028D01*
X120649500Y-91791392D01*
X120649500Y-91791394D01*
X120649500Y-91959495D01*
X120649501Y-91959508D01*
X120649501Y-101049902D01*
X120629816Y-101116941D01*
X120613182Y-101137583D01*
X119671221Y-102079543D01*
X119609898Y-102113028D01*
X119540206Y-102108044D01*
X119525914Y-102101659D01*
X119518441Y-102097737D01*
X119480985Y-102078078D01*
X119480984Y-102078077D01*
X119480983Y-102078077D01*
X119315816Y-102037368D01*
X119145704Y-102037368D01*
X118980533Y-102078078D01*
X118829910Y-102157131D01*
X118702576Y-102269940D01*
X118605942Y-102409936D01*
X118545620Y-102568993D01*
X118545619Y-102568998D01*
X118525115Y-102737868D01*
X118545619Y-102906737D01*
X118545620Y-102906742D01*
X118605942Y-103065799D01*
X118668235Y-103156045D01*
X118702577Y-103205797D01*
X118829908Y-103318602D01*
X118829909Y-103318602D01*
X118829912Y-103318605D01*
X118832395Y-103320319D01*
X118833790Y-103322041D01*
X118835522Y-103323575D01*
X118835266Y-103323862D01*
X118876385Y-103374602D01*
X118884044Y-103444051D01*
X118852940Y-103506615D01*
X118849648Y-103510035D01*
X118726287Y-103633398D01*
X118614482Y-103745202D01*
X118614481Y-103745204D01*
X118582556Y-103800500D01*
X118535424Y-103882135D01*
X118494500Y-104034863D01*
X118494500Y-104034865D01*
X118494500Y-104202966D01*
X118494501Y-104202979D01*
X118494501Y-104607611D01*
X118494500Y-104607629D01*
X118494500Y-104773335D01*
X118494499Y-104773335D01*
X108931107Y-104773335D01*
X108988748Y-104673497D01*
X109009577Y-104637421D01*
X109050501Y-104484693D01*
X109050501Y-104326579D01*
X109050501Y-104318984D01*
X109050500Y-104318966D01*
X109050500Y-96300096D01*
X109070185Y-96233057D01*
X109086815Y-96212419D01*
X109575240Y-95723993D01*
X109636561Y-95690510D01*
X109649024Y-95688457D01*
X109668059Y-95686313D01*
X109827690Y-95630456D01*
X109827693Y-95630453D01*
X109827697Y-95630452D01*
X109970884Y-95540481D01*
X109970885Y-95540480D01*
X109970890Y-95540477D01*
X110090477Y-95420890D01*
X110090481Y-95420884D01*
X110180452Y-95277697D01*
X110180454Y-95277694D01*
X110180454Y-95277692D01*
X110180456Y-95277690D01*
X110236313Y-95118059D01*
X110236313Y-95118058D01*
X110236314Y-95118056D01*
X110255249Y-94950002D01*
X110255249Y-94949997D01*
X110236314Y-94781943D01*
X110222904Y-94743621D01*
X110180456Y-94622310D01*
X110135659Y-94551016D01*
X110116659Y-94483780D01*
X110123611Y-94444091D01*
X110129873Y-94426197D01*
X110130565Y-94420063D01*
X110148809Y-94258140D01*
X110148809Y-94258135D01*
X110129874Y-94090081D01*
X110095021Y-93990476D01*
X110074016Y-93930448D01*
X110074015Y-93930447D01*
X110074014Y-93930443D01*
X110074012Y-93930440D01*
X109984041Y-93787253D01*
X109984036Y-93787247D01*
X109864450Y-93667661D01*
X109864444Y-93667656D01*
X109721257Y-93577685D01*
X109721254Y-93577683D01*
X109561616Y-93521823D01*
X109393563Y-93502889D01*
X109393557Y-93502889D01*
X109225503Y-93521823D01*
X109065867Y-93577683D01*
X108945472Y-93653333D01*
X108878235Y-93672333D01*
X108811400Y-93651965D01*
X108766186Y-93598697D01*
X108755500Y-93548339D01*
X108755500Y-90879510D01*
X108755500Y-90879500D01*
X108743947Y-90772044D01*
X108732741Y-90720533D01*
X108732637Y-90720222D01*
X108698616Y-90618002D01*
X108698613Y-90617996D01*
X108620828Y-90496962D01*
X108620825Y-90496957D01*
X108620820Y-90496951D01*
X108575076Y-90444159D01*
X108575072Y-90444156D01*
X108575070Y-90444153D01*
X108466336Y-90349933D01*
X108466333Y-90349931D01*
X108466331Y-90349930D01*
X108335465Y-90290164D01*
X108335460Y-90290162D01*
X108335459Y-90290162D01*
X108268420Y-90270477D01*
X108268422Y-90270477D01*
X108268417Y-90270476D01*
X108206354Y-90261553D01*
X108126000Y-90250000D01*
X108250000Y-90250000D01*
X108250000Y-85500000D01*
X108126000Y-85500000D01*
X108233456Y-85488447D01*
X108284967Y-85477241D01*
X108319197Y-85465847D01*
X108387497Y-85443116D01*
X108387501Y-85443113D01*
X108387504Y-85443113D01*
X108508543Y-85365325D01*
X108561347Y-85319570D01*
X108655567Y-85210836D01*
X108715338Y-85079959D01*
X108735023Y-85012920D01*
X108735024Y-85012916D01*
X108755500Y-84870500D01*
X108755500Y-80624000D01*
X108754291Y-80612754D01*
X108766696Y-80543996D01*
X108814306Y-80492858D01*
X108877580Y-80475500D01*
X109275108Y-80475500D01*
X109342147Y-80495185D01*
X109387902Y-80547989D01*
X109397846Y-80617147D01*
X109387490Y-80651905D01*
X109376098Y-80676335D01*
X109376094Y-80676344D01*
X109314938Y-80904586D01*
X109314937Y-80904593D01*
X109294341Y-81139999D01*
X109294341Y-81140000D01*
X109314936Y-81375403D01*
X109314938Y-81375413D01*
X109376094Y-81603655D01*
X109376096Y-81603659D01*
X109376097Y-81603663D01*
X109441878Y-81744731D01*
X109475965Y-81817830D01*
X109475967Y-81817834D01*
X109611501Y-82011395D01*
X109611506Y-82011402D01*
X109778597Y-82178493D01*
X109778603Y-82178498D01*
X109964158Y-82308425D01*
X110007783Y-82363002D01*
X110014977Y-82432500D01*
X109983454Y-82494855D01*
X109964158Y-82511575D01*
X109778597Y-82641505D01*
X109611505Y-82808597D01*
X109475965Y-83002169D01*
X109475964Y-83002171D01*
X109376098Y-83216335D01*
X109376094Y-83216344D01*
X109314938Y-83444586D01*
X109314936Y-83444596D01*
X109294341Y-83679999D01*
X109294341Y-83680000D01*
X109314936Y-83915403D01*
X109314938Y-83915413D01*
X109376094Y-84143655D01*
X109376096Y-84143659D01*
X109376097Y-84143663D01*
X109461847Y-84327553D01*
X109475965Y-84357830D01*
X109475967Y-84357834D01*
X109579538Y-84505748D01*
X109609920Y-84549138D01*
X109611501Y-84551395D01*
X109611506Y-84551402D01*
X109778597Y-84718493D01*
X109778603Y-84718498D01*
X109964158Y-84848425D01*
X110007783Y-84903002D01*
X110014977Y-84972500D01*
X109983454Y-85034855D01*
X109964158Y-85051575D01*
X109778597Y-85181505D01*
X109611505Y-85348597D01*
X109475965Y-85542169D01*
X109475964Y-85542171D01*
X109376098Y-85756335D01*
X109376094Y-85756344D01*
X109314938Y-85984586D01*
X109314936Y-85984596D01*
X109294341Y-86219999D01*
X109294341Y-86220000D01*
X109314936Y-86455403D01*
X109314938Y-86455413D01*
X109376094Y-86683655D01*
X109376096Y-86683659D01*
X109376097Y-86683663D01*
X109464480Y-86873200D01*
X109475965Y-86897830D01*
X109475967Y-86897834D01*
X109611501Y-87091395D01*
X109611506Y-87091402D01*
X109778597Y-87258493D01*
X109778603Y-87258498D01*
X109964158Y-87388425D01*
X110007783Y-87443002D01*
X110014977Y-87512500D01*
X109983454Y-87574855D01*
X109964158Y-87591575D01*
X109778597Y-87721505D01*
X109611505Y-87888597D01*
X109475965Y-88082169D01*
X109475964Y-88082171D01*
X109376098Y-88296335D01*
X109376094Y-88296344D01*
X109314938Y-88524586D01*
X109314936Y-88524596D01*
X109294341Y-88759999D01*
X109294341Y-88760000D01*
X109314936Y-88995403D01*
X109314938Y-88995413D01*
X109376094Y-89223655D01*
X109376096Y-89223659D01*
X109376097Y-89223663D01*
X109453610Y-89389889D01*
X109475965Y-89437830D01*
X109475967Y-89437834D01*
X109531222Y-89516745D01*
X109611505Y-89631401D01*
X109778599Y-89798495D01*
X109949178Y-89917936D01*
X109964594Y-89928730D01*
X110008219Y-89983307D01*
X110015413Y-90052805D01*
X109983890Y-90115160D01*
X109964595Y-90131880D01*
X109778922Y-90261890D01*
X109778920Y-90261891D01*
X109611891Y-90428920D01*
X109611886Y-90428926D01*
X109476400Y-90622420D01*
X109476399Y-90622422D01*
X109376570Y-90836507D01*
X109376567Y-90836513D01*
X109319364Y-91049999D01*
X109319364Y-91050000D01*
X110216988Y-91050000D01*
X110184075Y-91107007D01*
X110150000Y-91234174D01*
X110150000Y-91365826D01*
X110184075Y-91492993D01*
X110216988Y-91550000D01*
X109319364Y-91550000D01*
X109376567Y-91763486D01*
X109376570Y-91763492D01*
X109476399Y-91977578D01*
X109611894Y-92171082D01*
X109778917Y-92338105D01*
X109972421Y-92473600D01*
X110186507Y-92573429D01*
X110186516Y-92573433D01*
X110400000Y-92630634D01*
X110400000Y-91733012D01*
X110457007Y-91765925D01*
X110584174Y-91800000D01*
X110715826Y-91800000D01*
X110842993Y-91765925D01*
X110900000Y-91733012D01*
X110900000Y-92630633D01*
X111113483Y-92573433D01*
X111113492Y-92573429D01*
X111327578Y-92473600D01*
X111521082Y-92338105D01*
X111688100Y-92171087D01*
X111689256Y-92169710D01*
X111689919Y-92169268D01*
X111691938Y-92167250D01*
X111692343Y-92167655D01*
X111747422Y-92131000D01*
X111817282Y-92129881D01*
X111876658Y-92166709D01*
X111906697Y-92229792D01*
X111907477Y-92263285D01*
X111890458Y-92414339D01*
X111890458Y-92414345D01*
X111909392Y-92582399D01*
X111965252Y-92742037D01*
X111965254Y-92742040D01*
X112055225Y-92885227D01*
X112055230Y-92885233D01*
X112174816Y-93004819D01*
X112174822Y-93004824D01*
X112318009Y-93094795D01*
X112318015Y-93094798D01*
X112318017Y-93094799D01*
X112477648Y-93150656D01*
X112496668Y-93152798D01*
X112561080Y-93179863D01*
X112570467Y-93188338D01*
X112878509Y-93496380D01*
X112911994Y-93557703D01*
X112913414Y-93566323D01*
X112913810Y-93568059D01*
X112969667Y-93727692D01*
X112969670Y-93727697D01*
X113059641Y-93870884D01*
X113059646Y-93870890D01*
X113179232Y-93990476D01*
X113179238Y-93990481D01*
X113322425Y-94080452D01*
X113322428Y-94080454D01*
X113322432Y-94080455D01*
X113322433Y-94080456D01*
X113349940Y-94090081D01*
X113482066Y-94136314D01*
X113650120Y-94155249D01*
X113650123Y-94155249D01*
X113650126Y-94155249D01*
X113818179Y-94136314D01*
X113890971Y-94110843D01*
X113977813Y-94080456D01*
X113977815Y-94080454D01*
X113977817Y-94080454D01*
X113977820Y-94080452D01*
X114121007Y-93990481D01*
X114121008Y-93990480D01*
X114121013Y-93990477D01*
X114240600Y-93870890D01*
X114240604Y-93870884D01*
X114330575Y-93727697D01*
X114330577Y-93727694D01*
X114330577Y-93727692D01*
X114330579Y-93727690D01*
X114386436Y-93568059D01*
X114386436Y-93568058D01*
X114386437Y-93568056D01*
X114405372Y-93400002D01*
X114405372Y-93399997D01*
X114386437Y-93231943D01*
X114330577Y-93072305D01*
X114330575Y-93072302D01*
X114240604Y-92929115D01*
X114240599Y-92929109D01*
X114121013Y-92809523D01*
X114121007Y-92809518D01*
X113977820Y-92719547D01*
X113977815Y-92719544D01*
X113818176Y-92663685D01*
X113778015Y-92659160D01*
X113713602Y-92632092D01*
X113704220Y-92623621D01*
X113419702Y-92339103D01*
X113386217Y-92277780D01*
X113384164Y-92265316D01*
X113382020Y-92246284D01*
X113326163Y-92086653D01*
X113326162Y-92086651D01*
X113326159Y-92086645D01*
X113236188Y-91943458D01*
X113236183Y-91943452D01*
X113116597Y-91823866D01*
X113116591Y-91823861D01*
X112973404Y-91733890D01*
X112973401Y-91733888D01*
X112813763Y-91678028D01*
X112645710Y-91659094D01*
X112645704Y-91659094D01*
X112477650Y-91678028D01*
X112318012Y-91733888D01*
X112318009Y-91733890D01*
X112174822Y-91823861D01*
X112174815Y-91823867D01*
X112136548Y-91862134D01*
X112075225Y-91895619D01*
X112005533Y-91890633D01*
X111949600Y-91848761D01*
X111925184Y-91783297D01*
X111929093Y-91742358D01*
X111980636Y-91550000D01*
X111083012Y-91550000D01*
X111115925Y-91492993D01*
X111150000Y-91365826D01*
X111150000Y-91234174D01*
X111115925Y-91107007D01*
X111083012Y-91050000D01*
X111980636Y-91050000D01*
X111980635Y-91049999D01*
X111923432Y-90836513D01*
X111923429Y-90836507D01*
X111823600Y-90622422D01*
X111823599Y-90622420D01*
X111688113Y-90428926D01*
X111688108Y-90428920D01*
X111521078Y-90261890D01*
X111335405Y-90131879D01*
X111291780Y-90077302D01*
X111284588Y-90007804D01*
X111316110Y-89945449D01*
X111335406Y-89928730D01*
X111349296Y-89919004D01*
X111521401Y-89798495D01*
X111688495Y-89631401D01*
X111824035Y-89437830D01*
X111923903Y-89223663D01*
X111985063Y-88995408D01*
X112005659Y-88760000D01*
X111985063Y-88524592D01*
X111923903Y-88296337D01*
X111824035Y-88082171D01*
X111764397Y-87996998D01*
X111688494Y-87888597D01*
X111521402Y-87721506D01*
X111521396Y-87721501D01*
X111335842Y-87591575D01*
X111292217Y-87536998D01*
X111285023Y-87467500D01*
X111316546Y-87405145D01*
X111335842Y-87388425D01*
X111402096Y-87342033D01*
X111521401Y-87258495D01*
X111688495Y-87091401D01*
X111824035Y-86897830D01*
X111923903Y-86683663D01*
X111985063Y-86455408D01*
X112005659Y-86220000D01*
X111985063Y-85984592D01*
X111923903Y-85756337D01*
X111824035Y-85542171D01*
X111812404Y-85525559D01*
X111688494Y-85348597D01*
X111521402Y-85181506D01*
X111521396Y-85181501D01*
X111335842Y-85051575D01*
X111292217Y-84996998D01*
X111285023Y-84927500D01*
X111316546Y-84865145D01*
X111335842Y-84848425D01*
X111358026Y-84832891D01*
X111521401Y-84718495D01*
X111688495Y-84551401D01*
X111824035Y-84357830D01*
X111923903Y-84143663D01*
X111985063Y-83915408D01*
X111985064Y-83915390D01*
X111985833Y-83911033D01*
X112016852Y-83848426D01*
X112076795Y-83812528D01*
X112146629Y-83814736D01*
X112195633Y-83844869D01*
X113386283Y-85035519D01*
X113386285Y-85035520D01*
X113386289Y-85035523D01*
X113463256Y-85079959D01*
X113523215Y-85114576D01*
X113675942Y-85155500D01*
X113675944Y-85155500D01*
X113841653Y-85155500D01*
X113841669Y-85155499D01*
X114736150Y-85155499D01*
X114736166Y-85155500D01*
X114743762Y-85155500D01*
X114901873Y-85155500D01*
X114901876Y-85155500D01*
X115054604Y-85114576D01*
X115121521Y-85075941D01*
X115191535Y-85035519D01*
X115303339Y-84923715D01*
X115303339Y-84923713D01*
X115313543Y-84913510D01*
X115313546Y-84913505D01*
X115687820Y-84539232D01*
X115749142Y-84505748D01*
X115818834Y-84510732D01*
X115874767Y-84552604D01*
X115899184Y-84618068D01*
X115899500Y-84626914D01*
X115899500Y-85915343D01*
X115879815Y-85982382D01*
X115841473Y-86020336D01*
X115779113Y-86059520D01*
X115779111Y-86059521D01*
X115659523Y-86179109D01*
X115659518Y-86179115D01*
X115569547Y-86322302D01*
X115569545Y-86322305D01*
X115513685Y-86481943D01*
X115494751Y-86649997D01*
X115494751Y-86650002D01*
X115513685Y-86818056D01*
X115569545Y-86977694D01*
X115569547Y-86977697D01*
X115659518Y-87120884D01*
X115659523Y-87120890D01*
X115779109Y-87240476D01*
X115779115Y-87240481D01*
X115922302Y-87330452D01*
X115922305Y-87330454D01*
X115922309Y-87330455D01*
X115922310Y-87330456D01*
X115965798Y-87345673D01*
X116081943Y-87386314D01*
X116249997Y-87405249D01*
X116250000Y-87405249D01*
X116250003Y-87405249D01*
X116350835Y-87393887D01*
X116418059Y-87386313D01*
X116577690Y-87330456D01*
X116631786Y-87296464D01*
X116699020Y-87277464D01*
X116738712Y-87284417D01*
X116849252Y-87323097D01*
X117017310Y-87342033D01*
X117017313Y-87342033D01*
X117017316Y-87342033D01*
X117185372Y-87323097D01*
X117185374Y-87323097D01*
X117261482Y-87296465D01*
X117345003Y-87267240D01*
X117349239Y-87264577D01*
X117416475Y-87245576D01*
X117456169Y-87252529D01*
X117611404Y-87306848D01*
X117779462Y-87325784D01*
X117779465Y-87325784D01*
X117779468Y-87325784D01*
X117947521Y-87306849D01*
X118011628Y-87284417D01*
X118107155Y-87250991D01*
X118107157Y-87250989D01*
X118107159Y-87250989D01*
X118107162Y-87250987D01*
X118250349Y-87161016D01*
X118250350Y-87161015D01*
X118250355Y-87161012D01*
X118369942Y-87041425D01*
X118402971Y-86988860D01*
X118459917Y-86898232D01*
X118459919Y-86898229D01*
X118459919Y-86898227D01*
X118459921Y-86898225D01*
X118515778Y-86738594D01*
X118515778Y-86738593D01*
X118515779Y-86738591D01*
X118534714Y-86570537D01*
X118534714Y-86570532D01*
X118515779Y-86402478D01*
X118465883Y-86259883D01*
X118459921Y-86242845D01*
X118459920Y-86242844D01*
X118459919Y-86242840D01*
X118459917Y-86242837D01*
X118369946Y-86099650D01*
X118369941Y-86099644D01*
X118250356Y-85980059D01*
X118246672Y-85977121D01*
X118206534Y-85919931D01*
X118199989Y-85880177D01*
X118199989Y-82217232D01*
X118219674Y-82150193D01*
X118236308Y-82129551D01*
X118264568Y-82101291D01*
X118339969Y-82025890D01*
X118339973Y-82025884D01*
X118429944Y-81882697D01*
X118429946Y-81882694D01*
X118429946Y-81882692D01*
X118429948Y-81882690D01*
X118485805Y-81723059D01*
X118485805Y-81723058D01*
X118485806Y-81723056D01*
X118504741Y-81555002D01*
X118504741Y-81554997D01*
X118485806Y-81386943D01*
X118455352Y-81299913D01*
X118429948Y-81227310D01*
X118429947Y-81227309D01*
X118429946Y-81227305D01*
X118429944Y-81227302D01*
X118339973Y-81084115D01*
X118339968Y-81084109D01*
X118220382Y-80964523D01*
X118220376Y-80964518D01*
X118077189Y-80874547D01*
X118077186Y-80874545D01*
X117917548Y-80818685D01*
X117749495Y-80799751D01*
X117749489Y-80799751D01*
X117581434Y-80818686D01*
X117440444Y-80868020D01*
X117370665Y-80871581D01*
X117358536Y-80868020D01*
X117217546Y-80818686D01*
X117049492Y-80799751D01*
X117049486Y-80799751D01*
X116881432Y-80818685D01*
X116721798Y-80874544D01*
X116703781Y-80885865D01*
X116636544Y-80904863D01*
X116596858Y-80897911D01*
X116432373Y-80840356D01*
X116264319Y-80821421D01*
X116264313Y-80821421D01*
X116096259Y-80840355D01*
X115936621Y-80896215D01*
X115936618Y-80896217D01*
X115793431Y-80986188D01*
X115793425Y-80986193D01*
X115673839Y-81105779D01*
X115673834Y-81105785D01*
X115583863Y-81248972D01*
X115583861Y-81248975D01*
X115528001Y-81408613D01*
X115509067Y-81576667D01*
X115509067Y-81576672D01*
X115528002Y-81744729D01*
X115528002Y-81744731D01*
X115554505Y-81820470D01*
X115558067Y-81890249D01*
X115523339Y-81950876D01*
X115503438Y-81966418D01*
X115479110Y-81981704D01*
X115359523Y-82101291D01*
X115359518Y-82101297D01*
X115269547Y-82244484D01*
X115269545Y-82244487D01*
X115213685Y-82404125D01*
X115194751Y-82572179D01*
X115194751Y-82572184D01*
X115213685Y-82740237D01*
X115215177Y-82746771D01*
X115210902Y-82816510D01*
X115169602Y-82872867D01*
X115104390Y-82897949D01*
X115080402Y-82897581D01*
X114960665Y-82884090D01*
X114960658Y-82884090D01*
X114792604Y-82903024D01*
X114663234Y-82948293D01*
X114632971Y-82958883D01*
X114632969Y-82958883D01*
X114626399Y-82961183D01*
X114625584Y-82958856D01*
X114567947Y-82968341D01*
X114517126Y-82950263D01*
X114476196Y-82924544D01*
X114316559Y-82868684D01*
X114141583Y-82848970D01*
X114141778Y-82847233D01*
X114083309Y-82830065D01*
X114062667Y-82813431D01*
X113991864Y-82742628D01*
X113958379Y-82681305D01*
X113963363Y-82611613D01*
X114005235Y-82555680D01*
X114013543Y-82549973D01*
X114025867Y-82542230D01*
X114145454Y-82422643D01*
X114182929Y-82363002D01*
X114235429Y-82279450D01*
X114235431Y-82279447D01*
X114235431Y-82279445D01*
X114235433Y-82279443D01*
X114291290Y-82119812D01*
X114291290Y-82119811D01*
X114291291Y-82119809D01*
X114310226Y-81951755D01*
X114310226Y-81951750D01*
X114291291Y-81783696D01*
X114235431Y-81624058D01*
X114235429Y-81624055D01*
X114145458Y-81480868D01*
X114145453Y-81480862D01*
X114136818Y-81472227D01*
X114103333Y-81410904D01*
X114100499Y-81384546D01*
X114100499Y-79065980D01*
X114120184Y-78998941D01*
X114172988Y-78953186D01*
X114242146Y-78943242D01*
X114305702Y-78972267D01*
X114343476Y-79031045D01*
X114344259Y-79033835D01*
X114381517Y-79172879D01*
X114381518Y-79172881D01*
X114381517Y-79172881D01*
X114390121Y-79187782D01*
X114390122Y-79187783D01*
X114460571Y-79309806D01*
X114460575Y-79309811D01*
X114579443Y-79428679D01*
X114579449Y-79428684D01*
X115297857Y-80147092D01*
X115297867Y-80147103D01*
X115302197Y-80151433D01*
X115302198Y-80151434D01*
X115414002Y-80263238D01*
X115488422Y-80306204D01*
X115550933Y-80342295D01*
X115703661Y-80383218D01*
X115861775Y-80383218D01*
X116909337Y-80383218D01*
X116975308Y-80402223D01*
X117072310Y-80463174D01*
X117163793Y-80495185D01*
X117231943Y-80519032D01*
X117399997Y-80537967D01*
X117400000Y-80537967D01*
X117400003Y-80537967D01*
X117568056Y-80519032D01*
X117575166Y-80516544D01*
X117727690Y-80463174D01*
X117727692Y-80463172D01*
X117727694Y-80463172D01*
X117727697Y-80463170D01*
X117870884Y-80373199D01*
X117870885Y-80373198D01*
X117870890Y-80373195D01*
X117990477Y-80253608D01*
X117990481Y-80253602D01*
X118080452Y-80110415D01*
X118080454Y-80110412D01*
X118080454Y-80110410D01*
X118080456Y-80110408D01*
X118136313Y-79950777D01*
X118136313Y-79950776D01*
X118136314Y-79950774D01*
X118155249Y-79782720D01*
X118155249Y-79782715D01*
X118136313Y-79614658D01*
X118136313Y-79614656D01*
X118098494Y-79506577D01*
X118094932Y-79436798D01*
X118103822Y-79411806D01*
X118104297Y-79410818D01*
X118104301Y-79410812D01*
X118160158Y-79251181D01*
X118179094Y-79083122D01*
X118177163Y-79065980D01*
X118160159Y-78915066D01*
X118137673Y-78850806D01*
X118134110Y-78781028D01*
X118149719Y-78743882D01*
X118222728Y-78627690D01*
X118278585Y-78468059D01*
X118278585Y-78468058D01*
X118278586Y-78468056D01*
X118297521Y-78300002D01*
X118297521Y-78299997D01*
X118278586Y-78131943D01*
X118248132Y-78044913D01*
X118222728Y-77972310D01*
X118222727Y-77972309D01*
X118222726Y-77972305D01*
X118222724Y-77972302D01*
X118132753Y-77829115D01*
X118132748Y-77829109D01*
X118013162Y-77709523D01*
X118013156Y-77709518D01*
X117869969Y-77619547D01*
X117869966Y-77619545D01*
X117710328Y-77563685D01*
X117542275Y-77544751D01*
X117542269Y-77544751D01*
X117374215Y-77563685D01*
X117214577Y-77619545D01*
X117214574Y-77619547D01*
X117071387Y-77709518D01*
X117071381Y-77709523D01*
X116951795Y-77829109D01*
X116937034Y-77852602D01*
X116913366Y-77890268D01*
X116861033Y-77936558D01*
X116808374Y-77948295D01*
X116382962Y-77948295D01*
X116316990Y-77929289D01*
X116219990Y-77868339D01*
X116124471Y-77834916D01*
X116060358Y-77812482D01*
X116060356Y-77812481D01*
X116060354Y-77812481D01*
X116051703Y-77811506D01*
X115987291Y-77784435D01*
X115947739Y-77726838D01*
X115941594Y-77688286D01*
X115941594Y-75907716D01*
X115961279Y-75840677D01*
X116014083Y-75794922D01*
X116051711Y-75784496D01*
X116121257Y-75776660D01*
X121694392Y-75776660D01*
X121694392Y-75776661D01*
X121708192Y-75785333D01*
X121708191Y-75785333D01*
X121878361Y-75844878D01*
X122057497Y-75865062D01*
X122057503Y-75865062D01*
X122236638Y-75844878D01*
X122236641Y-75844877D01*
X122406805Y-75785334D01*
X122406806Y-75785334D01*
X122420606Y-75776661D01*
X122420606Y-75776660D01*
X123219392Y-75776660D01*
X123219392Y-75776661D01*
X123233192Y-75785333D01*
X123233191Y-75785333D01*
X123403361Y-75844878D01*
X123582497Y-75865062D01*
X123582503Y-75865062D01*
X123761638Y-75844878D01*
X123761641Y-75844877D01*
X123931805Y-75785334D01*
X123931806Y-75785334D01*
X123945606Y-75776661D01*
X123945606Y-75776660D01*
X123582501Y-75413553D01*
X123582500Y-75413553D01*
X123219392Y-75776660D01*
X122420606Y-75776660D01*
X122057501Y-75413553D01*
X122057500Y-75413553D01*
X121694392Y-75776660D01*
X116121257Y-75776660D01*
X116175147Y-75770588D01*
X116175149Y-75770587D01*
X116175151Y-75770587D01*
X116334782Y-75714730D01*
X116334784Y-75714728D01*
X116334786Y-75714728D01*
X116334789Y-75714726D01*
X116477976Y-75624755D01*
X116477977Y-75624754D01*
X116477982Y-75624751D01*
X116597569Y-75505164D01*
X116645389Y-75429060D01*
X116687544Y-75361971D01*
X116687546Y-75361968D01*
X116687546Y-75361966D01*
X116687548Y-75361964D01*
X116743405Y-75202333D01*
X116743405Y-75202332D01*
X116743406Y-75202330D01*
X116762341Y-75034276D01*
X116762341Y-75034271D01*
X116760075Y-75014160D01*
X120931892Y-75014160D01*
X120931892Y-75014161D01*
X120945692Y-75022833D01*
X120945691Y-75022833D01*
X121115861Y-75082378D01*
X121158482Y-75087180D01*
X121222896Y-75114246D01*
X121262451Y-75171840D01*
X121267819Y-75196515D01*
X121272621Y-75239138D01*
X121332165Y-75409304D01*
X121340838Y-75423107D01*
X121703946Y-75060000D01*
X121684055Y-75040109D01*
X121957500Y-75040109D01*
X121957500Y-75079891D01*
X121972724Y-75116645D01*
X122000855Y-75144776D01*
X122037609Y-75160000D01*
X122077391Y-75160000D01*
X122114145Y-75144776D01*
X122142276Y-75116645D01*
X122157500Y-75079891D01*
X122157500Y-75060000D01*
X122411053Y-75060000D01*
X122774160Y-75423106D01*
X122806122Y-75419506D01*
X122833885Y-75419507D01*
X122865838Y-75423107D01*
X123228946Y-75060000D01*
X123209055Y-75040109D01*
X123482500Y-75040109D01*
X123482500Y-75079891D01*
X123497724Y-75116645D01*
X123525855Y-75144776D01*
X123562609Y-75160000D01*
X123602391Y-75160000D01*
X123639145Y-75144776D01*
X123667276Y-75116645D01*
X123682500Y-75079891D01*
X123682500Y-75060000D01*
X123936053Y-75060000D01*
X124299160Y-75423106D01*
X124299161Y-75423106D01*
X124307834Y-75409306D01*
X124307834Y-75409305D01*
X124367378Y-75239139D01*
X124372180Y-75196518D01*
X124399246Y-75132103D01*
X124456840Y-75092548D01*
X124481518Y-75087180D01*
X124524139Y-75082378D01*
X124694305Y-75022834D01*
X124694306Y-75022834D01*
X124708106Y-75014161D01*
X124708106Y-75014160D01*
X124345000Y-74651053D01*
X124289608Y-74706446D01*
X124289607Y-74706447D01*
X123936053Y-75060000D01*
X123682500Y-75060000D01*
X123682500Y-75040109D01*
X123667276Y-75003355D01*
X123639145Y-74975224D01*
X123602391Y-74960000D01*
X123562609Y-74960000D01*
X123525855Y-74975224D01*
X123497724Y-75003355D01*
X123482500Y-75040109D01*
X123209055Y-75040109D01*
X122875392Y-74706446D01*
X122820000Y-74651053D01*
X122764608Y-74706446D01*
X122764607Y-74706447D01*
X122411053Y-75060000D01*
X122157500Y-75060000D01*
X122157500Y-75040109D01*
X122142276Y-75003355D01*
X122114145Y-74975224D01*
X122077391Y-74960000D01*
X122037609Y-74960000D01*
X122000855Y-74975224D01*
X121972724Y-75003355D01*
X121957500Y-75040109D01*
X121684055Y-75040109D01*
X121294999Y-74651053D01*
X121294998Y-74651053D01*
X120931892Y-75014160D01*
X116760075Y-75014160D01*
X116743406Y-74866217D01*
X116693984Y-74724977D01*
X116687548Y-74706584D01*
X116687547Y-74706583D01*
X116687546Y-74706579D01*
X116687544Y-74706576D01*
X116597573Y-74563389D01*
X116597568Y-74563383D01*
X116490457Y-74456272D01*
X116456972Y-74394949D01*
X116461956Y-74325257D01*
X116479798Y-74297497D01*
X120489938Y-74297497D01*
X120489938Y-74297502D01*
X120510121Y-74476638D01*
X120569665Y-74646804D01*
X120578338Y-74660607D01*
X120941446Y-74297500D01*
X120941446Y-74297499D01*
X120921556Y-74277609D01*
X121195000Y-74277609D01*
X121195000Y-74317391D01*
X121210224Y-74354145D01*
X121238355Y-74382276D01*
X121275109Y-74397500D01*
X121314891Y-74397500D01*
X121351645Y-74382276D01*
X121379776Y-74354145D01*
X121395000Y-74317391D01*
X121395000Y-74297499D01*
X121648553Y-74297499D01*
X122057500Y-74706446D01*
X122466446Y-74297500D01*
X122446555Y-74277609D01*
X122720000Y-74277609D01*
X122720000Y-74317391D01*
X122735224Y-74354145D01*
X122763355Y-74382276D01*
X122800109Y-74397500D01*
X122839891Y-74397500D01*
X122876645Y-74382276D01*
X122904776Y-74354145D01*
X122920000Y-74317391D01*
X122920000Y-74297499D01*
X123173553Y-74297499D01*
X123582500Y-74706446D01*
X123991446Y-74297500D01*
X123971555Y-74277609D01*
X124245000Y-74277609D01*
X124245000Y-74317391D01*
X124260224Y-74354145D01*
X124288355Y-74382276D01*
X124325109Y-74397500D01*
X124364891Y-74397500D01*
X124401645Y-74382276D01*
X124429776Y-74354145D01*
X124445000Y-74317391D01*
X124445000Y-74297500D01*
X124698552Y-74297500D01*
X125061660Y-74660606D01*
X125061661Y-74660606D01*
X125070334Y-74646806D01*
X125070334Y-74646805D01*
X125129877Y-74476641D01*
X125129878Y-74476638D01*
X125150062Y-74297502D01*
X125150062Y-74297497D01*
X125129878Y-74118361D01*
X125070333Y-73948192D01*
X125061661Y-73934392D01*
X125061660Y-73934392D01*
X124698552Y-74297500D01*
X124445000Y-74297500D01*
X124445000Y-74277609D01*
X124429776Y-74240855D01*
X124401645Y-74212724D01*
X124364891Y-74197500D01*
X124325109Y-74197500D01*
X124288355Y-74212724D01*
X124260224Y-74240855D01*
X124245000Y-74277609D01*
X123971555Y-74277609D01*
X123632623Y-73938677D01*
X123582500Y-73888553D01*
X123532377Y-73938677D01*
X123532376Y-73938678D01*
X123173553Y-74297499D01*
X122920000Y-74297499D01*
X122920000Y-74277609D01*
X122904776Y-74240855D01*
X122876645Y-74212724D01*
X122839891Y-74197500D01*
X122800109Y-74197500D01*
X122763355Y-74212724D01*
X122735224Y-74240855D01*
X122720000Y-74277609D01*
X122446555Y-74277609D01*
X122107623Y-73938677D01*
X122057500Y-73888553D01*
X122007377Y-73938677D01*
X122007376Y-73938678D01*
X121648553Y-74297499D01*
X121395000Y-74297499D01*
X121395000Y-74277609D01*
X121379776Y-74240855D01*
X121351645Y-74212724D01*
X121314891Y-74197500D01*
X121275109Y-74197500D01*
X121238355Y-74212724D01*
X121210224Y-74240855D01*
X121195000Y-74277609D01*
X120921556Y-74277609D01*
X120578338Y-73934391D01*
X120578337Y-73934391D01*
X120569667Y-73948191D01*
X120569662Y-73948201D01*
X120510122Y-74118358D01*
X120510121Y-74118361D01*
X120489938Y-74297497D01*
X116479798Y-74297497D01*
X116486689Y-74286775D01*
X116486136Y-74286334D01*
X116490454Y-74280919D01*
X116490466Y-74280901D01*
X116490466Y-74280900D01*
X116490477Y-74280890D01*
X116580456Y-74137690D01*
X116636313Y-73978059D01*
X116636313Y-73978058D01*
X116636314Y-73978056D01*
X116655249Y-73810002D01*
X116655249Y-73809997D01*
X116636314Y-73641945D01*
X116636313Y-73641941D01*
X116614932Y-73580838D01*
X120931891Y-73580838D01*
X121294998Y-73943946D01*
X121294999Y-73943946D01*
X121666782Y-73572164D01*
X121703946Y-73535000D01*
X121684055Y-73515109D01*
X121957500Y-73515109D01*
X121957500Y-73554891D01*
X121972724Y-73591645D01*
X122000855Y-73619776D01*
X122037609Y-73635000D01*
X122077391Y-73635000D01*
X122114145Y-73619776D01*
X122142276Y-73591645D01*
X122157500Y-73554891D01*
X122157500Y-73535000D01*
X122411053Y-73535000D01*
X122448217Y-73572163D01*
X122820000Y-73943946D01*
X123228946Y-73535000D01*
X123209055Y-73515109D01*
X123482500Y-73515109D01*
X123482500Y-73554891D01*
X123497724Y-73591645D01*
X123525855Y-73619776D01*
X123562609Y-73635000D01*
X123602391Y-73635000D01*
X123639145Y-73619776D01*
X123667276Y-73591645D01*
X123682500Y-73554891D01*
X123682500Y-73535000D01*
X123936053Y-73535000D01*
X123973217Y-73572163D01*
X124345000Y-73943946D01*
X124345001Y-73943946D01*
X124708107Y-73580838D01*
X124704507Y-73548885D01*
X124704506Y-73521122D01*
X124708106Y-73489160D01*
X124345000Y-73126053D01*
X124294199Y-73176855D01*
X124294198Y-73176856D01*
X123936053Y-73535000D01*
X123682500Y-73535000D01*
X123682500Y-73515109D01*
X123667276Y-73478355D01*
X123639145Y-73450224D01*
X123602391Y-73435000D01*
X123562609Y-73435000D01*
X123525855Y-73450224D01*
X123497724Y-73478355D01*
X123482500Y-73515109D01*
X123209055Y-73515109D01*
X122870801Y-73176855D01*
X122820000Y-73126053D01*
X122769199Y-73176855D01*
X122769198Y-73176856D01*
X122411053Y-73535000D01*
X122157500Y-73535000D01*
X122157500Y-73515109D01*
X122142276Y-73478355D01*
X122114145Y-73450224D01*
X122077391Y-73435000D01*
X122037609Y-73435000D01*
X122000855Y-73450224D01*
X121972724Y-73478355D01*
X121957500Y-73515109D01*
X121684055Y-73515109D01*
X121294999Y-73126053D01*
X121294998Y-73126053D01*
X120931892Y-73489160D01*
X120935493Y-73521119D01*
X120935492Y-73548884D01*
X120931891Y-73580838D01*
X116614932Y-73580838D01*
X116607458Y-73559477D01*
X116600500Y-73518523D01*
X116600500Y-72772497D01*
X120489938Y-72772497D01*
X120489938Y-72772502D01*
X120510121Y-72951638D01*
X120569665Y-73121804D01*
X120578338Y-73135607D01*
X120941446Y-72772500D01*
X120941446Y-72772499D01*
X120921556Y-72752609D01*
X121195000Y-72752609D01*
X121195000Y-72792391D01*
X121210224Y-72829145D01*
X121238355Y-72857276D01*
X121275109Y-72872500D01*
X121314891Y-72872500D01*
X121351645Y-72857276D01*
X121379776Y-72829145D01*
X121395000Y-72792391D01*
X121395000Y-72772500D01*
X121648553Y-72772500D01*
X121696054Y-72820000D01*
X122057500Y-73181446D01*
X122466446Y-72772500D01*
X122446555Y-72752609D01*
X122720000Y-72752609D01*
X122720000Y-72792391D01*
X122735224Y-72829145D01*
X122763355Y-72857276D01*
X122800109Y-72872500D01*
X122839891Y-72872500D01*
X122876645Y-72857276D01*
X122904776Y-72829145D01*
X122920000Y-72792391D01*
X122920000Y-72772500D01*
X123173552Y-72772500D01*
X123221054Y-72820000D01*
X123582500Y-73181446D01*
X123991446Y-72772500D01*
X123971555Y-72752609D01*
X124245000Y-72752609D01*
X124245000Y-72792391D01*
X124260224Y-72829145D01*
X124288355Y-72857276D01*
X124325109Y-72872500D01*
X124364891Y-72872500D01*
X124401645Y-72857276D01*
X124429776Y-72829145D01*
X124445000Y-72792391D01*
X124445000Y-72772500D01*
X124698553Y-72772500D01*
X125061660Y-73135606D01*
X125061661Y-73135606D01*
X125070334Y-73121806D01*
X125070334Y-73121805D01*
X125129877Y-72951641D01*
X125129878Y-72951638D01*
X125150062Y-72772502D01*
X125150062Y-72772497D01*
X125129878Y-72593361D01*
X125070333Y-72423192D01*
X125061661Y-72409392D01*
X125061660Y-72409392D01*
X124698553Y-72772500D01*
X124445000Y-72772500D01*
X124445000Y-72752609D01*
X124429776Y-72715855D01*
X124401645Y-72687724D01*
X124364891Y-72672500D01*
X124325109Y-72672500D01*
X124288355Y-72687724D01*
X124260224Y-72715855D01*
X124245000Y-72752609D01*
X123971555Y-72752609D01*
X123637892Y-72418946D01*
X123582500Y-72363553D01*
X123527108Y-72418946D01*
X123527107Y-72418947D01*
X123173552Y-72772500D01*
X122920000Y-72772500D01*
X122920000Y-72752609D01*
X122904776Y-72715855D01*
X122876645Y-72687724D01*
X122839891Y-72672500D01*
X122800109Y-72672500D01*
X122763355Y-72687724D01*
X122735224Y-72715855D01*
X122720000Y-72752609D01*
X122446555Y-72752609D01*
X122112892Y-72418946D01*
X122057500Y-72363553D01*
X122002108Y-72418946D01*
X122002107Y-72418947D01*
X121648553Y-72772500D01*
X121395000Y-72772500D01*
X121395000Y-72752609D01*
X121379776Y-72715855D01*
X121351645Y-72687724D01*
X121314891Y-72672500D01*
X121275109Y-72672500D01*
X121238355Y-72687724D01*
X121210224Y-72715855D01*
X121195000Y-72752609D01*
X120921556Y-72752609D01*
X120578338Y-72409391D01*
X120578337Y-72409391D01*
X120569667Y-72423191D01*
X120569662Y-72423201D01*
X120510122Y-72593358D01*
X120510121Y-72593361D01*
X120489938Y-72772497D01*
X116600500Y-72772497D01*
X116600500Y-72055837D01*
X120931891Y-72055837D01*
X120931891Y-72055838D01*
X121294998Y-72418946D01*
X121294999Y-72418946D01*
X121666783Y-72047164D01*
X121703946Y-72009999D01*
X121703946Y-72009998D01*
X121684057Y-71990109D01*
X121957500Y-71990109D01*
X121957500Y-72029891D01*
X121972724Y-72066645D01*
X122000855Y-72094776D01*
X122037609Y-72110000D01*
X122077391Y-72110000D01*
X122114145Y-72094776D01*
X122142276Y-72066645D01*
X122157500Y-72029891D01*
X122157500Y-72009998D01*
X122411053Y-72009998D01*
X122411053Y-72009999D01*
X122820000Y-72418946D01*
X123191783Y-72047164D01*
X123228946Y-72009999D01*
X123228946Y-72009998D01*
X123209057Y-71990109D01*
X123482500Y-71990109D01*
X123482500Y-72029891D01*
X123497724Y-72066645D01*
X123525855Y-72094776D01*
X123562609Y-72110000D01*
X123602391Y-72110000D01*
X123639145Y-72094776D01*
X123667276Y-72066645D01*
X123682500Y-72029891D01*
X123682500Y-72009998D01*
X123936053Y-72009998D01*
X123936053Y-72009999D01*
X124345000Y-72418946D01*
X124345001Y-72418946D01*
X124708107Y-72055838D01*
X124694304Y-72047165D01*
X124524138Y-71987621D01*
X124481515Y-71982819D01*
X124417102Y-71955752D01*
X124377547Y-71898157D01*
X124372180Y-71873482D01*
X124367378Y-71830861D01*
X124307833Y-71660692D01*
X124299161Y-71646892D01*
X124299160Y-71646892D01*
X123936053Y-72009998D01*
X123682500Y-72009998D01*
X123682500Y-71990109D01*
X123667276Y-71953355D01*
X123639145Y-71925224D01*
X123602391Y-71910000D01*
X123562609Y-71910000D01*
X123525855Y-71925224D01*
X123497724Y-71953355D01*
X123482500Y-71990109D01*
X123209057Y-71990109D01*
X122865837Y-71646890D01*
X122833885Y-71650491D01*
X122806122Y-71650492D01*
X122774160Y-71646891D01*
X122411053Y-72009998D01*
X122157500Y-72009998D01*
X122157500Y-71990109D01*
X122142276Y-71953355D01*
X122114145Y-71925224D01*
X122077391Y-71910000D01*
X122037609Y-71910000D01*
X122000855Y-71925224D01*
X121972724Y-71953355D01*
X121957500Y-71990109D01*
X121684057Y-71990109D01*
X121340838Y-71646891D01*
X121340837Y-71646891D01*
X121332167Y-71660691D01*
X121332162Y-71660701D01*
X121272622Y-71830858D01*
X121267819Y-71873484D01*
X121240752Y-71937898D01*
X121183156Y-71977452D01*
X121158484Y-71982819D01*
X121115858Y-71987622D01*
X120945701Y-72047162D01*
X120945694Y-72047166D01*
X120931891Y-72055837D01*
X116600500Y-72055837D01*
X116600500Y-71293337D01*
X121694391Y-71293337D01*
X121694391Y-71293338D01*
X122057500Y-71656446D01*
X122057501Y-71656446D01*
X122420607Y-71293338D01*
X122420605Y-71293337D01*
X123219391Y-71293337D01*
X123219391Y-71293338D01*
X123582500Y-71656446D01*
X123582501Y-71656446D01*
X123945607Y-71293338D01*
X123931804Y-71284665D01*
X123761638Y-71225121D01*
X123582503Y-71204938D01*
X123582497Y-71204938D01*
X123403361Y-71225121D01*
X123403358Y-71225122D01*
X123233201Y-71284662D01*
X123233191Y-71284667D01*
X123219391Y-71293337D01*
X122420605Y-71293337D01*
X122406804Y-71284665D01*
X122236638Y-71225121D01*
X122057503Y-71204938D01*
X122057497Y-71204938D01*
X121878361Y-71225121D01*
X121878358Y-71225122D01*
X121708201Y-71284662D01*
X121708191Y-71284667D01*
X121694391Y-71293337D01*
X116600500Y-71293337D01*
X116600500Y-70848761D01*
X116600498Y-70848752D01*
X116597828Y-70838786D01*
X116596346Y-70833254D01*
X116559577Y-70696031D01*
X116559575Y-70696027D01*
X116550138Y-70679681D01*
X116533665Y-70611781D01*
X116552532Y-70551708D01*
X116630456Y-70427693D01*
X116630455Y-70427693D01*
X116630458Y-70427690D01*
X116686315Y-70268059D01*
X116686315Y-70268058D01*
X116686316Y-70268056D01*
X116705251Y-70100002D01*
X116705251Y-70099997D01*
X116686316Y-69931943D01*
X116663251Y-69866028D01*
X116630458Y-69772310D01*
X116619309Y-69754566D01*
X116569508Y-69675308D01*
X116550502Y-69609336D01*
X116550502Y-69589062D01*
X116550503Y-69589049D01*
X116550503Y-69420946D01*
X116523582Y-69320477D01*
X116509579Y-69268218D01*
X116509328Y-69267784D01*
X116430526Y-69131292D01*
X116430520Y-69131284D01*
X115434249Y-68135013D01*
X114387589Y-67088354D01*
X114387588Y-67088352D01*
X114268717Y-66969481D01*
X114268716Y-66969480D01*
X114174277Y-66914956D01*
X114174276Y-66914955D01*
X114131790Y-66890425D01*
X114131789Y-66890424D01*
X114119263Y-66887067D01*
X113979057Y-66849499D01*
X113820943Y-66849499D01*
X113813347Y-66849499D01*
X113813331Y-66849500D01*
X109629999Y-66849500D01*
X109562960Y-66829815D01*
X109542318Y-66813181D01*
X108178320Y-65449184D01*
X108144835Y-65387861D01*
X108142473Y-65350700D01*
X108155659Y-65200000D01*
X108135063Y-64964592D01*
X108091254Y-64801092D01*
X108092917Y-64731243D01*
X108132080Y-64673381D01*
X108196308Y-64645877D01*
X108211029Y-64645000D01*
X133625500Y-64645000D01*
X133692539Y-64664685D01*
G37*
%TD.AperFunction*%
%TA.AperFunction,Conductor*%
G36*
X104025217Y-95718543D02*
G01*
X104042300Y-95721693D01*
X104051225Y-95723995D01*
X104118703Y-95741401D01*
X104159657Y-95748359D01*
X104180449Y-95750112D01*
X104244309Y-95755499D01*
X104244325Y-95755499D01*
X104244327Y-95755500D01*
X104244328Y-95755500D01*
X104946457Y-95755500D01*
X104953542Y-95755301D01*
X104974809Y-95754704D01*
X104988692Y-95753924D01*
X104989569Y-95753850D01*
X104990001Y-95753850D01*
X104990428Y-95753826D01*
X104990429Y-95753850D01*
X105009571Y-95753850D01*
X105009572Y-95753826D01*
X105009999Y-95753850D01*
X105010432Y-95753850D01*
X105011309Y-95753924D01*
X105025193Y-95754704D01*
X105045985Y-95755287D01*
X105053543Y-95755500D01*
X105053547Y-95755500D01*
X105946457Y-95755500D01*
X105953542Y-95755301D01*
X105974809Y-95754704D01*
X105988692Y-95753924D01*
X105989569Y-95753850D01*
X105990001Y-95753850D01*
X105990428Y-95753826D01*
X105990429Y-95753850D01*
X106009571Y-95753850D01*
X106009572Y-95753826D01*
X106009999Y-95753850D01*
X106010432Y-95753850D01*
X106011309Y-95753924D01*
X106025193Y-95754704D01*
X106045985Y-95755287D01*
X106053543Y-95755500D01*
X106053547Y-95755500D01*
X107325500Y-95755500D01*
X107392539Y-95775185D01*
X107438294Y-95827989D01*
X107449500Y-95879500D01*
X107449500Y-103939851D01*
X107429815Y-104006890D01*
X107413181Y-104027532D01*
X106206876Y-105233836D01*
X106145553Y-105267321D01*
X106075861Y-105262337D01*
X106027045Y-105229127D01*
X106010870Y-105211163D01*
X105857734Y-105099903D01*
X105857729Y-105099900D01*
X105684807Y-105022909D01*
X105684802Y-105022907D01*
X105539001Y-104991917D01*
X105499646Y-104983552D01*
X105310354Y-104983552D01*
X105277897Y-104990450D01*
X105125197Y-105022907D01*
X105125192Y-105022909D01*
X104952270Y-105099900D01*
X104952265Y-105099903D01*
X104837310Y-105183423D01*
X104811879Y-105197665D01*
X104760456Y-105218965D01*
X104760452Y-105218967D01*
X104711217Y-105251865D01*
X104637536Y-105301096D01*
X104637528Y-105301102D01*
X103097228Y-106841402D01*
X103035905Y-106874887D01*
X103035329Y-106875011D01*
X102970196Y-106888856D01*
X102970192Y-106888857D01*
X102924936Y-106909007D01*
X102855686Y-106918292D01*
X102792409Y-106888664D01*
X102755196Y-106829529D01*
X102750500Y-106795728D01*
X102750500Y-102454271D01*
X102770185Y-102387232D01*
X102822989Y-102341477D01*
X102892147Y-102331533D01*
X102924930Y-102340989D01*
X102970197Y-102361144D01*
X103155354Y-102400500D01*
X103155355Y-102400500D01*
X103344644Y-102400500D01*
X103344646Y-102400500D01*
X103500375Y-102367398D01*
X103503233Y-102366826D01*
X103727151Y-102324842D01*
X103772847Y-102324842D01*
X103996755Y-102366824D01*
X103999645Y-102367403D01*
X104155354Y-102400500D01*
X104181044Y-102400500D01*
X104187917Y-102400822D01*
X104187921Y-102400752D01*
X104190970Y-102400886D01*
X104190983Y-102400888D01*
X104190995Y-102400887D01*
X104190997Y-102400888D01*
X104262016Y-102400502D01*
X104262690Y-102400500D01*
X104344644Y-102400500D01*
X104344646Y-102400500D01*
X104500375Y-102367398D01*
X104503233Y-102366826D01*
X104727151Y-102324842D01*
X104772847Y-102324842D01*
X104996755Y-102366824D01*
X104999645Y-102367403D01*
X105155354Y-102400500D01*
X105181044Y-102400500D01*
X105187917Y-102400822D01*
X105187921Y-102400752D01*
X105190970Y-102400886D01*
X105190983Y-102400888D01*
X105190995Y-102400887D01*
X105190997Y-102400888D01*
X105262016Y-102400502D01*
X105262690Y-102400500D01*
X105344644Y-102400500D01*
X105344646Y-102400500D01*
X105529803Y-102361144D01*
X105702730Y-102284151D01*
X105855871Y-102172888D01*
X105982533Y-102032216D01*
X106077179Y-101868284D01*
X106135674Y-101688256D01*
X106155460Y-101500000D01*
X106135674Y-101311744D01*
X106077179Y-101131716D01*
X105982533Y-100967784D01*
X105855871Y-100827112D01*
X105855870Y-100827111D01*
X105702734Y-100715851D01*
X105702729Y-100715848D01*
X105529807Y-100638857D01*
X105529802Y-100638855D01*
X105384001Y-100607865D01*
X105344646Y-100599500D01*
X105344645Y-100599500D01*
X105328972Y-100599500D01*
X105311836Y-100597734D01*
X105311766Y-100598255D01*
X105307383Y-100597664D01*
X105307378Y-100597663D01*
X105098944Y-100569579D01*
X105015637Y-100558355D01*
X104951826Y-100529894D01*
X104944514Y-100523146D01*
X103786819Y-99365451D01*
X103753334Y-99304128D01*
X103750500Y-99277770D01*
X103750500Y-95839294D01*
X103770185Y-95772255D01*
X103822989Y-95726500D01*
X103878289Y-95715353D01*
X103944979Y-95717395D01*
X103966119Y-95715013D01*
X103993880Y-95715013D01*
X104025217Y-95718543D01*
G37*
%TD.AperFunction*%
%TD*%
%TA.AperFunction,Conductor*%
%TO.N,GND*%
G36*
X108250000Y-90250000D02*
G01*
X103750500Y-90250000D01*
X103750500Y-85802229D01*
X103770185Y-85735190D01*
X103786819Y-85714548D01*
X104001367Y-85500000D01*
X108250000Y-85500000D01*
X108250000Y-90250000D01*
G37*
%TD.AperFunction*%
%TD*%
%TA.AperFunction,Conductor*%
%TO.N,VBUS*%
G36*
X104751328Y-101032812D02*
G01*
X105239881Y-101098636D01*
X105247622Y-101103137D01*
X105250018Y-101110210D01*
X105250698Y-101495831D01*
X105247286Y-101504111D01*
X105247250Y-101504146D01*
X104974053Y-101775980D01*
X104965772Y-101779386D01*
X104959152Y-101777313D01*
X104403587Y-101393569D01*
X104398727Y-101386047D01*
X104400609Y-101377293D01*
X104401957Y-101375675D01*
X104741498Y-101036134D01*
X104749770Y-101032708D01*
X104751328Y-101032812D01*
G37*
%TD.AperFunction*%
%TD*%
%TA.AperFunction,Conductor*%
%TO.N,VBUS*%
G36*
X103899177Y-100743575D02*
G01*
X104522045Y-101209087D01*
X104526621Y-101216785D01*
X104524413Y-101225463D01*
X104523335Y-101226711D01*
X104252369Y-101499035D01*
X104248527Y-101501603D01*
X103889684Y-101649272D01*
X103880730Y-101649251D01*
X103875245Y-101644546D01*
X103788021Y-101501603D01*
X103542304Y-101098919D01*
X103540920Y-101090075D01*
X103544017Y-101084557D01*
X103883901Y-100744673D01*
X103892173Y-100741247D01*
X103899177Y-100743575D01*
G37*
%TD.AperFunction*%
%TD*%
%TA.AperFunction,Conductor*%
%TO.N,VBUS*%
G36*
X103498563Y-100703427D02*
G01*
X103501790Y-100709544D01*
X103647408Y-101486179D01*
X103645564Y-101494942D01*
X103638064Y-101499835D01*
X103635937Y-101500035D01*
X103250029Y-101500999D01*
X103249971Y-101500999D01*
X102864062Y-101500035D01*
X102855797Y-101496587D01*
X102852391Y-101488306D01*
X102852591Y-101486179D01*
X102998210Y-100709544D01*
X103003103Y-100702044D01*
X103009710Y-100700000D01*
X103490290Y-100700000D01*
X103498563Y-100703427D01*
G37*
%TD.AperFunction*%
%TD*%
%TA.AperFunction,Conductor*%
%TO.N,VBUS*%
G36*
X104244942Y-101104435D02*
G01*
X104249835Y-101111935D01*
X104250035Y-101114062D01*
X104251000Y-101500000D01*
X104251000Y-101500058D01*
X104250035Y-101885937D01*
X104246587Y-101894202D01*
X104238306Y-101897608D01*
X104236179Y-101897408D01*
X103459544Y-101751789D01*
X103452044Y-101746896D01*
X103450000Y-101740289D01*
X103450000Y-101259710D01*
X103453427Y-101251437D01*
X103459542Y-101248210D01*
X104236180Y-101102591D01*
X104244942Y-101104435D01*
G37*
%TD.AperFunction*%
%TD*%
%TA.AperFunction,Conductor*%
%TO.N,VBUS*%
G36*
X103263817Y-101102590D02*
G01*
X104040457Y-101248210D01*
X104047956Y-101253103D01*
X104050000Y-101259710D01*
X104050000Y-101740289D01*
X104046573Y-101748562D01*
X104040456Y-101751789D01*
X103263820Y-101897408D01*
X103255057Y-101895564D01*
X103250164Y-101888064D01*
X103249964Y-101885946D01*
X103249000Y-101500000D01*
X103249964Y-101114059D01*
X103253412Y-101105797D01*
X103261693Y-101102391D01*
X103263817Y-101102590D01*
G37*
%TD.AperFunction*%
%TD*%
%TA.AperFunction,Conductor*%
%TO.N,VBUS*%
G36*
X104263817Y-101102590D02*
G01*
X105040457Y-101248210D01*
X105047956Y-101253103D01*
X105050000Y-101259710D01*
X105050000Y-101740289D01*
X105046573Y-101748562D01*
X105040456Y-101751789D01*
X104263820Y-101897408D01*
X104255057Y-101895564D01*
X104250164Y-101888064D01*
X104249964Y-101885946D01*
X104249000Y-101500000D01*
X104249964Y-101114059D01*
X104253412Y-101105797D01*
X104261693Y-101102391D01*
X104263817Y-101102590D01*
G37*
%TD.AperFunction*%
%TD*%
%TA.AperFunction,Conductor*%
%TO.N,VBUS*%
G36*
X105244942Y-101104435D02*
G01*
X105249835Y-101111935D01*
X105250035Y-101114062D01*
X105251000Y-101500000D01*
X105251000Y-101500058D01*
X105250035Y-101885937D01*
X105246587Y-101894202D01*
X105238306Y-101897608D01*
X105236179Y-101897408D01*
X104459544Y-101751789D01*
X104452044Y-101746896D01*
X104450000Y-101740289D01*
X104450000Y-101259710D01*
X104453427Y-101251437D01*
X104459542Y-101248210D01*
X105236180Y-101102591D01*
X105244942Y-101104435D01*
G37*
%TD.AperFunction*%
%TD*%
M02*
