%TF.GenerationSoftware,KiCad,Pcbnew,8.0.3*%
%TF.CreationDate,2024-11-02T12:13:14+01:00*%
%TF.ProjectId,ESP-Now-Gateway,4553502d-4e6f-4772-9d47-617465776179,rev?*%
%TF.SameCoordinates,Original*%
%TF.FileFunction,Soldermask,Bot*%
%TF.FilePolarity,Negative*%
%FSLAX46Y46*%
G04 Gerber Fmt 4.6, Leading zero omitted, Abs format (unit mm)*
G04 Created by KiCad (PCBNEW 8.0.3) date 2024-11-02 12:13:14*
%MOMM*%
%LPD*%
G01*
G04 APERTURE LIST*
%ADD10R,1.700000X1.700000*%
%ADD11O,1.700000X1.700000*%
%ADD12C,3.250000*%
%ADD13R,1.398000X1.398000*%
%ADD14C,1.398000*%
%ADD15C,1.530000*%
%ADD16C,2.445000*%
%ADD17C,0.650000*%
%ADD18O,1.000000X2.100000*%
%ADD19O,1.000000X1.800000*%
G04 APERTURE END LIST*
D10*
%TO.C,J5*%
X104300000Y-81600000D03*
D11*
X106840000Y-81600000D03*
X104300000Y-84140000D03*
X106840000Y-84140000D03*
X104300000Y-86680000D03*
X106840000Y-86680000D03*
X104300000Y-89220000D03*
X106840000Y-89220000D03*
X104300000Y-91760000D03*
X106840000Y-91760000D03*
X104300000Y-94300000D03*
X106840000Y-94300000D03*
%TD*%
D10*
%TO.C,J4*%
X106800000Y-77900000D03*
D11*
X104260000Y-77900000D03*
X106800000Y-75360000D03*
X104260000Y-75360000D03*
X106800000Y-72820000D03*
X104260000Y-72820000D03*
X106800000Y-70280000D03*
X104260000Y-70280000D03*
X106800000Y-67740000D03*
X104260000Y-67740000D03*
X106800000Y-65200000D03*
X104260000Y-65200000D03*
%TD*%
D10*
%TO.C,J2*%
X110650000Y-78600000D03*
D11*
X110650000Y-81140000D03*
X110650000Y-83680000D03*
X110650000Y-86220000D03*
X110650000Y-88760000D03*
X110650000Y-91300000D03*
%TD*%
D12*
%TO.C,J1*%
X130000000Y-115600000D03*
X118570000Y-115600000D03*
D13*
X119835000Y-109250000D03*
D14*
X121105000Y-106710000D03*
X122375000Y-109250000D03*
X123645000Y-106710000D03*
X124915000Y-109250000D03*
X126185000Y-106710000D03*
X127455000Y-109250000D03*
X128725000Y-106710000D03*
D15*
X117660000Y-120500000D03*
X120200000Y-120500000D03*
X128370000Y-120500000D03*
X130910000Y-120500000D03*
D16*
X116540000Y-112550000D03*
X132030000Y-112550000D03*
%TD*%
D17*
%TO.C,USBC1*%
X106430000Y-117092500D03*
X112210000Y-117092500D03*
D18*
X105000000Y-116592500D03*
D19*
X105000000Y-120772500D03*
X113640000Y-120772500D03*
D18*
X113640000Y-116592500D03*
%TD*%
M02*
