M48
; DRILL file {KiCad 8.0.3} date 2024-11-02T12:13:14+0100
; FORMAT={-:-/ absolute / inch / decimal}
; #@! TF.CreationDate,2024-11-02T12:13:14+01:00
; #@! TF.GenerationSoftware,Kicad,Pcbnew,8.0.3
; #@! TF.FileFunction,Plated,1,2,PTH
FMAT,2
INCH
; #@! TA.AperFunction,Plated,PTH,ViaDrill
T1C0.0079
; #@! TA.AperFunction,Plated,PTH,ComponentDrill
T2C0.0079
; #@! TA.AperFunction,Plated,PTH,ViaDrill
T3C0.0118
; #@! TA.AperFunction,Plated,PTH,ComponentDrill
T4C0.0236
; #@! TA.AperFunction,Plated,PTH,ComponentDrill
T5C0.0256
; #@! TA.AperFunction,Plated,PTH,ComponentDrill
T6C0.0350
; #@! TA.AperFunction,Plated,PTH,ComponentDrill
T7C0.0394
; #@! TA.AperFunction,Plated,PTH,ComponentDrill
T8C0.0402
; #@! TA.AperFunction,Plated,PTH,ComponentDrill
T9C0.0642
%
G90
G05
T1
X4.0937Y-3.778
X4.0978Y-4.3406
X4.1194Y-4.3159
X4.1339Y-3.7795
X4.1732Y-3.7795
X4.1772Y-4.128
X4.2008Y-4.1102
X4.2028Y-3.8976
X4.2028Y-3.9272
X4.2028Y-3.9567
X4.2028Y-3.9862
X4.2028Y-4.0157
X4.2092Y-4.3098
X4.2205Y-4.0906
X4.2292Y-4.3287
X4.2323Y-3.8976
X4.2323Y-3.9272
X4.2323Y-3.9567
X4.2323Y-3.9862
X4.2323Y-4.0157
X4.2745Y-2.942
X4.2756Y-2.9697
X4.2933Y-3.8898
X4.2933Y-3.9154
X4.2933Y-3.9409
X4.2933Y-3.9665
X4.2933Y-3.9921
X4.2933Y-4.0177
X4.3012Y-4.1634
X4.3068Y-3.711
X4.311Y-3.7382
X4.3307Y-3.6516
X4.3307Y-3.6811
X4.3406Y-4.1634
X4.3583Y-4.4764
X4.3602Y-3.6516
X4.3799Y-3.9075
X4.3799Y-3.937
X4.3799Y-3.9665
X4.3799Y-3.9961
X4.3799Y-4.1634
X4.4094Y-3.9075
X4.4094Y-3.937
X4.4094Y-3.9665
X4.4094Y-3.9961
X4.4094Y-4.0256
X4.4274Y-3.065
X4.4291Y-2.8454
X4.4349Y-3.6384
X4.439Y-3.9075
X4.439Y-3.937
X4.439Y-3.9665
X4.439Y-3.9961
X4.439Y-4.0256
X4.4567Y-3.4055
X4.4567Y-3.4606
X4.4567Y-3.5157
X4.4567Y-3.5709
X4.4707Y-3.2264
X4.4715Y-2.9911
X4.4744Y-3.6772
X4.4783Y-2.7539
X4.4803Y-3.4331
X4.4803Y-3.4882
X4.4803Y-3.5433
X4.4803Y-3.5984
X4.494Y-3.2915
X4.5079Y-3.4055
X4.5079Y-3.4606
X4.5079Y-3.5157
X4.5079Y-3.5709
X4.526Y-3.2929
X4.5354Y-3.4331
X4.5354Y-3.4882
X4.5354Y-3.5433
X4.5354Y-3.5984
X4.5531Y-3.3465
X4.5551Y-3.374
X4.5627Y-3.0925
X4.563Y-2.9059
X4.563Y-3.4606
X4.563Y-3.5157
X4.563Y-3.5709
X4.565Y-3.2509
X4.565Y-2.7598
X4.5672Y-2.9541
X4.5768Y-3.4114
X4.5773Y-3.2117
X4.5906Y-3.4882
X4.5906Y-3.5157
X4.5906Y-3.5433
X4.5906Y-3.5709
X4.6043Y-4.3209
X4.607Y-3.4089
X4.6082Y-3.2108
X4.6122Y-4.3465
X4.6181Y-3.4882
X4.6181Y-3.5157
X4.6181Y-3.5433
X4.6181Y-3.5709
X4.622Y-3.1411
X4.623Y-3.1135
X4.6276Y-3.0827
X4.6358Y-3.2108
X4.637Y-3.4083
X4.6398Y-4.3563
X4.6457Y-3.4882
X4.6457Y-3.5157
X4.6457Y-3.5433
X4.6457Y-3.5709
X4.6516Y-4.3799
X4.6654Y-2.815
X4.6654Y-2.8543
X4.6654Y-2.8937
X4.6654Y-2.9331
X4.6654Y-2.9724
X4.6732Y-3.4882
X4.6732Y-3.5157
X4.6732Y-3.5433
X4.6732Y-3.5709
X4.6752Y-4.3917
X4.685Y-2.9134
X4.685Y-2.8346
X4.685Y-2.874
X4.685Y-2.9528
X4.685Y-2.9921
X4.689Y-3.3681
X4.689Y-4.4154
X4.6941Y-4.0448
X4.7007Y-4.1337
X4.7008Y-3.4606
X4.7008Y-3.4882
X4.7008Y-3.5157
X4.7008Y-3.5433
X4.7008Y-3.5709
X4.7104Y-4.1079
X4.7146Y-3.1614
X4.7146Y-4.4272
X4.7165Y-3.1909
X4.7283Y-3.4606
X4.7283Y-3.4882
X4.7283Y-3.5157
X4.7283Y-3.5433
X4.7283Y-3.5709
X4.7343Y-2.7461
X4.7382Y-3.3681
X4.7441Y-3.1614
X4.7461Y-3.1909
X4.748Y-3.2205
X4.7539Y-2.7657
X4.7559Y-3.4606
X4.7559Y-3.4882
X4.7559Y-3.5157
X4.7559Y-3.5433
X4.7559Y-3.5709
X4.7736Y-2.7461
X4.7736Y-3.1614
X4.7756Y-3.1909
X4.7756Y-3.2205
X4.7835Y-3.4606
X4.7835Y-3.4882
X4.7874Y-3.3681
X4.7933Y-2.7657
X4.8031Y-3.1614
X4.8051Y-3.1909
X4.8051Y-3.2205
X4.813Y-2.7461
X4.832Y-3.785
X4.8327Y-2.7657
X4.8327Y-3.1614
X4.8346Y-3.1909
X4.8346Y-3.2205
X4.8386Y-3.3681
X4.8425Y-3.4488
X4.8425Y-3.4961
X4.8425Y-3.7579
X4.8506Y-3.5309
X4.8509Y-3.6149
X4.8524Y-2.7461
X4.8524Y-3.4724
X4.8543Y-3.8012
X4.8622Y-3.1614
X4.8642Y-3.1909
X4.8642Y-3.2205
X4.872Y-2.7657
X4.874Y-3.4528
X4.8858Y-3.4783
X4.8868Y-3.686
X4.8878Y-3.3681
X4.8917Y-2.7461
X4.8917Y-3.1614
X4.8937Y-3.1909
X4.8937Y-3.2205
X4.9114Y-2.7657
X4.9139Y-3.5906
X4.9213Y-3.7106
X4.9213Y-3.75
X4.9213Y-3.7894
X4.939Y-3.3661
X4.9409Y-3.7303
X4.9409Y-3.7697
X4.9606Y-2.8189
X4.9606Y-2.8583
X4.9606Y-2.937
X4.9606Y-2.9764
X4.9606Y-3.7106
X4.9606Y-3.75
X4.9606Y-3.7894
X4.9606Y-2.8976
X4.9685Y-3.4202
X4.9803Y-2.8386
X4.9803Y-2.878
X4.9803Y-2.9173
X4.9803Y-2.9567
X4.9803Y-2.9961
X4.9803Y-3.7303
X4.9803Y-3.7697
X4.9902Y-3.372
X5.0Y-3.7106
X5.0Y-3.75
X5.0Y-3.7894
X5.036Y-3.1215
X5.0362Y-3.3526
X5.0384Y-3.2633
X5.0548Y-3.2116
X5.064Y-3.1272
X5.065Y-3.2561
X5.112Y-3.4034
X5.1142Y-3.0433
X5.1218Y-3.1544
X5.128Y-3.1812
X5.1339Y-2.9252
X5.1437Y-3.0059
X5.1575Y-3.5453
X5.1594Y-2.9626
X5.1624Y-2.7059
X5.1634Y-2.6575
X5.1634Y-2.8559
T2
X4.7754Y-2.8651
X4.7754Y-2.9251
X4.8054Y-2.835
X4.8054Y-2.8951
X4.8054Y-2.9551
X4.8354Y-2.8651
X4.8354Y-2.9251
X4.8655Y-2.835
X4.8655Y-2.8951
X4.8655Y-2.9551
X4.8955Y-2.8651
X4.8955Y-2.9251
T3
X4.065Y-3.9961
X4.065Y-4.1831
X4.065Y-4.2421
X4.1043Y-3.9961
X4.1437Y-3.9961
X4.1498Y-4.1687
X4.2776Y-3.1122
X4.378Y-2.5669
X4.378Y-2.5984
X4.378Y-2.628
X4.4252Y-2.748
X4.4654Y-2.8801
X4.5Y-3.7795
X4.5Y-3.811
X4.5Y-3.8425
X4.5Y-3.874
X4.5273Y-4.2792
X4.5276Y-4.2028
X4.5276Y-4.2402
X4.5315Y-4.0827
X4.5354Y-4.1457
X4.5394Y-4.1142
X4.5591Y-4.2047
X4.5591Y-4.2402
X4.5669Y-4.1487
X4.5748Y-4.0866
X4.5748Y-4.1181
X4.5906Y-4.2047
X4.6063Y-4.1063
X4.6142Y-4.0039
X4.622Y-3.937
X4.6299Y-3.9724
X4.6457Y-4.2598
X4.6563Y-4.6744
X4.6732Y-3.9528
X4.6791Y-3.7421
X4.6949Y-4.6492
X4.7874Y-4.5276
X4.7874Y-4.5591
X4.7874Y-4.5906
X4.7874Y-4.622
X4.7874Y-4.6535
X4.7874Y-4.685
X4.7908Y-4.0526
X4.8287Y-3.9731
X4.8502Y-3.8533
X4.8819Y-3.8287
X4.8819Y-4.0394
X4.9232Y-3.8817
X4.9454Y-3.9532
X4.997Y-3.8612
X5.0114Y-3.4956
X5.0394Y-3.8287
X5.0504Y-3.4567
X5.0771Y-3.7878
X5.0787Y-4.0551
X5.0787Y-4.0866
X5.0787Y-4.1181
X5.1063Y-3.6969
X5.1417Y-3.6811
X5.153Y-3.5765
X5.1693Y-3.6535
X5.1927Y-3.7874
X5.1969Y-4.1654
X5.1969Y-4.1969
X5.1969Y-4.2283
X5.1969Y-4.2598
X5.1969Y-4.2913
X5.1969Y-4.3228
X5.2069Y-3.6124
X5.2303Y-3.5204
X5.2323Y-3.4783
X5.2362Y-3.4311
X5.2441Y-3.6496
X5.2441Y-3.6811
X5.2441Y-3.7126
X5.2441Y-3.7441
X5.2441Y-3.7756
X5.2441Y-3.8071
X5.2441Y-3.8386
X5.2441Y-3.8701
X5.2441Y-3.9016
X5.2441Y-3.9331
T5
X4.1902Y-4.6099
X4.4177Y-4.6099
T6
X4.7179Y-4.3012
X4.7679Y-4.2012
X4.8179Y-4.3012
X4.8679Y-4.2012
X4.9179Y-4.3012
X4.9679Y-4.2012
X5.0179Y-4.3012
X5.0679Y-4.2012
T7
X4.1047Y-2.5669
X4.1047Y-2.6669
X4.1047Y-2.7669
X4.1047Y-2.8669
X4.1047Y-2.9669
X4.1047Y-3.0669
X4.1063Y-3.2126
X4.1063Y-3.3126
X4.1063Y-3.4126
X4.1063Y-3.5126
X4.1063Y-3.6126
X4.1063Y-3.7126
X4.2047Y-2.5669
X4.2047Y-2.6669
X4.2047Y-2.7669
X4.2047Y-2.8669
X4.2047Y-2.9669
X4.2047Y-3.0669
X4.2063Y-3.2126
X4.2063Y-3.3126
X4.2063Y-3.4126
X4.2063Y-3.5126
X4.2063Y-3.6126
X4.2063Y-3.7126
X4.3563Y-3.0945
X4.3563Y-3.1945
X4.3563Y-3.2945
X4.3563Y-3.3945
X4.3563Y-3.4945
X4.3563Y-3.5945
T8
X4.6323Y-4.7441
X4.7323Y-4.7441
X5.0539Y-4.7441
X5.1539Y-4.7441
T9
X4.5882Y-4.4311
X5.198Y-4.4311
T4
G00X4.1339Y-4.5686
M15
G01X4.1339Y-4.6119
M16
G05
G00X4.1339Y-4.7391
M15
G01X4.1339Y-4.7706
M16
G05
G00X4.474Y-4.5686
M15
G01X4.474Y-4.6119
M16
G05
G00X4.474Y-4.7391
M15
G01X4.474Y-4.7706
M16
G05
M30
