%TF.GenerationSoftware,KiCad,Pcbnew,8.0.3*%
%TF.CreationDate,2024-11-02T12:13:14+01:00*%
%TF.ProjectId,ESP-Now-Gateway,4553502d-4e6f-4772-9d47-617465776179,rev?*%
%TF.SameCoordinates,Original*%
%TF.FileFunction,Copper,L1,Top*%
%TF.FilePolarity,Positive*%
%FSLAX46Y46*%
G04 Gerber Fmt 4.6, Leading zero omitted, Abs format (unit mm)*
G04 Created by KiCad (PCBNEW 8.0.3) date 2024-11-02 12:13:14*
%MOMM*%
%LPD*%
G01*
G04 APERTURE LIST*
G04 Aperture macros list*
%AMRoundRect*
0 Rectangle with rounded corners*
0 $1 Rounding radius*
0 $2 $3 $4 $5 $6 $7 $8 $9 X,Y pos of 4 corners*
0 Add a 4 corners polygon primitive as box body*
4,1,4,$2,$3,$4,$5,$6,$7,$8,$9,$2,$3,0*
0 Add four circle primitives for the rounded corners*
1,1,$1+$1,$2,$3*
1,1,$1+$1,$4,$5*
1,1,$1+$1,$6,$7*
1,1,$1+$1,$8,$9*
0 Add four rect primitives between the rounded corners*
20,1,$1+$1,$2,$3,$4,$5,0*
20,1,$1+$1,$4,$5,$6,$7,0*
20,1,$1+$1,$6,$7,$8,$9,0*
20,1,$1+$1,$8,$9,$2,$3,0*%
G04 Aperture macros list end*
%TA.AperFunction,ComponentPad*%
%ADD10R,1.700000X1.700000*%
%TD*%
%TA.AperFunction,ComponentPad*%
%ADD11O,1.700000X1.700000*%
%TD*%
%TA.AperFunction,SMDPad,CuDef*%
%ADD12RoundRect,0.200000X0.275000X-0.200000X0.275000X0.200000X-0.275000X0.200000X-0.275000X-0.200000X0*%
%TD*%
%TA.AperFunction,SMDPad,CuDef*%
%ADD13RoundRect,0.200000X0.200000X0.275000X-0.200000X0.275000X-0.200000X-0.275000X0.200000X-0.275000X0*%
%TD*%
%TA.AperFunction,ComponentPad*%
%ADD14R,1.398000X1.398000*%
%TD*%
%TA.AperFunction,ComponentPad*%
%ADD15C,1.398000*%
%TD*%
%TA.AperFunction,ComponentPad*%
%ADD16C,1.530000*%
%TD*%
%TA.AperFunction,ComponentPad*%
%ADD17C,2.445000*%
%TD*%
%TA.AperFunction,ComponentPad*%
%ADD18C,0.650000*%
%TD*%
%TA.AperFunction,ComponentPad*%
%ADD19O,1.000000X2.100000*%
%TD*%
%TA.AperFunction,ComponentPad*%
%ADD20O,1.000000X1.800000*%
%TD*%
%TA.AperFunction,SMDPad,CuDef*%
%ADD21R,0.600000X1.150000*%
%TD*%
%TA.AperFunction,SMDPad,CuDef*%
%ADD22R,0.300000X1.150000*%
%TD*%
%TA.AperFunction,SMDPad,CuDef*%
%ADD23R,1.500000X0.900000*%
%TD*%
%TA.AperFunction,SMDPad,CuDef*%
%ADD24R,0.900000X1.500000*%
%TD*%
%TA.AperFunction,SMDPad,CuDef*%
%ADD25R,1.050000X1.050000*%
%TD*%
%TA.AperFunction,HeatsinkPad*%
%ADD26C,0.600000*%
%TD*%
%TA.AperFunction,SMDPad,CuDef*%
%ADD27R,4.200000X4.200000*%
%TD*%
%TA.AperFunction,SMDPad,CuDef*%
%ADD28RoundRect,0.062500X0.350000X0.062500X-0.350000X0.062500X-0.350000X-0.062500X0.350000X-0.062500X0*%
%TD*%
%TA.AperFunction,SMDPad,CuDef*%
%ADD29RoundRect,0.062500X0.062500X0.350000X-0.062500X0.350000X-0.062500X-0.350000X0.062500X-0.350000X0*%
%TD*%
%TA.AperFunction,HeatsinkPad*%
%ADD30R,2.600000X2.600000*%
%TD*%
%TA.AperFunction,SMDPad,CuDef*%
%ADD31RoundRect,0.200000X-0.200000X-0.275000X0.200000X-0.275000X0.200000X0.275000X-0.200000X0.275000X0*%
%TD*%
%TA.AperFunction,SMDPad,CuDef*%
%ADD32RoundRect,0.200000X-0.275000X0.200000X-0.275000X-0.200000X0.275000X-0.200000X0.275000X0.200000X0*%
%TD*%
%TA.AperFunction,SMDPad,CuDef*%
%ADD33RoundRect,0.200000X-0.053033X0.335876X-0.335876X0.053033X0.053033X-0.335876X0.335876X-0.053033X0*%
%TD*%
%TA.AperFunction,SMDPad,CuDef*%
%ADD34RoundRect,0.250000X0.412500X0.925000X-0.412500X0.925000X-0.412500X-0.925000X0.412500X-0.925000X0*%
%TD*%
%TA.AperFunction,SMDPad,CuDef*%
%ADD35RoundRect,0.140000X-0.140000X-0.170000X0.140000X-0.170000X0.140000X0.170000X-0.140000X0.170000X0*%
%TD*%
%TA.AperFunction,SMDPad,CuDef*%
%ADD36RoundRect,0.225000X-0.225000X-0.250000X0.225000X-0.250000X0.225000X0.250000X-0.225000X0.250000X0*%
%TD*%
%TA.AperFunction,SMDPad,CuDef*%
%ADD37RoundRect,0.225000X-0.250000X0.225000X-0.250000X-0.225000X0.250000X-0.225000X0.250000X0.225000X0*%
%TD*%
%TA.AperFunction,SMDPad,CuDef*%
%ADD38RoundRect,0.225000X-0.335876X-0.017678X-0.017678X-0.335876X0.335876X0.017678X0.017678X0.335876X0*%
%TD*%
%TA.AperFunction,SMDPad,CuDef*%
%ADD39RoundRect,0.135000X0.185000X-0.135000X0.185000X0.135000X-0.185000X0.135000X-0.185000X-0.135000X0*%
%TD*%
%TA.AperFunction,SMDPad,CuDef*%
%ADD40RoundRect,0.162500X-0.447500X-0.162500X0.447500X-0.162500X0.447500X0.162500X-0.447500X0.162500X0*%
%TD*%
%TA.AperFunction,SMDPad,CuDef*%
%ADD41RoundRect,0.135000X-0.135000X-0.185000X0.135000X-0.185000X0.135000X0.185000X-0.135000X0.185000X0*%
%TD*%
%TA.AperFunction,SMDPad,CuDef*%
%ADD42RoundRect,0.140000X0.140000X0.170000X-0.140000X0.170000X-0.140000X-0.170000X0.140000X-0.170000X0*%
%TD*%
%TA.AperFunction,SMDPad,CuDef*%
%ADD43RoundRect,0.135000X0.135000X0.185000X-0.135000X0.185000X-0.135000X-0.185000X0.135000X-0.185000X0*%
%TD*%
%TA.AperFunction,SMDPad,CuDef*%
%ADD44RoundRect,0.225000X0.225000X0.250000X-0.225000X0.250000X-0.225000X-0.250000X0.225000X-0.250000X0*%
%TD*%
%TA.AperFunction,SMDPad,CuDef*%
%ADD45RoundRect,0.150000X0.150000X-0.825000X0.150000X0.825000X-0.150000X0.825000X-0.150000X-0.825000X0*%
%TD*%
%TA.AperFunction,SMDPad,CuDef*%
%ADD46RoundRect,0.250000X-0.650000X1.000000X-0.650000X-1.000000X0.650000X-1.000000X0.650000X1.000000X0*%
%TD*%
%TA.AperFunction,SMDPad,CuDef*%
%ADD47RoundRect,0.200000X-0.335876X-0.053033X-0.053033X-0.335876X0.335876X0.053033X0.053033X0.335876X0*%
%TD*%
%TA.AperFunction,SMDPad,CuDef*%
%ADD48RoundRect,0.225000X0.017678X-0.335876X0.335876X-0.017678X-0.017678X0.335876X-0.335876X0.017678X0*%
%TD*%
%TA.AperFunction,SMDPad,CuDef*%
%ADD49RoundRect,0.375000X-0.375000X0.625000X-0.375000X-0.625000X0.375000X-0.625000X0.375000X0.625000X0*%
%TD*%
%TA.AperFunction,SMDPad,CuDef*%
%ADD50RoundRect,0.500000X-1.400000X0.500000X-1.400000X-0.500000X1.400000X-0.500000X1.400000X0.500000X0*%
%TD*%
%TA.AperFunction,ViaPad*%
%ADD51C,0.600000*%
%TD*%
%TA.AperFunction,ViaPad*%
%ADD52C,0.800000*%
%TD*%
%TA.AperFunction,ViaPad*%
%ADD53C,0.400000*%
%TD*%
%TA.AperFunction,ViaPad*%
%ADD54C,0.500000*%
%TD*%
%TA.AperFunction,Conductor*%
%ADD55C,0.200000*%
%TD*%
%TA.AperFunction,Conductor*%
%ADD56C,0.500000*%
%TD*%
%TA.AperFunction,Conductor*%
%ADD57C,0.750000*%
%TD*%
%TA.AperFunction,Conductor*%
%ADD58C,0.300000*%
%TD*%
%TA.AperFunction,Conductor*%
%ADD59C,0.160000*%
%TD*%
%TA.AperFunction,Conductor*%
%ADD60C,1.000000*%
%TD*%
%TA.AperFunction,Conductor*%
%ADD61C,1.250000*%
%TD*%
%TA.AperFunction,Conductor*%
%ADD62C,0.700000*%
%TD*%
%TA.AperFunction,Conductor*%
%ADD63C,0.350000*%
%TD*%
%TA.AperFunction,Conductor*%
%ADD64C,0.800000*%
%TD*%
%TA.AperFunction,Conductor*%
%ADD65C,0.280000*%
%TD*%
%TA.AperFunction,Conductor*%
%ADD66C,0.250000*%
%TD*%
G04 APERTURE END LIST*
D10*
%TO.P,J5,1,Pin_1*%
%TO.N,VBUS*%
X104300000Y-81600000D03*
D11*
%TO.P,J5,2,Pin_2*%
X106840000Y-81600000D03*
%TO.P,J5,3,Pin_3*%
X104300000Y-84140000D03*
%TO.P,J5,4,Pin_4*%
X106840000Y-84140000D03*
%TO.P,J5,5,Pin_5*%
%TO.N,GND*%
X104300000Y-86680000D03*
%TO.P,J5,6,Pin_6*%
X106840000Y-86680000D03*
%TO.P,J5,7,Pin_7*%
X104300000Y-89220000D03*
%TO.P,J5,8,Pin_8*%
X106840000Y-89220000D03*
%TO.P,J5,9,Pin_9*%
%TO.N,+3V3*%
X104300000Y-91760000D03*
%TO.P,J5,10,Pin_10*%
X106840000Y-91760000D03*
%TO.P,J5,11,Pin_11*%
X104300000Y-94300000D03*
%TO.P,J5,12,Pin_12*%
X106840000Y-94300000D03*
%TD*%
D10*
%TO.P,J4,1,Pin_1*%
%TO.N,/ESP_IO14*%
X106800000Y-77900000D03*
D11*
%TO.P,J4,2,Pin_2*%
%TO.N,/ESP_IO4*%
X104260000Y-77900000D03*
%TO.P,J4,3,Pin_3*%
%TO.N,/ESP_IO12*%
X106800000Y-75360000D03*
%TO.P,J4,4,Pin_4*%
%TO.N,/ESP_IO13*%
X104260000Y-75360000D03*
%TO.P,J4,5,Pin_5*%
%TO.N,/ESP_IO5*%
X106800000Y-72820000D03*
%TO.P,J4,6,Pin_6*%
%TO.N,/ESP_IO33*%
X104260000Y-72820000D03*
%TO.P,J4,7,Pin_7*%
%TO.N,/ESP_IO2*%
X106800000Y-70280000D03*
%TO.P,J4,8,Pin_8*%
%TO.N,/ESP_IO15*%
X104260000Y-70280000D03*
%TO.P,J4,9,Pin_9*%
%TO.N,/ESP_SENSOR_VP_IO36*%
X106800000Y-67740000D03*
%TO.P,J4,10,Pin_10*%
%TO.N,/ESP_IO34*%
X104260000Y-67740000D03*
%TO.P,J4,11,Pin_11*%
%TO.N,/ESP_SENSOR_VN_IO39*%
X106800000Y-65200000D03*
%TO.P,J4,12,Pin_12*%
%TO.N,/ESP_IO35*%
X104260000Y-65200000D03*
%TD*%
D10*
%TO.P,J2,1,Pin_1*%
%TO.N,+3V3*%
X110650000Y-78600000D03*
D11*
%TO.P,J2,2,Pin_2*%
%TO.N,/BOOT0*%
X110650000Y-81140000D03*
%TO.P,J2,3,Pin_3*%
%TO.N,/EN*%
X110650000Y-83680000D03*
%TO.P,J2,4,Pin_4*%
%TO.N,/TX*%
X110650000Y-86220000D03*
%TO.P,J2,5,Pin_5*%
%TO.N,/RX*%
X110650000Y-88760000D03*
%TO.P,J2,6,Pin_6*%
%TO.N,GND*%
X110650000Y-91300000D03*
%TD*%
D12*
%TO.P,R20,1*%
%TO.N,/RX*%
X103250000Y-110475000D03*
%TO.P,R20,2*%
%TO.N,+3V3*%
X103250000Y-108825000D03*
%TD*%
D13*
%TO.P,R19,1*%
%TO.N,/DTR*%
X115525000Y-94450000D03*
%TO.P,R19,2*%
%TO.N,+3V3*%
X113875000Y-94450000D03*
%TD*%
D14*
%TO.P,J1,1*%
%TO.N,/TX+*%
X119835000Y-109250000D03*
D15*
%TO.P,J1,2*%
%TO.N,/TX-*%
X121105000Y-106710000D03*
%TO.P,J1,3*%
%TO.N,/RX+*%
X122375000Y-109250000D03*
%TO.P,J1,4*%
%TO.N,+3V3*%
X123645000Y-106710000D03*
%TO.P,J1,5*%
X124915000Y-109250000D03*
%TO.P,J1,6*%
%TO.N,/RX-*%
X126185000Y-106710000D03*
%TO.P,J1,7*%
%TO.N,N/C*%
X127455000Y-109250000D03*
%TO.P,J1,8*%
%TO.N,GND*%
X128725000Y-106710000D03*
D16*
%TO.P,J1,9*%
%TO.N,+3V3*%
X117660000Y-120500000D03*
%TO.P,J1,10*%
%TO.N,Net-(J1-Pad10)*%
X120200000Y-120500000D03*
%TO.P,J1,11*%
%TO.N,GND*%
X128370000Y-120500000D03*
%TO.P,J1,12*%
%TO.N,Net-(J1-Pad12)*%
X130910000Y-120500000D03*
D17*
%TO.P,J1,15,SHIELD*%
%TO.N,GND*%
X116540000Y-112550000D03*
%TO.P,J1,16,SHIELD*%
X132030000Y-112550000D03*
%TD*%
D18*
%TO.P,USBC1,*%
%TO.N,*%
X106430000Y-117092500D03*
X112210000Y-117092500D03*
D19*
%TO.P,USBC1,1,SHIELD*%
%TO.N,GND*%
X105000000Y-116592500D03*
D20*
%TO.P,USBC1,2,SHIELD*%
X105000000Y-120772500D03*
%TO.P,USBC1,3,SHIELD*%
X113640000Y-120772500D03*
D19*
%TO.P,USBC1,4,SHIELD*%
X113640000Y-116592500D03*
D21*
%TO.P,USBC1,A1-B12,GND*%
X106120000Y-116032500D03*
%TO.P,USBC1,A4-B9,VBUS*%
%TO.N,VBUS*%
X106920000Y-116032500D03*
D22*
%TO.P,USBC1,A5,CC1*%
%TO.N,Net-(USBC1-CC1)*%
X108070000Y-116032500D03*
%TO.P,USBC1,A6,DP1*%
%TO.N,/USB_DP*%
X109070000Y-116032500D03*
%TO.P,USBC1,A7,DN1*%
%TO.N,/USB_DN*%
X109570000Y-116032500D03*
%TO.P,USBC1,A8,SBU1*%
%TO.N,unconnected-(USBC1-SBU1-PadA8)*%
X110570000Y-116032500D03*
D21*
%TO.P,USBC1,B1-A12,GND*%
%TO.N,GND*%
X112520000Y-116032500D03*
%TO.P,USBC1,B4-A9,VBUS*%
%TO.N,VBUS*%
X111720000Y-116032500D03*
D22*
%TO.P,USBC1,B5,CC2*%
%TO.N,Net-(USBC1-CC2)*%
X111070000Y-116032500D03*
%TO.P,USBC1,B6,DP2*%
%TO.N,/USB_DP*%
X110070000Y-116032500D03*
%TO.P,USBC1,B7,DN2*%
%TO.N,/USB_DN*%
X108570000Y-116032500D03*
%TO.P,USBC1,B8,SBU2*%
%TO.N,unconnected-(USBC1-SBU2-PadB8)*%
X107570000Y-116032500D03*
%TD*%
D23*
%TO.P,U2,1,GND*%
%TO.N,GND*%
X114750000Y-66195000D03*
%TO.P,U2,2,VDD*%
%TO.N,+3V3*%
X114750000Y-67465000D03*
%TO.P,U2,3,EN*%
%TO.N,/EN*%
X114750000Y-68735000D03*
%TO.P,U2,4,SENSOR_VP*%
%TO.N,/ESP_SENSOR_VP_IO36*%
X114750000Y-70005000D03*
%TO.P,U2,5,SENSOR_VN*%
%TO.N,/ESP_SENSOR_VN_IO39*%
X114750000Y-71275000D03*
%TO.P,U2,6,IO34*%
%TO.N,/ESP_IO34*%
X114750000Y-72545000D03*
%TO.P,U2,7,IO35*%
%TO.N,/ESP_IO35*%
X114750000Y-73815000D03*
%TO.P,U2,8,IO32*%
%TO.N,/PHY_INT*%
X114750000Y-75085000D03*
%TO.P,U2,9,IO33*%
%TO.N,/ESP_IO33*%
X114750000Y-76355000D03*
%TO.P,U2,10,IO25*%
%TO.N,/ETH_RXD0*%
X114750000Y-77625000D03*
%TO.P,U2,11,IO26*%
%TO.N,/ETH_RXD1*%
X114750000Y-78895000D03*
%TO.P,U2,12,IO27*%
%TO.N,/ETH_CRS_DV*%
X114750000Y-80165000D03*
%TO.P,U2,13,IO14*%
%TO.N,/ESP_IO14*%
X114750000Y-81435000D03*
%TO.P,U2,14,IO12*%
%TO.N,/ESP_IO12*%
X114750000Y-82705000D03*
D24*
%TO.P,U2,15,GND*%
%TO.N,GND*%
X117790000Y-83955000D03*
%TO.P,U2,16,IO13*%
%TO.N,/ESP_IO13*%
X119060000Y-83955000D03*
%TO.P,U2,17,SHD/SD2*%
%TO.N,unconnected-(U2-SHD{slash}SD2-Pad17)*%
X120330000Y-83955000D03*
%TO.P,U2,18,SWP/SD3*%
%TO.N,unconnected-(U2-SWP{slash}SD3-Pad18)*%
X121600000Y-83955000D03*
%TO.P,U2,19,SCS/CMD*%
%TO.N,unconnected-(U2-SCS{slash}CMD-Pad19)*%
X122870000Y-83955000D03*
%TO.P,U2,20,SCK/CLK*%
%TO.N,unconnected-(U2-SCK{slash}CLK-Pad20)*%
X124140000Y-83955000D03*
%TO.P,U2,21,SDO/SD0*%
%TO.N,unconnected-(U2-SDO{slash}SD0-Pad21)*%
X125410000Y-83955000D03*
%TO.P,U2,22,SDI/SD1*%
%TO.N,unconnected-(U2-SDI{slash}SD1-Pad22)*%
X126680000Y-83955000D03*
%TO.P,U2,23,IO15*%
%TO.N,/ESP_IO15*%
X127950000Y-83955000D03*
%TO.P,U2,24,IO2*%
%TO.N,/ESP_IO2*%
X129220000Y-83955000D03*
D23*
%TO.P,U2,25,IO0*%
%TO.N,/BOOT0*%
X132250000Y-82705000D03*
%TO.P,U2,26,IO4*%
%TO.N,/ESP_IO4*%
X132250000Y-81435000D03*
%TO.P,U2,27,IO16*%
%TO.N,/PHY_RXER*%
X132250000Y-80165000D03*
%TO.P,U2,28,IO17*%
%TO.N,/ETH_CLK*%
X132250000Y-78895000D03*
%TO.P,U2,29,IO5*%
%TO.N,/ESP_IO5*%
X132250000Y-77625000D03*
%TO.P,U2,30,IO18*%
%TO.N,/ETH_MDIO*%
X132250000Y-76355000D03*
%TO.P,U2,31,IO19*%
%TO.N,/ETH_TXD0*%
X132250000Y-75085000D03*
%TO.P,U2,32,NC*%
%TO.N,unconnected-(U2-NC-Pad32)*%
X132250000Y-73815000D03*
%TO.P,U2,33,IO21*%
%TO.N,/ETH_TXEN*%
X132250000Y-72545000D03*
%TO.P,U2,34,RXD0/IO3*%
%TO.N,/RX*%
X132250000Y-71275000D03*
%TO.P,U2,35,TXD0/IO1*%
%TO.N,/TX*%
X132250000Y-70005000D03*
%TO.P,U2,36,IO22*%
%TO.N,/ETH_TXD1*%
X132250000Y-68735000D03*
%TO.P,U2,37,IO23*%
%TO.N,/ETH_MDC*%
X132250000Y-67465000D03*
%TO.P,U2,38,GND*%
%TO.N,GND*%
X132250000Y-66195000D03*
D25*
%TO.P,U2,39,GND*%
X121295000Y-72010000D03*
D26*
X121295000Y-72772500D03*
D25*
X121295000Y-73535000D03*
D26*
X121295000Y-74297500D03*
D25*
X121295000Y-75060000D03*
D26*
X122057500Y-72010000D03*
X122057500Y-73535000D03*
X122057500Y-75060000D03*
D25*
X122820000Y-72010000D03*
D26*
X122820000Y-72772500D03*
D25*
X122820000Y-73535000D03*
D27*
X122820000Y-73535000D03*
D26*
X122820000Y-74297500D03*
D25*
X122820000Y-75060000D03*
D26*
X123582500Y-72010000D03*
X123582500Y-73535000D03*
X123582500Y-75060000D03*
D25*
X124345000Y-72010000D03*
D26*
X124345000Y-72772500D03*
D25*
X124345000Y-73535000D03*
D26*
X124345000Y-74297500D03*
D25*
X124345000Y-75060000D03*
%TD*%
D28*
%TO.P,U3,1,VDD2A*%
%TO.N,Net-(U3-VDD1A)*%
X127937500Y-96500000D03*
%TO.P,U3,2,LED2/nINTSEL*%
%TO.N,/PHY_L2*%
X127937500Y-96000000D03*
%TO.P,U3,3,LED1/REGOFF*%
%TO.N,/PHY_L1*%
X127937500Y-95500000D03*
%TO.P,U3,4,XTAL2*%
%TO.N,unconnected-(U3-XTAL2-Pad4)*%
X127937500Y-95000000D03*
%TO.P,U3,5,XTAL1/CLKIN*%
%TO.N,/ETH_CLK*%
X127937500Y-94500000D03*
%TO.P,U3,6,VDDCR*%
%TO.N,/VDDCR*%
X127937500Y-94000000D03*
D29*
%TO.P,U3,7,RXD1/MODE1*%
%TO.N,Net-(U3-RXD1{slash}MODE1)*%
X127250000Y-93312500D03*
%TO.P,U3,8,RXD0/MODE0*%
%TO.N,Net-(U3-RXD0{slash}MODE0)*%
X126750000Y-93312500D03*
%TO.P,U3,9,VDDIO*%
%TO.N,+3V3*%
X126250000Y-93312500D03*
%TO.P,U3,10,RXER/PHYAD0*%
%TO.N,/PHY_RXER*%
X125750000Y-93312500D03*
%TO.P,U3,11,CRS_DV/MODE2*%
%TO.N,Net-(U3-CRS_DV{slash}MODE2)*%
X125250000Y-93312500D03*
%TO.P,U3,12,MDIO*%
%TO.N,/ETH_MDIO*%
X124750000Y-93312500D03*
D28*
%TO.P,U3,13,MDC*%
%TO.N,/ETH_MDC*%
X124062500Y-94000000D03*
%TO.P,U3,14,INT/REFCLKO*%
%TO.N,/PHY_INT*%
X124062500Y-94500000D03*
%TO.P,U3,15,RST*%
%TO.N,/PHY_RST*%
X124062500Y-95000000D03*
%TO.P,U3,16,TXEN*%
%TO.N,/ETH_TXEN*%
X124062500Y-95500000D03*
%TO.P,U3,17,TXD0*%
%TO.N,/ETH_TXD0*%
X124062500Y-96000000D03*
%TO.P,U3,18,TXD1*%
%TO.N,/ETH_TXD1*%
X124062500Y-96500000D03*
D29*
%TO.P,U3,19,VDD1A*%
%TO.N,Net-(U3-VDD1A)*%
X124750000Y-97187500D03*
%TO.P,U3,20,TXN*%
%TO.N,/TX-*%
X125250000Y-97187500D03*
%TO.P,U3,21,TXP*%
%TO.N,/TX+*%
X125750000Y-97187500D03*
%TO.P,U3,22,RXN*%
%TO.N,/RX-*%
X126250000Y-97187500D03*
%TO.P,U3,23,RXP*%
%TO.N,/RX+*%
X126750000Y-97187500D03*
%TO.P,U3,24,RBIAS*%
%TO.N,Net-(U3-RBIAS)*%
X127250000Y-97187500D03*
D30*
%TO.P,U3,25,VSS*%
%TO.N,GND*%
X126000000Y-95250000D03*
%TD*%
D31*
%TO.P,R14,1*%
%TO.N,/PHY_L1*%
X131225000Y-104000000D03*
%TO.P,R14,2*%
%TO.N,Net-(J1-Pad12)*%
X132875000Y-104000000D03*
%TD*%
D12*
%TO.P,L1,1*%
%TO.N,+3V3*%
X122100000Y-98625000D03*
%TO.P,L1,2*%
%TO.N,Net-(U3-VDD1A)*%
X122100000Y-96975000D03*
%TD*%
D32*
%TO.P,R11,1*%
%TO.N,Net-(U3-RBIAS)*%
X127950000Y-98575000D03*
%TO.P,R11,2*%
%TO.N,GND*%
X127950000Y-100225000D03*
%TD*%
D33*
%TO.P,R9,1*%
%TO.N,/ETH_RXD1*%
X129883363Y-90566637D03*
%TO.P,R9,2*%
%TO.N,Net-(U3-RXD1{slash}MODE1)*%
X128716637Y-91733363D03*
%TD*%
D34*
%TO.P,C4,1*%
%TO.N,+3V3*%
X112687500Y-66500000D03*
%TO.P,C4,2*%
%TO.N,GND*%
X109612500Y-66500000D03*
%TD*%
D35*
%TO.P,C5,1*%
%TO.N,GND*%
X103250000Y-105290000D03*
%TO.P,C5,2*%
%TO.N,VBUS*%
X104210000Y-105290000D03*
%TD*%
D36*
%TO.P,C2,1*%
%TO.N,+3V3*%
X110475000Y-95250000D03*
%TO.P,C2,2*%
%TO.N,GND*%
X112025000Y-95250000D03*
%TD*%
D37*
%TO.P,C8,1*%
%TO.N,Net-(U3-VDD1A)*%
X131000000Y-97325000D03*
%TO.P,C8,2*%
%TO.N,GND*%
X131000000Y-98875000D03*
%TD*%
D38*
%TO.P,C7,1*%
%TO.N,GND*%
X124901992Y-90151992D03*
%TO.P,C7,2*%
%TO.N,+3V3*%
X125998008Y-91248008D03*
%TD*%
D13*
%TO.P,R6,1*%
%TO.N,/BOOT0*%
X132575000Y-85750000D03*
%TO.P,R6,2*%
%TO.N,+3V3*%
X130925000Y-85750000D03*
%TD*%
D31*
%TO.P,R3,1*%
%TO.N,/RX+*%
X123350000Y-104075000D03*
%TO.P,R3,2*%
%TO.N,+3V3*%
X125000000Y-104075000D03*
%TD*%
D13*
%TO.P,R5,2*%
%TO.N,Net-(J1-Pad10)*%
X120175000Y-101750000D03*
%TO.P,R5,1*%
%TO.N,/PHY_L2*%
X121825000Y-101750000D03*
%TD*%
D36*
%TO.P,C14,1*%
%TO.N,GND*%
X109775000Y-73650000D03*
%TO.P,C14,2*%
%TO.N,/EN*%
X111325000Y-73650000D03*
%TD*%
D39*
%TO.P,R15,2*%
%TO.N,Net-(Q1-B)*%
X120000000Y-99490000D03*
%TO.P,R15,1*%
%TO.N,/DTR*%
X120000000Y-100510000D03*
%TD*%
D36*
%TO.P,C12,1*%
%TO.N,GND*%
X109775000Y-70550000D03*
%TO.P,C12,2*%
%TO.N,+3V3*%
X111325000Y-70550000D03*
%TD*%
D40*
%TO.P,Q2,1,B*%
%TO.N,Net-(Q2-B)*%
X115980000Y-100820000D03*
%TO.P,Q2,2,E*%
%TO.N,/BOOT0*%
X115980000Y-102720000D03*
%TO.P,Q2,3,C*%
%TO.N,/DTR*%
X118600000Y-101770000D03*
%TD*%
D41*
%TO.P,R18,1*%
%TO.N,GND*%
X110240000Y-114500000D03*
%TO.P,R18,2*%
%TO.N,Net-(USBC1-CC2)*%
X111260000Y-114500000D03*
%TD*%
D33*
%TO.P,R8,1*%
%TO.N,/ETH_RXD0*%
X128783363Y-89516637D03*
%TO.P,R8,2*%
%TO.N,Net-(U3-RXD0{slash}MODE0)*%
X127616637Y-90683363D03*
%TD*%
D42*
%TO.P,C13,1*%
%TO.N,GND*%
X105730000Y-114500000D03*
%TO.P,C13,2*%
%TO.N,Net-(U4-V3)*%
X104770000Y-114500000D03*
%TD*%
D43*
%TO.P,R17,1*%
%TO.N,Net-(USBC1-CC1)*%
X108010000Y-114750000D03*
%TO.P,R17,2*%
%TO.N,GND*%
X106990000Y-114750000D03*
%TD*%
D39*
%TO.P,R16,1*%
%TO.N,/RTS*%
X114500000Y-102710000D03*
%TO.P,R16,2*%
%TO.N,Net-(Q2-B)*%
X114500000Y-101690000D03*
%TD*%
D44*
%TO.P,C3,1*%
%TO.N,+3V3*%
X111325000Y-69000000D03*
%TO.P,C3,2*%
%TO.N,GND*%
X109775000Y-69000000D03*
%TD*%
D13*
%TO.P,C1,1*%
%TO.N,Net-(D1-K)*%
X105655000Y-96920000D03*
%TO.P,C1,2*%
%TO.N,GND*%
X104005000Y-96920000D03*
%TD*%
D45*
%TO.P,U4,1,GND*%
%TO.N,GND*%
X104955000Y-112475000D03*
%TO.P,U4,2,TXD*%
%TO.N,/RX*%
X106225000Y-112475000D03*
%TO.P,U4,3,RXD*%
%TO.N,/TX*%
X107495000Y-112475000D03*
%TO.P,U4,4,V3*%
%TO.N,Net-(U4-V3)*%
X108765000Y-112475000D03*
%TO.P,U4,5,UD+*%
%TO.N,/USB_DP*%
X110035000Y-112475000D03*
%TO.P,U4,6,UD-*%
%TO.N,/USB_DN*%
X111305000Y-112475000D03*
%TO.P,U4,7,VBUS*%
%TO.N,VBUS*%
X112575000Y-112475000D03*
%TO.P,U4,8,~{ACT}*%
%TO.N,unconnected-(U4-~{ACT}-Pad8)*%
X113845000Y-112475000D03*
%TO.P,U4,9,~{DCD}*%
%TO.N,unconnected-(U4-~{DCD}-Pad9)*%
X113845000Y-107525000D03*
%TO.P,U4,10,~{DTR}/TNOW*%
%TO.N,/DTR*%
X112575000Y-107525000D03*
%TO.P,U4,11,~{RTS}*%
%TO.N,/RTS*%
X111305000Y-107525000D03*
%TO.P,U4,12,~{DSR}*%
%TO.N,unconnected-(U4-~{DSR}-Pad12)*%
X110035000Y-107525000D03*
%TO.P,U4,13,~{CTS}*%
%TO.N,unconnected-(U4-~{CTS}-Pad13)*%
X108765000Y-107525000D03*
%TO.P,U4,14,~{RI}*%
%TO.N,unconnected-(U4-~{RI}-Pad14)*%
X107495000Y-107525000D03*
%TO.P,U4,15,VIO*%
%TO.N,+3V3*%
X106225000Y-107525000D03*
%TO.P,U4,16,VDD5*%
%TO.N,VBUS*%
X104955000Y-107525000D03*
%TD*%
D38*
%TO.P,C6,1*%
%TO.N,GND*%
X125451992Y-88451992D03*
%TO.P,C6,2*%
%TO.N,+3V3*%
X126548008Y-89548008D03*
%TD*%
D46*
%TO.P,D1,1,K*%
%TO.N,Net-(D1-K)*%
X104250000Y-99250000D03*
%TO.P,D1,2,A*%
%TO.N,VBUS*%
X104250000Y-103250000D03*
%TD*%
D13*
%TO.P,R7,1*%
%TO.N,/EN*%
X111375000Y-72100000D03*
%TO.P,R7,2*%
%TO.N,+3V3*%
X109725000Y-72100000D03*
%TD*%
D47*
%TO.P,R10,1*%
%TO.N,/ETH_CRS_DV*%
X122166637Y-89666637D03*
%TO.P,R10,2*%
%TO.N,Net-(U3-CRS_DV{slash}MODE2)*%
X123333363Y-90833363D03*
%TD*%
D13*
%TO.P,R1,1*%
%TO.N,/TX+*%
X126350000Y-99550000D03*
%TO.P,R1,2*%
%TO.N,+3V3*%
X124700000Y-99550000D03*
%TD*%
D31*
%TO.P,R2,1*%
%TO.N,/TX-*%
X123275000Y-101750000D03*
%TO.P,R2,2*%
%TO.N,+3V3*%
X124925000Y-101750000D03*
%TD*%
D37*
%TO.P,C10,1*%
%TO.N,Net-(U3-VDD1A)*%
X129450000Y-97325000D03*
%TO.P,C10,2*%
%TO.N,GND*%
X129450000Y-98875000D03*
%TD*%
D13*
%TO.P,R4,1*%
%TO.N,/RX-*%
X127975000Y-101750000D03*
%TO.P,R4,2*%
%TO.N,+3V3*%
X126325000Y-101750000D03*
%TD*%
D40*
%TO.P,Q1,1,B*%
%TO.N,Net-(Q1-B)*%
X115990000Y-97350000D03*
%TO.P,Q1,2,E*%
%TO.N,/RTS*%
X115990000Y-99250000D03*
%TO.P,Q1,3,C*%
%TO.N,/EN*%
X118610000Y-98300000D03*
%TD*%
D13*
%TO.P,R13,1*%
%TO.N,/PHY_INT*%
X121325000Y-92000000D03*
%TO.P,R13,2*%
%TO.N,+3V3*%
X119675000Y-92000000D03*
%TD*%
D48*
%TO.P,C9,1*%
%TO.N,/VDDCR*%
X129851992Y-92798008D03*
%TO.P,C9,2*%
%TO.N,GND*%
X130948008Y-91701992D03*
%TD*%
D49*
%TO.P,U1,1,GND*%
%TO.N,GND*%
X112260000Y-97420000D03*
%TO.P,U1,2,VO*%
%TO.N,+3V3*%
X109960000Y-97420000D03*
D50*
X109960000Y-103720000D03*
D49*
%TO.P,U1,3,VI*%
%TO.N,Net-(D1-K)*%
X107660000Y-97420000D03*
%TD*%
D31*
%TO.P,R12,1*%
%TO.N,+3V3*%
X119675000Y-93525000D03*
%TO.P,R12,2*%
%TO.N,/PHY_RST*%
X121325000Y-93525000D03*
%TD*%
D44*
%TO.P,C11,1*%
%TO.N,/PHY_RST*%
X121275000Y-95050000D03*
%TO.P,C11,2*%
%TO.N,GND*%
X119725000Y-95050000D03*
%TD*%
D51*
%TO.N,GND*%
X129000000Y-104600000D03*
X129000000Y-103800000D03*
X129000000Y-103000000D03*
D52*
%TO.N,+3V3*%
X131895502Y-96200000D03*
D51*
%TO.N,GND*%
X131300000Y-92800000D03*
X130600000Y-93500000D03*
X129700000Y-93900000D03*
X114300000Y-98400000D03*
X114300000Y-97600000D03*
X114300000Y-96800000D03*
X114300000Y-96000000D03*
X118700000Y-100400000D03*
X117200000Y-101700000D03*
X117600000Y-100900000D03*
X117400000Y-100000000D03*
X115100000Y-103700000D03*
X116200000Y-103800000D03*
X117000000Y-104300000D03*
X115300000Y-104500000D03*
X116200000Y-104600000D03*
X116000000Y-105375735D03*
X115200000Y-105300000D03*
X118000000Y-108200000D03*
X116600000Y-106800000D03*
X115800000Y-106800000D03*
X115800000Y-107700000D03*
X114992892Y-108692892D03*
X115000000Y-107700000D03*
X115000000Y-106750735D03*
D53*
%TO.N,/BOOT0*%
X119230760Y-102737868D03*
D52*
%TO.N,+3V3*%
X112400000Y-69800000D03*
D54*
%TO.N,GND*%
X116600000Y-90700000D03*
X116600000Y-89300000D03*
X117300000Y-90000000D03*
X117300000Y-88600000D03*
X115700000Y-85700000D03*
X119100000Y-85550000D03*
X120350000Y-85550000D03*
X121600000Y-85550000D03*
X122900000Y-85550000D03*
X124150000Y-85550000D03*
X125450000Y-85500000D03*
X126750000Y-85650000D03*
%TO.N,/ESP_IO2*%
X127913917Y-79285308D03*
X117400000Y-79782718D03*
%TO.N,/ESP_IO15*%
X117423845Y-79083122D03*
X128625396Y-79431101D03*
%TO.N,GND*%
X107200000Y-103900000D03*
X106700000Y-104400000D03*
X106100000Y-104850000D03*
X109050000Y-102050000D03*
X109050000Y-101400000D03*
X109050000Y-100750000D03*
X109050000Y-100100000D03*
X109050000Y-99450000D03*
X109050000Y-98800000D03*
%TO.N,/RX*%
X119397088Y-104996368D03*
%TO.N,/TX*%
X119645001Y-104341738D03*
%TO.N,/RX*%
X107422473Y-109950000D03*
%TO.N,/TX*%
X106913927Y-109468976D03*
X109500000Y-94950000D03*
%TO.N,GND*%
X115650000Y-85000000D03*
%TO.N,/PHY_INT*%
X117779465Y-86570535D03*
%TO.N,/ETH_RXD0*%
X117017313Y-86586784D03*
X117049489Y-81555000D03*
%TO.N,/PHY_INT*%
X117749492Y-81555000D03*
%TO.N,/ETH_CRS_DV*%
X116250000Y-86650000D03*
X116264316Y-81576670D03*
%TO.N,GND*%
X126500000Y-76100000D03*
X126000001Y-73600000D03*
X126000000Y-74600000D03*
X126000000Y-72600000D03*
X126500000Y-74099999D03*
X126500000Y-75100000D03*
X126500000Y-73100000D03*
X126000000Y-75600000D03*
X126000000Y-71600000D03*
X126500000Y-72100000D03*
%TO.N,/RX*%
X130400000Y-74300000D03*
%TO.N,/TX*%
X129900000Y-77300000D03*
%TO.N,GND*%
X116600000Y-90000000D03*
X117300000Y-90700000D03*
X119400000Y-90700000D03*
X120800000Y-90700000D03*
X118700000Y-90700000D03*
X120100000Y-90700000D03*
X118000000Y-90700000D03*
X119400000Y-90000000D03*
X120800000Y-90000000D03*
X118700000Y-90000000D03*
X120100000Y-90000000D03*
X118000000Y-90000000D03*
X117300000Y-89300000D03*
X119400000Y-89300000D03*
X120800000Y-89300000D03*
X118700000Y-89300000D03*
X120100000Y-89300000D03*
X118000000Y-89300000D03*
X113200000Y-87900000D03*
X113200000Y-90700000D03*
X113200000Y-86500000D03*
X113200000Y-89300000D03*
X113800000Y-87200000D03*
X113800000Y-90000000D03*
X113800000Y-88600000D03*
X113800000Y-91400000D03*
X114500000Y-87900000D03*
X114500000Y-90700000D03*
X114500000Y-86500000D03*
X114500000Y-89300000D03*
X115200000Y-87200000D03*
X115200000Y-90000000D03*
X115200000Y-88600000D03*
X115200000Y-91400000D03*
X115900000Y-87900000D03*
X115900000Y-90700000D03*
X115900000Y-89300000D03*
X120100000Y-88600000D03*
X120800000Y-88600000D03*
X118000000Y-88600000D03*
X119400000Y-88600000D03*
X121500000Y-88600000D03*
X116600000Y-88600000D03*
X118700000Y-88600000D03*
X120100000Y-87900000D03*
X120800000Y-87900000D03*
X119400000Y-87900000D03*
X121500000Y-87900000D03*
X123000000Y-88800000D03*
X123250000Y-88200000D03*
X123000000Y-87600000D03*
X123800000Y-87700000D03*
X124100000Y-88350000D03*
%TO.N,/BOOT0*%
X128392603Y-81575001D03*
%TO.N,/ETH_RXD1*%
X130093413Y-80121300D03*
X117542272Y-78300000D03*
%TO.N,/BOOT0*%
X115950000Y-82572182D03*
%TO.N,/EN*%
X113650123Y-93400000D03*
X112645707Y-92414343D03*
%TO.N,/PHY_INT*%
X123206007Y-89684802D03*
X126201013Y-86873195D03*
%TO.N,/TX*%
X104633633Y-109623583D03*
%TO.N,/RX*%
X109393560Y-94258138D03*
X104083634Y-110250000D03*
%TO.N,GND*%
X116950000Y-109750000D03*
X117150000Y-110400000D03*
X117850000Y-110650000D03*
X118150000Y-111250000D03*
X118750000Y-111550000D03*
X119100000Y-112150000D03*
X119750000Y-112450000D03*
D51*
X121600000Y-118200000D03*
X121600000Y-119000000D03*
X121600000Y-117400000D03*
X121600000Y-116600000D03*
X121600000Y-115000000D03*
X121600000Y-115800000D03*
X132000000Y-109000000D03*
X132000000Y-109800000D03*
X132000000Y-108200000D03*
X132000000Y-107400000D03*
X132000000Y-105800000D03*
X132000000Y-106600000D03*
X133200000Y-99100000D03*
X133200000Y-99900000D03*
X133200000Y-98300000D03*
X133200000Y-97500000D03*
X133200000Y-95900000D03*
X133200000Y-96700000D03*
D54*
X131000000Y-90050000D03*
D51*
X130885823Y-90843779D03*
X133000000Y-87150000D03*
X132850000Y-89418628D03*
X133200000Y-95100000D03*
X133200000Y-94300000D03*
X133200000Y-93500000D03*
X133200000Y-92700000D03*
D54*
X111250000Y-105750000D03*
X120600000Y-81800000D03*
D51*
X111200000Y-66750000D03*
X111200000Y-66000000D03*
X111200000Y-65200000D03*
X118270000Y-118730000D03*
X119250000Y-118090000D03*
D52*
%TO.N,+3V3*%
X123195013Y-97875000D03*
X125050000Y-98594744D03*
D54*
%TO.N,GND*%
X118500000Y-75500000D03*
X107500000Y-99750000D03*
X121250000Y-69750000D03*
X112750000Y-100000000D03*
X106750000Y-99000000D03*
X120250000Y-69750000D03*
X119000000Y-76000000D03*
X107500000Y-99000000D03*
X119750000Y-80300000D03*
X122250000Y-69750000D03*
X122750000Y-70250000D03*
X124300000Y-81800000D03*
X127000000Y-95250000D03*
X120500000Y-80300000D03*
X123250000Y-69750000D03*
X122750000Y-80300000D03*
X119000000Y-72000000D03*
X118500000Y-74500000D03*
X127000000Y-94250000D03*
X122050000Y-81050000D03*
X118500000Y-72500000D03*
X112750000Y-100750000D03*
X103980000Y-95960000D03*
X123550000Y-81800000D03*
X125000000Y-96250000D03*
X112750000Y-99250000D03*
X110750000Y-92750000D03*
X126000000Y-96250000D03*
D52*
X103250000Y-106250000D03*
D54*
X126000000Y-95250000D03*
X125500000Y-95750000D03*
X122000000Y-80300000D03*
X126000000Y-94250000D03*
X107500000Y-102000000D03*
X106750000Y-102000000D03*
X124250000Y-80300000D03*
X118500000Y-73500001D03*
X112750000Y-102250000D03*
X111250000Y-101500000D03*
X112750000Y-101500000D03*
X120550000Y-81050000D03*
X105000000Y-96000000D03*
X123550000Y-81050000D03*
X122800000Y-81050000D03*
X124300000Y-81050000D03*
X119800000Y-81050000D03*
X112000000Y-102250000D03*
X119000000Y-75000000D03*
X112000000Y-101500000D03*
X125000000Y-94250000D03*
X112000000Y-100750000D03*
X122050000Y-81800000D03*
X121300000Y-81050000D03*
X119000000Y-73000000D03*
X126500000Y-94750000D03*
X111250000Y-100750000D03*
X110000000Y-92750000D03*
X112000000Y-100000000D03*
X107500000Y-101250000D03*
X123500000Y-80300000D03*
X110000000Y-93500000D03*
X106000000Y-96000000D03*
X124250000Y-69750000D03*
X111250000Y-99250000D03*
X121300000Y-81800000D03*
X124750000Y-70250000D03*
X106750000Y-101250000D03*
X121250000Y-80300000D03*
X123750000Y-70250000D03*
D52*
X118850000Y-95050000D03*
D54*
X118999999Y-74000000D03*
X126500000Y-95750000D03*
X121750000Y-70250000D03*
X106750000Y-99750000D03*
X107500000Y-100500000D03*
X127000000Y-96250000D03*
X122800000Y-81800000D03*
X125000000Y-95250000D03*
X106750000Y-100500000D03*
X118500000Y-71500000D03*
X125500000Y-94750000D03*
X110250000Y-105750000D03*
X109250000Y-105750000D03*
X111250000Y-100000000D03*
X112000000Y-99250000D03*
X120750000Y-70250000D03*
D52*
%TO.N,+3V3*%
X113421594Y-73154527D03*
X132255025Y-91755025D03*
X105405000Y-105884052D03*
X108650000Y-79050000D03*
X128279289Y-87799389D03*
X103250000Y-107750000D03*
X127289339Y-88789339D03*
D51*
%TO.N,Net-(U3-VDD1A)*%
X124000000Y-97250000D03*
X128000000Y-97250000D03*
D52*
%TO.N,VBUS*%
X104250000Y-101500000D03*
X105250000Y-101500000D03*
X103250000Y-101500000D03*
D51*
%TO.N,/TX+*%
X125612500Y-100412500D03*
X122650001Y-100917109D03*
%TO.N,/RX+*%
X126925041Y-98073571D03*
X124000000Y-102600000D03*
%TO.N,/PHY_L2*%
X121686568Y-102936568D03*
X128959221Y-96209221D03*
D54*
%TO.N,/BOOT0*%
X128650000Y-82705000D03*
%TO.N,/ETH_RXD1*%
X115892299Y-78548795D03*
X129845404Y-86445405D03*
%TO.N,/ESP_IO34*%
X112500000Y-72273176D03*
%TO.N,/ESP_IO15*%
X127974441Y-82888366D03*
%TO.N,/ESP_IO13*%
X114148503Y-83604999D03*
%TO.N,/ESP_IO5*%
X116007092Y-75034274D03*
%TO.N,/ESP_IO4*%
X114960661Y-83639339D03*
%TO.N,/ESP_IO35*%
X115900000Y-73810000D03*
%TO.N,/ESP_IO33*%
X108600000Y-75430000D03*
X113575000Y-75975000D03*
%TO.N,/ESP_SENSOR_VP_IO36*%
X113750000Y-69950000D03*
%TO.N,/ESP_IO2*%
X108571522Y-74727357D03*
X127919209Y-85154999D03*
%TO.N,/ESP_IO12*%
X113554977Y-81951753D03*
%TO.N,/ESP_IO14*%
X112454977Y-77850000D03*
%TO.N,/ESP_SENSOR_VN_IO39*%
X115950002Y-70100000D03*
%TO.N,/PHY_RXER*%
X124812776Y-91200000D03*
X130250000Y-80803564D03*
%TO.N,/ETH_MDIO*%
X130650000Y-76350000D03*
X123211740Y-91817900D03*
%TO.N,/ETH_TXD0*%
X131050000Y-75250000D03*
X122733883Y-96138278D03*
%TO.N,/ETH_TXEN*%
X123000001Y-95450000D03*
X131150000Y-72540000D03*
%TO.N,/ETH_TXD1*%
X131125000Y-68730000D03*
X123300000Y-96550000D03*
%TO.N,/ETH_MDC*%
X124124024Y-93624024D03*
X131150000Y-67500000D03*
D51*
%TO.N,GND*%
X132900000Y-88350000D03*
D53*
X110700000Y-113700000D03*
%TD*%
D55*
%TO.N,/PHY_L2*%
X121686568Y-102936568D02*
X121825000Y-102798136D01*
X121825000Y-102798136D02*
X121825000Y-101750000D01*
%TO.N,/DTR*%
X112575000Y-107525000D02*
X112575000Y-106550001D01*
X112575000Y-106550001D02*
X112974266Y-106150735D01*
X119730760Y-103319192D02*
X119730760Y-102530760D01*
X112974266Y-106150735D02*
X117349265Y-106150735D01*
X118447088Y-104602864D02*
X119730760Y-103319192D01*
X117349265Y-106150735D02*
X117570000Y-105930000D01*
X117570000Y-105904216D02*
X118447088Y-105027128D01*
X118447088Y-105027128D02*
X118447088Y-104602864D01*
X117570000Y-105930000D02*
X117570000Y-105904216D01*
X119730760Y-102530760D02*
X118970000Y-101770000D01*
X118970000Y-101770000D02*
X118600000Y-101770000D01*
%TO.N,/TX*%
X119645001Y-104341738D02*
X119273900Y-104341738D01*
X118847088Y-104768550D02*
X118847088Y-105192814D01*
X117970000Y-106069902D02*
X117970000Y-106564314D01*
X106982903Y-109400000D02*
X106913927Y-109468976D01*
X119273900Y-104341738D02*
X118847088Y-104768550D01*
X118847088Y-105192814D02*
X117970000Y-106069902D01*
X117970000Y-106564314D02*
X115134314Y-109400000D01*
X115134314Y-109400000D02*
X106982903Y-109400000D01*
%TO.N,/RX*%
X118370000Y-106730000D02*
X115300000Y-109800000D01*
X119397088Y-105208500D02*
X118370000Y-106235588D01*
X119397088Y-104996368D02*
X119397088Y-105208500D01*
X118370000Y-106235588D02*
X118370000Y-106730000D01*
X107572473Y-109800000D02*
X107422473Y-109950000D01*
X115300000Y-109800000D02*
X107572473Y-109800000D01*
%TO.N,/TX+*%
X122650001Y-100917109D02*
X122575000Y-100992110D01*
X122575000Y-102896666D02*
X122175000Y-103296666D01*
X122175000Y-103296666D02*
X122175000Y-103505392D01*
X122175000Y-103505392D02*
X119835000Y-105845392D01*
X122575000Y-100992110D02*
X122575000Y-102896666D01*
X119835000Y-105845392D02*
X119835000Y-109250000D01*
X126350000Y-99550000D02*
X125750000Y-98950000D01*
X125612500Y-100412500D02*
X126350000Y-99675000D01*
D56*
%TO.N,+3V3*%
X124700000Y-99550000D02*
X124700000Y-101525000D01*
D55*
%TO.N,/TX+*%
X126350000Y-99675000D02*
X126350000Y-99550000D01*
X125750000Y-98950000D02*
X125750000Y-97187500D01*
D56*
%TO.N,+3V3*%
X124700000Y-101525000D02*
X124925000Y-101750000D01*
X125050000Y-98594744D02*
X125050000Y-99200000D01*
X125050000Y-99200000D02*
X124700000Y-99550000D01*
D55*
%TO.N,/RX+*%
X124000000Y-102600000D02*
X124050000Y-102650000D01*
D56*
%TO.N,+3V3*%
X125000000Y-104500000D02*
X123645000Y-105855000D01*
D55*
%TO.N,/RX+*%
X124050000Y-102650000D02*
X124050000Y-103375000D01*
X124050000Y-103375000D02*
X123350000Y-104075000D01*
X123350000Y-104075000D02*
X122375000Y-105050000D01*
D56*
%TO.N,+3V3*%
X125925000Y-104075000D02*
X126876472Y-103123528D01*
X125000000Y-104075000D02*
X125925000Y-104075000D01*
X126876472Y-103123528D02*
X126876472Y-102301472D01*
X126876472Y-102301472D02*
X126325000Y-101750000D01*
D55*
%TO.N,/RX+*%
X122375000Y-105050000D02*
X122375000Y-109250000D01*
D56*
%TO.N,+3V3*%
X123645000Y-105855000D02*
X123645000Y-106710000D01*
X125000000Y-104075000D02*
X125000000Y-104500000D01*
D55*
%TO.N,/RTS*%
X114500000Y-102710000D02*
X114500000Y-104000000D01*
X112250000Y-106250000D02*
X112234448Y-106250000D01*
X111305000Y-107179448D02*
X111305000Y-107525000D01*
X114500000Y-104000000D02*
X112250000Y-106250000D01*
X112234448Y-106250000D02*
X111305000Y-107179448D01*
X115990000Y-99250000D02*
X115650000Y-99250000D01*
X115650000Y-99250000D02*
X113880000Y-101020000D01*
X113880000Y-101020000D02*
X113880000Y-102090000D01*
X113880000Y-102090000D02*
X114500000Y-102710000D01*
%TO.N,Net-(Q2-B)*%
X115110000Y-101690000D02*
X114500000Y-101690000D01*
X115980000Y-100820000D02*
X115110000Y-101690000D01*
D57*
%TO.N,+3V3*%
X106225000Y-107525000D02*
X106225000Y-106704052D01*
X106225000Y-106704052D02*
X105405000Y-105884052D01*
X106225000Y-107525000D02*
X106225000Y-106550001D01*
X106225000Y-106550001D02*
X109055001Y-103720000D01*
X109055001Y-103720000D02*
X109960000Y-103720000D01*
D58*
%TO.N,GND*%
X110700000Y-113700000D02*
X110700000Y-114040000D01*
X110700000Y-114040000D02*
X110240000Y-114500000D01*
D55*
%TO.N,/EN*%
X112645707Y-92414343D02*
X112200000Y-91968636D01*
X112200000Y-91968636D02*
X112200000Y-85230000D01*
X112200000Y-85230000D02*
X110650000Y-83680000D01*
D56*
%TO.N,VBUS*%
X104955000Y-107525000D02*
X104955000Y-108499999D01*
X104955000Y-108499999D02*
X107105001Y-110650000D01*
X107105001Y-110650000D02*
X111307684Y-110650000D01*
X112575000Y-111917316D02*
X112575000Y-112475000D01*
X111307684Y-110650000D02*
X112575000Y-111917316D01*
D55*
%TO.N,/TX-*%
X123275000Y-101750000D02*
X123275000Y-102825000D01*
X123275000Y-102825000D02*
X122925000Y-103175000D01*
X122925000Y-103175000D02*
X122862352Y-103175000D01*
X122575000Y-103462352D02*
X122575000Y-104084314D01*
X121105000Y-105554314D02*
X121105000Y-106710000D01*
X122862352Y-103175000D02*
X122575000Y-103462352D01*
X122575000Y-104084314D02*
X121105000Y-105554314D01*
%TO.N,/RX-*%
X127975000Y-101750000D02*
X127950000Y-101775000D01*
X127950000Y-101775000D02*
X127950000Y-103850000D01*
X127950000Y-103850000D02*
X126185000Y-105615000D01*
X126185000Y-105615000D02*
X126185000Y-106710000D01*
D56*
%TO.N,+3V3*%
X130200000Y-108129932D02*
X127930932Y-110399000D01*
X126064000Y-110399000D02*
X124915000Y-109250000D01*
X131925000Y-96229498D02*
X131925000Y-101375000D01*
X131925000Y-101375000D02*
X130200000Y-103100000D01*
X131895502Y-96200000D02*
X131925000Y-96229498D01*
X130200000Y-103100000D02*
X130200000Y-108129932D01*
X127930932Y-110399000D02*
X126064000Y-110399000D01*
D55*
%TO.N,/PHY_L1*%
X131225000Y-104000000D02*
X132600000Y-102625000D01*
X132600000Y-102625000D02*
X132600000Y-95800000D01*
X132600000Y-95800000D02*
X132300000Y-95500000D01*
X132300000Y-95500000D02*
X127937500Y-95500000D01*
D56*
%TO.N,GND*%
X130600000Y-93500000D02*
X130200000Y-93900000D01*
X130200000Y-93900000D02*
X129700000Y-93900000D01*
X131300000Y-92800000D02*
X130600000Y-93500000D01*
X131300000Y-92800000D02*
X131300000Y-92053984D01*
X131300000Y-92053984D02*
X130948008Y-91701992D01*
%TO.N,+3V3*%
X132255025Y-91755025D02*
X132255025Y-89884314D01*
X130925000Y-88554289D02*
X130925000Y-85750000D01*
X132255025Y-89884314D02*
X130925000Y-88554289D01*
D55*
%TO.N,/ETH_CLK*%
X132000000Y-78890000D02*
X133200000Y-78890000D01*
X133200000Y-78890000D02*
X133650000Y-79340000D01*
X133650000Y-79340000D02*
X133650000Y-91350000D01*
X133650000Y-91350000D02*
X130500000Y-94500000D01*
X130500000Y-94500000D02*
X127937499Y-94500000D01*
%TO.N,/BOOT0*%
X119212892Y-102720000D02*
X115980000Y-102720000D01*
X119230760Y-102737868D02*
X119212892Y-102720000D01*
%TO.N,Net-(U4-V3)*%
X108765000Y-112475000D02*
X108765000Y-113056076D01*
X105380000Y-113890000D02*
X104770000Y-114500000D01*
X108765000Y-113056076D02*
X107931076Y-113890000D01*
X107931076Y-113890000D02*
X105380000Y-113890000D01*
%TO.N,/TX*%
X107495000Y-112475000D02*
X107495000Y-112045000D01*
X107495000Y-112045000D02*
X105073583Y-109623583D01*
X105073583Y-109623583D02*
X104633633Y-109623583D01*
%TO.N,/DTR*%
X115525000Y-94450000D02*
X116270100Y-94450000D01*
X116270100Y-94450000D02*
X120620000Y-98799900D01*
X120620000Y-98799900D02*
X120620000Y-99890000D01*
X120620000Y-99890000D02*
X120000000Y-100510000D01*
%TO.N,/EN*%
X113650123Y-93400000D02*
X114012648Y-93400000D01*
X114012648Y-93400000D02*
X114650000Y-94037352D01*
X115852352Y-95965000D02*
X116275000Y-95965000D01*
X114650000Y-94037352D02*
X114650000Y-94762648D01*
X114650000Y-94762648D02*
X115852352Y-95965000D01*
X116275000Y-95965000D02*
X118610000Y-98300000D01*
%TO.N,Net-(Q1-B)*%
X120000000Y-99490000D02*
X118130000Y-99490000D01*
X118130000Y-99490000D02*
X115990000Y-97350000D01*
%TO.N,/DTR*%
X119860000Y-100510000D02*
X118600000Y-101770000D01*
D59*
%TO.N,Net-(J1-Pad10)*%
X120550000Y-120150000D02*
X120550000Y-112300000D01*
X118750000Y-110500000D02*
X118750000Y-106392990D01*
X120200000Y-120500000D02*
X120550000Y-120150000D01*
X118750000Y-106392990D02*
X120175000Y-104967990D01*
X120550000Y-112300000D02*
X118750000Y-110500000D01*
X120175000Y-104967990D02*
X120175000Y-101750000D01*
X120175000Y-101750000D02*
X120125000Y-101750000D01*
D56*
%TO.N,VBUS*%
X104955000Y-107525000D02*
X104210000Y-106780000D01*
X104210000Y-106780000D02*
X104210000Y-105290000D01*
D55*
%TO.N,/RX*%
X106225000Y-112475000D02*
X106225000Y-111500001D01*
X106225000Y-111500001D02*
X104974999Y-110250000D01*
X104974999Y-110250000D02*
X104083634Y-110250000D01*
%TO.N,/USB_DN*%
X111004999Y-111200000D02*
X109694448Y-111200000D01*
X109694448Y-111200000D02*
X109400000Y-111494448D01*
X108750000Y-114961814D02*
X108570000Y-115141814D01*
X109400000Y-111494448D02*
X109400000Y-113784314D01*
X111305000Y-111500001D02*
X111004999Y-111200000D01*
X111305000Y-112475000D02*
X111305000Y-111500001D01*
X109400000Y-113784314D02*
X108750000Y-114434314D01*
X108750000Y-114434314D02*
X108750000Y-114961814D01*
X108570000Y-115141814D02*
X108570000Y-116032500D01*
%TO.N,/USB_DP*%
X110035000Y-112475000D02*
X110035000Y-113715000D01*
X110035000Y-113715000D02*
X109670000Y-114080000D01*
X109670000Y-114080000D02*
X109670000Y-114787500D01*
X109670000Y-114787500D02*
X109300000Y-115157500D01*
X109300000Y-115157500D02*
X109120000Y-115157500D01*
X110070000Y-116032500D02*
X110070000Y-115207500D01*
X110070000Y-115207500D02*
X110020000Y-115157500D01*
X110020000Y-115157500D02*
X109120000Y-115157500D01*
X109070000Y-115207500D02*
X109070000Y-116032500D01*
X109120000Y-115157500D02*
X109070000Y-115207500D01*
%TO.N,/USB_DN*%
X108570000Y-116032500D02*
X108570000Y-116857500D01*
X108570000Y-116857500D02*
X108620000Y-116907500D01*
X108620000Y-116907500D02*
X109492500Y-116907500D01*
X109492500Y-116907500D02*
X109570000Y-116830000D01*
X109570000Y-116830000D02*
X109570000Y-116032500D01*
D56*
%TO.N,GND*%
X103250000Y-105290000D02*
X103250000Y-106250000D01*
%TO.N,+3V3*%
X112950000Y-94450000D02*
X112750000Y-94250000D01*
X113875000Y-94450000D02*
X112950000Y-94450000D01*
X112750000Y-94250000D02*
X112650000Y-94250000D01*
X112650000Y-94250000D02*
X112910295Y-93989705D01*
X113350000Y-92700000D02*
X117206102Y-92700000D01*
X117206102Y-92700000D02*
X117850000Y-93343898D01*
X112910295Y-93989705D02*
X112910295Y-93139705D01*
X112910295Y-93139705D02*
X113350000Y-92700000D01*
X103250000Y-107750000D02*
X103250000Y-108825000D01*
D59*
%TO.N,/RX*%
X103475000Y-110250000D02*
X103250000Y-110475000D01*
X104083634Y-110250000D02*
X103475000Y-110250000D01*
D60*
%TO.N,GND*%
X111200000Y-65200000D02*
X111200000Y-66750000D01*
D61*
X111200000Y-66000000D02*
X110650000Y-66550000D01*
X110650000Y-66550000D02*
X109662500Y-66550000D01*
X109662500Y-66550000D02*
X109612500Y-66500000D01*
D56*
X109775000Y-70550000D02*
X108850000Y-71475000D01*
X108850000Y-72725000D02*
X109775000Y-73650000D01*
X108850000Y-71475000D02*
X108850000Y-72725000D01*
D57*
%TO.N,+3V3*%
X112400000Y-69800000D02*
X112125000Y-69800000D01*
X112125000Y-69800000D02*
X111325000Y-69000000D01*
D55*
%TO.N,/EN*%
X115000000Y-68730000D02*
X114192182Y-68730000D01*
X114192182Y-68730000D02*
X113200000Y-69722182D01*
X113200000Y-69722182D02*
X113200000Y-70275000D01*
X113200000Y-70275000D02*
X111375000Y-72100000D01*
%TO.N,/ESP_SENSOR_VP_IO36*%
X113750000Y-69950000D02*
X113800000Y-70000000D01*
X113800000Y-70000000D02*
X115000000Y-70000000D01*
%TO.N,/ESP_IO34*%
X112500000Y-72273176D02*
X114733176Y-72273176D01*
X114733176Y-72273176D02*
X115000000Y-72540000D01*
D56*
%TO.N,+3V3*%
X113421594Y-74216274D02*
X110650000Y-76987868D01*
X113421594Y-73154527D02*
X113421594Y-74216274D01*
X110650000Y-76987868D02*
X110650000Y-78600000D01*
D62*
X109725000Y-72100000D02*
X109831589Y-72100000D01*
X109831589Y-72100000D02*
X111275000Y-70656589D01*
X111275000Y-70656589D02*
X111275000Y-70550000D01*
D55*
%TO.N,/ETH_CRS_DV*%
X117120535Y-87520535D02*
X118172968Y-87520535D01*
X118343503Y-87350000D02*
X121727818Y-87350000D01*
X118172968Y-87520535D02*
X118343503Y-87350000D01*
X121727818Y-87350000D02*
X122166637Y-87788819D01*
X116250000Y-86650000D02*
X117120535Y-87520535D01*
X122166637Y-87788819D02*
X122166637Y-89666637D01*
%TO.N,/ETH_RXD0*%
X117017313Y-86586784D02*
X117551064Y-87120535D01*
X125500000Y-86950000D02*
X126450000Y-87900000D01*
X117551064Y-87120535D02*
X118007283Y-87120535D01*
X118177818Y-86950000D02*
X125500000Y-86950000D01*
X128783363Y-89293413D02*
X128783363Y-89516637D01*
X118007283Y-87120535D02*
X118177818Y-86950000D01*
X126450000Y-87900000D02*
X127389950Y-87900000D01*
X127389950Y-87900000D02*
X128783363Y-89293413D01*
%TO.N,/PHY_INT*%
X117779465Y-86570535D02*
X117800000Y-86550000D01*
X117800000Y-86550000D02*
X125877818Y-86550000D01*
X125877818Y-86550000D02*
X126201013Y-86873195D01*
D63*
%TO.N,+3V3*%
X128279289Y-87799389D02*
X129208363Y-86870315D01*
X129208363Y-86870315D02*
X129208363Y-86198562D01*
X129208363Y-86198562D02*
X129656925Y-85750000D01*
X129656925Y-85750000D02*
X130925000Y-85750000D01*
D55*
%TO.N,/ETH_RXD1*%
X129845404Y-86445405D02*
X129850000Y-86450001D01*
X129850000Y-86450001D02*
X129850000Y-90533274D01*
X129850000Y-90533274D02*
X129883363Y-90566637D01*
D63*
%TO.N,+3V3*%
X127289339Y-88789339D02*
X127289339Y-88806677D01*
X127289339Y-88806677D02*
X126548008Y-89548008D01*
D56*
%TO.N,GND*%
X115650000Y-85000000D02*
X116695000Y-83955000D01*
X116695000Y-83955000D02*
X117790000Y-83955000D01*
D55*
%TO.N,/ESP_IO2*%
X127919209Y-85154999D02*
X128455051Y-85154999D01*
X128455051Y-85154999D02*
X129215000Y-84395050D01*
X129215000Y-84395050D02*
X129215000Y-83700000D01*
%TO.N,/RX-*%
X127975000Y-101750000D02*
X127900000Y-101750000D01*
X126250000Y-98250000D02*
X126250000Y-97187500D01*
X127900000Y-101750000D02*
X127150000Y-101000000D01*
X127150000Y-101000000D02*
X127150000Y-99150000D01*
X127150000Y-99150000D02*
X126250000Y-98250000D01*
D56*
%TO.N,+3V3*%
X124915000Y-109250000D02*
X124915000Y-108665000D01*
X124915000Y-108665000D02*
X123645000Y-107395000D01*
X123645000Y-107395000D02*
X123645000Y-106710000D01*
D64*
%TO.N,Net-(D1-K)*%
X107660000Y-97420000D02*
X106670000Y-97420000D01*
X106670000Y-97420000D02*
X106170000Y-96920000D01*
X106170000Y-96920000D02*
X105655000Y-96920000D01*
D65*
%TO.N,VBUS*%
X106920000Y-116032500D02*
X106920000Y-116592551D01*
X106920000Y-116592551D02*
X107677449Y-117350000D01*
X111720000Y-116592551D02*
X111720000Y-116032500D01*
X107677449Y-117350000D02*
X110962551Y-117350000D01*
X110962551Y-117350000D02*
X111720000Y-116592551D01*
D56*
%TO.N,+3V3*%
X118572918Y-95975000D02*
X117850000Y-95252082D01*
X121175000Y-96925000D02*
X120225000Y-95975000D01*
X122100000Y-98625000D02*
X121175000Y-97700000D01*
X120225000Y-95975000D02*
X118572918Y-95975000D01*
X121175000Y-97700000D02*
X121175000Y-96925000D01*
X117850000Y-95252082D02*
X117850000Y-93343898D01*
X123195013Y-97875000D02*
X122850000Y-97875000D01*
D55*
%TO.N,Net-(U3-VDD1A)*%
X122100000Y-96975000D02*
X122300000Y-97175000D01*
D56*
%TO.N,+3V3*%
X122850000Y-97875000D02*
X122100000Y-98625000D01*
D55*
%TO.N,Net-(U3-VDD1A)*%
X122300000Y-97175000D02*
X123925000Y-97175000D01*
X123925000Y-97175000D02*
X124000000Y-97250000D01*
D56*
%TO.N,GND*%
X131000000Y-90050000D02*
X131000000Y-90729602D01*
X131000000Y-90729602D02*
X130885823Y-90843779D01*
X130885823Y-90843779D02*
X130948008Y-90905964D01*
X130948008Y-90905964D02*
X130948008Y-91701992D01*
X125451992Y-88451992D02*
X125451992Y-89601992D01*
D58*
%TO.N,+3V3*%
X126250000Y-91500000D02*
X125998008Y-91248008D01*
D56*
%TO.N,GND*%
X125451992Y-89601992D02*
X124901992Y-90151992D01*
D58*
%TO.N,+3V3*%
X126250000Y-93312500D02*
X126250000Y-91500000D01*
D63*
X126548008Y-89548008D02*
X126548008Y-90698008D01*
X126548008Y-90698008D02*
X125998008Y-91248008D01*
D55*
%TO.N,/PHY_RXER*%
X125750000Y-92684314D02*
X125750000Y-93312500D01*
X124812776Y-91200000D02*
X124812776Y-91747090D01*
X124812776Y-91747090D02*
X125750000Y-92684314D01*
%TO.N,Net-(U3-RXD0{slash}MODE0)*%
X126750000Y-93312501D02*
X126750000Y-92700000D01*
X126750000Y-92700000D02*
X127616637Y-91833363D01*
X127616637Y-91833363D02*
X127616637Y-90683363D01*
%TO.N,Net-(U3-RXD1{slash}MODE1)*%
X127250000Y-93312500D02*
X127250000Y-92900000D01*
X127250000Y-92900000D02*
X128416637Y-91733363D01*
X128416637Y-91733363D02*
X128716637Y-91733363D01*
%TO.N,/VDDCR*%
X129851992Y-92798008D02*
X129676992Y-92973008D01*
X129676992Y-92973008D02*
X129526992Y-92973008D01*
X129526992Y-92973008D02*
X128500000Y-94000000D01*
X128500000Y-94000000D02*
X127937500Y-94000000D01*
%TO.N,/ETH_MDIO*%
X124590318Y-93312500D02*
X124750000Y-93312500D01*
X123211740Y-91817900D02*
X123211740Y-91933922D01*
X123211740Y-91933922D02*
X124590318Y-93312500D01*
%TO.N,/ETH_MDC*%
X124124024Y-93624024D02*
X124062500Y-93685548D01*
X124062500Y-93685548D02*
X124062500Y-94000000D01*
%TO.N,/ETH_TXEN*%
X123000001Y-95450000D02*
X123050001Y-95500000D01*
X123050001Y-95500000D02*
X124062500Y-95500000D01*
%TO.N,/ETH_TXD0*%
X122872161Y-96000000D02*
X124062501Y-96000000D01*
X122733883Y-96138278D02*
X122872161Y-96000000D01*
%TO.N,/ESP_IO2*%
X127913917Y-79285308D02*
X127728609Y-79100000D01*
X118117282Y-79782718D02*
X117400000Y-79782718D01*
X127728609Y-79100000D02*
X118800000Y-79100000D01*
X118800000Y-79100000D02*
X118117282Y-79782718D01*
%TO.N,/ESP_IO15*%
X128625396Y-79431101D02*
X128625396Y-79218969D01*
X128106427Y-78700000D02*
X118000000Y-78700000D01*
X128625396Y-79218969D02*
X128106427Y-78700000D01*
X118000000Y-78700000D02*
X117616878Y-79083122D01*
X117616878Y-79083122D02*
X117423845Y-79083122D01*
X127950000Y-82912807D02*
X127950000Y-83955000D01*
X127974441Y-82888366D02*
X127950000Y-82912807D01*
%TO.N,/BOOT0*%
X118871372Y-82105000D02*
X116417182Y-82105000D01*
X119271372Y-82505000D02*
X118871372Y-82105000D01*
X126678156Y-82505000D02*
X119271372Y-82505000D01*
X128392603Y-81575001D02*
X128242604Y-81725000D01*
X128242604Y-81725000D02*
X127458156Y-81725000D01*
X127458156Y-81725000D02*
X126678156Y-82505000D01*
X116417182Y-82105000D02*
X115950000Y-82572182D01*
X128650000Y-82705000D02*
X132250000Y-82705000D01*
%TO.N,/ETH_RXD1*%
X130093413Y-80121300D02*
X128272113Y-78300000D01*
X128272113Y-78300000D02*
X117542272Y-78300000D01*
%TO.N,/PHY_RXER*%
X130893564Y-80160000D02*
X132000000Y-80160000D01*
X130250000Y-80803564D02*
X130893564Y-80160000D01*
%TO.N,/ETH_MDIO*%
X130650000Y-76350000D02*
X132000000Y-76350000D01*
%TO.N,/ETH_TXD0*%
X131050000Y-75250000D02*
X131830000Y-75250000D01*
X131830000Y-75250000D02*
X132000000Y-75080000D01*
%TO.N,/PHY_INT*%
X117749492Y-81555000D02*
X117749492Y-81449492D01*
X117749492Y-81449492D02*
X116850000Y-80550000D01*
X116850000Y-80550000D02*
X116850000Y-76655000D01*
X116850000Y-76655000D02*
X115280000Y-75085000D01*
X115280000Y-75085000D02*
X114750000Y-75085000D01*
%TO.N,/ETH_RXD0*%
X117049489Y-81555000D02*
X117049489Y-81449489D01*
X115945090Y-77625000D02*
X114750000Y-77625000D01*
X117049489Y-81449489D02*
X116450000Y-80850000D01*
X116450000Y-80850000D02*
X116450000Y-78129910D01*
X116450000Y-78129910D02*
X115945090Y-77625000D01*
%TO.N,/ETH_RXD1*%
X115551094Y-78890000D02*
X115000000Y-78890000D01*
X115892299Y-78548795D02*
X115551094Y-78890000D01*
D61*
%TO.N,+3V3*%
X109960000Y-97420000D02*
X110175000Y-97635000D01*
X110175000Y-97635000D02*
X110175000Y-103505000D01*
X110175000Y-103505000D02*
X109960000Y-103720000D01*
D55*
%TO.N,/RX*%
X109400000Y-94251698D02*
X109400000Y-90010000D01*
X109393560Y-94258138D02*
X109400000Y-94251698D01*
X109400000Y-90010000D02*
X110650000Y-88760000D01*
%TO.N,/TX*%
X110650000Y-86220000D02*
X111800000Y-87370000D01*
X111800000Y-87370000D02*
X111800000Y-92701304D01*
X111800000Y-92701304D02*
X109551304Y-94950000D01*
X109551304Y-94950000D02*
X109500000Y-94950000D01*
%TO.N,/ESP_IO5*%
X116007092Y-75034274D02*
X116007092Y-75246406D01*
X117392272Y-77292272D02*
X118000000Y-77900000D01*
X118000000Y-77900000D02*
X131720000Y-77900000D01*
X116007092Y-75246406D02*
X117392272Y-76631586D01*
X117392272Y-76631586D02*
X117392272Y-77292272D01*
X131720000Y-77900000D02*
X132000000Y-77620000D01*
%TO.N,/ETH_CRS_DV*%
X114750000Y-80165000D02*
X115115000Y-80165000D01*
X115115000Y-80165000D02*
X116264316Y-81314316D01*
X116264316Y-81314316D02*
X116264316Y-81576670D01*
%TO.N,/ESP_IO13*%
X116960686Y-82905000D02*
X118540000Y-82905000D01*
X118540000Y-82905000D02*
X119055000Y-83420000D01*
X114743504Y-84200000D02*
X115665686Y-84200000D01*
X114148503Y-83604999D02*
X114743504Y-84200000D01*
X115665686Y-84200000D02*
X116960686Y-82905000D01*
X119055000Y-83420000D02*
X119055000Y-83700000D01*
%TO.N,/RX*%
X131015686Y-71275000D02*
X132250000Y-71275000D01*
X130400000Y-74300000D02*
X130400000Y-71890686D01*
X130400000Y-71890686D02*
X131015686Y-71275000D01*
%TO.N,/TX*%
X132250000Y-70005000D02*
X131720000Y-70005000D01*
X131720000Y-70005000D02*
X129850000Y-71875000D01*
X129850000Y-77250000D02*
X129900000Y-77300000D01*
X129850000Y-71875000D02*
X129850000Y-77250000D01*
%TO.N,/PHY_INT*%
X123206007Y-89743993D02*
X121325000Y-91625000D01*
X123206007Y-89684802D02*
X123206007Y-89743993D01*
X121325000Y-91625000D02*
X121325000Y-92000000D01*
%TO.N,/ESP_IO4*%
X132250000Y-81435000D02*
X132245000Y-81430000D01*
X132245000Y-81430000D02*
X132000000Y-81430000D01*
%TO.N,/ESP_IO14*%
X112454977Y-77850000D02*
X112454977Y-79664977D01*
X114220000Y-81430000D02*
X115000000Y-81430000D01*
X112454977Y-79664977D02*
X114220000Y-81430000D01*
%TO.N,/ESP_IO33*%
X113575000Y-75975000D02*
X113675000Y-75975000D01*
X113675000Y-75975000D02*
X114050000Y-76350000D01*
X114050000Y-76350000D02*
X115000000Y-76350000D01*
%TO.N,/ETH_TXEN*%
X131150000Y-72540000D02*
X132000000Y-72540000D01*
%TO.N,/ETH_TXD1*%
X131125000Y-68730000D02*
X132000000Y-68730000D01*
D56*
%TO.N,+3V3*%
X117850000Y-93343898D02*
X119493898Y-93343898D01*
X119675000Y-92000000D02*
X119675000Y-93525000D01*
X119493898Y-93343898D02*
X119675000Y-93525000D01*
X111237500Y-94250000D02*
X112650000Y-94250000D01*
D55*
%TO.N,/PHY_RST*%
X121275000Y-95050000D02*
X121475000Y-94850000D01*
X121475000Y-94850000D02*
X123293501Y-94850000D01*
X123293501Y-94850000D02*
X123443501Y-95000000D01*
X123443501Y-95000000D02*
X124062500Y-95000000D01*
X121275000Y-95050000D02*
X121275000Y-93575000D01*
X121275000Y-93575000D02*
X121325000Y-93525000D01*
D56*
%TO.N,GND*%
X118850000Y-95050000D02*
X119725000Y-95050000D01*
D55*
%TO.N,/ESP_IO12*%
X114220000Y-82700000D02*
X115000000Y-82700000D01*
X113554977Y-82034977D02*
X114220000Y-82700000D01*
X113554977Y-81951753D02*
X113554977Y-82034977D01*
D56*
%TO.N,+3V3*%
X108650000Y-79050000D02*
X108300000Y-79400000D01*
X108300000Y-90300000D02*
X106840000Y-91760000D01*
X108300000Y-79400000D02*
X108300000Y-90300000D01*
D55*
%TO.N,/TX-*%
X125250000Y-97187500D02*
X125250000Y-97614386D01*
X125250000Y-97614386D02*
X124964386Y-97900000D01*
X124964386Y-97900000D02*
X124550000Y-97900000D01*
X124550000Y-97900000D02*
X124000000Y-98450000D01*
X124000000Y-98450000D02*
X124000000Y-101025000D01*
X124000000Y-101025000D02*
X123275000Y-101750000D01*
%TO.N,/RX+*%
X126925041Y-98073571D02*
X126750000Y-97898530D01*
X126750000Y-97898530D02*
X126750000Y-97187499D01*
%TO.N,Net-(U3-RBIAS)*%
X127250000Y-97187500D02*
X127250000Y-97550000D01*
X127950000Y-98250000D02*
X127950000Y-98575000D01*
X127250000Y-97550000D02*
X127950000Y-98250000D01*
D56*
%TO.N,+3V3*%
X125050001Y-101624999D02*
X124925000Y-101750000D01*
X124925000Y-101750000D02*
X126325000Y-101750000D01*
D55*
%TO.N,Net-(J1-Pad12)*%
X132875000Y-104000000D02*
X133650000Y-104775000D01*
X133650000Y-104775000D02*
X133650000Y-119600000D01*
%TO.N,/ETH_TXD1*%
X123300000Y-96550000D02*
X124012500Y-96550000D01*
X124012500Y-96550000D02*
X124062500Y-96500000D01*
%TO.N,/PHY_INT*%
X124062501Y-94500000D02*
X123509187Y-94500000D01*
X123509187Y-94500000D02*
X121325000Y-92315813D01*
X121325000Y-92315813D02*
X121325000Y-92000000D01*
%TO.N,/PHY_L2*%
X128750000Y-96000000D02*
X127937499Y-96000000D01*
X128959221Y-96209221D02*
X128750000Y-96000000D01*
%TO.N,Net-(U3-VDD1A)*%
X129450000Y-97325000D02*
X129226471Y-97325000D01*
X129226471Y-97325000D02*
X128401471Y-96500000D01*
X128401471Y-96500000D02*
X127937500Y-96500000D01*
X131000000Y-97325000D02*
X129450000Y-97325000D01*
%TO.N,/ESP_SENSOR_VN_IO39*%
X115800000Y-70755000D02*
X115285000Y-71270000D01*
X115950002Y-70100000D02*
X115800000Y-70250002D01*
X115800000Y-70250002D02*
X115800000Y-70755000D01*
X115285000Y-71270000D02*
X115000000Y-71270000D01*
%TO.N,/ESP_IO35*%
X115900000Y-73810000D02*
X115000000Y-73810000D01*
%TO.N,/EN*%
X111325000Y-73650000D02*
X111325000Y-75535050D01*
X111325000Y-75535050D02*
X109350000Y-77510050D01*
X109350000Y-77510050D02*
X109350000Y-82380000D01*
X109350000Y-82380000D02*
X110650000Y-83680000D01*
D56*
%TO.N,GND*%
X112260000Y-97420000D02*
X112260000Y-98680000D01*
X112000000Y-98940000D02*
X112000000Y-99250000D01*
X112260000Y-98680000D02*
X112000000Y-98940000D01*
X112260000Y-98240000D02*
X111250000Y-99250000D01*
%TO.N,+3V3*%
X110475000Y-95250000D02*
X110475000Y-96905000D01*
%TO.N,GND*%
X112260000Y-97420000D02*
X112260000Y-98760000D01*
X112260000Y-97420000D02*
X112260000Y-98240000D01*
%TO.N,+3V3*%
X109960000Y-97420000D02*
X109960000Y-96460000D01*
%TO.N,GND*%
X112260000Y-98760000D02*
X112750000Y-99250000D01*
%TO.N,+3V3*%
X109960000Y-96460000D02*
X107800000Y-94300000D01*
X107800000Y-94300000D02*
X106840000Y-94300000D01*
X110475000Y-96905000D02*
X109960000Y-97420000D01*
%TO.N,GND*%
X105000000Y-96000000D02*
X105175220Y-96000000D01*
X105180220Y-95995000D02*
X106000000Y-95995000D01*
X105175220Y-96000000D02*
X105180220Y-95995000D01*
X103980000Y-95960000D02*
X104960000Y-95960000D01*
X104960000Y-95960000D02*
X105000000Y-96000000D01*
X104005000Y-96920000D02*
X104005000Y-95985000D01*
X104005000Y-95985000D02*
X103980000Y-95960000D01*
D55*
%TO.N,/ETH_MDC*%
X131960000Y-67500000D02*
X132000000Y-67460000D01*
X131150000Y-67500000D02*
X131960000Y-67500000D01*
%TO.N,/BOOT0*%
X132575000Y-85750000D02*
X132575000Y-83030000D01*
X132575000Y-83030000D02*
X132250000Y-82705000D01*
D56*
%TO.N,VBUS*%
X104250000Y-105250000D02*
X104210000Y-105290000D01*
X104250000Y-103250000D02*
X104250000Y-105250000D01*
D55*
%TO.N,/ESP_IO2*%
X108571522Y-74727357D02*
X107950000Y-74105835D01*
X107950000Y-71430000D02*
X106800000Y-70280000D01*
X107950000Y-74105835D02*
X107950000Y-71430000D01*
D57*
%TO.N,+3V3*%
X111325000Y-70550000D02*
X111325000Y-69000000D01*
X111325000Y-69000000D02*
X112687500Y-67637500D01*
X112687500Y-67637500D02*
X112687500Y-66500000D01*
D56*
%TO.N,GND*%
X109775000Y-69000000D02*
X109775000Y-70550000D01*
X109612500Y-66500000D02*
X109612500Y-68837500D01*
X109612500Y-68837500D02*
X109775000Y-69000000D01*
D57*
%TO.N,+3V3*%
X111275000Y-70550000D02*
X111325000Y-70550000D01*
D55*
%TO.N,/EN*%
X111375000Y-72100000D02*
X111325000Y-72150000D01*
X111325000Y-72150000D02*
X111325000Y-73650000D01*
%TO.N,/ESP_IO33*%
X108600000Y-75430000D02*
X108496346Y-75430000D01*
X107116346Y-74050000D02*
X105490000Y-74050000D01*
X108496346Y-75430000D02*
X107116346Y-74050000D01*
X105490000Y-74050000D02*
X104260000Y-72820000D01*
D57*
%TO.N,+3V3*%
X112687500Y-66500000D02*
X113647500Y-67460000D01*
X113647500Y-67460000D02*
X115000000Y-67460000D01*
D55*
%TO.N,Net-(J1-Pad12)*%
X133650000Y-119600000D02*
X132750000Y-120500000D01*
X132750000Y-120500000D02*
X130910000Y-120500000D01*
D56*
%TO.N,GND*%
X106120000Y-116032500D02*
X105560000Y-116032500D01*
X106120000Y-116032500D02*
X106120000Y-115250000D01*
X105560000Y-116032500D02*
X105000000Y-116592500D01*
X106990000Y-114750000D02*
X106620000Y-114750000D01*
X113080000Y-116032500D02*
X113640000Y-116592500D01*
X106620000Y-114750000D02*
X106120000Y-115250000D01*
X112520000Y-116032500D02*
X113080000Y-116032500D01*
X106120000Y-115250000D02*
X106120000Y-114890000D01*
X106120000Y-114890000D02*
X105730000Y-114500000D01*
%TO.N,+3V3*%
X110475000Y-95012500D02*
X111237500Y-94250000D01*
X110475000Y-95250000D02*
X110475000Y-95012500D01*
D55*
%TO.N,Net-(U3-VDD1A)*%
X124000000Y-97250000D02*
X124687500Y-97250000D01*
X124687500Y-97250000D02*
X124750000Y-97187500D01*
X127937500Y-97187500D02*
X128000000Y-97250000D01*
X127937500Y-96500000D02*
X127937500Y-97187500D01*
D56*
%TO.N,VBUS*%
X105250000Y-101500000D02*
X103250000Y-101500000D01*
X104250000Y-102500000D02*
X105250000Y-101500000D01*
X104250000Y-103250000D02*
X104250000Y-102500000D01*
X104250000Y-101500000D02*
X104250000Y-103250000D01*
X104250000Y-102500000D02*
X103250000Y-101500000D01*
D55*
%TO.N,Net-(U3-CRS_DV{slash}MODE2)*%
X125250000Y-93312501D02*
X125250000Y-92750000D01*
X125250000Y-92750000D02*
X123333363Y-90833363D01*
%TO.N,Net-(USBC1-CC1)*%
X108010000Y-114750000D02*
X108070000Y-114810000D01*
X108070000Y-114810000D02*
X108070000Y-116032500D01*
%TO.N,Net-(USBC1-CC2)*%
X111260000Y-114500000D02*
X111070000Y-114690000D01*
X111070000Y-114690000D02*
X111070000Y-116032500D01*
D66*
%TO.N,unconnected-(USBC1-SBU2-PadB8)*%
X107570000Y-116032500D02*
X107545000Y-116032500D01*
X107545000Y-116032500D02*
X107545000Y-116000000D01*
D55*
%TO.N,/ESP_IO4*%
X114960661Y-83639339D02*
X115660661Y-83639339D01*
X115660661Y-83639339D02*
X116795000Y-82505000D01*
X118705686Y-82505000D02*
X119105686Y-82905000D01*
X119105686Y-82905000D02*
X126843842Y-82905000D01*
X116795000Y-82505000D02*
X118705686Y-82505000D01*
X126843842Y-82905000D02*
X127623842Y-82125000D01*
X127623842Y-82125000D02*
X131200000Y-82125000D01*
X131200000Y-82125000D02*
X131890000Y-81435000D01*
X131890000Y-81435000D02*
X132250000Y-81435000D01*
D64*
%TO.N,Net-(D1-K)*%
X104250000Y-99250000D02*
X104250000Y-98325000D01*
X104250000Y-98325000D02*
X105655000Y-96920000D01*
D56*
%TO.N,VBUS*%
X111720000Y-115280000D02*
X112575000Y-114425000D01*
X112575000Y-114425000D02*
X112575000Y-112475000D01*
X111720000Y-116032500D02*
X111720000Y-115280000D01*
%TD*%
%TA.AperFunction,Conductor*%
%TO.N,VBUS*%
G36*
X107492539Y-80519685D02*
G01*
X107538294Y-80572489D01*
X107549500Y-80624000D01*
X107549500Y-84870500D01*
X107529815Y-84937539D01*
X107477011Y-84983294D01*
X107425500Y-84994500D01*
X103374000Y-84994500D01*
X103306961Y-84974815D01*
X103261206Y-84922011D01*
X103250000Y-84870500D01*
X103250000Y-80624000D01*
X103269685Y-80556961D01*
X103322489Y-80511206D01*
X103374000Y-80500000D01*
X107425500Y-80500000D01*
X107492539Y-80519685D01*
G37*
%TD.AperFunction*%
%TD*%
%TA.AperFunction,Conductor*%
%TO.N,+3V3*%
G36*
X108193039Y-90519685D02*
G01*
X108238794Y-90572489D01*
X108250000Y-90624000D01*
X108250000Y-95126000D01*
X108230315Y-95193039D01*
X108177511Y-95238794D01*
X108126000Y-95250000D01*
X106113781Y-95250000D01*
X106089588Y-95247617D01*
X106073919Y-95244500D01*
X106073918Y-95244500D01*
X105217606Y-95244500D01*
X105181606Y-95239159D01*
X105178910Y-95238341D01*
X105033920Y-95209500D01*
X105033918Y-95209500D01*
X104029110Y-95209500D01*
X104015226Y-95208720D01*
X103980002Y-95204751D01*
X103979998Y-95204751D01*
X103944774Y-95208720D01*
X103930890Y-95209500D01*
X103906082Y-95209500D01*
X103869685Y-95216739D01*
X103859382Y-95218341D01*
X103811940Y-95223687D01*
X103811939Y-95223687D01*
X103790097Y-95231330D01*
X103773341Y-95235903D01*
X103761097Y-95238339D01*
X103761088Y-95238341D01*
X103755725Y-95240563D01*
X103708277Y-95250000D01*
X103374000Y-95250000D01*
X103306961Y-95230315D01*
X103261206Y-95177511D01*
X103250000Y-95126000D01*
X103250000Y-90879500D01*
X103269685Y-90812461D01*
X103322489Y-90766706D01*
X103374000Y-90755500D01*
X107288632Y-90755500D01*
X107288648Y-90755499D01*
X107336625Y-90750340D01*
X107396084Y-90743948D01*
X107396088Y-90743946D01*
X107396090Y-90743946D01*
X107448585Y-90724365D01*
X107530892Y-90693667D01*
X107646074Y-90607442D01*
X107717198Y-90536317D01*
X107778519Y-90502834D01*
X107804878Y-90500000D01*
X108126000Y-90500000D01*
X108193039Y-90519685D01*
G37*
%TD.AperFunction*%
%TD*%
%TA.AperFunction,Conductor*%
%TO.N,GND*%
G36*
X104303933Y-111000235D02*
G01*
X104355313Y-111047583D01*
X104372938Y-111115193D01*
X104351212Y-111181600D01*
X104336678Y-111199081D01*
X104287322Y-111248437D01*
X104287314Y-111248447D01*
X104203717Y-111389803D01*
X104203716Y-111389806D01*
X104157900Y-111547504D01*
X104157899Y-111547510D01*
X104155000Y-111584350D01*
X104155000Y-112225000D01*
X105081000Y-112225000D01*
X105148039Y-112244685D01*
X105193794Y-112297489D01*
X105205000Y-112349000D01*
X105205000Y-112601000D01*
X105185315Y-112668039D01*
X105132511Y-112713794D01*
X105081000Y-112725000D01*
X104155000Y-112725000D01*
X104155000Y-113365649D01*
X104157899Y-113402489D01*
X104157900Y-113402495D01*
X104203716Y-113560193D01*
X104203717Y-113560196D01*
X104262971Y-113660390D01*
X104280154Y-113728114D01*
X104257994Y-113794377D01*
X104239408Y-113813945D01*
X104239829Y-113814366D01*
X104119887Y-113934307D01*
X104119881Y-113934315D01*
X104037505Y-114073606D01*
X104037504Y-114073609D01*
X103992357Y-114229002D01*
X103992356Y-114229008D01*
X103989500Y-114265302D01*
X103989500Y-114734697D01*
X103992356Y-114770991D01*
X103992357Y-114770997D01*
X104037504Y-114926390D01*
X104037505Y-114926393D01*
X104119881Y-115065684D01*
X104119887Y-115065692D01*
X104234307Y-115180112D01*
X104240476Y-115184897D01*
X104239051Y-115186733D01*
X104278783Y-115229291D01*
X104291283Y-115298033D01*
X104264633Y-115362621D01*
X104255657Y-115372627D01*
X104223252Y-115405032D01*
X104223248Y-115405037D01*
X104113814Y-115568815D01*
X104113807Y-115568828D01*
X104038430Y-115750806D01*
X104038427Y-115750818D01*
X104000000Y-115944004D01*
X104000000Y-116342500D01*
X104700000Y-116342500D01*
X104700000Y-116842500D01*
X104000000Y-116842500D01*
X104000000Y-117240995D01*
X104038427Y-117434181D01*
X104038430Y-117434193D01*
X104113807Y-117616171D01*
X104113814Y-117616184D01*
X104223248Y-117779962D01*
X104223251Y-117779966D01*
X104362533Y-117919248D01*
X104362537Y-117919251D01*
X104526315Y-118028685D01*
X104526328Y-118028692D01*
X104708308Y-118104069D01*
X104750000Y-118112362D01*
X104750000Y-117309499D01*
X104759940Y-117326716D01*
X104815795Y-117382571D01*
X104884204Y-117422067D01*
X104960504Y-117442511D01*
X105039496Y-117442511D01*
X105115796Y-117422067D01*
X105184205Y-117382571D01*
X105240060Y-117326716D01*
X105250000Y-117309499D01*
X105250000Y-118112362D01*
X105291690Y-118104069D01*
X105291692Y-118104069D01*
X105473671Y-118028692D01*
X105473684Y-118028685D01*
X105637462Y-117919251D01*
X105637466Y-117919248D01*
X105781059Y-117775656D01*
X105782455Y-117777052D01*
X105832658Y-117742829D01*
X105902501Y-117740932D01*
X105939695Y-117757709D01*
X105955878Y-117768521D01*
X105959842Y-117771284D01*
X106014976Y-117811342D01*
X106020248Y-117813689D01*
X106020259Y-117813694D01*
X106038714Y-117823871D01*
X106038763Y-117823903D01*
X106038979Y-117824048D01*
X106102630Y-117850412D01*
X106105514Y-117851651D01*
X106173501Y-117881922D01*
X106177813Y-117883323D01*
X106183225Y-117885020D01*
X106183381Y-117884507D01*
X106189208Y-117886274D01*
X106189211Y-117886276D01*
X106262931Y-117900939D01*
X106264390Y-117901240D01*
X106343236Y-117918000D01*
X106516763Y-117918000D01*
X106516764Y-117918000D01*
X106595626Y-117901236D01*
X106597051Y-117900943D01*
X106670789Y-117886276D01*
X106670794Y-117886273D01*
X106670798Y-117886273D01*
X106676627Y-117884505D01*
X106676782Y-117885016D01*
X106682255Y-117883300D01*
X106686495Y-117881923D01*
X106686495Y-117881922D01*
X106686499Y-117881922D01*
X106754494Y-117851647D01*
X106757358Y-117850417D01*
X106821021Y-117824048D01*
X106821274Y-117823878D01*
X106839742Y-117813693D01*
X106845024Y-117811342D01*
X106900163Y-117771279D01*
X106904127Y-117768518D01*
X106951546Y-117736834D01*
X106956225Y-117733708D01*
X106960870Y-117729062D01*
X106975665Y-117716424D01*
X106984054Y-117710329D01*
X107049857Y-117686853D01*
X107117911Y-117702680D01*
X107144615Y-117722970D01*
X107179940Y-117758295D01*
X107269154Y-117847509D01*
X107269157Y-117847511D01*
X107269158Y-117847512D01*
X107374056Y-117917603D01*
X107374060Y-117917605D01*
X107490617Y-117965884D01*
X107490622Y-117965886D01*
X107614360Y-117990499D01*
X107614363Y-117990500D01*
X107614365Y-117990500D01*
X111025636Y-117990500D01*
X111025637Y-117990499D01*
X111149379Y-117965886D01*
X111265942Y-117917604D01*
X111370846Y-117847509D01*
X111495385Y-117722969D01*
X111556706Y-117689486D01*
X111626398Y-117694470D01*
X111655948Y-117710332D01*
X111664325Y-117716418D01*
X111679123Y-117729057D01*
X111683770Y-117733704D01*
X111683773Y-117733706D01*
X111683775Y-117733708D01*
X111735878Y-117768521D01*
X111739843Y-117771284D01*
X111794976Y-117811342D01*
X111800248Y-117813689D01*
X111800259Y-117813694D01*
X111818714Y-117823871D01*
X111818763Y-117823903D01*
X111818979Y-117824048D01*
X111882630Y-117850412D01*
X111885514Y-117851651D01*
X111953501Y-117881922D01*
X111957813Y-117883323D01*
X111963225Y-117885020D01*
X111963381Y-117884507D01*
X111969208Y-117886274D01*
X111969211Y-117886276D01*
X112042931Y-117900939D01*
X112044390Y-117901240D01*
X112123236Y-117918000D01*
X112296763Y-117918000D01*
X112296764Y-117918000D01*
X112375626Y-117901236D01*
X112377051Y-117900943D01*
X112450789Y-117886276D01*
X112450794Y-117886273D01*
X112450798Y-117886273D01*
X112456627Y-117884505D01*
X112456782Y-117885016D01*
X112462255Y-117883300D01*
X112466495Y-117881923D01*
X112466495Y-117881922D01*
X112466499Y-117881922D01*
X112534494Y-117851647D01*
X112537358Y-117850417D01*
X112601021Y-117824048D01*
X112601274Y-117823878D01*
X112619742Y-117813693D01*
X112625024Y-117811342D01*
X112680163Y-117771279D01*
X112684126Y-117768518D01*
X112700300Y-117757711D01*
X112766977Y-117736834D01*
X112834357Y-117755319D01*
X112858321Y-117776275D01*
X112858941Y-117775656D01*
X113002533Y-117919248D01*
X113002537Y-117919251D01*
X113166315Y-118028685D01*
X113166328Y-118028692D01*
X113348308Y-118104069D01*
X113390000Y-118112362D01*
X113390000Y-117309487D01*
X113399940Y-117326704D01*
X113455795Y-117382559D01*
X113524204Y-117422055D01*
X113600504Y-117442499D01*
X113679496Y-117442499D01*
X113755796Y-117422055D01*
X113824205Y-117382559D01*
X113880060Y-117326704D01*
X113890000Y-117309487D01*
X113890000Y-118112362D01*
X113931690Y-118104069D01*
X113931692Y-118104069D01*
X114113671Y-118028692D01*
X114113684Y-118028685D01*
X114277462Y-117919251D01*
X114277466Y-117919248D01*
X114416748Y-117779966D01*
X114416751Y-117779962D01*
X114526185Y-117616184D01*
X114526192Y-117616171D01*
X114601569Y-117434193D01*
X114601572Y-117434181D01*
X114639999Y-117240995D01*
X114640000Y-117240992D01*
X114640000Y-116842500D01*
X113940000Y-116842500D01*
X113940000Y-116342500D01*
X114640000Y-116342500D01*
X114640000Y-115944008D01*
X114639999Y-115944004D01*
X114601572Y-115750818D01*
X114601569Y-115750806D01*
X114526192Y-115568828D01*
X114526185Y-115568815D01*
X114416751Y-115405037D01*
X114416748Y-115405033D01*
X114277466Y-115265751D01*
X114277462Y-115265748D01*
X114113684Y-115156314D01*
X114113671Y-115156307D01*
X113931691Y-115080929D01*
X113931683Y-115080927D01*
X113890000Y-115072635D01*
X113890000Y-115875512D01*
X113880060Y-115858296D01*
X113824205Y-115802441D01*
X113755796Y-115762945D01*
X113679496Y-115742501D01*
X113600504Y-115742501D01*
X113524204Y-115762945D01*
X113455795Y-115802441D01*
X113399940Y-115858296D01*
X113390000Y-115875512D01*
X113390000Y-115072636D01*
X113389999Y-115072635D01*
X113348316Y-115080927D01*
X113348313Y-115080928D01*
X113296249Y-115102493D01*
X113226779Y-115109960D01*
X113164301Y-115078684D01*
X113128649Y-115018595D01*
X113131144Y-114948770D01*
X113155527Y-114909315D01*
X113154083Y-114908130D01*
X113157950Y-114903417D01*
X113157952Y-114903415D01*
X113185205Y-114862627D01*
X113240084Y-114780495D01*
X113269929Y-114708443D01*
X113296659Y-114643912D01*
X113322625Y-114513371D01*
X113325500Y-114498918D01*
X113325500Y-114035199D01*
X113345185Y-113968160D01*
X113397989Y-113922405D01*
X113467147Y-113912461D01*
X113484089Y-113916121D01*
X113592431Y-113947598D01*
X113629306Y-113950500D01*
X113629314Y-113950500D01*
X114060686Y-113950500D01*
X114060694Y-113950500D01*
X114097569Y-113947598D01*
X114097571Y-113947597D01*
X114097573Y-113947597D01*
X114148056Y-113932930D01*
X114255398Y-113901744D01*
X114396865Y-113818081D01*
X114513081Y-113701865D01*
X114596744Y-113560398D01*
X114642598Y-113402569D01*
X114645500Y-113365694D01*
X114645500Y-113091031D01*
X114665185Y-113023992D01*
X114717989Y-112978237D01*
X114787147Y-112968293D01*
X114850703Y-112997318D01*
X114887652Y-113054813D01*
X114888039Y-113054694D01*
X114888466Y-113056079D01*
X114888477Y-113056096D01*
X114888506Y-113056208D01*
X114889412Y-113059144D01*
X114983729Y-113299460D01*
X114983728Y-113299460D01*
X115112815Y-113523043D01*
X115157441Y-113579003D01*
X115157442Y-113579003D01*
X115812672Y-112923772D01*
X115817757Y-112936047D01*
X115906949Y-113069532D01*
X116020468Y-113183051D01*
X116153953Y-113272243D01*
X116166225Y-113277326D01*
X115510621Y-113932930D01*
X115676334Y-114045911D01*
X115676342Y-114045916D01*
X115908932Y-114157924D01*
X115908930Y-114157924D01*
X116155624Y-114234019D01*
X116155630Y-114234020D01*
X116410910Y-114272499D01*
X116410917Y-114272500D01*
X116669083Y-114272500D01*
X116669089Y-114272499D01*
X116924369Y-114234020D01*
X116924370Y-114234020D01*
X116984628Y-114215433D01*
X117054491Y-114214482D01*
X117113778Y-114251453D01*
X117143665Y-114314608D01*
X117134664Y-114383895D01*
X117119555Y-114409410D01*
X117007236Y-114555787D01*
X116884307Y-114768705D01*
X116884303Y-114768714D01*
X116790225Y-114995837D01*
X116790222Y-114995847D01*
X116727672Y-115229291D01*
X116726592Y-115233320D01*
X116726590Y-115233331D01*
X116694500Y-115477065D01*
X116694500Y-115722934D01*
X116704968Y-115802441D01*
X116726591Y-115966677D01*
X116726592Y-115966679D01*
X116790222Y-116204152D01*
X116790225Y-116204162D01*
X116857677Y-116367004D01*
X116884306Y-116431292D01*
X117007233Y-116644208D01*
X117007235Y-116644211D01*
X117007236Y-116644212D01*
X117156897Y-116839254D01*
X117156903Y-116839261D01*
X117330738Y-117013096D01*
X117330745Y-117013102D01*
X117445335Y-117101030D01*
X117525792Y-117162767D01*
X117738708Y-117285694D01*
X117965847Y-117379778D01*
X118203323Y-117443409D01*
X118447073Y-117475500D01*
X118447080Y-117475500D01*
X118692920Y-117475500D01*
X118692927Y-117475500D01*
X118936677Y-117443409D01*
X119174153Y-117379778D01*
X119401292Y-117285694D01*
X119614208Y-117162767D01*
X119720937Y-117080871D01*
X119770014Y-117043213D01*
X119835183Y-117018019D01*
X119903628Y-117032057D01*
X119953617Y-117080871D01*
X119969500Y-117141589D01*
X119969500Y-119156471D01*
X119949815Y-119223510D01*
X119897011Y-119269265D01*
X119877595Y-119276245D01*
X119765518Y-119306277D01*
X119564836Y-119399856D01*
X119564834Y-119399857D01*
X119383444Y-119526868D01*
X119226868Y-119683444D01*
X119099857Y-119864834D01*
X119099856Y-119864836D01*
X119042382Y-119988091D01*
X118996210Y-120040531D01*
X118929017Y-120059683D01*
X118862135Y-120039467D01*
X118817618Y-119988091D01*
X118767128Y-119879815D01*
X118760142Y-119864833D01*
X118633132Y-119683445D01*
X118476555Y-119526868D01*
X118295167Y-119399858D01*
X118295163Y-119399856D01*
X118094486Y-119306279D01*
X118094475Y-119306275D01*
X117880592Y-119248965D01*
X117880585Y-119248964D01*
X117660002Y-119229666D01*
X117659998Y-119229666D01*
X117439414Y-119248964D01*
X117439407Y-119248965D01*
X117225524Y-119306275D01*
X117225513Y-119306279D01*
X117024836Y-119399856D01*
X117024834Y-119399857D01*
X116843444Y-119526868D01*
X116686868Y-119683444D01*
X116559857Y-119864834D01*
X116559856Y-119864836D01*
X116466279Y-120065513D01*
X116466275Y-120065524D01*
X116408965Y-120279407D01*
X116408964Y-120279414D01*
X116389666Y-120499998D01*
X116389666Y-120500001D01*
X116408964Y-120720585D01*
X116408965Y-120720592D01*
X116466275Y-120934475D01*
X116466279Y-120934486D01*
X116543693Y-121100501D01*
X116559858Y-121135167D01*
X116678341Y-121304378D01*
X116700668Y-121370582D01*
X116683658Y-121438349D01*
X116632710Y-121486163D01*
X116576766Y-121499500D01*
X114745641Y-121499500D01*
X114678602Y-121479815D01*
X114632847Y-121427011D01*
X114622903Y-121357853D01*
X114624024Y-121351308D01*
X114639999Y-121270992D01*
X114640000Y-121270992D01*
X114640000Y-121022500D01*
X113940000Y-121022500D01*
X113940000Y-120522500D01*
X114640000Y-120522500D01*
X114640000Y-120274008D01*
X114639999Y-120274004D01*
X114601572Y-120080818D01*
X114601569Y-120080806D01*
X114526192Y-119898828D01*
X114526185Y-119898815D01*
X114416751Y-119735037D01*
X114416748Y-119735033D01*
X114277466Y-119595751D01*
X114277462Y-119595748D01*
X114113684Y-119486314D01*
X114113671Y-119486307D01*
X113931691Y-119410929D01*
X113931683Y-119410927D01*
X113890000Y-119402635D01*
X113890000Y-120205512D01*
X113880060Y-120188296D01*
X113824205Y-120132441D01*
X113755796Y-120092945D01*
X113679496Y-120072501D01*
X113600504Y-120072501D01*
X113524204Y-120092945D01*
X113455795Y-120132441D01*
X113399940Y-120188296D01*
X113390000Y-120205512D01*
X113390000Y-119402636D01*
X113389999Y-119402635D01*
X113348316Y-119410927D01*
X113348308Y-119410929D01*
X113166328Y-119486307D01*
X113166315Y-119486314D01*
X113002537Y-119595748D01*
X113002533Y-119595751D01*
X112863251Y-119735033D01*
X112863248Y-119735037D01*
X112753814Y-119898815D01*
X112753807Y-119898828D01*
X112678430Y-120080806D01*
X112678427Y-120080818D01*
X112640000Y-120274004D01*
X112640000Y-120522500D01*
X113340000Y-120522500D01*
X113340000Y-121022500D01*
X112640000Y-121022500D01*
X112640000Y-121270992D01*
X112655976Y-121351308D01*
X112649749Y-121420900D01*
X112606886Y-121476077D01*
X112540996Y-121499322D01*
X112534359Y-121499500D01*
X106105641Y-121499500D01*
X106038602Y-121479815D01*
X105992847Y-121427011D01*
X105982903Y-121357853D01*
X105984024Y-121351308D01*
X105999999Y-121270992D01*
X106000000Y-121270992D01*
X106000000Y-121022500D01*
X105300000Y-121022500D01*
X105300000Y-120522500D01*
X106000000Y-120522500D01*
X106000000Y-120274008D01*
X105999999Y-120274004D01*
X105961572Y-120080818D01*
X105961569Y-120080806D01*
X105886192Y-119898828D01*
X105886185Y-119898815D01*
X105776751Y-119735037D01*
X105776748Y-119735033D01*
X105637466Y-119595751D01*
X105637462Y-119595748D01*
X105473684Y-119486314D01*
X105473671Y-119486307D01*
X105291691Y-119410929D01*
X105291683Y-119410927D01*
X105250000Y-119402635D01*
X105250000Y-120205512D01*
X105240060Y-120188296D01*
X105184205Y-120132441D01*
X105115796Y-120092945D01*
X105039496Y-120072501D01*
X104960504Y-120072501D01*
X104884204Y-120092945D01*
X104815795Y-120132441D01*
X104759940Y-120188296D01*
X104750000Y-120205512D01*
X104750000Y-119402636D01*
X104749999Y-119402635D01*
X104708316Y-119410927D01*
X104708308Y-119410929D01*
X104526328Y-119486307D01*
X104526315Y-119486314D01*
X104362537Y-119595748D01*
X104362533Y-119595751D01*
X104223251Y-119735033D01*
X104223248Y-119735037D01*
X104113814Y-119898815D01*
X104113807Y-119898828D01*
X104038430Y-120080806D01*
X104038427Y-120080818D01*
X104000000Y-120274004D01*
X104000000Y-120522500D01*
X104700000Y-120522500D01*
X104700000Y-121022500D01*
X104000000Y-121022500D01*
X104000000Y-121270992D01*
X104015976Y-121351308D01*
X104009749Y-121420900D01*
X103966886Y-121476077D01*
X103900996Y-121499322D01*
X103894359Y-121499500D01*
X102874500Y-121499500D01*
X102807461Y-121479815D01*
X102761706Y-121427011D01*
X102750500Y-121375500D01*
X102750500Y-111496022D01*
X102770185Y-111428983D01*
X102822989Y-111383228D01*
X102885720Y-111372531D01*
X102918384Y-111375500D01*
X102918389Y-111375500D01*
X103581613Y-111375500D01*
X103581616Y-111375500D01*
X103652196Y-111369086D01*
X103814606Y-111318478D01*
X103960185Y-111230472D01*
X104080472Y-111110185D01*
X104116735Y-111050198D01*
X104168262Y-111003010D01*
X104208967Y-110991127D01*
X104235112Y-110988181D01*
X104303933Y-111000235D01*
G37*
%TD.AperFunction*%
%TA.AperFunction,Conductor*%
G36*
X132093334Y-104699838D02*
G01*
X132137681Y-104728339D01*
X132239811Y-104830469D01*
X132239813Y-104830470D01*
X132239815Y-104830472D01*
X132385394Y-104918478D01*
X132547804Y-104969086D01*
X132618384Y-104975500D01*
X132925500Y-104975500D01*
X132992539Y-104995185D01*
X133038294Y-105047989D01*
X133049500Y-105099500D01*
X133049500Y-110931789D01*
X133029815Y-110998828D01*
X132977011Y-111044583D01*
X132907853Y-111054527D01*
X132871699Y-111043509D01*
X132661067Y-110942075D01*
X132661069Y-110942075D01*
X132414375Y-110865980D01*
X132414369Y-110865979D01*
X132159089Y-110827500D01*
X131900910Y-110827500D01*
X131645630Y-110865979D01*
X131645624Y-110865980D01*
X131398931Y-110942075D01*
X131166340Y-111054085D01*
X131166327Y-111054092D01*
X131000621Y-111167067D01*
X131656226Y-111822672D01*
X131643953Y-111827757D01*
X131510468Y-111916949D01*
X131396949Y-112030468D01*
X131307757Y-112163953D01*
X131302672Y-112176226D01*
X130647442Y-111520996D01*
X130602812Y-111576960D01*
X130473729Y-111800539D01*
X130379412Y-112040855D01*
X130379406Y-112040874D01*
X130321962Y-112292554D01*
X130321962Y-112292556D01*
X130302670Y-112549995D01*
X130302670Y-112550004D01*
X130321962Y-112807443D01*
X130321962Y-112807445D01*
X130379406Y-113059125D01*
X130379412Y-113059144D01*
X130473729Y-113299460D01*
X130473728Y-113299460D01*
X130602813Y-113523039D01*
X130668897Y-113605906D01*
X130695305Y-113670593D01*
X130682550Y-113739288D01*
X130634679Y-113790182D01*
X130566893Y-113807116D01*
X130539857Y-113802994D01*
X130492041Y-113790182D01*
X130366677Y-113756591D01*
X130325939Y-113751227D01*
X130122934Y-113724500D01*
X130122927Y-113724500D01*
X129877073Y-113724500D01*
X129877065Y-113724500D01*
X129645059Y-113755045D01*
X129633323Y-113756591D01*
X129585351Y-113769445D01*
X129395847Y-113820222D01*
X129395837Y-113820225D01*
X129168714Y-113914303D01*
X129168705Y-113914307D01*
X128955787Y-114037236D01*
X128760745Y-114186897D01*
X128760738Y-114186903D01*
X128586903Y-114360738D01*
X128586897Y-114360745D01*
X128437236Y-114555787D01*
X128314307Y-114768705D01*
X128314303Y-114768714D01*
X128220225Y-114995837D01*
X128220222Y-114995847D01*
X128157672Y-115229291D01*
X128156592Y-115233320D01*
X128156590Y-115233331D01*
X128124500Y-115477065D01*
X128124500Y-115722934D01*
X128134968Y-115802441D01*
X128156591Y-115966677D01*
X128156592Y-115966679D01*
X128220222Y-116204152D01*
X128220225Y-116204162D01*
X128287677Y-116367004D01*
X128314306Y-116431292D01*
X128437233Y-116644208D01*
X128437235Y-116644211D01*
X128437236Y-116644212D01*
X128586897Y-116839254D01*
X128586903Y-116839261D01*
X128760738Y-117013096D01*
X128760745Y-117013102D01*
X128875335Y-117101030D01*
X128955792Y-117162767D01*
X129168708Y-117285694D01*
X129395847Y-117379778D01*
X129633323Y-117443409D01*
X129877073Y-117475500D01*
X129877080Y-117475500D01*
X130122920Y-117475500D01*
X130122927Y-117475500D01*
X130366677Y-117443409D01*
X130604153Y-117379778D01*
X130831292Y-117285694D01*
X131044208Y-117162767D01*
X131239256Y-117013101D01*
X131413101Y-116839256D01*
X131562767Y-116644208D01*
X131685694Y-116431292D01*
X131779778Y-116204153D01*
X131843409Y-115966677D01*
X131875500Y-115722927D01*
X131875500Y-115477073D01*
X131843409Y-115233323D01*
X131779778Y-114995847D01*
X131763687Y-114957001D01*
X131741491Y-114903415D01*
X131685694Y-114768708D01*
X131562767Y-114555792D01*
X131450443Y-114409409D01*
X131425250Y-114344241D01*
X131439288Y-114275797D01*
X131488102Y-114225807D01*
X131556193Y-114210143D01*
X131585371Y-114215433D01*
X131645629Y-114234020D01*
X131900910Y-114272499D01*
X131900917Y-114272500D01*
X132159083Y-114272500D01*
X132159089Y-114272499D01*
X132414369Y-114234020D01*
X132414375Y-114234019D01*
X132661065Y-114157925D01*
X132871698Y-114056490D01*
X132940640Y-114045138D01*
X133004774Y-114072860D01*
X133043740Y-114130855D01*
X133049500Y-114168210D01*
X133049500Y-119299903D01*
X133029815Y-119366942D01*
X133013181Y-119387584D01*
X132537584Y-119863181D01*
X132476261Y-119896666D01*
X132449903Y-119899500D01*
X132098966Y-119899500D01*
X132031927Y-119879815D01*
X131997393Y-119846626D01*
X131883132Y-119683445D01*
X131726555Y-119526868D01*
X131545167Y-119399858D01*
X131545163Y-119399856D01*
X131344486Y-119306279D01*
X131344475Y-119306275D01*
X131130592Y-119248965D01*
X131130585Y-119248964D01*
X130910002Y-119229666D01*
X130909998Y-119229666D01*
X130689414Y-119248964D01*
X130689407Y-119248965D01*
X130475524Y-119306275D01*
X130475513Y-119306279D01*
X130274836Y-119399856D01*
X130274834Y-119399857D01*
X130093444Y-119526868D01*
X129936868Y-119683444D01*
X129809857Y-119864833D01*
X129752106Y-119988683D01*
X129705934Y-120041122D01*
X129638740Y-120060274D01*
X129571859Y-120040058D01*
X129527342Y-119988683D01*
X129469707Y-119865085D01*
X129469706Y-119865083D01*
X129423894Y-119799657D01*
X129423894Y-119799656D01*
X128861127Y-120362422D01*
X128845245Y-120303147D01*
X128778102Y-120186853D01*
X128683147Y-120091898D01*
X128566853Y-120024755D01*
X128507575Y-120008872D01*
X129070342Y-119446105D01*
X129070341Y-119446103D01*
X129004919Y-119400295D01*
X128804309Y-119306749D01*
X128804300Y-119306745D01*
X128590509Y-119249461D01*
X128590499Y-119249459D01*
X128370001Y-119230168D01*
X128369999Y-119230168D01*
X128149500Y-119249459D01*
X128149490Y-119249461D01*
X127935699Y-119306745D01*
X127935690Y-119306749D01*
X127735084Y-119400293D01*
X127669657Y-119446104D01*
X128232424Y-120008871D01*
X128173147Y-120024755D01*
X128056853Y-120091898D01*
X127961898Y-120186853D01*
X127894755Y-120303147D01*
X127878871Y-120362424D01*
X127316104Y-119799657D01*
X127270293Y-119865084D01*
X127176749Y-120065690D01*
X127176745Y-120065699D01*
X127119461Y-120279490D01*
X127119459Y-120279500D01*
X127100168Y-120499999D01*
X127100168Y-120500000D01*
X127119459Y-120720499D01*
X127119461Y-120720509D01*
X127176745Y-120934300D01*
X127176749Y-120934309D01*
X127270293Y-121134916D01*
X127270297Y-121134922D01*
X127388951Y-121304376D01*
X127411279Y-121370582D01*
X127394269Y-121438349D01*
X127343322Y-121486163D01*
X127287377Y-121499500D01*
X121283234Y-121499500D01*
X121216195Y-121479815D01*
X121170440Y-121427011D01*
X121160496Y-121357853D01*
X121181657Y-121304378D01*
X121300142Y-121135167D01*
X121393723Y-120934480D01*
X121451035Y-120720591D01*
X121470334Y-120500000D01*
X121451035Y-120279409D01*
X121393723Y-120065520D01*
X121381574Y-120039467D01*
X121307128Y-119879815D01*
X121300142Y-119864833D01*
X121173132Y-119683445D01*
X121166819Y-119677132D01*
X121133334Y-119615809D01*
X121130500Y-119589451D01*
X121130500Y-112223578D01*
X121130500Y-112223576D01*
X121103834Y-112124058D01*
X121090940Y-112075935D01*
X121078290Y-112054025D01*
X121014516Y-111943565D01*
X120906435Y-111835484D01*
X119732131Y-110661180D01*
X119698646Y-110599857D01*
X119703630Y-110530165D01*
X119745502Y-110474232D01*
X119810966Y-110449815D01*
X119819812Y-110449499D01*
X120581871Y-110449499D01*
X120581872Y-110449499D01*
X120641483Y-110443091D01*
X120776331Y-110392796D01*
X120891546Y-110306546D01*
X120977796Y-110191331D01*
X121028091Y-110056483D01*
X121034500Y-109996873D01*
X121034499Y-109776168D01*
X121054183Y-109709131D01*
X121106987Y-109663376D01*
X121176145Y-109653432D01*
X121239701Y-109682457D01*
X121269499Y-109720898D01*
X121350795Y-109884161D01*
X121484762Y-110061562D01*
X121591100Y-110158501D01*
X121649043Y-110211323D01*
X121838046Y-110328349D01*
X121838047Y-110328349D01*
X121838048Y-110328350D01*
X121907142Y-110355117D01*
X122045335Y-110408653D01*
X122263850Y-110449500D01*
X122263853Y-110449500D01*
X122486147Y-110449500D01*
X122486150Y-110449500D01*
X122704665Y-110408653D01*
X122911954Y-110328349D01*
X123100957Y-110211323D01*
X123265239Y-110061560D01*
X123399205Y-109884161D01*
X123498292Y-109685166D01*
X123525734Y-109588715D01*
X123563013Y-109529624D01*
X123626323Y-109500067D01*
X123695563Y-109509429D01*
X123748749Y-109554739D01*
X123764266Y-109588717D01*
X123791707Y-109685163D01*
X123791712Y-109685176D01*
X123890795Y-109884161D01*
X124024762Y-110061562D01*
X124131100Y-110158501D01*
X124189043Y-110211323D01*
X124378046Y-110328349D01*
X124378047Y-110328349D01*
X124378048Y-110328350D01*
X124447142Y-110355117D01*
X124585335Y-110408653D01*
X124803850Y-110449500D01*
X124803853Y-110449500D01*
X125001771Y-110449500D01*
X125068810Y-110469185D01*
X125089452Y-110485819D01*
X125481048Y-110877415D01*
X125481049Y-110877416D01*
X125534089Y-110930456D01*
X125585585Y-110981952D01*
X125708498Y-111064080D01*
X125708511Y-111064087D01*
X125819793Y-111110181D01*
X125845087Y-111120658D01*
X125845091Y-111120658D01*
X125845092Y-111120659D01*
X125990079Y-111149500D01*
X125990082Y-111149500D01*
X128004852Y-111149500D01*
X128102394Y-111130096D01*
X128149845Y-111120658D01*
X128286427Y-111064084D01*
X128335661Y-111031186D01*
X128409348Y-110981952D01*
X130782952Y-108608348D01*
X130844935Y-108515582D01*
X130865084Y-108485427D01*
X130915921Y-108362696D01*
X130921659Y-108348844D01*
X130950500Y-108203849D01*
X130950500Y-108056014D01*
X130950500Y-105099500D01*
X130970185Y-105032461D01*
X131022989Y-104986706D01*
X131074500Y-104975500D01*
X131481613Y-104975500D01*
X131481616Y-104975500D01*
X131552196Y-104969086D01*
X131714606Y-104918478D01*
X131860185Y-104830472D01*
X131901208Y-104789449D01*
X131962319Y-104728339D01*
X132023642Y-104694854D01*
X132093334Y-104699838D01*
G37*
%TD.AperFunction*%
%TA.AperFunction,Conductor*%
G36*
X118088834Y-107962914D02*
G01*
X118144767Y-108004786D01*
X118169184Y-108070250D01*
X118169500Y-108079096D01*
X118169500Y-110576425D01*
X118180617Y-110617913D01*
X118209060Y-110724066D01*
X118209061Y-110724067D01*
X118285484Y-110856435D01*
X118285485Y-110856436D01*
X118285486Y-110856437D01*
X119933181Y-112504132D01*
X119966666Y-112565455D01*
X119969500Y-112591813D01*
X119969500Y-114058410D01*
X119949815Y-114125449D01*
X119897011Y-114171204D01*
X119827853Y-114181148D01*
X119770014Y-114156786D01*
X119614212Y-114037236D01*
X119614211Y-114037235D01*
X119614208Y-114037233D01*
X119401292Y-113914306D01*
X119370965Y-113901744D01*
X119174162Y-113820225D01*
X119174155Y-113820223D01*
X119174153Y-113820222D01*
X118936677Y-113756591D01*
X118895939Y-113751227D01*
X118692934Y-113724500D01*
X118692927Y-113724500D01*
X118447073Y-113724500D01*
X118447065Y-113724500D01*
X118215059Y-113755045D01*
X118203323Y-113756591D01*
X118155351Y-113769445D01*
X118030142Y-113802994D01*
X117960292Y-113801331D01*
X117902430Y-113762168D01*
X117874926Y-113697939D01*
X117886513Y-113629037D01*
X117901103Y-113605905D01*
X117967186Y-113523040D01*
X118096270Y-113299460D01*
X118190587Y-113059144D01*
X118190593Y-113059125D01*
X118248037Y-112807445D01*
X118248037Y-112807443D01*
X118267330Y-112550004D01*
X118267330Y-112549995D01*
X118248037Y-112292556D01*
X118248037Y-112292554D01*
X118190593Y-112040874D01*
X118190587Y-112040855D01*
X118096270Y-111800539D01*
X118096271Y-111800539D01*
X117967186Y-111576960D01*
X117922557Y-111520995D01*
X117267326Y-112176225D01*
X117262243Y-112163953D01*
X117173051Y-112030468D01*
X117059532Y-111916949D01*
X116926047Y-111827757D01*
X116913773Y-111822672D01*
X117569377Y-111167068D01*
X117403665Y-111054088D01*
X117403657Y-111054083D01*
X117171067Y-110942075D01*
X117171069Y-110942075D01*
X116924375Y-110865980D01*
X116924369Y-110865979D01*
X116669089Y-110827500D01*
X116410910Y-110827500D01*
X116155630Y-110865979D01*
X116155624Y-110865980D01*
X115908931Y-110942075D01*
X115676340Y-111054085D01*
X115676327Y-111054092D01*
X115510621Y-111167067D01*
X116166226Y-111822672D01*
X116153953Y-111827757D01*
X116020468Y-111916949D01*
X115906949Y-112030468D01*
X115817757Y-112163953D01*
X115812672Y-112176226D01*
X115157442Y-111520996D01*
X115112812Y-111576960D01*
X114983729Y-111800539D01*
X114889412Y-112040855D01*
X114888039Y-112045306D01*
X114885883Y-112044641D01*
X114856244Y-112097577D01*
X114794568Y-112130408D01*
X114724934Y-112124682D01*
X114669448Y-112082219D01*
X114645729Y-112016498D01*
X114645500Y-112008968D01*
X114645500Y-111584313D01*
X114645499Y-111584298D01*
X114642598Y-111547432D01*
X114642597Y-111547426D01*
X114596745Y-111389606D01*
X114596744Y-111389603D01*
X114596744Y-111389602D01*
X114513081Y-111248135D01*
X114513079Y-111248133D01*
X114513076Y-111248129D01*
X114396870Y-111131923D01*
X114396862Y-111131917D01*
X114282155Y-111064080D01*
X114255398Y-111048256D01*
X114255397Y-111048255D01*
X114255396Y-111048255D01*
X114255393Y-111048254D01*
X114097573Y-111002402D01*
X114097567Y-111002401D01*
X114060701Y-110999500D01*
X114060694Y-110999500D01*
X113629306Y-110999500D01*
X113629298Y-110999500D01*
X113592432Y-111002401D01*
X113592426Y-111002402D01*
X113434606Y-111048254D01*
X113434603Y-111048255D01*
X113293137Y-111131917D01*
X113286969Y-111136702D01*
X113285072Y-111134256D01*
X113236358Y-111160857D01*
X113166666Y-111155873D01*
X113134296Y-111135069D01*
X113133031Y-111136702D01*
X113126862Y-111131917D01*
X113012155Y-111064080D01*
X112985398Y-111048256D01*
X112985397Y-111048255D01*
X112985396Y-111048255D01*
X112985393Y-111048254D01*
X112827573Y-111002402D01*
X112827567Y-111002401D01*
X112790701Y-110999500D01*
X112790694Y-110999500D01*
X112769913Y-110999500D01*
X112702874Y-110979815D01*
X112682232Y-110963181D01*
X112331233Y-110612181D01*
X112297748Y-110550858D01*
X112302732Y-110481166D01*
X112344604Y-110425233D01*
X112410068Y-110400816D01*
X112418914Y-110400500D01*
X115213331Y-110400500D01*
X115213347Y-110400501D01*
X115220943Y-110400501D01*
X115379054Y-110400501D01*
X115379057Y-110400501D01*
X115531785Y-110359577D01*
X115591530Y-110325083D01*
X115668716Y-110280520D01*
X115780520Y-110168716D01*
X115780520Y-110168714D01*
X115790724Y-110158511D01*
X115790727Y-110158506D01*
X117957821Y-107991413D01*
X118019142Y-107957930D01*
X118088834Y-107962914D01*
G37*
%TD.AperFunction*%
%TA.AperFunction,Conductor*%
G36*
X128310326Y-106881764D02*
G01*
X128368911Y-106983236D01*
X128451764Y-107066089D01*
X128553236Y-107124674D01*
X128640495Y-107148054D01*
X128072397Y-107716153D01*
X128188268Y-107787898D01*
X128188270Y-107787899D01*
X128395473Y-107868169D01*
X128613899Y-107909000D01*
X128836101Y-107909000D01*
X129054525Y-107868169D01*
X129054531Y-107868168D01*
X129070987Y-107861793D01*
X129140610Y-107855930D01*
X129202350Y-107888639D01*
X129236606Y-107949535D01*
X129232501Y-108019284D01*
X129203463Y-108065100D01*
X128654623Y-108613939D01*
X128593300Y-108647424D01*
X128523608Y-108642440D01*
X128467988Y-108600985D01*
X128345237Y-108438437D01*
X128180958Y-108288678D01*
X128180957Y-108288677D01*
X127991954Y-108171651D01*
X127991952Y-108171650D01*
X127991951Y-108171649D01*
X127784668Y-108091348D01*
X127784667Y-108091347D01*
X127784665Y-108091347D01*
X127566150Y-108050500D01*
X127343850Y-108050500D01*
X127125335Y-108091347D01*
X127125333Y-108091347D01*
X127125331Y-108091348D01*
X126918048Y-108171649D01*
X126918047Y-108171650D01*
X126729041Y-108288678D01*
X126564762Y-108438437D01*
X126430795Y-108615838D01*
X126331712Y-108814823D01*
X126331707Y-108814836D01*
X126304266Y-108911282D01*
X126266987Y-108970375D01*
X126203677Y-108999932D01*
X126134437Y-108990570D01*
X126081251Y-108945260D01*
X126065734Y-108911282D01*
X126049861Y-108855494D01*
X126038292Y-108814834D01*
X126029245Y-108796666D01*
X125954932Y-108647424D01*
X125939205Y-108615839D01*
X125805239Y-108438440D01*
X125805237Y-108438437D01*
X125640958Y-108288678D01*
X125640957Y-108288677D01*
X125536266Y-108223855D01*
X125502218Y-108190965D01*
X125501817Y-108191295D01*
X125498978Y-108187835D01*
X125498441Y-108187317D01*
X125497953Y-108186587D01*
X125497949Y-108186582D01*
X124727745Y-107416378D01*
X124694260Y-107355055D01*
X124699244Y-107285363D01*
X124704418Y-107273441D01*
X124768292Y-107145166D01*
X124795734Y-107048715D01*
X124833013Y-106989624D01*
X124896323Y-106960067D01*
X124965563Y-106969429D01*
X125018749Y-107014739D01*
X125034264Y-107048714D01*
X125054480Y-107119765D01*
X125061707Y-107145163D01*
X125061712Y-107145176D01*
X125160795Y-107344161D01*
X125294762Y-107521562D01*
X125436088Y-107650397D01*
X125459043Y-107671323D01*
X125648046Y-107788349D01*
X125648047Y-107788349D01*
X125648048Y-107788350D01*
X125669161Y-107796529D01*
X125855335Y-107868653D01*
X126073850Y-107909500D01*
X126073853Y-107909500D01*
X126296147Y-107909500D01*
X126296150Y-107909500D01*
X126514665Y-107868653D01*
X126721954Y-107788349D01*
X126910957Y-107671323D01*
X127075239Y-107521560D01*
X127209205Y-107344161D01*
X127308292Y-107145166D01*
X127335995Y-107047799D01*
X127373271Y-106988711D01*
X127436581Y-106959153D01*
X127505820Y-106968515D01*
X127559007Y-107013824D01*
X127574525Y-107047803D01*
X127602175Y-107144981D01*
X127602180Y-107144994D01*
X127701224Y-107343900D01*
X127716851Y-107364594D01*
X128286944Y-106794502D01*
X128310326Y-106881764D01*
G37*
%TD.AperFunction*%
%TA.AperFunction,Conductor*%
G36*
X116701520Y-106770920D02*
G01*
X116747275Y-106823724D01*
X116757219Y-106892882D01*
X116728194Y-106956438D01*
X116722162Y-106962916D01*
X114921898Y-108763181D01*
X114860575Y-108796666D01*
X114834217Y-108799500D01*
X114702304Y-108799500D01*
X114635265Y-108779815D01*
X114589510Y-108727011D01*
X114579566Y-108657853D01*
X114593737Y-108617592D01*
X114593647Y-108617554D01*
X114594202Y-108616269D01*
X114595572Y-108612379D01*
X114596744Y-108610398D01*
X114642598Y-108452569D01*
X114645500Y-108415694D01*
X114645500Y-106875235D01*
X114665185Y-106808196D01*
X114717989Y-106762441D01*
X114769500Y-106751235D01*
X116634481Y-106751235D01*
X116701520Y-106770920D01*
G37*
%TD.AperFunction*%
%TA.AperFunction,Conductor*%
G36*
X103372539Y-105059685D02*
G01*
X103418294Y-105112489D01*
X103429500Y-105164000D01*
X103429500Y-105524697D01*
X103432356Y-105560991D01*
X103432357Y-105560994D01*
X103454576Y-105637469D01*
X103459500Y-105672065D01*
X103459500Y-106725500D01*
X103439815Y-106792539D01*
X103387011Y-106838294D01*
X103335500Y-106849500D01*
X103155354Y-106849500D01*
X103134569Y-106853918D01*
X102970197Y-106888855D01*
X102970192Y-106888857D01*
X102924936Y-106909007D01*
X102855686Y-106918292D01*
X102792409Y-106888664D01*
X102755196Y-106829529D01*
X102750500Y-106795728D01*
X102750500Y-106187171D01*
X102770185Y-106120132D01*
X102822989Y-106074377D01*
X102892147Y-106064433D01*
X102909094Y-106068094D01*
X103000000Y-106094504D01*
X103000000Y-105164000D01*
X103019685Y-105096961D01*
X103072489Y-105051206D01*
X103124000Y-105040000D01*
X103305500Y-105040000D01*
X103372539Y-105059685D01*
G37*
%TD.AperFunction*%
%TA.AperFunction,Conductor*%
G36*
X131117539Y-98644685D02*
G01*
X131163294Y-98697489D01*
X131174500Y-98749000D01*
X131174500Y-101012770D01*
X131154815Y-101079809D01*
X131138181Y-101100451D01*
X129617048Y-102621583D01*
X129597784Y-102650415D01*
X129578647Y-102679057D01*
X129534919Y-102744499D01*
X129534912Y-102744511D01*
X129478343Y-102881082D01*
X129478340Y-102881092D01*
X129449500Y-103026079D01*
X129449500Y-105525740D01*
X129429815Y-105592779D01*
X129377011Y-105638534D01*
X129307853Y-105648478D01*
X129267308Y-105633746D01*
X129266856Y-105634654D01*
X129261727Y-105632099D01*
X129054526Y-105551830D01*
X128836101Y-105511000D01*
X128613899Y-105511000D01*
X128395474Y-105551830D01*
X128395473Y-105551830D01*
X128188272Y-105632099D01*
X128188266Y-105632103D01*
X128072398Y-105703844D01*
X128072397Y-105703845D01*
X128640497Y-106271944D01*
X128553236Y-106295326D01*
X128451764Y-106353911D01*
X128368911Y-106436764D01*
X128310326Y-106538236D01*
X128286944Y-106625496D01*
X127716852Y-106055404D01*
X127701223Y-106076101D01*
X127602180Y-106275005D01*
X127602176Y-106275015D01*
X127574525Y-106372197D01*
X127537245Y-106431290D01*
X127473935Y-106460847D01*
X127404695Y-106451483D01*
X127351510Y-106406173D01*
X127335997Y-106372206D01*
X127308292Y-106274834D01*
X127303422Y-106265054D01*
X127220367Y-106098256D01*
X127209205Y-106075839D01*
X127075239Y-105898440D01*
X127001487Y-105831206D01*
X126965206Y-105771494D01*
X126966967Y-105701647D01*
X126997343Y-105651890D01*
X128308506Y-104340728D01*
X128308511Y-104340724D01*
X128318714Y-104330520D01*
X128318716Y-104330520D01*
X128430520Y-104218716D01*
X128493313Y-104109954D01*
X128509577Y-104081785D01*
X128550501Y-103929057D01*
X128550501Y-103770943D01*
X128550501Y-103763348D01*
X128550500Y-103763330D01*
X128550500Y-102686488D01*
X128570185Y-102619449D01*
X128604809Y-102585763D01*
X128604285Y-102585094D01*
X128610180Y-102580474D01*
X128610185Y-102580472D01*
X128730472Y-102460185D01*
X128818478Y-102314606D01*
X128869086Y-102152196D01*
X128875500Y-102081616D01*
X128875500Y-101418384D01*
X128869086Y-101347804D01*
X128818478Y-101185394D01*
X128731623Y-101041719D01*
X128713787Y-100974167D01*
X128735304Y-100907693D01*
X128750060Y-100889889D01*
X128780072Y-100859877D01*
X128868019Y-100714395D01*
X128918590Y-100552106D01*
X128925000Y-100481572D01*
X128925000Y-100475000D01*
X127874500Y-100475000D01*
X127807461Y-100455315D01*
X127761706Y-100402511D01*
X127750500Y-100351000D01*
X127750500Y-100099000D01*
X127770185Y-100031961D01*
X127822989Y-99986206D01*
X127874500Y-99975000D01*
X128924999Y-99975000D01*
X128924999Y-99968421D01*
X128923339Y-99950156D01*
X128936875Y-99881610D01*
X128985321Y-99831264D01*
X129053296Y-99815102D01*
X129059433Y-99815575D01*
X129151683Y-99824999D01*
X129700000Y-99824999D01*
X129748308Y-99824999D01*
X129748322Y-99824998D01*
X129847607Y-99814855D01*
X130008481Y-99761547D01*
X130008492Y-99761542D01*
X130158879Y-99668782D01*
X130160416Y-99671275D01*
X130212863Y-99650105D01*
X130281507Y-99663133D01*
X130290886Y-99669161D01*
X130291121Y-99668782D01*
X130441507Y-99761542D01*
X130441518Y-99761547D01*
X130602393Y-99814855D01*
X130701683Y-99824999D01*
X130749999Y-99824998D01*
X130750000Y-99824998D01*
X130750000Y-99125000D01*
X129700000Y-99125000D01*
X129700000Y-99824999D01*
X129151683Y-99824999D01*
X129199999Y-99824998D01*
X129200000Y-99824998D01*
X129200000Y-98749000D01*
X129219685Y-98681961D01*
X129272489Y-98636206D01*
X129324000Y-98625000D01*
X131050500Y-98625000D01*
X131117539Y-98644685D01*
G37*
%TD.AperFunction*%
%TA.AperFunction,Conductor*%
G36*
X112454808Y-95020185D02*
G01*
X112466463Y-95029577D01*
X112466869Y-95029083D01*
X112471585Y-95032953D01*
X112537711Y-95077136D01*
X112537713Y-95077137D01*
X112537716Y-95077139D01*
X112594505Y-95115084D01*
X112594506Y-95115084D01*
X112594507Y-95115085D01*
X112651079Y-95138518D01*
X112651080Y-95138518D01*
X112731088Y-95171659D01*
X112847241Y-95194763D01*
X112866468Y-95198587D01*
X112876081Y-95200500D01*
X112876082Y-95200500D01*
X112876083Y-95200500D01*
X113023918Y-95200500D01*
X113108481Y-95200500D01*
X113175520Y-95220185D01*
X113196163Y-95236820D01*
X113239811Y-95280468D01*
X113239811Y-95280469D01*
X113239813Y-95280470D01*
X113239815Y-95280472D01*
X113385394Y-95368478D01*
X113547804Y-95419086D01*
X113618384Y-95425500D01*
X113618387Y-95425500D01*
X114131613Y-95425500D01*
X114131616Y-95425500D01*
X114202196Y-95419086D01*
X114325056Y-95380801D01*
X114394913Y-95379652D01*
X114449624Y-95411507D01*
X115388820Y-96350704D01*
X115422305Y-96412027D01*
X115417321Y-96481719D01*
X115375449Y-96537652D01*
X115338030Y-96556770D01*
X115268400Y-96578468D01*
X115130608Y-96661766D01*
X115016766Y-96775608D01*
X114933469Y-96913397D01*
X114885569Y-97067116D01*
X114879500Y-97133911D01*
X114879500Y-97566098D01*
X114885568Y-97632882D01*
X114885571Y-97632893D01*
X114933467Y-97786598D01*
X114933468Y-97786600D01*
X114933469Y-97786602D01*
X114992027Y-97883468D01*
X115016766Y-97924391D01*
X115130608Y-98038233D01*
X115130610Y-98038234D01*
X115130612Y-98038236D01*
X115268398Y-98121531D01*
X115422113Y-98169430D01*
X115488909Y-98175500D01*
X115914902Y-98175499D01*
X115981941Y-98195183D01*
X116002583Y-98211818D01*
X116003584Y-98212819D01*
X116037069Y-98274142D01*
X116032085Y-98343834D01*
X115990213Y-98399767D01*
X115924749Y-98424184D01*
X115915903Y-98424500D01*
X115488901Y-98424500D01*
X115422117Y-98430568D01*
X115422106Y-98430571D01*
X115268401Y-98478467D01*
X115130608Y-98561766D01*
X115016766Y-98675608D01*
X114933469Y-98813397D01*
X114885569Y-98967116D01*
X114879500Y-99033911D01*
X114879500Y-99119902D01*
X114859815Y-99186941D01*
X114843181Y-99207583D01*
X113399481Y-100651282D01*
X113399479Y-100651285D01*
X113382554Y-100680600D01*
X113365629Y-100709916D01*
X113320423Y-100788215D01*
X113279499Y-100940943D01*
X113279499Y-100940945D01*
X113279499Y-101109046D01*
X113279500Y-101109059D01*
X113279500Y-102003330D01*
X113279499Y-102003348D01*
X113279499Y-102169054D01*
X113279498Y-102169054D01*
X113320423Y-102321785D01*
X113349358Y-102371900D01*
X113349359Y-102371904D01*
X113349360Y-102371904D01*
X113354208Y-102380302D01*
X113399479Y-102458714D01*
X113399481Y-102458717D01*
X113518349Y-102577585D01*
X113518355Y-102577590D01*
X113643181Y-102702416D01*
X113676666Y-102763739D01*
X113679500Y-102790096D01*
X113679500Y-102909168D01*
X113679501Y-102909192D01*
X113682335Y-102945205D01*
X113727129Y-103099388D01*
X113727131Y-103099393D01*
X113805268Y-103231517D01*
X113808865Y-103237598D01*
X113863182Y-103291915D01*
X113896666Y-103353236D01*
X113899500Y-103379595D01*
X113899500Y-103699902D01*
X113879815Y-103766941D01*
X113863181Y-103787583D01*
X111914073Y-105736690D01*
X111888394Y-105756395D01*
X111865734Y-105769478D01*
X111865732Y-105769479D01*
X111809830Y-105825381D01*
X111753928Y-105881284D01*
X111753926Y-105881286D01*
X111664022Y-105971190D01*
X111621390Y-106013822D01*
X111560067Y-106047306D01*
X111523995Y-106049759D01*
X111520711Y-106049500D01*
X111520694Y-106049500D01*
X111089306Y-106049500D01*
X111089298Y-106049500D01*
X111052432Y-106052401D01*
X111052426Y-106052402D01*
X110894606Y-106098254D01*
X110894603Y-106098255D01*
X110753137Y-106181917D01*
X110746969Y-106186702D01*
X110745072Y-106184256D01*
X110696358Y-106210857D01*
X110626666Y-106205873D01*
X110594296Y-106185069D01*
X110593031Y-106186702D01*
X110586862Y-106181917D01*
X110445396Y-106098255D01*
X110445393Y-106098254D01*
X110287573Y-106052402D01*
X110287567Y-106052401D01*
X110250701Y-106049500D01*
X110250694Y-106049500D01*
X109819306Y-106049500D01*
X109819298Y-106049500D01*
X109782432Y-106052401D01*
X109782426Y-106052402D01*
X109624606Y-106098254D01*
X109624603Y-106098255D01*
X109483137Y-106181917D01*
X109476969Y-106186702D01*
X109475072Y-106184256D01*
X109426358Y-106210857D01*
X109356666Y-106205873D01*
X109324296Y-106185069D01*
X109323031Y-106186702D01*
X109316862Y-106181917D01*
X109175396Y-106098255D01*
X109175393Y-106098254D01*
X109017573Y-106052402D01*
X109017567Y-106052401D01*
X108980701Y-106049500D01*
X108980694Y-106049500D01*
X108549306Y-106049500D01*
X108549298Y-106049500D01*
X108512432Y-106052401D01*
X108512426Y-106052402D01*
X108354606Y-106098254D01*
X108354603Y-106098255D01*
X108213137Y-106181917D01*
X108206969Y-106186702D01*
X108205072Y-106184256D01*
X108156358Y-106210857D01*
X108086666Y-106205873D01*
X108054296Y-106185069D01*
X108053031Y-106186702D01*
X108040702Y-106177139D01*
X108041898Y-106175596D01*
X108001274Y-106132085D01*
X107988772Y-106063343D01*
X108015419Y-105998755D01*
X108024390Y-105988753D01*
X108756326Y-105256818D01*
X108817649Y-105223333D01*
X108844007Y-105220499D01*
X111418028Y-105220499D01*
X111418036Y-105220499D01*
X111537418Y-105209886D01*
X111733049Y-105153909D01*
X111913407Y-105059698D01*
X112071109Y-104931109D01*
X112199698Y-104773407D01*
X112293909Y-104593049D01*
X112349886Y-104397418D01*
X112360500Y-104278037D01*
X112360499Y-103161964D01*
X112349886Y-103042582D01*
X112293909Y-102846951D01*
X112199698Y-102666593D01*
X112129476Y-102580472D01*
X112071109Y-102508890D01*
X111955933Y-102414977D01*
X111913407Y-102380302D01*
X111733049Y-102286091D01*
X111733048Y-102286090D01*
X111733045Y-102286089D01*
X111615829Y-102252550D01*
X111537418Y-102230114D01*
X111537415Y-102230113D01*
X111537413Y-102230113D01*
X111468708Y-102224005D01*
X111418037Y-102219500D01*
X111418032Y-102219500D01*
X111415299Y-102219257D01*
X111415382Y-102218320D01*
X111352845Y-102196864D01*
X111309507Y-102142059D01*
X111300500Y-102095664D01*
X111300500Y-98931727D01*
X111320185Y-98864688D01*
X111372989Y-98818933D01*
X111442147Y-98808989D01*
X111479595Y-98820639D01*
X111581478Y-98871169D01*
X111766175Y-98917102D01*
X111808903Y-98920000D01*
X112010000Y-98920000D01*
X112510000Y-98920000D01*
X112711097Y-98920000D01*
X112753824Y-98917102D01*
X112938523Y-98871168D01*
X113109022Y-98786609D01*
X113109025Y-98786607D01*
X113257366Y-98667367D01*
X113257367Y-98667366D01*
X113376607Y-98519025D01*
X113376609Y-98519022D01*
X113461168Y-98348523D01*
X113507102Y-98163824D01*
X113510000Y-98121096D01*
X113510000Y-97670000D01*
X112510000Y-97670000D01*
X112510000Y-98920000D01*
X112010000Y-98920000D01*
X112010000Y-96268000D01*
X111899000Y-96268000D01*
X111831961Y-96248315D01*
X111786206Y-96195511D01*
X111775000Y-96144000D01*
X111775000Y-95877000D01*
X112275000Y-95877000D01*
X112386000Y-95877000D01*
X112453039Y-95896685D01*
X112498794Y-95949489D01*
X112510000Y-96001000D01*
X112510000Y-97170000D01*
X113510000Y-97170000D01*
X113510000Y-96718903D01*
X113507102Y-96676175D01*
X113461168Y-96491476D01*
X113376609Y-96320977D01*
X113376607Y-96320974D01*
X113257367Y-96172633D01*
X113257366Y-96172632D01*
X113109025Y-96053392D01*
X113109022Y-96053390D01*
X112963975Y-95981454D01*
X112912662Y-95934033D01*
X112895133Y-95866398D01*
X112910333Y-95815895D01*
X112908492Y-95815037D01*
X112911544Y-95808489D01*
X112964855Y-95647606D01*
X112974999Y-95548322D01*
X112975000Y-95548309D01*
X112975000Y-95500000D01*
X112275000Y-95500000D01*
X112275000Y-95877000D01*
X111775000Y-95877000D01*
X111775000Y-95124500D01*
X111794685Y-95057461D01*
X111847489Y-95011706D01*
X111899000Y-95000500D01*
X112387769Y-95000500D01*
X112454808Y-95020185D01*
G37*
%TD.AperFunction*%
%TA.AperFunction,Conductor*%
G36*
X118647893Y-103340185D02*
G01*
X118693648Y-103392989D01*
X118703592Y-103462147D01*
X118674567Y-103525703D01*
X118668535Y-103532181D01*
X117966569Y-104234146D01*
X117966565Y-104234151D01*
X117922839Y-104309889D01*
X117922839Y-104309890D01*
X117887511Y-104371078D01*
X117879012Y-104402797D01*
X117846587Y-104523807D01*
X117846587Y-104523809D01*
X117846587Y-104691910D01*
X117846588Y-104691923D01*
X117846588Y-104727030D01*
X117826903Y-104794069D01*
X117810269Y-104814711D01*
X117111064Y-105513916D01*
X117049741Y-105547401D01*
X117023383Y-105550235D01*
X114098362Y-105550235D01*
X114031323Y-105530550D01*
X113985568Y-105477746D01*
X113975624Y-105408588D01*
X114004649Y-105345032D01*
X114010681Y-105338554D01*
X114382088Y-104967147D01*
X114980520Y-104368716D01*
X115059577Y-104231784D01*
X115100501Y-104079057D01*
X115100501Y-103920942D01*
X115100501Y-103913347D01*
X115100500Y-103913329D01*
X115100500Y-103610848D01*
X115120185Y-103543809D01*
X115172989Y-103498054D01*
X115242147Y-103488110D01*
X115261386Y-103492462D01*
X115412113Y-103539430D01*
X115478909Y-103545500D01*
X116481090Y-103545499D01*
X116481097Y-103545499D01*
X116547882Y-103539431D01*
X116547885Y-103539430D01*
X116547887Y-103539430D01*
X116701602Y-103491531D01*
X116839388Y-103408236D01*
X116890804Y-103356820D01*
X116952127Y-103323334D01*
X116978486Y-103320500D01*
X118580854Y-103320500D01*
X118647893Y-103340185D01*
G37*
%TD.AperFunction*%
%TA.AperFunction,Conductor*%
G36*
X105955833Y-97995179D02*
G01*
X106000180Y-98023680D01*
X106095961Y-98119461D01*
X106095965Y-98119464D01*
X106243449Y-98218011D01*
X106243451Y-98218012D01*
X106243453Y-98218013D01*
X106273330Y-98230388D01*
X106273331Y-98230389D01*
X106273332Y-98230389D01*
X106390104Y-98278758D01*
X106444506Y-98322598D01*
X106455031Y-98342839D01*
X106455372Y-98342671D01*
X106542967Y-98519292D01*
X106542969Y-98519295D01*
X106662277Y-98667721D01*
X106662278Y-98667722D01*
X106810704Y-98787030D01*
X106810707Y-98787032D01*
X106981302Y-98871639D01*
X106981303Y-98871639D01*
X106981307Y-98871641D01*
X107166111Y-98917600D01*
X107208877Y-98920500D01*
X108111122Y-98920499D01*
X108153889Y-98917600D01*
X108338693Y-98871641D01*
X108509296Y-98787030D01*
X108657722Y-98667722D01*
X108713353Y-98598514D01*
X108770696Y-98558595D01*
X108840518Y-98556015D01*
X108900651Y-98591594D01*
X108906647Y-98598514D01*
X108962275Y-98667719D01*
X108962284Y-98667727D01*
X109003186Y-98700605D01*
X109043106Y-98757948D01*
X109049500Y-98797253D01*
X109049500Y-102095500D01*
X109029815Y-102162539D01*
X108977011Y-102208294D01*
X108925500Y-102219500D01*
X108501971Y-102219500D01*
X108501965Y-102219500D01*
X108501964Y-102219501D01*
X108490316Y-102220536D01*
X108382584Y-102230113D01*
X108186954Y-102286089D01*
X108125405Y-102318240D01*
X108006593Y-102380302D01*
X108006591Y-102380303D01*
X108006590Y-102380304D01*
X107848890Y-102508890D01*
X107720304Y-102666590D01*
X107720302Y-102666593D01*
X107697241Y-102710742D01*
X107626089Y-102846954D01*
X107594358Y-102957853D01*
X107574570Y-103027011D01*
X107570114Y-103042583D01*
X107570113Y-103042586D01*
X107559500Y-103161966D01*
X107559500Y-103925994D01*
X107539815Y-103993033D01*
X107523181Y-104013675D01*
X106252428Y-105284427D01*
X106191105Y-105317912D01*
X106121413Y-105312928D01*
X106072597Y-105279718D01*
X106010870Y-105211163D01*
X105857734Y-105099903D01*
X105857729Y-105099900D01*
X105684807Y-105022909D01*
X105684802Y-105022907D01*
X105554375Y-104995185D01*
X105499646Y-104983552D01*
X105499644Y-104983552D01*
X105498854Y-104983384D01*
X105437373Y-104950192D01*
X105403596Y-104889029D01*
X105408248Y-104819314D01*
X105436950Y-104774417D01*
X105492712Y-104718656D01*
X105584814Y-104569334D01*
X105639999Y-104402797D01*
X105650500Y-104300009D01*
X105650499Y-102385278D01*
X105670184Y-102318240D01*
X105701614Y-102284960D01*
X105702723Y-102284153D01*
X105702730Y-102284151D01*
X105855871Y-102172888D01*
X105902334Y-102121284D01*
X105906298Y-102117084D01*
X105915682Y-102107601D01*
X105915683Y-102107598D01*
X105915685Y-102107597D01*
X105919186Y-102103077D01*
X105925070Y-102096033D01*
X105982533Y-102032216D01*
X106077179Y-101868284D01*
X106135674Y-101688256D01*
X106155460Y-101500000D01*
X106135674Y-101311744D01*
X106077179Y-101131716D01*
X105982533Y-100967784D01*
X105855871Y-100827112D01*
X105855870Y-100827111D01*
X105702734Y-100715851D01*
X105702731Y-100715849D01*
X105702730Y-100715849D01*
X105660259Y-100696939D01*
X105607023Y-100651690D01*
X105586702Y-100584841D01*
X105592988Y-100544664D01*
X105639999Y-100402797D01*
X105650500Y-100300009D01*
X105650499Y-98249360D01*
X105670184Y-98182322D01*
X105686813Y-98161685D01*
X105824820Y-98023678D01*
X105886141Y-97990195D01*
X105955833Y-97995179D01*
G37*
%TD.AperFunction*%
%TA.AperFunction,Conductor*%
G36*
X133668834Y-92282914D02*
G01*
X133724767Y-92324786D01*
X133749184Y-92390250D01*
X133749500Y-92399096D01*
X133749500Y-103109480D01*
X133729815Y-103176519D01*
X133677011Y-103222274D01*
X133607853Y-103232218D01*
X133544297Y-103203193D01*
X133537819Y-103197161D01*
X133510188Y-103169530D01*
X133497672Y-103161964D01*
X133364606Y-103081522D01*
X133228881Y-103039229D01*
X133170736Y-103000493D01*
X133142762Y-102936468D01*
X133153843Y-102867483D01*
X133158380Y-102858857D01*
X133159577Y-102856784D01*
X133200501Y-102704057D01*
X133200501Y-102545942D01*
X133200501Y-102538347D01*
X133200500Y-102538329D01*
X133200500Y-95720945D01*
X133200500Y-95720943D01*
X133173320Y-95619505D01*
X133159577Y-95568215D01*
X133124719Y-95507840D01*
X133124719Y-95507839D01*
X133080522Y-95431287D01*
X133080521Y-95431286D01*
X133080520Y-95431284D01*
X132968716Y-95319480D01*
X132968715Y-95319479D01*
X132964385Y-95315149D01*
X132964374Y-95315139D01*
X132787590Y-95138355D01*
X132787588Y-95138352D01*
X132668717Y-95019481D01*
X132668716Y-95019480D01*
X132581904Y-94969360D01*
X132581904Y-94969359D01*
X132581900Y-94969358D01*
X132531785Y-94940423D01*
X132379057Y-94899499D01*
X132220943Y-94899499D01*
X132213347Y-94899499D01*
X132213331Y-94899500D01*
X131249096Y-94899500D01*
X131182057Y-94879815D01*
X131136302Y-94827011D01*
X131126358Y-94757853D01*
X131155383Y-94694297D01*
X131161415Y-94687819D01*
X132362416Y-93486818D01*
X133537821Y-92311413D01*
X133599142Y-92277930D01*
X133668834Y-92282914D01*
G37*
%TD.AperFunction*%
%TA.AperFunction,Conductor*%
G36*
X117259611Y-99478915D02*
G01*
X117293930Y-99503165D01*
X117645139Y-99854374D01*
X117645149Y-99854385D01*
X117649479Y-99858715D01*
X117649480Y-99858716D01*
X117761284Y-99970520D01*
X117804723Y-99995599D01*
X117813333Y-100000570D01*
X117813332Y-100000570D01*
X117813335Y-100000571D01*
X117898209Y-100049574D01*
X117898210Y-100049575D01*
X117898212Y-100049575D01*
X117898215Y-100049577D01*
X118050943Y-100090501D01*
X118050946Y-100090501D01*
X118216653Y-100090501D01*
X118216669Y-100090500D01*
X119070725Y-100090500D01*
X119137764Y-100110185D01*
X119183519Y-100162989D01*
X119193463Y-100232147D01*
X119189802Y-100249094D01*
X119182334Y-100274797D01*
X119180488Y-100298261D01*
X119155603Y-100363549D01*
X119144551Y-100376212D01*
X118612582Y-100908181D01*
X118551259Y-100941666D01*
X118524901Y-100944500D01*
X118098901Y-100944500D01*
X118032117Y-100950568D01*
X118032106Y-100950571D01*
X117878401Y-100998467D01*
X117740608Y-101081766D01*
X117626766Y-101195608D01*
X117543469Y-101333397D01*
X117495569Y-101487116D01*
X117489500Y-101553911D01*
X117489500Y-101986098D01*
X117489628Y-101988905D01*
X117488405Y-101988960D01*
X117475812Y-102052800D01*
X117427376Y-102103156D01*
X117365845Y-102119500D01*
X116978486Y-102119500D01*
X116911447Y-102099815D01*
X116890804Y-102083180D01*
X116839392Y-102031767D01*
X116839391Y-102031766D01*
X116792352Y-102003330D01*
X116701602Y-101948469D01*
X116547887Y-101900570D01*
X116547885Y-101900569D01*
X116547883Y-101900569D01*
X116501117Y-101896319D01*
X116481091Y-101894500D01*
X116481088Y-101894500D01*
X116054097Y-101894500D01*
X115987058Y-101874815D01*
X115941303Y-101822011D01*
X115931359Y-101752853D01*
X115960384Y-101689297D01*
X115966416Y-101682819D01*
X115967417Y-101681818D01*
X116028740Y-101648333D01*
X116055098Y-101645499D01*
X116481097Y-101645499D01*
X116547882Y-101639431D01*
X116547885Y-101639430D01*
X116547887Y-101639430D01*
X116701602Y-101591531D01*
X116839388Y-101508236D01*
X116953236Y-101394388D01*
X117036531Y-101256602D01*
X117084430Y-101102887D01*
X117090500Y-101036091D01*
X117090499Y-100603910D01*
X117090499Y-100603901D01*
X117084431Y-100537117D01*
X117084428Y-100537106D01*
X117036532Y-100383401D01*
X117036531Y-100383400D01*
X117036531Y-100383398D01*
X116953236Y-100245612D01*
X116953234Y-100245610D01*
X116953233Y-100245608D01*
X116834239Y-100126614D01*
X116800754Y-100065291D01*
X116805738Y-99995599D01*
X116845458Y-99941313D01*
X116849375Y-99938243D01*
X116849388Y-99938236D01*
X116963236Y-99824388D01*
X117046531Y-99686602D01*
X117087865Y-99553953D01*
X117126600Y-99495809D01*
X117190625Y-99467834D01*
X117259611Y-99478915D01*
G37*
%TD.AperFunction*%
%TA.AperFunction,Conductor*%
G36*
X102955699Y-95588009D02*
G01*
X103033664Y-95655567D01*
X103033668Y-95655569D01*
X103163800Y-95715000D01*
X103164541Y-95715338D01*
X103231580Y-95735023D01*
X103231584Y-95735024D01*
X103374000Y-95755500D01*
X103374003Y-95755500D01*
X103491857Y-95755500D01*
X103558896Y-95775185D01*
X103604651Y-95827989D01*
X103614595Y-95897147D01*
X103585570Y-95960703D01*
X103528748Y-95997885D01*
X103515603Y-96001981D01*
X103370122Y-96089927D01*
X103249927Y-96210122D01*
X103161980Y-96355604D01*
X103111409Y-96517893D01*
X103105000Y-96588427D01*
X103105000Y-96670000D01*
X104131000Y-96670000D01*
X104198039Y-96689685D01*
X104243794Y-96742489D01*
X104255000Y-96794000D01*
X104255000Y-96995137D01*
X104235315Y-97062176D01*
X104218681Y-97082818D01*
X104167818Y-97133681D01*
X104106495Y-97167166D01*
X104080137Y-97170000D01*
X103105001Y-97170000D01*
X103105001Y-97251582D01*
X103111408Y-97322102D01*
X103111409Y-97322107D01*
X103161981Y-97484398D01*
X103161982Y-97484400D01*
X103166213Y-97491399D01*
X103184047Y-97558954D01*
X103162527Y-97625427D01*
X103137009Y-97652808D01*
X103131344Y-97657287D01*
X103007288Y-97781343D01*
X103007285Y-97781347D01*
X102980038Y-97825522D01*
X102928090Y-97872247D01*
X102859128Y-97883468D01*
X102795046Y-97855625D01*
X102756190Y-97797556D01*
X102750500Y-97760425D01*
X102750500Y-95681724D01*
X102770185Y-95614685D01*
X102822989Y-95568930D01*
X102892147Y-95558986D01*
X102955699Y-95588009D01*
G37*
%TD.AperFunction*%
%TA.AperFunction,Conductor*%
G36*
X126532514Y-94209501D02*
G01*
X126532674Y-94208905D01*
X126540524Y-94211008D01*
X126540526Y-94211008D01*
X126540528Y-94211009D01*
X126650599Y-94225500D01*
X126849400Y-94225499D01*
X126890830Y-94220045D01*
X126959866Y-94230811D01*
X127012121Y-94277191D01*
X127031006Y-94344460D01*
X127029954Y-94359169D01*
X127024500Y-94400597D01*
X127024500Y-94599403D01*
X127038989Y-94709468D01*
X127041094Y-94717322D01*
X127037814Y-94718200D01*
X127043581Y-94772073D01*
X127040517Y-94782522D01*
X127041095Y-94782677D01*
X127038990Y-94790529D01*
X127024500Y-94900598D01*
X127024500Y-95099403D01*
X127038989Y-95209468D01*
X127041094Y-95217322D01*
X127037814Y-95218200D01*
X127043581Y-95272073D01*
X127040517Y-95282522D01*
X127041095Y-95282677D01*
X127038990Y-95290529D01*
X127024500Y-95400598D01*
X127024500Y-95599403D01*
X127038989Y-95709468D01*
X127041094Y-95717322D01*
X127037814Y-95718200D01*
X127043581Y-95772073D01*
X127040517Y-95782522D01*
X127041095Y-95782677D01*
X127038990Y-95790529D01*
X127024500Y-95900598D01*
X127024500Y-96099396D01*
X127029955Y-96140833D01*
X127019187Y-96209868D01*
X126972806Y-96262123D01*
X126905536Y-96281006D01*
X126890830Y-96279954D01*
X126849401Y-96274500D01*
X126650596Y-96274500D01*
X126540531Y-96288989D01*
X126532678Y-96291094D01*
X126531802Y-96287824D01*
X126477853Y-96293567D01*
X126467477Y-96290518D01*
X126467323Y-96291095D01*
X126459470Y-96288990D01*
X126349401Y-96274500D01*
X126150596Y-96274500D01*
X126040531Y-96288989D01*
X126032678Y-96291094D01*
X126031802Y-96287824D01*
X125977853Y-96293567D01*
X125967477Y-96290518D01*
X125967323Y-96291095D01*
X125959470Y-96288990D01*
X125849401Y-96274500D01*
X125650596Y-96274500D01*
X125540531Y-96288989D01*
X125532678Y-96291094D01*
X125531802Y-96287824D01*
X125477853Y-96293567D01*
X125467477Y-96290518D01*
X125467323Y-96291095D01*
X125459470Y-96288990D01*
X125349401Y-96274500D01*
X125150603Y-96274500D01*
X125109166Y-96279955D01*
X125040131Y-96269187D01*
X124987876Y-96222805D01*
X124968993Y-96155536D01*
X124970045Y-96140833D01*
X124975500Y-96099401D01*
X124975499Y-95900600D01*
X124975044Y-95897147D01*
X124970997Y-95866398D01*
X124961009Y-95790528D01*
X124961008Y-95790525D01*
X124958905Y-95782674D01*
X124962207Y-95781789D01*
X124956392Y-95728075D01*
X124959501Y-95717485D01*
X124958905Y-95717326D01*
X124961008Y-95709475D01*
X124961008Y-95709474D01*
X124961009Y-95709472D01*
X124975500Y-95599401D01*
X124975499Y-95400600D01*
X124961009Y-95290528D01*
X124961008Y-95290525D01*
X124958905Y-95282674D01*
X124962207Y-95281789D01*
X124956392Y-95228075D01*
X124959501Y-95217485D01*
X124958905Y-95217326D01*
X124961008Y-95209475D01*
X124961008Y-95209474D01*
X124961009Y-95209472D01*
X124975500Y-95099401D01*
X124975499Y-94900600D01*
X124961009Y-94790528D01*
X124961008Y-94790525D01*
X124958905Y-94782674D01*
X124962207Y-94781789D01*
X124956392Y-94728075D01*
X124959501Y-94717485D01*
X124958905Y-94717326D01*
X124961008Y-94709475D01*
X124961008Y-94709474D01*
X124961009Y-94709472D01*
X124975500Y-94599401D01*
X124975499Y-94400600D01*
X124970045Y-94359168D01*
X124980811Y-94290133D01*
X125027192Y-94237878D01*
X125094461Y-94218993D01*
X125109155Y-94220043D01*
X125150599Y-94225500D01*
X125349400Y-94225499D01*
X125349401Y-94225499D01*
X125366087Y-94223302D01*
X125459472Y-94211009D01*
X125459475Y-94211007D01*
X125467326Y-94208905D01*
X125468210Y-94212207D01*
X125521925Y-94206392D01*
X125532514Y-94209501D01*
X125532674Y-94208905D01*
X125540524Y-94211008D01*
X125540526Y-94211008D01*
X125540528Y-94211009D01*
X125650599Y-94225500D01*
X125849400Y-94225499D01*
X125849401Y-94225499D01*
X125866087Y-94223302D01*
X125959472Y-94211009D01*
X125959475Y-94211007D01*
X125967326Y-94208905D01*
X125968210Y-94212207D01*
X126021925Y-94206392D01*
X126032514Y-94209501D01*
X126032674Y-94208905D01*
X126040524Y-94211008D01*
X126040526Y-94211008D01*
X126040528Y-94211009D01*
X126150599Y-94225500D01*
X126349400Y-94225499D01*
X126349401Y-94225499D01*
X126366087Y-94223302D01*
X126459472Y-94211009D01*
X126459475Y-94211007D01*
X126467326Y-94208905D01*
X126468210Y-94212207D01*
X126521925Y-94206392D01*
X126532514Y-94209501D01*
G37*
%TD.AperFunction*%
%TA.AperFunction,Conductor*%
G36*
X104996108Y-95717382D02*
G01*
X105080290Y-95734128D01*
X105116702Y-95741371D01*
X105126355Y-95741995D01*
X105143405Y-95744525D01*
X105143411Y-95744525D01*
X105143421Y-95744527D01*
X105177517Y-95747042D01*
X105242926Y-95771605D01*
X105284672Y-95827632D01*
X105289501Y-95897334D01*
X105255879Y-95958583D01*
X105205285Y-95989091D01*
X105165396Y-96001521D01*
X105165394Y-96001521D01*
X105165394Y-96001522D01*
X105135655Y-96019500D01*
X105019811Y-96089530D01*
X105019810Y-96089531D01*
X104917327Y-96192015D01*
X104856004Y-96225500D01*
X104786312Y-96220516D01*
X104741965Y-96192015D01*
X104639877Y-96089927D01*
X104494395Y-96001980D01*
X104494396Y-96001980D01*
X104351283Y-95957385D01*
X104293135Y-95918648D01*
X104265161Y-95854623D01*
X104276243Y-95785637D01*
X104322861Y-95733594D01*
X104388173Y-95715000D01*
X104971917Y-95715000D01*
X104996108Y-95717382D01*
G37*
%TD.AperFunction*%
%TA.AperFunction,Conductor*%
G36*
X106948431Y-95775185D02*
G01*
X106994186Y-95827989D01*
X107004130Y-95897147D01*
X106975105Y-95960703D01*
X106936486Y-95990588D01*
X106810702Y-96052970D01*
X106810700Y-96052971D01*
X106737471Y-96111834D01*
X106672887Y-96138492D01*
X106604143Y-96126001D01*
X106601332Y-96124544D01*
X106596547Y-96121986D01*
X106492905Y-96079057D01*
X106432666Y-96054105D01*
X106432658Y-96054103D01*
X106258696Y-96019500D01*
X106258692Y-96019500D01*
X106258691Y-96019500D01*
X106208913Y-96019500D01*
X106151892Y-96003605D01*
X106151445Y-96004600D01*
X106144910Y-96001659D01*
X106144767Y-96001619D01*
X106144608Y-96001523D01*
X106144607Y-96001522D01*
X106144606Y-96001522D01*
X106132934Y-95997885D01*
X106074788Y-95959149D01*
X106046813Y-95895124D01*
X106057894Y-95826139D01*
X106104512Y-95774095D01*
X106169825Y-95755500D01*
X106881392Y-95755500D01*
X106948431Y-95775185D01*
G37*
%TD.AperFunction*%
%TA.AperFunction,Conductor*%
G36*
X110900000Y-92691712D02*
G01*
X110901890Y-92723461D01*
X110868728Y-92783339D01*
X110212181Y-93439887D01*
X110150858Y-93473372D01*
X110081167Y-93468388D01*
X110025233Y-93426517D01*
X110000816Y-93361052D01*
X110000500Y-93352206D01*
X110000500Y-92681334D01*
X110020185Y-92614295D01*
X110072989Y-92568540D01*
X110142147Y-92558596D01*
X110176907Y-92568953D01*
X110186507Y-92573430D01*
X110186516Y-92573433D01*
X110400000Y-92630634D01*
X110400000Y-91733012D01*
X110457007Y-91765925D01*
X110584174Y-91800000D01*
X110715826Y-91800000D01*
X110842993Y-91765925D01*
X110900000Y-91733012D01*
X110900000Y-92691712D01*
G37*
%TD.AperFunction*%
%TA.AperFunction,Conductor*%
G36*
X111869846Y-79888809D02*
G01*
X111917866Y-79935674D01*
X111967488Y-80021622D01*
X111974456Y-80033691D01*
X111974458Y-80033694D01*
X112093326Y-80152562D01*
X112093332Y-80152567D01*
X113107988Y-81167223D01*
X113141473Y-81228546D01*
X113136489Y-81298238D01*
X113094617Y-81354171D01*
X113086288Y-81359892D01*
X113084092Y-81361271D01*
X113084086Y-81361276D01*
X112964500Y-81480862D01*
X112964495Y-81480868D01*
X112874524Y-81624055D01*
X112874522Y-81624058D01*
X112818662Y-81783696D01*
X112799728Y-81951750D01*
X112799728Y-81951755D01*
X112818662Y-82119809D01*
X112874522Y-82279447D01*
X112874524Y-82279450D01*
X112964495Y-82422637D01*
X112964500Y-82422643D01*
X113084086Y-82542229D01*
X113084092Y-82542234D01*
X113227279Y-82632205D01*
X113227284Y-82632208D01*
X113227287Y-82632209D01*
X113316997Y-82663599D01*
X113363724Y-82692960D01*
X113463181Y-82792417D01*
X113496666Y-82853740D01*
X113499500Y-82880098D01*
X113499500Y-83191526D01*
X113480496Y-83257494D01*
X113468048Y-83277305D01*
X113412188Y-83436942D01*
X113393254Y-83604996D01*
X113393254Y-83605001D01*
X113412188Y-83773055D01*
X113468048Y-83932693D01*
X113468050Y-83932696D01*
X113558021Y-84075883D01*
X113558026Y-84075889D01*
X113677612Y-84195475D01*
X113677618Y-84195480D01*
X113820805Y-84285451D01*
X113820811Y-84285454D01*
X113820813Y-84285455D01*
X113980444Y-84341312D01*
X113999464Y-84343454D01*
X114063876Y-84370519D01*
X114073263Y-84378994D01*
X114258643Y-84564374D01*
X114258653Y-84564385D01*
X114262983Y-84568715D01*
X114262984Y-84568716D01*
X114374788Y-84680520D01*
X114374790Y-84680521D01*
X114374794Y-84680524D01*
X114440563Y-84718495D01*
X114511720Y-84759577D01*
X114623523Y-84789534D01*
X114664446Y-84800500D01*
X114664447Y-84800500D01*
X115579017Y-84800500D01*
X115579033Y-84800501D01*
X115586629Y-84800501D01*
X115744740Y-84800501D01*
X115744743Y-84800501D01*
X115897471Y-84759577D01*
X115954386Y-84726717D01*
X115954387Y-84726717D01*
X116034395Y-84680524D01*
X116034394Y-84680524D01*
X116034402Y-84680520D01*
X116146206Y-84568716D01*
X116146206Y-84568714D01*
X116156410Y-84558511D01*
X116156413Y-84558506D01*
X116628320Y-84086599D01*
X116689642Y-84053116D01*
X116759334Y-84058100D01*
X116815267Y-84099972D01*
X116839684Y-84165436D01*
X116840000Y-84174282D01*
X116840000Y-84752844D01*
X116846401Y-84812372D01*
X116846403Y-84812379D01*
X116896645Y-84947086D01*
X116896649Y-84947093D01*
X116982809Y-85062187D01*
X116982812Y-85062190D01*
X117097906Y-85148350D01*
X117097913Y-85148354D01*
X117232620Y-85198596D01*
X117232627Y-85198598D01*
X117292155Y-85204999D01*
X117292172Y-85205000D01*
X117540000Y-85205000D01*
X117540000Y-83829000D01*
X117559685Y-83761961D01*
X117612489Y-83716206D01*
X117664000Y-83705000D01*
X117916000Y-83705000D01*
X117983039Y-83724685D01*
X118028794Y-83777489D01*
X118040000Y-83829000D01*
X118040000Y-85205000D01*
X118287828Y-85205000D01*
X118287844Y-85204999D01*
X118347372Y-85198598D01*
X118347375Y-85198597D01*
X118380949Y-85186075D01*
X118450640Y-85181089D01*
X118467619Y-85186075D01*
X118502511Y-85199089D01*
X118502512Y-85199089D01*
X118502517Y-85199091D01*
X118562127Y-85205500D01*
X119557872Y-85205499D01*
X119617483Y-85199091D01*
X119651667Y-85186340D01*
X119721358Y-85181357D01*
X119738327Y-85186338D01*
X119772517Y-85199091D01*
X119832127Y-85205500D01*
X120827872Y-85205499D01*
X120887483Y-85199091D01*
X120921667Y-85186340D01*
X120991358Y-85181357D01*
X121008327Y-85186338D01*
X121042517Y-85199091D01*
X121102127Y-85205500D01*
X122097872Y-85205499D01*
X122157483Y-85199091D01*
X122191667Y-85186340D01*
X122261358Y-85181357D01*
X122278327Y-85186338D01*
X122312517Y-85199091D01*
X122372127Y-85205500D01*
X123367872Y-85205499D01*
X123427483Y-85199091D01*
X123461667Y-85186340D01*
X123531358Y-85181357D01*
X123548327Y-85186338D01*
X123582517Y-85199091D01*
X123642127Y-85205500D01*
X124637872Y-85205499D01*
X124697483Y-85199091D01*
X124731667Y-85186340D01*
X124801358Y-85181357D01*
X124818327Y-85186338D01*
X124852517Y-85199091D01*
X124912127Y-85205500D01*
X125907872Y-85205499D01*
X125967483Y-85199091D01*
X126001667Y-85186340D01*
X126071358Y-85181357D01*
X126088327Y-85186338D01*
X126122517Y-85199091D01*
X126182127Y-85205500D01*
X127058836Y-85205499D01*
X127125875Y-85225183D01*
X127171630Y-85277987D01*
X127182056Y-85315610D01*
X127182895Y-85323056D01*
X127238754Y-85482693D01*
X127238756Y-85482696D01*
X127328727Y-85625883D01*
X127328732Y-85625889D01*
X127448318Y-85745475D01*
X127448324Y-85745480D01*
X127591511Y-85835451D01*
X127591514Y-85835453D01*
X127591518Y-85835454D01*
X127591519Y-85835455D01*
X127664122Y-85860859D01*
X127751152Y-85891313D01*
X127919206Y-85910248D01*
X127919209Y-85910248D01*
X127919212Y-85910248D01*
X128087265Y-85891313D01*
X128090792Y-85890079D01*
X128246899Y-85835455D01*
X128343899Y-85774506D01*
X128409871Y-85755500D01*
X128475150Y-85755500D01*
X128542189Y-85775185D01*
X128587944Y-85827989D01*
X128597888Y-85897147D01*
X128589711Y-85926952D01*
X128558823Y-86001521D01*
X128558823Y-86001523D01*
X128558822Y-86001526D01*
X128539305Y-86099645D01*
X128539305Y-86099647D01*
X128532863Y-86132030D01*
X128532863Y-86539152D01*
X128513178Y-86606191D01*
X128496544Y-86626833D01*
X128260217Y-86863159D01*
X128198894Y-86896644D01*
X128185513Y-86898797D01*
X128184648Y-86898887D01*
X127999486Y-86938244D01*
X127999481Y-86938246D01*
X127826559Y-87015237D01*
X127826554Y-87015240D01*
X127673418Y-87126500D01*
X127554591Y-87258471D01*
X127495104Y-87295120D01*
X127462441Y-87299499D01*
X127303297Y-87299499D01*
X127303281Y-87299500D01*
X127021724Y-87299500D01*
X126954685Y-87279815D01*
X126908930Y-87227011D01*
X126898986Y-87157853D01*
X126904682Y-87134545D01*
X126919779Y-87091402D01*
X126937326Y-87041254D01*
X126937326Y-87041253D01*
X126937327Y-87041251D01*
X126956262Y-86873197D01*
X126956262Y-86873192D01*
X126937327Y-86705138D01*
X126893703Y-86580469D01*
X126881469Y-86545505D01*
X126881468Y-86545504D01*
X126881467Y-86545500D01*
X126881465Y-86545497D01*
X126791494Y-86402310D01*
X126791489Y-86402304D01*
X126671903Y-86282718D01*
X126671897Y-86282713D01*
X126528710Y-86192742D01*
X126528705Y-86192739D01*
X126422282Y-86155501D01*
X126369072Y-86136882D01*
X126356761Y-86135494D01*
X126350046Y-86134738D01*
X126285633Y-86107669D01*
X126276253Y-86099199D01*
X126246535Y-86069481D01*
X126246527Y-86069475D01*
X126129205Y-86001740D01*
X126129205Y-86001739D01*
X126129200Y-86001738D01*
X126117584Y-85995031D01*
X126109604Y-85990423D01*
X126071421Y-85980192D01*
X125956875Y-85949499D01*
X125798761Y-85949499D01*
X125791165Y-85949499D01*
X125791149Y-85949500D01*
X118237445Y-85949500D01*
X118171474Y-85930493D01*
X118107155Y-85890079D01*
X118107154Y-85890078D01*
X118107153Y-85890078D01*
X117947522Y-85834221D01*
X117779468Y-85815286D01*
X117779462Y-85815286D01*
X117611408Y-85834220D01*
X117451771Y-85890080D01*
X117447529Y-85892746D01*
X117380291Y-85911741D01*
X117340609Y-85904790D01*
X117185370Y-85850470D01*
X117017316Y-85831535D01*
X117017310Y-85831535D01*
X116849256Y-85850469D01*
X116689620Y-85906329D01*
X116635525Y-85940319D01*
X116568288Y-85959319D01*
X116528599Y-85952366D01*
X116418060Y-85913686D01*
X116250003Y-85894751D01*
X116249997Y-85894751D01*
X116081943Y-85913685D01*
X115922305Y-85969545D01*
X115922302Y-85969547D01*
X115779115Y-86059518D01*
X115779109Y-86059523D01*
X115659523Y-86179109D01*
X115659518Y-86179115D01*
X115569547Y-86322302D01*
X115569545Y-86322305D01*
X115513685Y-86481943D01*
X115494751Y-86649997D01*
X115494751Y-86650002D01*
X115513685Y-86818056D01*
X115569545Y-86977694D01*
X115569547Y-86977697D01*
X115659518Y-87120884D01*
X115659523Y-87120890D01*
X115779109Y-87240476D01*
X115779115Y-87240481D01*
X115922302Y-87330452D01*
X115922308Y-87330455D01*
X115922310Y-87330456D01*
X116081941Y-87386313D01*
X116100961Y-87388455D01*
X116165373Y-87415520D01*
X116174760Y-87423995D01*
X116635674Y-87884909D01*
X116635684Y-87884920D01*
X116640014Y-87889250D01*
X116640015Y-87889251D01*
X116751819Y-88001055D01*
X116751821Y-88001056D01*
X116751825Y-88001059D01*
X116839323Y-88051575D01*
X116888751Y-88080112D01*
X117000554Y-88110069D01*
X117041477Y-88121035D01*
X117041478Y-88121035D01*
X118086299Y-88121035D01*
X118086315Y-88121036D01*
X118093911Y-88121036D01*
X118252022Y-88121036D01*
X118252025Y-88121036D01*
X118404753Y-88080112D01*
X118454872Y-88051174D01*
X118541684Y-88001055D01*
X118545741Y-87996998D01*
X118555921Y-87986819D01*
X118617244Y-87953334D01*
X118643602Y-87950500D01*
X121427721Y-87950500D01*
X121494760Y-87970185D01*
X121515402Y-87986819D01*
X121529818Y-88001235D01*
X121563303Y-88062558D01*
X121566137Y-88088916D01*
X121566137Y-88942275D01*
X121546452Y-89009314D01*
X121529818Y-89029956D01*
X121295409Y-89264364D01*
X121295395Y-89264379D01*
X121250028Y-89318816D01*
X121170970Y-89469445D01*
X121130261Y-89634614D01*
X121130261Y-89804725D01*
X121170970Y-89969894D01*
X121170971Y-89969895D01*
X121250027Y-90120522D01*
X121295399Y-90174965D01*
X121295409Y-90174975D01*
X121522918Y-90402484D01*
X121556403Y-90463807D01*
X121551419Y-90533499D01*
X121522918Y-90577846D01*
X121108799Y-90991965D01*
X121047476Y-91025450D01*
X121032343Y-91027775D01*
X121012426Y-91029585D01*
X120997804Y-91030914D01*
X120900592Y-91061206D01*
X120835393Y-91081522D01*
X120689811Y-91169530D01*
X120689810Y-91169531D01*
X120587681Y-91271661D01*
X120526358Y-91305146D01*
X120456666Y-91300162D01*
X120412319Y-91271661D01*
X120310188Y-91169530D01*
X120164606Y-91081522D01*
X120063446Y-91050000D01*
X120002196Y-91030914D01*
X120002194Y-91030913D01*
X120002192Y-91030913D01*
X119952778Y-91026423D01*
X119931616Y-91024500D01*
X119418384Y-91024500D01*
X119399145Y-91026248D01*
X119347807Y-91030913D01*
X119185393Y-91081522D01*
X119039811Y-91169530D01*
X118919530Y-91289811D01*
X118831522Y-91435393D01*
X118780913Y-91597807D01*
X118777832Y-91631713D01*
X118774500Y-91668384D01*
X118774500Y-92331616D01*
X118780914Y-92402196D01*
X118784687Y-92414303D01*
X118790360Y-92432509D01*
X118791510Y-92502369D01*
X118754708Y-92561761D01*
X118691639Y-92591829D01*
X118671974Y-92593398D01*
X118212229Y-92593398D01*
X118145190Y-92573713D01*
X118124548Y-92557079D01*
X117684523Y-92117052D01*
X117684516Y-92117046D01*
X117577628Y-92045627D01*
X117561597Y-92034916D01*
X117561592Y-92034913D01*
X117425019Y-91978343D01*
X117425009Y-91978340D01*
X117280022Y-91949500D01*
X117280020Y-91949500D01*
X113293594Y-91949500D01*
X113226555Y-91929815D01*
X113205913Y-91913182D01*
X113174841Y-91882110D01*
X113116597Y-91823866D01*
X113116594Y-91823864D01*
X113116593Y-91823863D01*
X113116591Y-91823861D01*
X112973404Y-91733890D01*
X112973398Y-91733887D01*
X112883546Y-91702447D01*
X112826770Y-91661725D01*
X112801022Y-91596772D01*
X112800500Y-91585405D01*
X112800500Y-85319059D01*
X112800501Y-85319046D01*
X112800501Y-85150945D01*
X112800501Y-85150943D01*
X112759577Y-84998215D01*
X112744730Y-84972500D01*
X112729486Y-84946096D01*
X112729486Y-84946095D01*
X112680524Y-84861290D01*
X112680521Y-84861286D01*
X112680520Y-84861284D01*
X112568716Y-84749480D01*
X112568715Y-84749479D01*
X112564385Y-84745149D01*
X112564374Y-84745139D01*
X111982766Y-84163531D01*
X111949281Y-84102208D01*
X111950672Y-84043757D01*
X111951863Y-84039309D01*
X111985063Y-83915408D01*
X112005659Y-83680000D01*
X112003515Y-83655500D01*
X111985063Y-83444596D01*
X111985063Y-83444592D01*
X111923903Y-83216337D01*
X111824035Y-83002171D01*
X111688495Y-82808599D01*
X111688494Y-82808597D01*
X111521402Y-82641506D01*
X111521396Y-82641501D01*
X111335842Y-82511575D01*
X111292217Y-82456998D01*
X111285023Y-82387500D01*
X111316546Y-82325145D01*
X111335842Y-82308425D01*
X111377232Y-82279443D01*
X111521401Y-82178495D01*
X111688495Y-82011401D01*
X111824035Y-81817830D01*
X111923903Y-81603663D01*
X111985063Y-81375408D01*
X112005659Y-81140000D01*
X112002519Y-81104116D01*
X111992056Y-80984519D01*
X111985063Y-80904592D01*
X111923903Y-80676337D01*
X111824035Y-80462171D01*
X111801970Y-80430659D01*
X111688496Y-80268600D01*
X111647116Y-80227220D01*
X111566567Y-80146671D01*
X111533084Y-80085351D01*
X111538068Y-80015659D01*
X111579939Y-79959725D01*
X111610915Y-79942810D01*
X111742331Y-79893796D01*
X111742334Y-79893793D01*
X111750114Y-79889546D01*
X111751779Y-79892596D01*
X111801565Y-79873996D01*
X111869846Y-79888809D01*
G37*
%TD.AperFunction*%
%TA.AperFunction,Conductor*%
G36*
X130655703Y-89346805D02*
G01*
X130662181Y-89352837D01*
X131468206Y-90158862D01*
X131501691Y-90220185D01*
X131504525Y-90246543D01*
X131504525Y-90642157D01*
X131484840Y-90709196D01*
X131432036Y-90754951D01*
X131362878Y-90764895D01*
X131324874Y-90752967D01*
X131179984Y-90680200D01*
X131014312Y-90640935D01*
X130953620Y-90606321D01*
X130921276Y-90544388D01*
X130919813Y-90535222D01*
X130919739Y-90534616D01*
X130918627Y-90530105D01*
X130879029Y-90369445D01*
X130799973Y-90218818D01*
X130754601Y-90164375D01*
X130486819Y-89896593D01*
X130453334Y-89835270D01*
X130450500Y-89808912D01*
X130450500Y-89440518D01*
X130470185Y-89373479D01*
X130522989Y-89327724D01*
X130592147Y-89317780D01*
X130655703Y-89346805D01*
G37*
%TD.AperFunction*%
%TA.AperFunction,Conductor*%
G36*
X124777658Y-87570185D02*
G01*
X124823413Y-87622989D01*
X124833357Y-87692147D01*
X124804332Y-87755703D01*
X124798300Y-87762181D01*
X124569303Y-87991178D01*
X124569289Y-87991194D01*
X124506265Y-88068561D01*
X124506260Y-88068568D01*
X124430202Y-88220012D01*
X124391116Y-88384930D01*
X124391116Y-88554408D01*
X124430202Y-88719326D01*
X124506260Y-88870770D01*
X124506265Y-88870777D01*
X124569292Y-88948149D01*
X124569306Y-88948164D01*
X124602730Y-88981588D01*
X124636215Y-89042911D01*
X124631231Y-89112603D01*
X124589359Y-89168536D01*
X124570701Y-89180079D01*
X124518564Y-89206263D01*
X124518561Y-89206265D01*
X124441190Y-89269292D01*
X124441173Y-89269307D01*
X124407017Y-89303462D01*
X124407017Y-89303463D01*
X125167863Y-90064310D01*
X125201348Y-90125633D01*
X125196364Y-90195325D01*
X125167863Y-90239672D01*
X124989819Y-90417716D01*
X124928496Y-90451201D01*
X124888037Y-90453231D01*
X124887705Y-90453193D01*
X124823339Y-90426012D01*
X124814125Y-90417678D01*
X124047031Y-89650584D01*
X124001900Y-89637332D01*
X123956145Y-89584528D01*
X123945719Y-89546902D01*
X123942320Y-89516745D01*
X123942320Y-89516743D01*
X123886463Y-89357112D01*
X123886462Y-89357111D01*
X123886461Y-89357107D01*
X123886459Y-89357104D01*
X123796488Y-89213917D01*
X123796483Y-89213911D01*
X123676897Y-89094325D01*
X123676891Y-89094320D01*
X123533704Y-89004349D01*
X123533701Y-89004347D01*
X123374063Y-88948487D01*
X123206010Y-88929553D01*
X123206004Y-88929553D01*
X123037948Y-88948488D01*
X122956001Y-88977162D01*
X122886222Y-88980723D01*
X122827367Y-88947801D01*
X122803456Y-88923890D01*
X122769971Y-88862567D01*
X122767137Y-88836209D01*
X122767137Y-87877879D01*
X122767138Y-87877866D01*
X122767138Y-87709763D01*
X122766288Y-87706591D01*
X122766354Y-87703810D01*
X122766077Y-87701705D01*
X122766405Y-87701661D01*
X122767953Y-87636741D01*
X122807117Y-87578879D01*
X122871346Y-87551377D01*
X122886064Y-87550500D01*
X124710619Y-87550500D01*
X124777658Y-87570185D01*
G37*
%TD.AperFunction*%
%TA.AperFunction,Conductor*%
G36*
X102955703Y-89501348D02*
G01*
X102993477Y-89560126D01*
X102994275Y-89562968D01*
X103026566Y-89683483D01*
X103026570Y-89683492D01*
X103126399Y-89897578D01*
X103250000Y-90074095D01*
X103250000Y-90238620D01*
X103215170Y-90271308D01*
X103198386Y-90278299D01*
X103112500Y-90306884D01*
X103112496Y-90306886D01*
X102991462Y-90384671D01*
X102991451Y-90384679D01*
X102955702Y-90415656D01*
X102892147Y-90444681D01*
X102822988Y-90434737D01*
X102770184Y-90388982D01*
X102750500Y-90321943D01*
X102750500Y-89595061D01*
X102770185Y-89528022D01*
X102822989Y-89482267D01*
X102892147Y-89472323D01*
X102955703Y-89501348D01*
G37*
%TD.AperFunction*%
%TA.AperFunction,Conductor*%
G36*
X131880703Y-86521807D02*
G01*
X131887181Y-86527839D01*
X131939811Y-86580469D01*
X131939813Y-86580470D01*
X131939815Y-86580472D01*
X132085394Y-86668478D01*
X132247804Y-86719086D01*
X132318384Y-86725500D01*
X132318387Y-86725500D01*
X132831613Y-86725500D01*
X132831616Y-86725500D01*
X132902196Y-86719086D01*
X132902197Y-86719085D01*
X132908730Y-86718492D01*
X132908861Y-86719939D01*
X132970892Y-86725486D01*
X133026072Y-86768345D01*
X133049322Y-86834233D01*
X133049500Y-86840879D01*
X133049500Y-89318059D01*
X133029815Y-89385098D01*
X132977011Y-89430853D01*
X132907853Y-89440797D01*
X132844297Y-89411772D01*
X132837819Y-89405741D01*
X132789182Y-89357104D01*
X132733441Y-89301363D01*
X132234219Y-88802141D01*
X131711819Y-88279740D01*
X131678334Y-88218417D01*
X131675500Y-88192059D01*
X131675500Y-86615520D01*
X131695185Y-86548481D01*
X131747989Y-86502726D01*
X131817147Y-86492782D01*
X131880703Y-86521807D01*
G37*
%TD.AperFunction*%
%TA.AperFunction,Conductor*%
G36*
X102955703Y-86961348D02*
G01*
X102993477Y-87020126D01*
X102994275Y-87022968D01*
X103026566Y-87143483D01*
X103026570Y-87143492D01*
X103126399Y-87357578D01*
X103250000Y-87534095D01*
X103250000Y-88365900D01*
X103126400Y-88542420D01*
X103126399Y-88542422D01*
X103026570Y-88756507D01*
X103026566Y-88756516D01*
X102994275Y-88877031D01*
X102957910Y-88936692D01*
X102895063Y-88967221D01*
X102825687Y-88958926D01*
X102771810Y-88914441D01*
X102750535Y-88847889D01*
X102750500Y-88844938D01*
X102750500Y-87055061D01*
X102770185Y-86988022D01*
X102822989Y-86942267D01*
X102892147Y-86932323D01*
X102955703Y-86961348D01*
G37*
%TD.AperFunction*%
%TA.AperFunction,Conductor*%
G36*
X102955699Y-85332509D02*
G01*
X103033664Y-85400067D01*
X103164541Y-85459838D01*
X103224075Y-85477319D01*
X103231583Y-85479524D01*
X103242067Y-85481031D01*
X103300873Y-85489486D01*
X103323896Y-85500000D01*
X103250000Y-85500000D01*
X103250000Y-85825900D01*
X103126400Y-86002420D01*
X103126399Y-86002422D01*
X103026570Y-86216507D01*
X103026566Y-86216516D01*
X102994275Y-86337031D01*
X102957910Y-86396692D01*
X102895063Y-86427221D01*
X102825687Y-86418926D01*
X102771810Y-86374441D01*
X102750535Y-86307889D01*
X102750500Y-86304938D01*
X102750500Y-85426224D01*
X102770185Y-85359185D01*
X102822989Y-85313430D01*
X102892147Y-85303486D01*
X102955699Y-85332509D01*
G37*
%TD.AperFunction*%
%TA.AperFunction,Conductor*%
G36*
X127286950Y-79720185D02*
G01*
X127318042Y-79751596D01*
X127319099Y-79750754D01*
X127323442Y-79756200D01*
X127443026Y-79875784D01*
X127443032Y-79875789D01*
X127586219Y-79965760D01*
X127586222Y-79965762D01*
X127586226Y-79965763D01*
X127586227Y-79965764D01*
X127636325Y-79983294D01*
X127745860Y-80021622D01*
X127913914Y-80040557D01*
X127913917Y-80040557D01*
X127913920Y-80040557D01*
X128081969Y-80021622D01*
X128081970Y-80021621D01*
X128081976Y-80021621D01*
X128081980Y-80021619D01*
X128085142Y-80020898D01*
X128087252Y-80021027D01*
X128088896Y-80020842D01*
X128088928Y-80021129D01*
X128154881Y-80025164D01*
X128178719Y-80036793D01*
X128297698Y-80111553D01*
X128297701Y-80111555D01*
X128297705Y-80111556D01*
X128297706Y-80111557D01*
X128348044Y-80129171D01*
X128457339Y-80167415D01*
X128625393Y-80186350D01*
X128625396Y-80186350D01*
X128625399Y-80186350D01*
X128793452Y-80167415D01*
X128814197Y-80160156D01*
X128953086Y-80111557D01*
X129042141Y-80055599D01*
X129109373Y-80036600D01*
X129176208Y-80056967D01*
X129195791Y-80072913D01*
X129319417Y-80196539D01*
X129352902Y-80257862D01*
X129354955Y-80270331D01*
X129357100Y-80289359D01*
X129375622Y-80342293D01*
X129412957Y-80448992D01*
X129493105Y-80576544D01*
X129512106Y-80643781D01*
X129511332Y-80656401D01*
X129494751Y-80803561D01*
X129494751Y-80803566D01*
X129513685Y-80971620D01*
X129569545Y-81131258D01*
X129569547Y-81131261D01*
X129659518Y-81274448D01*
X129659523Y-81274454D01*
X129697888Y-81312819D01*
X129731373Y-81374142D01*
X129726389Y-81443834D01*
X129684517Y-81499767D01*
X129619053Y-81524184D01*
X129610207Y-81524500D01*
X129252975Y-81524500D01*
X129185936Y-81504815D01*
X129140181Y-81452011D01*
X129129754Y-81414382D01*
X129128916Y-81406942D01*
X129073059Y-81247311D01*
X129073058Y-81247310D01*
X129073057Y-81247306D01*
X129073055Y-81247303D01*
X128983084Y-81104116D01*
X128983079Y-81104110D01*
X128863493Y-80984524D01*
X128863487Y-80984519D01*
X128720300Y-80894548D01*
X128720297Y-80894546D01*
X128560659Y-80838686D01*
X128392606Y-80819752D01*
X128392600Y-80819752D01*
X128224546Y-80838686D01*
X128064908Y-80894546D01*
X128064905Y-80894548D01*
X127921718Y-80984519D01*
X127818055Y-81088182D01*
X127756732Y-81121666D01*
X127730374Y-81124500D01*
X127544826Y-81124500D01*
X127544810Y-81124499D01*
X127537214Y-81124499D01*
X127379099Y-81124499D01*
X127321254Y-81139999D01*
X127226370Y-81165423D01*
X127226365Y-81165426D01*
X127089446Y-81244475D01*
X127089438Y-81244481D01*
X126465740Y-81868181D01*
X126404417Y-81901666D01*
X126378059Y-81904500D01*
X119571469Y-81904500D01*
X119504430Y-81884815D01*
X119483788Y-81868181D01*
X119358962Y-81743355D01*
X119358960Y-81743352D01*
X119240089Y-81624481D01*
X119240088Y-81624480D01*
X119153276Y-81574360D01*
X119153276Y-81574359D01*
X119153272Y-81574358D01*
X119103157Y-81545423D01*
X118950429Y-81504499D01*
X118792315Y-81504499D01*
X118784719Y-81504499D01*
X118784703Y-81504500D01*
X118609864Y-81504500D01*
X118542825Y-81484815D01*
X118497070Y-81432011D01*
X118486643Y-81394381D01*
X118486605Y-81394041D01*
X118485805Y-81386941D01*
X118429948Y-81227310D01*
X118429947Y-81227309D01*
X118429946Y-81227305D01*
X118429944Y-81227302D01*
X118339973Y-81084115D01*
X118339968Y-81084109D01*
X118220382Y-80964523D01*
X118220376Y-80964518D01*
X118077191Y-80874548D01*
X118077183Y-80874544D01*
X118021747Y-80855146D01*
X117975022Y-80825786D01*
X117946202Y-80796966D01*
X117766841Y-80617606D01*
X117733357Y-80556284D01*
X117738341Y-80486593D01*
X117780212Y-80430659D01*
X117788552Y-80424932D01*
X117824692Y-80402224D01*
X117890663Y-80383218D01*
X118030613Y-80383218D01*
X118030629Y-80383219D01*
X118038225Y-80383219D01*
X118196336Y-80383219D01*
X118196339Y-80383219D01*
X118349067Y-80342295D01*
X118411578Y-80306204D01*
X118485998Y-80263238D01*
X118597802Y-80151434D01*
X118597802Y-80151432D01*
X118608006Y-80141229D01*
X118608009Y-80141224D01*
X119012416Y-79736819D01*
X119073739Y-79703334D01*
X119100097Y-79700500D01*
X127219911Y-79700500D01*
X127286950Y-79720185D01*
G37*
%TD.AperFunction*%
%TA.AperFunction,Conductor*%
G36*
X133692539Y-64664685D02*
G01*
X133738294Y-64717489D01*
X133749500Y-64769000D01*
X133749500Y-78299081D01*
X133729815Y-78366120D01*
X133677011Y-78411875D01*
X133607853Y-78421819D01*
X133563503Y-78406470D01*
X133553203Y-78400524D01*
X133546423Y-78396609D01*
X133498207Y-78346044D01*
X133492245Y-78332568D01*
X133481339Y-78303329D01*
X133476357Y-78233639D01*
X133481340Y-78216669D01*
X133494091Y-78182483D01*
X133500500Y-78122873D01*
X133500499Y-77127128D01*
X133494091Y-77067517D01*
X133481340Y-77033332D01*
X133476357Y-76963642D01*
X133481340Y-76946669D01*
X133494091Y-76912483D01*
X133500500Y-76852873D01*
X133500499Y-75857128D01*
X133494091Y-75797517D01*
X133481340Y-75763332D01*
X133476357Y-75693642D01*
X133481338Y-75676672D01*
X133494091Y-75642483D01*
X133500500Y-75582873D01*
X133500499Y-74587128D01*
X133494091Y-74527517D01*
X133481340Y-74493332D01*
X133476357Y-74423642D01*
X133481338Y-74406672D01*
X133494091Y-74372483D01*
X133500500Y-74312873D01*
X133500499Y-73317128D01*
X133494091Y-73257517D01*
X133481340Y-73223332D01*
X133476357Y-73153642D01*
X133481338Y-73136672D01*
X133494091Y-73102483D01*
X133500500Y-73042873D01*
X133500499Y-72047128D01*
X133494091Y-71987517D01*
X133481340Y-71953332D01*
X133476357Y-71883642D01*
X133481338Y-71866672D01*
X133494091Y-71832483D01*
X133500500Y-71772873D01*
X133500499Y-70777128D01*
X133494091Y-70717517D01*
X133481340Y-70683332D01*
X133476357Y-70613642D01*
X133481338Y-70596672D01*
X133494091Y-70562483D01*
X133500500Y-70502873D01*
X133500499Y-69507128D01*
X133494091Y-69447517D01*
X133481340Y-69413332D01*
X133476357Y-69343642D01*
X133481338Y-69326672D01*
X133494091Y-69292483D01*
X133500500Y-69232873D01*
X133500499Y-68237128D01*
X133494091Y-68177517D01*
X133481340Y-68143332D01*
X133476357Y-68073642D01*
X133481338Y-68056672D01*
X133494091Y-68022483D01*
X133500500Y-67962873D01*
X133500499Y-66967128D01*
X133494091Y-66907517D01*
X133481073Y-66872616D01*
X133476090Y-66802926D01*
X133481075Y-66785949D01*
X133493597Y-66752375D01*
X133493598Y-66752372D01*
X133499999Y-66692844D01*
X133500000Y-66692827D01*
X133500000Y-66445000D01*
X131000000Y-66445000D01*
X131000000Y-66669385D01*
X130980315Y-66736424D01*
X130927511Y-66782179D01*
X130916957Y-66786425D01*
X130896875Y-66793452D01*
X130822308Y-66819544D01*
X130822302Y-66819547D01*
X130679115Y-66909518D01*
X130679109Y-66909523D01*
X130559523Y-67029109D01*
X130559518Y-67029115D01*
X130469547Y-67172302D01*
X130469545Y-67172305D01*
X130413685Y-67331943D01*
X130394751Y-67499997D01*
X130394751Y-67500002D01*
X130413685Y-67668056D01*
X130469545Y-67827694D01*
X130469547Y-67827697D01*
X130559518Y-67970884D01*
X130559523Y-67970890D01*
X130603451Y-68014818D01*
X130636936Y-68076141D01*
X130631952Y-68145833D01*
X130603452Y-68190179D01*
X130534524Y-68259108D01*
X130534518Y-68259115D01*
X130444547Y-68402302D01*
X130444545Y-68402305D01*
X130388685Y-68561943D01*
X130369751Y-68729997D01*
X130369751Y-68730002D01*
X130388685Y-68898056D01*
X130444545Y-69057694D01*
X130444547Y-69057697D01*
X130534518Y-69200884D01*
X130534523Y-69200890D01*
X130654109Y-69320476D01*
X130654115Y-69320481D01*
X130797302Y-69410452D01*
X130797308Y-69410455D01*
X130797310Y-69410456D01*
X130823291Y-69419547D01*
X130916454Y-69452146D01*
X130973230Y-69492868D01*
X130998978Y-69557821D01*
X130999500Y-69569188D01*
X130999500Y-69824902D01*
X130979815Y-69891941D01*
X130963181Y-69912583D01*
X129369481Y-71506282D01*
X129369479Y-71506285D01*
X129339717Y-71557836D01*
X129339716Y-71557838D01*
X129290423Y-71643214D01*
X129282529Y-71672676D01*
X129249499Y-71795943D01*
X129249499Y-71795945D01*
X129249499Y-71964046D01*
X129249500Y-71964059D01*
X129249500Y-76888911D01*
X129230495Y-76954882D01*
X129219543Y-76972311D01*
X129163685Y-77131946D01*
X129157214Y-77189384D01*
X129130147Y-77253798D01*
X129072553Y-77293353D01*
X129033994Y-77299500D01*
X118300097Y-77299500D01*
X118233058Y-77279815D01*
X118212416Y-77263181D01*
X118029091Y-77079856D01*
X117995606Y-77018533D01*
X117992772Y-76992175D01*
X117992772Y-76552531D01*
X117992771Y-76552525D01*
X117991959Y-76549495D01*
X117991956Y-76549484D01*
X117978573Y-76499536D01*
X117951849Y-76399802D01*
X117941329Y-76381580D01*
X117872796Y-76262876D01*
X117872793Y-76262872D01*
X117872792Y-76262870D01*
X117760988Y-76151066D01*
X117760987Y-76151065D01*
X117756657Y-76146735D01*
X117756646Y-76146725D01*
X117292765Y-75682844D01*
X120220000Y-75682844D01*
X120226401Y-75742372D01*
X120226403Y-75742379D01*
X120276645Y-75877086D01*
X120276649Y-75877093D01*
X120362809Y-75992187D01*
X120362812Y-75992190D01*
X120477906Y-76078350D01*
X120477913Y-76078354D01*
X120612620Y-76128596D01*
X120612627Y-76128598D01*
X120672155Y-76134999D01*
X120672172Y-76135000D01*
X122570000Y-76135000D01*
X122570000Y-75310000D01*
X123070000Y-75310000D01*
X123070000Y-76135000D01*
X124967828Y-76135000D01*
X124967844Y-76134999D01*
X125027372Y-76128598D01*
X125027379Y-76128596D01*
X125162086Y-76078354D01*
X125162093Y-76078350D01*
X125277187Y-75992190D01*
X125277190Y-75992187D01*
X125363350Y-75877093D01*
X125363354Y-75877086D01*
X125413596Y-75742379D01*
X125413598Y-75742372D01*
X125419999Y-75682844D01*
X125420000Y-75682827D01*
X125420000Y-73785000D01*
X124595000Y-73785000D01*
X124595000Y-74193947D01*
X124610872Y-74209819D01*
X124644357Y-74271142D01*
X124639373Y-74340834D01*
X124610872Y-74385181D01*
X124595000Y-74401052D01*
X124595000Y-75186000D01*
X124575315Y-75253039D01*
X124522511Y-75298794D01*
X124471000Y-75310000D01*
X123686052Y-75310000D01*
X123670181Y-75325872D01*
X123608858Y-75359357D01*
X123539166Y-75354373D01*
X123494819Y-75325872D01*
X123478947Y-75310000D01*
X123070000Y-75310000D01*
X122570000Y-75310000D01*
X122161052Y-75310000D01*
X122145181Y-75325872D01*
X122083858Y-75359357D01*
X122014166Y-75354373D01*
X121969819Y-75325872D01*
X121953947Y-75310000D01*
X121169000Y-75310000D01*
X121101961Y-75290315D01*
X121056206Y-75237511D01*
X121045000Y-75186000D01*
X121045000Y-75040109D01*
X121957500Y-75040109D01*
X121957500Y-75079891D01*
X121972724Y-75116645D01*
X122000855Y-75144776D01*
X122037609Y-75160000D01*
X122077391Y-75160000D01*
X122114145Y-75144776D01*
X122142276Y-75116645D01*
X122157500Y-75079891D01*
X122157500Y-75040109D01*
X123482500Y-75040109D01*
X123482500Y-75079891D01*
X123497724Y-75116645D01*
X123525855Y-75144776D01*
X123562609Y-75160000D01*
X123602391Y-75160000D01*
X123639145Y-75144776D01*
X123667276Y-75116645D01*
X123682500Y-75079891D01*
X123682500Y-75040109D01*
X123667276Y-75003355D01*
X123639145Y-74975224D01*
X123602391Y-74960000D01*
X123562609Y-74960000D01*
X123525855Y-74975224D01*
X123497724Y-75003355D01*
X123482500Y-75040109D01*
X122157500Y-75040109D01*
X122142276Y-75003355D01*
X122114145Y-74975224D01*
X122077391Y-74960000D01*
X122037609Y-74960000D01*
X122000855Y-74975224D01*
X121972724Y-75003355D01*
X121957500Y-75040109D01*
X121045000Y-75040109D01*
X121045000Y-74401053D01*
X121029128Y-74385181D01*
X120995643Y-74323858D01*
X120998950Y-74277609D01*
X121195000Y-74277609D01*
X121195000Y-74317391D01*
X121210224Y-74354145D01*
X121238355Y-74382276D01*
X121275109Y-74397500D01*
X121314891Y-74397500D01*
X121351645Y-74382276D01*
X121379776Y-74354145D01*
X121395000Y-74317391D01*
X121395000Y-74297500D01*
X121648553Y-74297500D01*
X121703786Y-74352732D01*
X122057500Y-74706446D01*
X122466446Y-74297500D01*
X122446555Y-74277609D01*
X122720000Y-74277609D01*
X122720000Y-74317391D01*
X122735224Y-74354145D01*
X122763355Y-74382276D01*
X122800109Y-74397500D01*
X122839891Y-74397500D01*
X122876645Y-74382276D01*
X122904776Y-74354145D01*
X122920000Y-74317391D01*
X122920000Y-74297500D01*
X123173553Y-74297500D01*
X123228786Y-74352732D01*
X123582500Y-74706446D01*
X123991446Y-74297500D01*
X123971555Y-74277609D01*
X124245000Y-74277609D01*
X124245000Y-74317391D01*
X124260224Y-74354145D01*
X124288355Y-74382276D01*
X124325109Y-74397500D01*
X124364891Y-74397500D01*
X124401645Y-74382276D01*
X124429776Y-74354145D01*
X124445000Y-74317391D01*
X124445000Y-74277609D01*
X124429776Y-74240855D01*
X124401645Y-74212724D01*
X124364891Y-74197500D01*
X124325109Y-74197500D01*
X124288355Y-74212724D01*
X124260224Y-74240855D01*
X124245000Y-74277609D01*
X123971555Y-74277609D01*
X123637892Y-73943946D01*
X123582500Y-73888553D01*
X123527108Y-73943946D01*
X123527107Y-73943947D01*
X123173553Y-74297500D01*
X122920000Y-74297500D01*
X122920000Y-74277609D01*
X122904776Y-74240855D01*
X122876645Y-74212724D01*
X122839891Y-74197500D01*
X122800109Y-74197500D01*
X122763355Y-74212724D01*
X122735224Y-74240855D01*
X122720000Y-74277609D01*
X122446555Y-74277609D01*
X122112892Y-73943946D01*
X122057500Y-73888553D01*
X122002108Y-73943946D01*
X122002107Y-73943947D01*
X121648553Y-74297500D01*
X121395000Y-74297500D01*
X121395000Y-74277609D01*
X121379776Y-74240855D01*
X121351645Y-74212724D01*
X121314891Y-74197500D01*
X121275109Y-74197500D01*
X121238355Y-74212724D01*
X121210224Y-74240855D01*
X121195000Y-74277609D01*
X120998950Y-74277609D01*
X121000627Y-74254166D01*
X121029128Y-74209819D01*
X121044999Y-74193947D01*
X121045000Y-74193946D01*
X121045000Y-73785000D01*
X120220000Y-73785000D01*
X120220000Y-75682844D01*
X117292765Y-75682844D01*
X116792601Y-75182680D01*
X116759116Y-75121357D01*
X116757062Y-75081118D01*
X116762341Y-75034274D01*
X116762341Y-75034271D01*
X116743406Y-74866218D01*
X116687546Y-74706579D01*
X116687544Y-74706576D01*
X116597573Y-74563389D01*
X116597568Y-74563383D01*
X116490457Y-74456272D01*
X116456972Y-74394949D01*
X116461956Y-74325257D01*
X116486689Y-74286775D01*
X116486136Y-74286334D01*
X116490454Y-74280919D01*
X116490466Y-74280901D01*
X116490466Y-74280900D01*
X116490477Y-74280890D01*
X116580456Y-74137690D01*
X116636313Y-73978059D01*
X116636313Y-73978058D01*
X116636314Y-73978056D01*
X116655249Y-73810002D01*
X116655249Y-73809997D01*
X116636314Y-73641943D01*
X116591933Y-73515109D01*
X121957500Y-73515109D01*
X121957500Y-73554891D01*
X121972724Y-73591645D01*
X122000855Y-73619776D01*
X122037609Y-73635000D01*
X122077391Y-73635000D01*
X122114145Y-73619776D01*
X122142276Y-73591645D01*
X122157500Y-73554891D01*
X122157500Y-73515109D01*
X123482500Y-73515109D01*
X123482500Y-73554891D01*
X123497724Y-73591645D01*
X123525855Y-73619776D01*
X123562609Y-73635000D01*
X123602391Y-73635000D01*
X123639145Y-73619776D01*
X123667276Y-73591645D01*
X123682500Y-73554891D01*
X123682500Y-73515109D01*
X123667276Y-73478355D01*
X123639145Y-73450224D01*
X123602391Y-73435000D01*
X123562609Y-73435000D01*
X123525855Y-73450224D01*
X123497724Y-73478355D01*
X123482500Y-73515109D01*
X122157500Y-73515109D01*
X122142276Y-73478355D01*
X122114145Y-73450224D01*
X122077391Y-73435000D01*
X122037609Y-73435000D01*
X122000855Y-73450224D01*
X121972724Y-73478355D01*
X121957500Y-73515109D01*
X116591933Y-73515109D01*
X116585888Y-73497834D01*
X116580456Y-73482310D01*
X116580455Y-73482309D01*
X116580454Y-73482305D01*
X116580452Y-73482302D01*
X116490481Y-73339115D01*
X116490476Y-73339109D01*
X116370890Y-73219523D01*
X116370884Y-73219518D01*
X116227697Y-73129547D01*
X116227686Y-73129542D01*
X116083544Y-73079104D01*
X116026768Y-73038383D01*
X116001021Y-72973430D01*
X116000499Y-72962083D01*
X116000499Y-72047128D01*
X115994091Y-71987517D01*
X115981340Y-71953332D01*
X115976357Y-71883642D01*
X115981338Y-71866672D01*
X115994091Y-71832483D01*
X116000500Y-71772873D01*
X116000499Y-71455095D01*
X116020183Y-71388057D01*
X116020910Y-71387155D01*
X120220000Y-71387155D01*
X120220000Y-73285000D01*
X121045000Y-73285000D01*
X121045000Y-72876053D01*
X121029128Y-72860181D01*
X120995643Y-72798858D01*
X120998950Y-72752609D01*
X121195000Y-72752609D01*
X121195000Y-72792391D01*
X121210224Y-72829145D01*
X121238355Y-72857276D01*
X121275109Y-72872500D01*
X121314891Y-72872500D01*
X121351645Y-72857276D01*
X121379776Y-72829145D01*
X121395000Y-72792391D01*
X121395000Y-72772500D01*
X121648553Y-72772500D01*
X121686238Y-72810184D01*
X122057500Y-73181446D01*
X122466446Y-72772500D01*
X122446555Y-72752609D01*
X122720000Y-72752609D01*
X122720000Y-72792391D01*
X122735224Y-72829145D01*
X122763355Y-72857276D01*
X122800109Y-72872500D01*
X122839891Y-72872500D01*
X122876645Y-72857276D01*
X122904776Y-72829145D01*
X122920000Y-72792391D01*
X122920000Y-72772500D01*
X123173553Y-72772500D01*
X123211238Y-72810184D01*
X123582500Y-73181446D01*
X123991446Y-72772500D01*
X123971555Y-72752609D01*
X124245000Y-72752609D01*
X124245000Y-72792391D01*
X124260224Y-72829145D01*
X124288355Y-72857276D01*
X124325109Y-72872500D01*
X124364891Y-72872500D01*
X124401645Y-72857276D01*
X124429776Y-72829145D01*
X124445000Y-72792391D01*
X124445000Y-72752609D01*
X124429776Y-72715855D01*
X124401645Y-72687724D01*
X124364891Y-72672500D01*
X124325109Y-72672500D01*
X124288355Y-72687724D01*
X124260224Y-72715855D01*
X124245000Y-72752609D01*
X123971555Y-72752609D01*
X123637892Y-72418946D01*
X123582500Y-72363553D01*
X123527108Y-72418946D01*
X123527107Y-72418947D01*
X123173553Y-72772500D01*
X122920000Y-72772500D01*
X122920000Y-72752609D01*
X122904776Y-72715855D01*
X122876645Y-72687724D01*
X122839891Y-72672500D01*
X122800109Y-72672500D01*
X122763355Y-72687724D01*
X122735224Y-72715855D01*
X122720000Y-72752609D01*
X122446555Y-72752609D01*
X122112892Y-72418946D01*
X122057500Y-72363553D01*
X122002108Y-72418946D01*
X122002107Y-72418947D01*
X121648553Y-72772500D01*
X121395000Y-72772500D01*
X121395000Y-72752609D01*
X121379776Y-72715855D01*
X121351645Y-72687724D01*
X121314891Y-72672500D01*
X121275109Y-72672500D01*
X121238355Y-72687724D01*
X121210224Y-72715855D01*
X121195000Y-72752609D01*
X120998950Y-72752609D01*
X121000627Y-72729166D01*
X121029128Y-72684819D01*
X121044999Y-72668947D01*
X121045000Y-72668946D01*
X121045000Y-71990109D01*
X121957500Y-71990109D01*
X121957500Y-72029891D01*
X121972724Y-72066645D01*
X122000855Y-72094776D01*
X122037609Y-72110000D01*
X122077391Y-72110000D01*
X122114145Y-72094776D01*
X122142276Y-72066645D01*
X122157500Y-72029891D01*
X122157500Y-71990109D01*
X123482500Y-71990109D01*
X123482500Y-72029891D01*
X123497724Y-72066645D01*
X123525855Y-72094776D01*
X123562609Y-72110000D01*
X123602391Y-72110000D01*
X123639145Y-72094776D01*
X123667276Y-72066645D01*
X123682500Y-72029891D01*
X123682500Y-71990109D01*
X123667276Y-71953355D01*
X123639145Y-71925224D01*
X123602391Y-71910000D01*
X123562609Y-71910000D01*
X123525855Y-71925224D01*
X123497724Y-71953355D01*
X123482500Y-71990109D01*
X122157500Y-71990109D01*
X122142276Y-71953355D01*
X122114145Y-71925224D01*
X122077391Y-71910000D01*
X122037609Y-71910000D01*
X122000855Y-71925224D01*
X121972724Y-71953355D01*
X121957500Y-71990109D01*
X121045000Y-71990109D01*
X121045000Y-71884000D01*
X121064685Y-71816961D01*
X121117489Y-71771206D01*
X121169000Y-71760000D01*
X121953947Y-71760000D01*
X121953947Y-71759999D01*
X121969819Y-71744128D01*
X122031142Y-71710643D01*
X122100834Y-71715627D01*
X122145181Y-71744128D01*
X122161053Y-71760000D01*
X122570000Y-71760000D01*
X123070000Y-71760000D01*
X123478947Y-71760000D01*
X123478947Y-71759999D01*
X123494819Y-71744128D01*
X123556142Y-71710643D01*
X123625834Y-71715627D01*
X123670181Y-71744128D01*
X123686053Y-71760000D01*
X124471000Y-71760000D01*
X124538039Y-71779685D01*
X124583794Y-71832489D01*
X124595000Y-71884000D01*
X124595000Y-72668947D01*
X124610872Y-72684819D01*
X124644357Y-72746142D01*
X124639373Y-72815834D01*
X124610872Y-72860181D01*
X124595000Y-72876052D01*
X124595000Y-73285000D01*
X125420000Y-73285000D01*
X125420000Y-71387172D01*
X125419999Y-71387155D01*
X125413598Y-71327627D01*
X125413596Y-71327620D01*
X125363354Y-71192913D01*
X125363350Y-71192906D01*
X125277190Y-71077812D01*
X125277187Y-71077809D01*
X125162093Y-70991649D01*
X125162086Y-70991645D01*
X125027379Y-70941403D01*
X125027372Y-70941401D01*
X124967844Y-70935000D01*
X123070000Y-70935000D01*
X123070000Y-71760000D01*
X122570000Y-71760000D01*
X122570000Y-70935000D01*
X120672155Y-70935000D01*
X120612627Y-70941401D01*
X120612620Y-70941403D01*
X120477913Y-70991645D01*
X120477906Y-70991649D01*
X120362812Y-71077809D01*
X120362809Y-71077812D01*
X120276649Y-71192906D01*
X120276645Y-71192913D01*
X120226403Y-71327620D01*
X120226401Y-71327627D01*
X120220000Y-71387155D01*
X116020910Y-71387155D01*
X116036813Y-71367420D01*
X116168713Y-71235521D01*
X116168716Y-71235520D01*
X116280520Y-71123716D01*
X116330639Y-71036904D01*
X116359577Y-70986785D01*
X116400501Y-70834057D01*
X116400501Y-70762230D01*
X116420186Y-70695191D01*
X116436820Y-70674549D01*
X116471369Y-70640000D01*
X116540479Y-70570890D01*
X116540483Y-70570884D01*
X116630454Y-70427697D01*
X116630456Y-70427694D01*
X116630456Y-70427692D01*
X116630458Y-70427690D01*
X116686315Y-70268059D01*
X116686315Y-70268058D01*
X116686316Y-70268056D01*
X116705251Y-70100002D01*
X116705251Y-70099997D01*
X116686316Y-69931943D01*
X116630456Y-69772305D01*
X116630454Y-69772302D01*
X116540483Y-69629115D01*
X116540478Y-69629109D01*
X116420892Y-69509523D01*
X116420886Y-69509518D01*
X116277699Y-69419547D01*
X116277694Y-69419544D01*
X116200614Y-69392573D01*
X116118061Y-69363687D01*
X116118057Y-69363686D01*
X116118056Y-69363686D01*
X116110426Y-69362826D01*
X116046014Y-69335756D01*
X116006462Y-69278159D01*
X116000927Y-69236194D01*
X116000500Y-69236194D01*
X116000499Y-69232959D01*
X116000496Y-69232929D01*
X116000497Y-69232899D01*
X116000500Y-69232873D01*
X116000499Y-68237128D01*
X115994091Y-68177517D01*
X115981340Y-68143332D01*
X115976357Y-68073642D01*
X115981338Y-68056672D01*
X115994091Y-68022483D01*
X116000500Y-67962873D01*
X116000499Y-66967128D01*
X115994091Y-66907517D01*
X115981073Y-66872616D01*
X115976090Y-66802926D01*
X115981075Y-66785949D01*
X115993597Y-66752375D01*
X115993598Y-66752372D01*
X115999999Y-66692844D01*
X116000000Y-66692827D01*
X116000000Y-66445000D01*
X114624000Y-66445000D01*
X114556961Y-66425315D01*
X114511206Y-66372511D01*
X114500000Y-66321000D01*
X114500000Y-65945000D01*
X115000000Y-65945000D01*
X116000000Y-65945000D01*
X116000000Y-65697172D01*
X115999999Y-65697155D01*
X131000000Y-65697155D01*
X131000000Y-65945000D01*
X132000000Y-65945000D01*
X132500000Y-65945000D01*
X133500000Y-65945000D01*
X133500000Y-65697172D01*
X133499999Y-65697155D01*
X133493598Y-65637627D01*
X133493596Y-65637620D01*
X133443354Y-65502913D01*
X133443350Y-65502906D01*
X133357190Y-65387812D01*
X133357187Y-65387809D01*
X133242093Y-65301649D01*
X133242086Y-65301645D01*
X133107379Y-65251403D01*
X133107372Y-65251401D01*
X133047844Y-65245000D01*
X132500000Y-65245000D01*
X132500000Y-65945000D01*
X132000000Y-65945000D01*
X132000000Y-65245000D01*
X131452155Y-65245000D01*
X131392627Y-65251401D01*
X131392620Y-65251403D01*
X131257913Y-65301645D01*
X131257906Y-65301649D01*
X131142812Y-65387809D01*
X131142809Y-65387812D01*
X131056649Y-65502906D01*
X131056645Y-65502913D01*
X131006403Y-65637620D01*
X131006401Y-65637627D01*
X131000000Y-65697155D01*
X115999999Y-65697155D01*
X115993598Y-65637627D01*
X115993596Y-65637620D01*
X115943354Y-65502913D01*
X115943350Y-65502906D01*
X115857190Y-65387812D01*
X115857187Y-65387809D01*
X115742093Y-65301649D01*
X115742086Y-65301645D01*
X115607379Y-65251403D01*
X115607372Y-65251401D01*
X115547844Y-65245000D01*
X115000000Y-65245000D01*
X115000000Y-65945000D01*
X114500000Y-65945000D01*
X114500000Y-65245000D01*
X113952155Y-65245000D01*
X113892627Y-65251401D01*
X113885070Y-65253187D01*
X113884389Y-65250304D01*
X113828491Y-65254271D01*
X113767187Y-65220751D01*
X113749379Y-65198217D01*
X113692712Y-65106344D01*
X113568656Y-64982288D01*
X113420075Y-64890643D01*
X113419336Y-64890187D01*
X113419335Y-64890186D01*
X113419334Y-64890186D01*
X113408828Y-64886704D01*
X113351386Y-64846933D01*
X113324563Y-64782417D01*
X113336878Y-64713641D01*
X113384422Y-64662441D01*
X113447835Y-64645000D01*
X133625500Y-64645000D01*
X133692539Y-64664685D01*
G37*
%TD.AperFunction*%
%TA.AperFunction,Conductor*%
G36*
X108920792Y-64664685D02*
G01*
X108966547Y-64717489D01*
X108976491Y-64786647D01*
X108947466Y-64850203D01*
X108892758Y-64886706D01*
X108880878Y-64890642D01*
X108880875Y-64890643D01*
X108731657Y-64982682D01*
X108607681Y-65106657D01*
X108594339Y-65128286D01*
X108594339Y-65128287D01*
X109612500Y-66146447D01*
X109612501Y-66146447D01*
X110630658Y-65128288D01*
X110630658Y-65128286D01*
X110617317Y-65106656D01*
X110493345Y-64982684D01*
X110344124Y-64890643D01*
X110344117Y-64890640D01*
X110332243Y-64886706D01*
X110274798Y-64846934D01*
X110247974Y-64782419D01*
X110260289Y-64713643D01*
X110307831Y-64662442D01*
X110371246Y-64645000D01*
X111927165Y-64645000D01*
X111994204Y-64664685D01*
X112039959Y-64717489D01*
X112049903Y-64786647D01*
X112020878Y-64850203D01*
X111966172Y-64886704D01*
X111955666Y-64890186D01*
X111955663Y-64890187D01*
X111806342Y-64982289D01*
X111682289Y-65106342D01*
X111590187Y-65255663D01*
X111590186Y-65255666D01*
X111535001Y-65422203D01*
X111535001Y-65422204D01*
X111535000Y-65422204D01*
X111524500Y-65524983D01*
X111524500Y-67475000D01*
X111524502Y-67475025D01*
X111526608Y-67495644D01*
X111513837Y-67564336D01*
X111490931Y-67595923D01*
X111094765Y-67992089D01*
X111033442Y-68025574D01*
X111019686Y-68027766D01*
X110952291Y-68034651D01*
X110952289Y-68034651D01*
X110791305Y-68087996D01*
X110791300Y-68087998D01*
X110732217Y-68124442D01*
X110664824Y-68142882D01*
X110598161Y-68121959D01*
X110553391Y-68068317D01*
X110544730Y-67998987D01*
X110574926Y-67935979D01*
X110579440Y-67931221D01*
X110617315Y-67893346D01*
X110630658Y-67871711D01*
X109612500Y-66853553D01*
X108594340Y-67871711D01*
X108594340Y-67871713D01*
X108607681Y-67893342D01*
X108731657Y-68017317D01*
X108880875Y-68109356D01*
X108880880Y-68109358D01*
X108908414Y-68118482D01*
X108965859Y-68158254D01*
X108992682Y-68222770D01*
X108980367Y-68291546D01*
X108974949Y-68301285D01*
X108888454Y-68441513D01*
X108888452Y-68441518D01*
X108835144Y-68602393D01*
X108825000Y-68701677D01*
X108825000Y-68750000D01*
X109901000Y-68750000D01*
X109968039Y-68769685D01*
X110013794Y-68822489D01*
X110025000Y-68874000D01*
X110025000Y-70652438D01*
X110005315Y-70719477D01*
X109988681Y-70740119D01*
X109965119Y-70763681D01*
X109903796Y-70797166D01*
X109877438Y-70800000D01*
X108825001Y-70800000D01*
X108825001Y-70848322D01*
X108835144Y-70947607D01*
X108888452Y-71108481D01*
X108888454Y-71108486D01*
X108975891Y-71250242D01*
X108994331Y-71317634D01*
X108973409Y-71384298D01*
X108970119Y-71388836D01*
X108881522Y-71535393D01*
X108830913Y-71697807D01*
X108824500Y-71768386D01*
X108824500Y-72431613D01*
X108830913Y-72502192D01*
X108830913Y-72502194D01*
X108830914Y-72502196D01*
X108881522Y-72664606D01*
X108969528Y-72810185D01*
X108969529Y-72810186D01*
X108973409Y-72816604D01*
X108971721Y-72817623D01*
X108993812Y-72873102D01*
X108980462Y-72941684D01*
X108975891Y-72949757D01*
X108888454Y-73091513D01*
X108888452Y-73091518D01*
X108835144Y-73252393D01*
X108825000Y-73351677D01*
X108825000Y-73400000D01*
X109901000Y-73400000D01*
X109968039Y-73419685D01*
X110013794Y-73472489D01*
X110025000Y-73524000D01*
X110025000Y-74624999D01*
X110048308Y-74624999D01*
X110048322Y-74624998D01*
X110147607Y-74614855D01*
X110308481Y-74561547D01*
X110308492Y-74561542D01*
X110452731Y-74472573D01*
X110461959Y-74463345D01*
X110523279Y-74429856D01*
X110592971Y-74434835D01*
X110637327Y-74463339D01*
X110646956Y-74472968D01*
X110665596Y-74484465D01*
X110712321Y-74536412D01*
X110724500Y-74590004D01*
X110724500Y-75234952D01*
X110704815Y-75301991D01*
X110688181Y-75322633D01*
X108869481Y-77141332D01*
X108869480Y-77141334D01*
X108840712Y-77191162D01*
X108790423Y-77278265D01*
X108749499Y-77430993D01*
X108749499Y-77430995D01*
X108749499Y-77599096D01*
X108749500Y-77599109D01*
X108749500Y-78025500D01*
X108729815Y-78092539D01*
X108677011Y-78138294D01*
X108625500Y-78149500D01*
X108555354Y-78149500D01*
X108522897Y-78156398D01*
X108370197Y-78188855D01*
X108370196Y-78188855D01*
X108324934Y-78209008D01*
X108255684Y-78218292D01*
X108192407Y-78188663D01*
X108155195Y-78129528D01*
X108150499Y-78095728D01*
X108150499Y-77002129D01*
X108150498Y-77002123D01*
X108147293Y-76972310D01*
X108144091Y-76942517D01*
X108142810Y-76939083D01*
X108093797Y-76807671D01*
X108093793Y-76807664D01*
X108007547Y-76692455D01*
X108007544Y-76692452D01*
X107892335Y-76606206D01*
X107892328Y-76606202D01*
X107760917Y-76557189D01*
X107704983Y-76515318D01*
X107680566Y-76449853D01*
X107695418Y-76381580D01*
X107716563Y-76353332D01*
X107838495Y-76231401D01*
X107962192Y-76054742D01*
X108016769Y-76011118D01*
X108086267Y-76003924D01*
X108129739Y-76020873D01*
X108272302Y-76110452D01*
X108272305Y-76110454D01*
X108272309Y-76110455D01*
X108272310Y-76110456D01*
X108324157Y-76128598D01*
X108431943Y-76166314D01*
X108599997Y-76185249D01*
X108600000Y-76185249D01*
X108600003Y-76185249D01*
X108768056Y-76166314D01*
X108768059Y-76166313D01*
X108927690Y-76110456D01*
X108927692Y-76110454D01*
X108927694Y-76110454D01*
X108927697Y-76110452D01*
X109070884Y-76020481D01*
X109070885Y-76020480D01*
X109070890Y-76020477D01*
X109190477Y-75900890D01*
X109190481Y-75900884D01*
X109280452Y-75757697D01*
X109280454Y-75757694D01*
X109280454Y-75757692D01*
X109280456Y-75757690D01*
X109336313Y-75598059D01*
X109336313Y-75598058D01*
X109336314Y-75598056D01*
X109355249Y-75430002D01*
X109355249Y-75429997D01*
X109336314Y-75261943D01*
X109280454Y-75102305D01*
X109277434Y-75096034D01*
X109279917Y-75094837D01*
X109264312Y-75039625D01*
X109271265Y-74999928D01*
X109307835Y-74895417D01*
X109307835Y-74895415D01*
X109326423Y-74730445D01*
X109353489Y-74666031D01*
X109411084Y-74626476D01*
X109462248Y-74620970D01*
X109501686Y-74624999D01*
X109525000Y-74624998D01*
X109525000Y-73900000D01*
X108825001Y-73900000D01*
X108796881Y-73928120D01*
X108735557Y-73961604D01*
X108665866Y-73956619D01*
X108621519Y-73928119D01*
X108586819Y-73893419D01*
X108553334Y-73832096D01*
X108550500Y-73805738D01*
X108550500Y-71519060D01*
X108550501Y-71519047D01*
X108550501Y-71350944D01*
X108541806Y-71318493D01*
X108509577Y-71198216D01*
X108470721Y-71130914D01*
X108430524Y-71061290D01*
X108430518Y-71061282D01*
X108132766Y-70763530D01*
X108099281Y-70702207D01*
X108100672Y-70643755D01*
X108108741Y-70613642D01*
X108135063Y-70515408D01*
X108155659Y-70280000D01*
X108153181Y-70251677D01*
X108825000Y-70251677D01*
X108825000Y-70300000D01*
X109525000Y-70300000D01*
X109525000Y-69250000D01*
X108825001Y-69250000D01*
X108825001Y-69298322D01*
X108835144Y-69397607D01*
X108888452Y-69558481D01*
X108888457Y-69558492D01*
X108981218Y-69708879D01*
X108978736Y-69710409D01*
X108999901Y-69762937D01*
X108986832Y-69831573D01*
X108980844Y-69840890D01*
X108981218Y-69841121D01*
X108888457Y-69991507D01*
X108888452Y-69991518D01*
X108835144Y-70152393D01*
X108825000Y-70251677D01*
X108153181Y-70251677D01*
X108135063Y-70044592D01*
X108080482Y-69840890D01*
X108073905Y-69816344D01*
X108073904Y-69816343D01*
X108073903Y-69816337D01*
X107974035Y-69602171D01*
X107968425Y-69594158D01*
X107838494Y-69408597D01*
X107671402Y-69241506D01*
X107671396Y-69241501D01*
X107485842Y-69111575D01*
X107442217Y-69056998D01*
X107435023Y-68987500D01*
X107466546Y-68925145D01*
X107485842Y-68908425D01*
X107608571Y-68822489D01*
X107671401Y-68778495D01*
X107838495Y-68611401D01*
X107974035Y-68417830D01*
X108073903Y-68203663D01*
X108135063Y-67975408D01*
X108155659Y-67740000D01*
X108135063Y-67504592D01*
X108082640Y-67308946D01*
X108450000Y-67308946D01*
X109258947Y-66500000D01*
X109258947Y-66499999D01*
X109966053Y-66499999D01*
X109966053Y-66500000D01*
X110774998Y-67308946D01*
X110774999Y-67308945D01*
X110774999Y-65691053D01*
X110774998Y-65691052D01*
X109966053Y-66499999D01*
X109258947Y-66499999D01*
X108450000Y-65691052D01*
X108450000Y-67308946D01*
X108082640Y-67308946D01*
X108073903Y-67276337D01*
X107974035Y-67062171D01*
X107968425Y-67054158D01*
X107838494Y-66868597D01*
X107671402Y-66701506D01*
X107671396Y-66701501D01*
X107485842Y-66571575D01*
X107442217Y-66516998D01*
X107435023Y-66447500D01*
X107466546Y-66385145D01*
X107485842Y-66368425D01*
X107553572Y-66321000D01*
X107671401Y-66238495D01*
X107838495Y-66071401D01*
X107974035Y-65877830D01*
X108073903Y-65663663D01*
X108135063Y-65435408D01*
X108155659Y-65200000D01*
X108135063Y-64964592D01*
X108091254Y-64801092D01*
X108092917Y-64731243D01*
X108132080Y-64673381D01*
X108196308Y-64645877D01*
X108211029Y-64645000D01*
X108853753Y-64645000D01*
X108920792Y-64664685D01*
G37*
%TD.AperFunction*%
%TD*%
%TA.AperFunction,Conductor*%
%TO.N,GND*%
G36*
X107549500Y-89937770D02*
G01*
X107529815Y-90004809D01*
X107513181Y-90025451D01*
X107288632Y-90250000D01*
X103250000Y-90250000D01*
X103250000Y-85500000D01*
X107549500Y-85500000D01*
X107549500Y-89937770D01*
G37*
%TD.AperFunction*%
%TD*%
%TA.AperFunction,Conductor*%
%TO.N,VBUS*%
G36*
X104246207Y-101271450D02*
G01*
X104249989Y-101279567D01*
X104250000Y-101280074D01*
X104250000Y-101734835D01*
X104246573Y-101743108D01*
X104238300Y-101746535D01*
X104235332Y-101746152D01*
X103899216Y-101657995D01*
X103892083Y-101652582D01*
X103890867Y-101643710D01*
X103893559Y-101638772D01*
X104229676Y-101272166D01*
X104237793Y-101268385D01*
X104246207Y-101271450D01*
G37*
%TD.AperFunction*%
%TD*%
%TA.AperFunction,Conductor*%
%TO.N,VBUS*%
G36*
X105244942Y-101104435D02*
G01*
X105249835Y-101111935D01*
X105250035Y-101114062D01*
X105251000Y-101500000D01*
X105251000Y-101500058D01*
X105250035Y-101885937D01*
X105246587Y-101894202D01*
X105238306Y-101897608D01*
X105236179Y-101897408D01*
X104459544Y-101751789D01*
X104452044Y-101746896D01*
X104450000Y-101740289D01*
X104450000Y-101259710D01*
X104453427Y-101251437D01*
X104459542Y-101248210D01*
X105236180Y-101102591D01*
X105244942Y-101104435D01*
G37*
%TD.AperFunction*%
%TD*%
%TA.AperFunction,Conductor*%
%TO.N,VBUS*%
G36*
X103263817Y-101102590D02*
G01*
X104040457Y-101248210D01*
X104047956Y-101253103D01*
X104050000Y-101259710D01*
X104050000Y-101740289D01*
X104046573Y-101748562D01*
X104040456Y-101751789D01*
X103263820Y-101897408D01*
X103255057Y-101895564D01*
X103250164Y-101888064D01*
X103249964Y-101885946D01*
X103249000Y-101500000D01*
X103249964Y-101114059D01*
X103253412Y-101105797D01*
X103261693Y-101102391D01*
X103263817Y-101102590D01*
G37*
%TD.AperFunction*%
%TD*%
%TA.AperFunction,Conductor*%
%TO.N,VBUS*%
G36*
X104975479Y-101225713D02*
G01*
X104977124Y-101227075D01*
X105250707Y-101499293D01*
X105250749Y-101499335D01*
X105522924Y-101772875D01*
X105526330Y-101781156D01*
X105522882Y-101789421D01*
X105521237Y-101790783D01*
X104869104Y-102236978D01*
X104860341Y-102238822D01*
X104854224Y-102235595D01*
X104514404Y-101895775D01*
X104510977Y-101887502D01*
X104513021Y-101880895D01*
X104959217Y-101228761D01*
X104966716Y-101223869D01*
X104975479Y-101225713D01*
G37*
%TD.AperFunction*%
%TD*%
%TA.AperFunction,Conductor*%
%TO.N,VBUS*%
G36*
X104635939Y-101499964D02*
G01*
X104644202Y-101503412D01*
X104647608Y-101511693D01*
X104647408Y-101513820D01*
X104501790Y-102290456D01*
X104496897Y-102297956D01*
X104490290Y-102300000D01*
X104009710Y-102300000D01*
X104001437Y-102296573D01*
X103998210Y-102290456D01*
X103852591Y-101513820D01*
X103854435Y-101505057D01*
X103861935Y-101500164D01*
X103864052Y-101499964D01*
X104250000Y-101499000D01*
X104635939Y-101499964D01*
G37*
%TD.AperFunction*%
%TD*%
%TA.AperFunction,Conductor*%
%TO.N,VBUS*%
G36*
X103539421Y-101227117D02*
G01*
X103540783Y-101228762D01*
X103986978Y-101880895D01*
X103988822Y-101889658D01*
X103985595Y-101895775D01*
X103645775Y-102235595D01*
X103637502Y-102239022D01*
X103630895Y-102236978D01*
X102978762Y-101790783D01*
X102973869Y-101783283D01*
X102975713Y-101774520D01*
X102977075Y-101772875D01*
X103249251Y-101499335D01*
X103249293Y-101499293D01*
X103522875Y-101227075D01*
X103531156Y-101223669D01*
X103539421Y-101227117D01*
G37*
%TD.AperFunction*%
%TD*%
M02*
