%TF.GenerationSoftware,KiCad,Pcbnew,8.0.3*%
%TF.CreationDate,2024-11-02T12:13:14+01:00*%
%TF.ProjectId,ESP-Now-Gateway,4553502d-4e6f-4772-9d47-617465776179,rev?*%
%TF.SameCoordinates,Original*%
%TF.FileFunction,Legend,Top*%
%TF.FilePolarity,Positive*%
%FSLAX46Y46*%
G04 Gerber Fmt 4.6, Leading zero omitted, Abs format (unit mm)*
G04 Created by KiCad (PCBNEW 8.0.3) date 2024-11-02 12:13:14*
%MOMM*%
%LPD*%
G01*
G04 APERTURE LIST*
G04 Aperture macros list*
%AMRoundRect*
0 Rectangle with rounded corners*
0 $1 Rounding radius*
0 $2 $3 $4 $5 $6 $7 $8 $9 X,Y pos of 4 corners*
0 Add a 4 corners polygon primitive as box body*
4,1,4,$2,$3,$4,$5,$6,$7,$8,$9,$2,$3,0*
0 Add four circle primitives for the rounded corners*
1,1,$1+$1,$2,$3*
1,1,$1+$1,$4,$5*
1,1,$1+$1,$6,$7*
1,1,$1+$1,$8,$9*
0 Add four rect primitives between the rounded corners*
20,1,$1+$1,$2,$3,$4,$5,0*
20,1,$1+$1,$4,$5,$6,$7,0*
20,1,$1+$1,$6,$7,$8,$9,0*
20,1,$1+$1,$8,$9,$2,$3,0*%
G04 Aperture macros list end*
%ADD10C,0.200000*%
%ADD11C,0.100000*%
%ADD12C,0.150000*%
%ADD13C,0.120000*%
%ADD14C,0.127000*%
%ADD15C,0.300000*%
%ADD16C,0.250000*%
%ADD17R,1.700000X1.700000*%
%ADD18O,1.700000X1.700000*%
%ADD19RoundRect,0.200000X0.275000X-0.200000X0.275000X0.200000X-0.275000X0.200000X-0.275000X-0.200000X0*%
%ADD20RoundRect,0.200000X0.200000X0.275000X-0.200000X0.275000X-0.200000X-0.275000X0.200000X-0.275000X0*%
%ADD21C,3.250000*%
%ADD22R,1.398000X1.398000*%
%ADD23C,1.398000*%
%ADD24C,1.530000*%
%ADD25C,2.445000*%
%ADD26C,0.650000*%
%ADD27O,1.000000X2.100000*%
%ADD28O,1.000000X1.800000*%
%ADD29R,0.600000X1.150000*%
%ADD30R,0.300000X1.150000*%
%ADD31R,1.500000X0.900000*%
%ADD32R,0.900000X1.500000*%
%ADD33C,0.600000*%
%ADD34R,4.200000X4.200000*%
%ADD35RoundRect,0.062500X0.350000X0.062500X-0.350000X0.062500X-0.350000X-0.062500X0.350000X-0.062500X0*%
%ADD36RoundRect,0.062500X0.062500X0.350000X-0.062500X0.350000X-0.062500X-0.350000X0.062500X-0.350000X0*%
%ADD37R,2.600000X2.600000*%
%ADD38RoundRect,0.200000X-0.200000X-0.275000X0.200000X-0.275000X0.200000X0.275000X-0.200000X0.275000X0*%
%ADD39RoundRect,0.200000X-0.275000X0.200000X-0.275000X-0.200000X0.275000X-0.200000X0.275000X0.200000X0*%
%ADD40RoundRect,0.200000X-0.053033X0.335876X-0.335876X0.053033X0.053033X-0.335876X0.335876X-0.053033X0*%
%ADD41RoundRect,0.250000X0.412500X0.925000X-0.412500X0.925000X-0.412500X-0.925000X0.412500X-0.925000X0*%
%ADD42RoundRect,0.140000X-0.140000X-0.170000X0.140000X-0.170000X0.140000X0.170000X-0.140000X0.170000X0*%
%ADD43RoundRect,0.225000X-0.225000X-0.250000X0.225000X-0.250000X0.225000X0.250000X-0.225000X0.250000X0*%
%ADD44RoundRect,0.225000X-0.250000X0.225000X-0.250000X-0.225000X0.250000X-0.225000X0.250000X0.225000X0*%
%ADD45RoundRect,0.225000X-0.335876X-0.017678X-0.017678X-0.335876X0.335876X0.017678X0.017678X0.335876X0*%
%ADD46RoundRect,0.135000X0.185000X-0.135000X0.185000X0.135000X-0.185000X0.135000X-0.185000X-0.135000X0*%
%ADD47RoundRect,0.162500X-0.447500X-0.162500X0.447500X-0.162500X0.447500X0.162500X-0.447500X0.162500X0*%
%ADD48RoundRect,0.135000X-0.135000X-0.185000X0.135000X-0.185000X0.135000X0.185000X-0.135000X0.185000X0*%
%ADD49RoundRect,0.140000X0.140000X0.170000X-0.140000X0.170000X-0.140000X-0.170000X0.140000X-0.170000X0*%
%ADD50RoundRect,0.135000X0.135000X0.185000X-0.135000X0.185000X-0.135000X-0.185000X0.135000X-0.185000X0*%
%ADD51RoundRect,0.225000X0.225000X0.250000X-0.225000X0.250000X-0.225000X-0.250000X0.225000X-0.250000X0*%
%ADD52RoundRect,0.150000X0.150000X-0.825000X0.150000X0.825000X-0.150000X0.825000X-0.150000X-0.825000X0*%
%ADD53RoundRect,0.250000X-0.650000X1.000000X-0.650000X-1.000000X0.650000X-1.000000X0.650000X1.000000X0*%
%ADD54RoundRect,0.200000X-0.335876X-0.053033X-0.053033X-0.335876X0.335876X0.053033X0.053033X0.335876X0*%
%ADD55RoundRect,0.225000X0.017678X-0.335876X0.335876X-0.017678X-0.017678X0.335876X-0.335876X0.017678X0*%
%ADD56RoundRect,0.375000X-0.375000X0.625000X-0.375000X-0.625000X0.375000X-0.625000X0.375000X0.625000X0*%
%ADD57RoundRect,0.500000X-1.400000X0.500000X-1.400000X-0.500000X1.400000X-0.500000X1.400000X0.500000X0*%
G04 APERTURE END LIST*
D10*
X118880387Y-66017219D02*
X118880387Y-66731504D01*
X118880387Y-66731504D02*
X118832768Y-66874361D01*
X118832768Y-66874361D02*
X118737530Y-66969600D01*
X118737530Y-66969600D02*
X118594673Y-67017219D01*
X118594673Y-67017219D02*
X118499435Y-67017219D01*
X119832768Y-67017219D02*
X119356578Y-67017219D01*
X119356578Y-67017219D02*
X119356578Y-66017219D01*
X120737530Y-66921980D02*
X120689911Y-66969600D01*
X120689911Y-66969600D02*
X120547054Y-67017219D01*
X120547054Y-67017219D02*
X120451816Y-67017219D01*
X120451816Y-67017219D02*
X120308959Y-66969600D01*
X120308959Y-66969600D02*
X120213721Y-66874361D01*
X120213721Y-66874361D02*
X120166102Y-66779123D01*
X120166102Y-66779123D02*
X120118483Y-66588647D01*
X120118483Y-66588647D02*
X120118483Y-66445790D01*
X120118483Y-66445790D02*
X120166102Y-66255314D01*
X120166102Y-66255314D02*
X120213721Y-66160076D01*
X120213721Y-66160076D02*
X120308959Y-66064838D01*
X120308959Y-66064838D02*
X120451816Y-66017219D01*
X120451816Y-66017219D02*
X120547054Y-66017219D01*
X120547054Y-66017219D02*
X120689911Y-66064838D01*
X120689911Y-66064838D02*
X120737530Y-66112457D01*
X121451816Y-66017219D02*
X121451816Y-66731504D01*
X121451816Y-66731504D02*
X121404197Y-66874361D01*
X121404197Y-66874361D02*
X121308959Y-66969600D01*
X121308959Y-66969600D02*
X121166102Y-67017219D01*
X121166102Y-67017219D02*
X121070864Y-67017219D01*
X122404197Y-67017219D02*
X121928007Y-67017219D01*
X121928007Y-67017219D02*
X121928007Y-66017219D01*
X123308959Y-66921980D02*
X123261340Y-66969600D01*
X123261340Y-66969600D02*
X123118483Y-67017219D01*
X123118483Y-67017219D02*
X123023245Y-67017219D01*
X123023245Y-67017219D02*
X122880388Y-66969600D01*
X122880388Y-66969600D02*
X122785150Y-66874361D01*
X122785150Y-66874361D02*
X122737531Y-66779123D01*
X122737531Y-66779123D02*
X122689912Y-66588647D01*
X122689912Y-66588647D02*
X122689912Y-66445790D01*
X122689912Y-66445790D02*
X122737531Y-66255314D01*
X122737531Y-66255314D02*
X122785150Y-66160076D01*
X122785150Y-66160076D02*
X122880388Y-66064838D01*
X122880388Y-66064838D02*
X123023245Y-66017219D01*
X123023245Y-66017219D02*
X123118483Y-66017219D01*
X123118483Y-66017219D02*
X123261340Y-66064838D01*
X123261340Y-66064838D02*
X123308959Y-66112457D01*
X124023245Y-66017219D02*
X124023245Y-66731504D01*
X124023245Y-66731504D02*
X123975626Y-66874361D01*
X123975626Y-66874361D02*
X123880388Y-66969600D01*
X123880388Y-66969600D02*
X123737531Y-67017219D01*
X123737531Y-67017219D02*
X123642293Y-67017219D01*
X124975626Y-67017219D02*
X124499436Y-67017219D01*
X124499436Y-67017219D02*
X124499436Y-66017219D01*
X125880388Y-66921980D02*
X125832769Y-66969600D01*
X125832769Y-66969600D02*
X125689912Y-67017219D01*
X125689912Y-67017219D02*
X125594674Y-67017219D01*
X125594674Y-67017219D02*
X125451817Y-66969600D01*
X125451817Y-66969600D02*
X125356579Y-66874361D01*
X125356579Y-66874361D02*
X125308960Y-66779123D01*
X125308960Y-66779123D02*
X125261341Y-66588647D01*
X125261341Y-66588647D02*
X125261341Y-66445790D01*
X125261341Y-66445790D02*
X125308960Y-66255314D01*
X125308960Y-66255314D02*
X125356579Y-66160076D01*
X125356579Y-66160076D02*
X125451817Y-66064838D01*
X125451817Y-66064838D02*
X125594674Y-66017219D01*
X125594674Y-66017219D02*
X125689912Y-66017219D01*
X125689912Y-66017219D02*
X125832769Y-66064838D01*
X125832769Y-66064838D02*
X125880388Y-66112457D01*
X126594674Y-66017219D02*
X126594674Y-66731504D01*
X126594674Y-66731504D02*
X126547055Y-66874361D01*
X126547055Y-66874361D02*
X126451817Y-66969600D01*
X126451817Y-66969600D02*
X126308960Y-67017219D01*
X126308960Y-67017219D02*
X126213722Y-67017219D01*
X127547055Y-67017219D02*
X127070865Y-67017219D01*
X127070865Y-67017219D02*
X127070865Y-66017219D01*
X128451817Y-66921980D02*
X128404198Y-66969600D01*
X128404198Y-66969600D02*
X128261341Y-67017219D01*
X128261341Y-67017219D02*
X128166103Y-67017219D01*
X128166103Y-67017219D02*
X128023246Y-66969600D01*
X128023246Y-66969600D02*
X127928008Y-66874361D01*
X127928008Y-66874361D02*
X127880389Y-66779123D01*
X127880389Y-66779123D02*
X127832770Y-66588647D01*
X127832770Y-66588647D02*
X127832770Y-66445790D01*
X127832770Y-66445790D02*
X127880389Y-66255314D01*
X127880389Y-66255314D02*
X127928008Y-66160076D01*
X127928008Y-66160076D02*
X128023246Y-66064838D01*
X128023246Y-66064838D02*
X128166103Y-66017219D01*
X128166103Y-66017219D02*
X128261341Y-66017219D01*
X128261341Y-66017219D02*
X128404198Y-66064838D01*
X128404198Y-66064838D02*
X128451817Y-66112457D01*
D11*
X108346895Y-84838972D02*
X109146895Y-84505639D01*
X109146895Y-84505639D02*
X108346895Y-84172306D01*
X108727847Y-83505639D02*
X108765942Y-83362782D01*
X108765942Y-83362782D02*
X108804038Y-83315163D01*
X108804038Y-83315163D02*
X108880228Y-83267544D01*
X108880228Y-83267544D02*
X108994514Y-83267544D01*
X108994514Y-83267544D02*
X109070704Y-83315163D01*
X109070704Y-83315163D02*
X109108800Y-83362782D01*
X109108800Y-83362782D02*
X109146895Y-83458020D01*
X109146895Y-83458020D02*
X109146895Y-83838972D01*
X109146895Y-83838972D02*
X108346895Y-83838972D01*
X108346895Y-83838972D02*
X108346895Y-83505639D01*
X108346895Y-83505639D02*
X108384990Y-83410401D01*
X108384990Y-83410401D02*
X108423085Y-83362782D01*
X108423085Y-83362782D02*
X108499276Y-83315163D01*
X108499276Y-83315163D02*
X108575466Y-83315163D01*
X108575466Y-83315163D02*
X108651657Y-83362782D01*
X108651657Y-83362782D02*
X108689752Y-83410401D01*
X108689752Y-83410401D02*
X108727847Y-83505639D01*
X108727847Y-83505639D02*
X108727847Y-83838972D01*
X108346895Y-82838972D02*
X108994514Y-82838972D01*
X108994514Y-82838972D02*
X109070704Y-82791353D01*
X109070704Y-82791353D02*
X109108800Y-82743734D01*
X109108800Y-82743734D02*
X109146895Y-82648496D01*
X109146895Y-82648496D02*
X109146895Y-82458020D01*
X109146895Y-82458020D02*
X109108800Y-82362782D01*
X109108800Y-82362782D02*
X109070704Y-82315163D01*
X109070704Y-82315163D02*
X108994514Y-82267544D01*
X108994514Y-82267544D02*
X108346895Y-82267544D01*
X109108800Y-81838972D02*
X109146895Y-81696115D01*
X109146895Y-81696115D02*
X109146895Y-81458020D01*
X109146895Y-81458020D02*
X109108800Y-81362782D01*
X109108800Y-81362782D02*
X109070704Y-81315163D01*
X109070704Y-81315163D02*
X108994514Y-81267544D01*
X108994514Y-81267544D02*
X108918323Y-81267544D01*
X108918323Y-81267544D02*
X108842133Y-81315163D01*
X108842133Y-81315163D02*
X108804038Y-81362782D01*
X108804038Y-81362782D02*
X108765942Y-81458020D01*
X108765942Y-81458020D02*
X108727847Y-81648496D01*
X108727847Y-81648496D02*
X108689752Y-81743734D01*
X108689752Y-81743734D02*
X108651657Y-81791353D01*
X108651657Y-81791353D02*
X108575466Y-81838972D01*
X108575466Y-81838972D02*
X108499276Y-81838972D01*
X108499276Y-81838972D02*
X108423085Y-81791353D01*
X108423085Y-81791353D02*
X108384990Y-81743734D01*
X108384990Y-81743734D02*
X108346895Y-81648496D01*
X108346895Y-81648496D02*
X108346895Y-81410401D01*
X108346895Y-81410401D02*
X108384990Y-81267544D01*
X108371895Y-94266353D02*
X108371895Y-93647306D01*
X108371895Y-93647306D02*
X108676657Y-93980639D01*
X108676657Y-93980639D02*
X108676657Y-93837782D01*
X108676657Y-93837782D02*
X108714752Y-93742544D01*
X108714752Y-93742544D02*
X108752847Y-93694925D01*
X108752847Y-93694925D02*
X108829038Y-93647306D01*
X108829038Y-93647306D02*
X109019514Y-93647306D01*
X109019514Y-93647306D02*
X109095704Y-93694925D01*
X109095704Y-93694925D02*
X109133800Y-93742544D01*
X109133800Y-93742544D02*
X109171895Y-93837782D01*
X109171895Y-93837782D02*
X109171895Y-94123496D01*
X109171895Y-94123496D02*
X109133800Y-94218734D01*
X109133800Y-94218734D02*
X109095704Y-94266353D01*
X108371895Y-93361591D02*
X109171895Y-93028258D01*
X109171895Y-93028258D02*
X108371895Y-92694925D01*
X108371895Y-92456829D02*
X108371895Y-91837782D01*
X108371895Y-91837782D02*
X108676657Y-92171115D01*
X108676657Y-92171115D02*
X108676657Y-92028258D01*
X108676657Y-92028258D02*
X108714752Y-91933020D01*
X108714752Y-91933020D02*
X108752847Y-91885401D01*
X108752847Y-91885401D02*
X108829038Y-91837782D01*
X108829038Y-91837782D02*
X109019514Y-91837782D01*
X109019514Y-91837782D02*
X109095704Y-91885401D01*
X109095704Y-91885401D02*
X109133800Y-91933020D01*
X109133800Y-91933020D02*
X109171895Y-92028258D01*
X109171895Y-92028258D02*
X109171895Y-92313972D01*
X109171895Y-92313972D02*
X109133800Y-92409210D01*
X109133800Y-92409210D02*
X109095704Y-92456829D01*
X102980000Y-90500000D02*
X108175000Y-90500000D01*
X108175000Y-95630000D01*
X102980000Y-95630000D01*
X102980000Y-90500000D01*
X102955000Y-80270000D02*
X108175000Y-80270000D01*
X108175000Y-85275000D01*
X102955000Y-85275000D01*
X102955000Y-80270000D01*
X108359990Y-88622306D02*
X108321895Y-88717544D01*
X108321895Y-88717544D02*
X108321895Y-88860401D01*
X108321895Y-88860401D02*
X108359990Y-89003258D01*
X108359990Y-89003258D02*
X108436180Y-89098496D01*
X108436180Y-89098496D02*
X108512371Y-89146115D01*
X108512371Y-89146115D02*
X108664752Y-89193734D01*
X108664752Y-89193734D02*
X108779038Y-89193734D01*
X108779038Y-89193734D02*
X108931419Y-89146115D01*
X108931419Y-89146115D02*
X109007609Y-89098496D01*
X109007609Y-89098496D02*
X109083800Y-89003258D01*
X109083800Y-89003258D02*
X109121895Y-88860401D01*
X109121895Y-88860401D02*
X109121895Y-88765163D01*
X109121895Y-88765163D02*
X109083800Y-88622306D01*
X109083800Y-88622306D02*
X109045704Y-88574687D01*
X109045704Y-88574687D02*
X108779038Y-88574687D01*
X108779038Y-88574687D02*
X108779038Y-88765163D01*
X109121895Y-88146115D02*
X108321895Y-88146115D01*
X108321895Y-88146115D02*
X109121895Y-87574687D01*
X109121895Y-87574687D02*
X108321895Y-87574687D01*
X109121895Y-87098496D02*
X108321895Y-87098496D01*
X108321895Y-87098496D02*
X108321895Y-86860401D01*
X108321895Y-86860401D02*
X108359990Y-86717544D01*
X108359990Y-86717544D02*
X108436180Y-86622306D01*
X108436180Y-86622306D02*
X108512371Y-86574687D01*
X108512371Y-86574687D02*
X108664752Y-86527068D01*
X108664752Y-86527068D02*
X108779038Y-86527068D01*
X108779038Y-86527068D02*
X108931419Y-86574687D01*
X108931419Y-86574687D02*
X109007609Y-86622306D01*
X109007609Y-86622306D02*
X109083800Y-86717544D01*
X109083800Y-86717544D02*
X109121895Y-86860401D01*
X109121895Y-86860401D02*
X109121895Y-87098496D01*
D12*
X105796666Y-79044819D02*
X105796666Y-79759104D01*
X105796666Y-79759104D02*
X105749047Y-79901961D01*
X105749047Y-79901961D02*
X105653809Y-79997200D01*
X105653809Y-79997200D02*
X105510952Y-80044819D01*
X105510952Y-80044819D02*
X105415714Y-80044819D01*
X106749047Y-79044819D02*
X106272857Y-79044819D01*
X106272857Y-79044819D02*
X106225238Y-79521009D01*
X106225238Y-79521009D02*
X106272857Y-79473390D01*
X106272857Y-79473390D02*
X106368095Y-79425771D01*
X106368095Y-79425771D02*
X106606190Y-79425771D01*
X106606190Y-79425771D02*
X106701428Y-79473390D01*
X106701428Y-79473390D02*
X106749047Y-79521009D01*
X106749047Y-79521009D02*
X106796666Y-79616247D01*
X106796666Y-79616247D02*
X106796666Y-79854342D01*
X106796666Y-79854342D02*
X106749047Y-79949580D01*
X106749047Y-79949580D02*
X106701428Y-79997200D01*
X106701428Y-79997200D02*
X106606190Y-80044819D01*
X106606190Y-80044819D02*
X106368095Y-80044819D01*
X106368095Y-80044819D02*
X106272857Y-79997200D01*
X106272857Y-79997200D02*
X106225238Y-79949580D01*
X109116666Y-63664819D02*
X109116666Y-64379104D01*
X109116666Y-64379104D02*
X109069047Y-64521961D01*
X109069047Y-64521961D02*
X108973809Y-64617200D01*
X108973809Y-64617200D02*
X108830952Y-64664819D01*
X108830952Y-64664819D02*
X108735714Y-64664819D01*
X110021428Y-63998152D02*
X110021428Y-64664819D01*
X109783333Y-63617200D02*
X109545238Y-64331485D01*
X109545238Y-64331485D02*
X110164285Y-64331485D01*
X110316666Y-75724819D02*
X110316666Y-76439104D01*
X110316666Y-76439104D02*
X110269047Y-76581961D01*
X110269047Y-76581961D02*
X110173809Y-76677200D01*
X110173809Y-76677200D02*
X110030952Y-76724819D01*
X110030952Y-76724819D02*
X109935714Y-76724819D01*
X110745238Y-75820057D02*
X110792857Y-75772438D01*
X110792857Y-75772438D02*
X110888095Y-75724819D01*
X110888095Y-75724819D02*
X111126190Y-75724819D01*
X111126190Y-75724819D02*
X111221428Y-75772438D01*
X111221428Y-75772438D02*
X111269047Y-75820057D01*
X111269047Y-75820057D02*
X111316666Y-75915295D01*
X111316666Y-75915295D02*
X111316666Y-76010533D01*
X111316666Y-76010533D02*
X111269047Y-76153390D01*
X111269047Y-76153390D02*
X110697619Y-76724819D01*
X110697619Y-76724819D02*
X111316666Y-76724819D01*
D11*
X103614895Y-112764285D02*
X103233942Y-113030952D01*
X103614895Y-113221428D02*
X102814895Y-113221428D01*
X102814895Y-113221428D02*
X102814895Y-112916666D01*
X102814895Y-112916666D02*
X102852990Y-112840476D01*
X102852990Y-112840476D02*
X102891085Y-112802381D01*
X102891085Y-112802381D02*
X102967276Y-112764285D01*
X102967276Y-112764285D02*
X103081561Y-112764285D01*
X103081561Y-112764285D02*
X103157752Y-112802381D01*
X103157752Y-112802381D02*
X103195847Y-112840476D01*
X103195847Y-112840476D02*
X103233942Y-112916666D01*
X103233942Y-112916666D02*
X103233942Y-113221428D01*
X102891085Y-112459524D02*
X102852990Y-112421428D01*
X102852990Y-112421428D02*
X102814895Y-112345238D01*
X102814895Y-112345238D02*
X102814895Y-112154762D01*
X102814895Y-112154762D02*
X102852990Y-112078571D01*
X102852990Y-112078571D02*
X102891085Y-112040476D01*
X102891085Y-112040476D02*
X102967276Y-112002381D01*
X102967276Y-112002381D02*
X103043466Y-112002381D01*
X103043466Y-112002381D02*
X103157752Y-112040476D01*
X103157752Y-112040476D02*
X103614895Y-112497619D01*
X103614895Y-112497619D02*
X103614895Y-112002381D01*
X102814895Y-111507142D02*
X102814895Y-111430952D01*
X102814895Y-111430952D02*
X102852990Y-111354761D01*
X102852990Y-111354761D02*
X102891085Y-111316666D01*
X102891085Y-111316666D02*
X102967276Y-111278571D01*
X102967276Y-111278571D02*
X103119657Y-111240476D01*
X103119657Y-111240476D02*
X103310133Y-111240476D01*
X103310133Y-111240476D02*
X103462514Y-111278571D01*
X103462514Y-111278571D02*
X103538704Y-111316666D01*
X103538704Y-111316666D02*
X103576800Y-111354761D01*
X103576800Y-111354761D02*
X103614895Y-111430952D01*
X103614895Y-111430952D02*
X103614895Y-111507142D01*
X103614895Y-111507142D02*
X103576800Y-111583333D01*
X103576800Y-111583333D02*
X103538704Y-111621428D01*
X103538704Y-111621428D02*
X103462514Y-111659523D01*
X103462514Y-111659523D02*
X103310133Y-111697619D01*
X103310133Y-111697619D02*
X103119657Y-111697619D01*
X103119657Y-111697619D02*
X102967276Y-111659523D01*
X102967276Y-111659523D02*
X102891085Y-111621428D01*
X102891085Y-111621428D02*
X102852990Y-111583333D01*
X102852990Y-111583333D02*
X102814895Y-111507142D01*
D12*
X114307142Y-93604819D02*
X113973809Y-93128628D01*
X113735714Y-93604819D02*
X113735714Y-92604819D01*
X113735714Y-92604819D02*
X114116666Y-92604819D01*
X114116666Y-92604819D02*
X114211904Y-92652438D01*
X114211904Y-92652438D02*
X114259523Y-92700057D01*
X114259523Y-92700057D02*
X114307142Y-92795295D01*
X114307142Y-92795295D02*
X114307142Y-92938152D01*
X114307142Y-92938152D02*
X114259523Y-93033390D01*
X114259523Y-93033390D02*
X114211904Y-93081009D01*
X114211904Y-93081009D02*
X114116666Y-93128628D01*
X114116666Y-93128628D02*
X113735714Y-93128628D01*
X115259523Y-93604819D02*
X114688095Y-93604819D01*
X114973809Y-93604819D02*
X114973809Y-92604819D01*
X114973809Y-92604819D02*
X114878571Y-92747676D01*
X114878571Y-92747676D02*
X114783333Y-92842914D01*
X114783333Y-92842914D02*
X114688095Y-92890533D01*
X115735714Y-93604819D02*
X115926190Y-93604819D01*
X115926190Y-93604819D02*
X116021428Y-93557200D01*
X116021428Y-93557200D02*
X116069047Y-93509580D01*
X116069047Y-93509580D02*
X116164285Y-93366723D01*
X116164285Y-93366723D02*
X116211904Y-93176247D01*
X116211904Y-93176247D02*
X116211904Y-92795295D01*
X116211904Y-92795295D02*
X116164285Y-92700057D01*
X116164285Y-92700057D02*
X116116666Y-92652438D01*
X116116666Y-92652438D02*
X116021428Y-92604819D01*
X116021428Y-92604819D02*
X115830952Y-92604819D01*
X115830952Y-92604819D02*
X115735714Y-92652438D01*
X115735714Y-92652438D02*
X115688095Y-92700057D01*
X115688095Y-92700057D02*
X115640476Y-92795295D01*
X115640476Y-92795295D02*
X115640476Y-93033390D01*
X115640476Y-93033390D02*
X115688095Y-93128628D01*
X115688095Y-93128628D02*
X115735714Y-93176247D01*
X115735714Y-93176247D02*
X115830952Y-93223866D01*
X115830952Y-93223866D02*
X116021428Y-93223866D01*
X116021428Y-93223866D02*
X116116666Y-93176247D01*
X116116666Y-93176247D02*
X116164285Y-93128628D01*
X116164285Y-93128628D02*
X116211904Y-93033390D01*
X127349115Y-124478277D02*
X127349115Y-125626602D01*
X127349115Y-125626602D02*
X127272560Y-125856267D01*
X127272560Y-125856267D02*
X127119450Y-126009377D01*
X127119450Y-126009377D02*
X126889785Y-126085931D01*
X126889785Y-126085931D02*
X126736675Y-126085931D01*
X128956769Y-126085931D02*
X128038109Y-126085931D01*
X128497439Y-126085931D02*
X128497439Y-124478277D01*
X128497439Y-124478277D02*
X128344329Y-124707942D01*
X128344329Y-124707942D02*
X128191219Y-124861052D01*
X128191219Y-124861052D02*
X128038109Y-124937607D01*
X103134819Y-121678094D02*
X103944342Y-121678094D01*
X103944342Y-121678094D02*
X104039580Y-121630475D01*
X104039580Y-121630475D02*
X104087200Y-121582856D01*
X104087200Y-121582856D02*
X104134819Y-121487618D01*
X104134819Y-121487618D02*
X104134819Y-121297142D01*
X104134819Y-121297142D02*
X104087200Y-121201904D01*
X104087200Y-121201904D02*
X104039580Y-121154285D01*
X104039580Y-121154285D02*
X103944342Y-121106666D01*
X103944342Y-121106666D02*
X103134819Y-121106666D01*
X104087200Y-120678094D02*
X104134819Y-120535237D01*
X104134819Y-120535237D02*
X104134819Y-120297142D01*
X104134819Y-120297142D02*
X104087200Y-120201904D01*
X104087200Y-120201904D02*
X104039580Y-120154285D01*
X104039580Y-120154285D02*
X103944342Y-120106666D01*
X103944342Y-120106666D02*
X103849104Y-120106666D01*
X103849104Y-120106666D02*
X103753866Y-120154285D01*
X103753866Y-120154285D02*
X103706247Y-120201904D01*
X103706247Y-120201904D02*
X103658628Y-120297142D01*
X103658628Y-120297142D02*
X103611009Y-120487618D01*
X103611009Y-120487618D02*
X103563390Y-120582856D01*
X103563390Y-120582856D02*
X103515771Y-120630475D01*
X103515771Y-120630475D02*
X103420533Y-120678094D01*
X103420533Y-120678094D02*
X103325295Y-120678094D01*
X103325295Y-120678094D02*
X103230057Y-120630475D01*
X103230057Y-120630475D02*
X103182438Y-120582856D01*
X103182438Y-120582856D02*
X103134819Y-120487618D01*
X103134819Y-120487618D02*
X103134819Y-120249523D01*
X103134819Y-120249523D02*
X103182438Y-120106666D01*
X103611009Y-119344761D02*
X103658628Y-119201904D01*
X103658628Y-119201904D02*
X103706247Y-119154285D01*
X103706247Y-119154285D02*
X103801485Y-119106666D01*
X103801485Y-119106666D02*
X103944342Y-119106666D01*
X103944342Y-119106666D02*
X104039580Y-119154285D01*
X104039580Y-119154285D02*
X104087200Y-119201904D01*
X104087200Y-119201904D02*
X104134819Y-119297142D01*
X104134819Y-119297142D02*
X104134819Y-119678094D01*
X104134819Y-119678094D02*
X103134819Y-119678094D01*
X103134819Y-119678094D02*
X103134819Y-119344761D01*
X103134819Y-119344761D02*
X103182438Y-119249523D01*
X103182438Y-119249523D02*
X103230057Y-119201904D01*
X103230057Y-119201904D02*
X103325295Y-119154285D01*
X103325295Y-119154285D02*
X103420533Y-119154285D01*
X103420533Y-119154285D02*
X103515771Y-119201904D01*
X103515771Y-119201904D02*
X103563390Y-119249523D01*
X103563390Y-119249523D02*
X103611009Y-119344761D01*
X103611009Y-119344761D02*
X103611009Y-119678094D01*
X104039580Y-118106666D02*
X104087200Y-118154285D01*
X104087200Y-118154285D02*
X104134819Y-118297142D01*
X104134819Y-118297142D02*
X104134819Y-118392380D01*
X104134819Y-118392380D02*
X104087200Y-118535237D01*
X104087200Y-118535237D02*
X103991961Y-118630475D01*
X103991961Y-118630475D02*
X103896723Y-118678094D01*
X103896723Y-118678094D02*
X103706247Y-118725713D01*
X103706247Y-118725713D02*
X103563390Y-118725713D01*
X103563390Y-118725713D02*
X103372914Y-118678094D01*
X103372914Y-118678094D02*
X103277676Y-118630475D01*
X103277676Y-118630475D02*
X103182438Y-118535237D01*
X103182438Y-118535237D02*
X103134819Y-118392380D01*
X103134819Y-118392380D02*
X103134819Y-118297142D01*
X103134819Y-118297142D02*
X103182438Y-118154285D01*
X103182438Y-118154285D02*
X103230057Y-118106666D01*
X104134819Y-117154285D02*
X104134819Y-117725713D01*
X104134819Y-117439999D02*
X103134819Y-117439999D01*
X103134819Y-117439999D02*
X103277676Y-117535237D01*
X103277676Y-117535237D02*
X103372914Y-117630475D01*
X103372914Y-117630475D02*
X103420533Y-117725713D01*
X116538095Y-85104819D02*
X116538095Y-85914342D01*
X116538095Y-85914342D02*
X116585714Y-86009580D01*
X116585714Y-86009580D02*
X116633333Y-86057200D01*
X116633333Y-86057200D02*
X116728571Y-86104819D01*
X116728571Y-86104819D02*
X116919047Y-86104819D01*
X116919047Y-86104819D02*
X117014285Y-86057200D01*
X117014285Y-86057200D02*
X117061904Y-86009580D01*
X117061904Y-86009580D02*
X117109523Y-85914342D01*
X117109523Y-85914342D02*
X117109523Y-85104819D01*
X117538095Y-85200057D02*
X117585714Y-85152438D01*
X117585714Y-85152438D02*
X117680952Y-85104819D01*
X117680952Y-85104819D02*
X117919047Y-85104819D01*
X117919047Y-85104819D02*
X118014285Y-85152438D01*
X118014285Y-85152438D02*
X118061904Y-85200057D01*
X118061904Y-85200057D02*
X118109523Y-85295295D01*
X118109523Y-85295295D02*
X118109523Y-85390533D01*
X118109523Y-85390533D02*
X118061904Y-85533390D01*
X118061904Y-85533390D02*
X117490476Y-86104819D01*
X117490476Y-86104819D02*
X118109523Y-86104819D01*
X122038095Y-92304819D02*
X122038095Y-93114342D01*
X122038095Y-93114342D02*
X122085714Y-93209580D01*
X122085714Y-93209580D02*
X122133333Y-93257200D01*
X122133333Y-93257200D02*
X122228571Y-93304819D01*
X122228571Y-93304819D02*
X122419047Y-93304819D01*
X122419047Y-93304819D02*
X122514285Y-93257200D01*
X122514285Y-93257200D02*
X122561904Y-93209580D01*
X122561904Y-93209580D02*
X122609523Y-93114342D01*
X122609523Y-93114342D02*
X122609523Y-92304819D01*
X122990476Y-92304819D02*
X123609523Y-92304819D01*
X123609523Y-92304819D02*
X123276190Y-92685771D01*
X123276190Y-92685771D02*
X123419047Y-92685771D01*
X123419047Y-92685771D02*
X123514285Y-92733390D01*
X123514285Y-92733390D02*
X123561904Y-92781009D01*
X123561904Y-92781009D02*
X123609523Y-92876247D01*
X123609523Y-92876247D02*
X123609523Y-93114342D01*
X123609523Y-93114342D02*
X123561904Y-93209580D01*
X123561904Y-93209580D02*
X123514285Y-93257200D01*
X123514285Y-93257200D02*
X123419047Y-93304819D01*
X123419047Y-93304819D02*
X123133333Y-93304819D01*
X123133333Y-93304819D02*
X123038095Y-93257200D01*
X123038095Y-93257200D02*
X122990476Y-93209580D01*
X131707142Y-103054819D02*
X131373809Y-102578628D01*
X131135714Y-103054819D02*
X131135714Y-102054819D01*
X131135714Y-102054819D02*
X131516666Y-102054819D01*
X131516666Y-102054819D02*
X131611904Y-102102438D01*
X131611904Y-102102438D02*
X131659523Y-102150057D01*
X131659523Y-102150057D02*
X131707142Y-102245295D01*
X131707142Y-102245295D02*
X131707142Y-102388152D01*
X131707142Y-102388152D02*
X131659523Y-102483390D01*
X131659523Y-102483390D02*
X131611904Y-102531009D01*
X131611904Y-102531009D02*
X131516666Y-102578628D01*
X131516666Y-102578628D02*
X131135714Y-102578628D01*
X132659523Y-103054819D02*
X132088095Y-103054819D01*
X132373809Y-103054819D02*
X132373809Y-102054819D01*
X132373809Y-102054819D02*
X132278571Y-102197676D01*
X132278571Y-102197676D02*
X132183333Y-102292914D01*
X132183333Y-102292914D02*
X132088095Y-102340533D01*
X133516666Y-102388152D02*
X133516666Y-103054819D01*
X133278571Y-102007200D02*
X133040476Y-102721485D01*
X133040476Y-102721485D02*
X133659523Y-102721485D01*
D11*
X122464895Y-100033333D02*
X122464895Y-100414285D01*
X122464895Y-100414285D02*
X121664895Y-100414285D01*
X122464895Y-99347619D02*
X122464895Y-99804762D01*
X122464895Y-99576190D02*
X121664895Y-99576190D01*
X121664895Y-99576190D02*
X121779180Y-99652381D01*
X121779180Y-99652381D02*
X121855371Y-99728571D01*
X121855371Y-99728571D02*
X121893466Y-99804762D01*
X129260714Y-100964895D02*
X128994047Y-100583942D01*
X128803571Y-100964895D02*
X128803571Y-100164895D01*
X128803571Y-100164895D02*
X129108333Y-100164895D01*
X129108333Y-100164895D02*
X129184523Y-100202990D01*
X129184523Y-100202990D02*
X129222618Y-100241085D01*
X129222618Y-100241085D02*
X129260714Y-100317276D01*
X129260714Y-100317276D02*
X129260714Y-100431561D01*
X129260714Y-100431561D02*
X129222618Y-100507752D01*
X129222618Y-100507752D02*
X129184523Y-100545847D01*
X129184523Y-100545847D02*
X129108333Y-100583942D01*
X129108333Y-100583942D02*
X128803571Y-100583942D01*
X130022618Y-100964895D02*
X129565475Y-100964895D01*
X129794047Y-100964895D02*
X129794047Y-100164895D01*
X129794047Y-100164895D02*
X129717856Y-100279180D01*
X129717856Y-100279180D02*
X129641666Y-100355371D01*
X129641666Y-100355371D02*
X129565475Y-100393466D01*
X130784523Y-100964895D02*
X130327380Y-100964895D01*
X130555952Y-100964895D02*
X130555952Y-100164895D01*
X130555952Y-100164895D02*
X130479761Y-100279180D01*
X130479761Y-100279180D02*
X130403571Y-100355371D01*
X130403571Y-100355371D02*
X130327380Y-100393466D01*
D12*
X131097117Y-89826093D02*
X130524698Y-89725078D01*
X130693056Y-90230154D02*
X129985950Y-89523047D01*
X129985950Y-89523047D02*
X130255324Y-89253673D01*
X130255324Y-89253673D02*
X130356339Y-89220001D01*
X130356339Y-89220001D02*
X130423682Y-89220001D01*
X130423682Y-89220001D02*
X130524698Y-89253673D01*
X130524698Y-89253673D02*
X130625713Y-89354688D01*
X130625713Y-89354688D02*
X130659385Y-89455704D01*
X130659385Y-89455704D02*
X130659385Y-89523047D01*
X130659385Y-89523047D02*
X130625713Y-89624062D01*
X130625713Y-89624062D02*
X130356339Y-89893436D01*
X131433835Y-89489375D02*
X131568522Y-89354688D01*
X131568522Y-89354688D02*
X131602194Y-89253673D01*
X131602194Y-89253673D02*
X131602194Y-89186330D01*
X131602194Y-89186330D02*
X131568522Y-89017971D01*
X131568522Y-89017971D02*
X131467507Y-88849612D01*
X131467507Y-88849612D02*
X131198133Y-88580238D01*
X131198133Y-88580238D02*
X131097117Y-88546566D01*
X131097117Y-88546566D02*
X131029774Y-88546566D01*
X131029774Y-88546566D02*
X130928759Y-88580238D01*
X130928759Y-88580238D02*
X130794072Y-88714925D01*
X130794072Y-88714925D02*
X130760400Y-88815940D01*
X130760400Y-88815940D02*
X130760400Y-88883284D01*
X130760400Y-88883284D02*
X130794072Y-88984299D01*
X130794072Y-88984299D02*
X130962430Y-89152658D01*
X130962430Y-89152658D02*
X131063446Y-89186330D01*
X131063446Y-89186330D02*
X131130789Y-89186330D01*
X131130789Y-89186330D02*
X131231804Y-89152658D01*
X131231804Y-89152658D02*
X131366491Y-89017971D01*
X131366491Y-89017971D02*
X131400163Y-88916956D01*
X131400163Y-88916956D02*
X131400163Y-88849612D01*
X131400163Y-88849612D02*
X131366491Y-88748597D01*
X112633333Y-64609580D02*
X112585714Y-64657200D01*
X112585714Y-64657200D02*
X112442857Y-64704819D01*
X112442857Y-64704819D02*
X112347619Y-64704819D01*
X112347619Y-64704819D02*
X112204762Y-64657200D01*
X112204762Y-64657200D02*
X112109524Y-64561961D01*
X112109524Y-64561961D02*
X112061905Y-64466723D01*
X112061905Y-64466723D02*
X112014286Y-64276247D01*
X112014286Y-64276247D02*
X112014286Y-64133390D01*
X112014286Y-64133390D02*
X112061905Y-63942914D01*
X112061905Y-63942914D02*
X112109524Y-63847676D01*
X112109524Y-63847676D02*
X112204762Y-63752438D01*
X112204762Y-63752438D02*
X112347619Y-63704819D01*
X112347619Y-63704819D02*
X112442857Y-63704819D01*
X112442857Y-63704819D02*
X112585714Y-63752438D01*
X112585714Y-63752438D02*
X112633333Y-63800057D01*
X113490476Y-64038152D02*
X113490476Y-64704819D01*
X113252381Y-63657200D02*
X113014286Y-64371485D01*
X113014286Y-64371485D02*
X113633333Y-64371485D01*
D13*
X105286667Y-105687664D02*
X105248571Y-105725760D01*
X105248571Y-105725760D02*
X105134286Y-105763855D01*
X105134286Y-105763855D02*
X105058095Y-105763855D01*
X105058095Y-105763855D02*
X104943809Y-105725760D01*
X104943809Y-105725760D02*
X104867619Y-105649569D01*
X104867619Y-105649569D02*
X104829524Y-105573379D01*
X104829524Y-105573379D02*
X104791428Y-105420998D01*
X104791428Y-105420998D02*
X104791428Y-105306712D01*
X104791428Y-105306712D02*
X104829524Y-105154331D01*
X104829524Y-105154331D02*
X104867619Y-105078140D01*
X104867619Y-105078140D02*
X104943809Y-105001950D01*
X104943809Y-105001950D02*
X105058095Y-104963855D01*
X105058095Y-104963855D02*
X105134286Y-104963855D01*
X105134286Y-104963855D02*
X105248571Y-105001950D01*
X105248571Y-105001950D02*
X105286667Y-105040045D01*
X106010476Y-104963855D02*
X105629524Y-104963855D01*
X105629524Y-104963855D02*
X105591428Y-105344807D01*
X105591428Y-105344807D02*
X105629524Y-105306712D01*
X105629524Y-105306712D02*
X105705714Y-105268617D01*
X105705714Y-105268617D02*
X105896190Y-105268617D01*
X105896190Y-105268617D02*
X105972381Y-105306712D01*
X105972381Y-105306712D02*
X106010476Y-105344807D01*
X106010476Y-105344807D02*
X106048571Y-105420998D01*
X106048571Y-105420998D02*
X106048571Y-105611474D01*
X106048571Y-105611474D02*
X106010476Y-105687664D01*
X106010476Y-105687664D02*
X105972381Y-105725760D01*
X105972381Y-105725760D02*
X105896190Y-105763855D01*
X105896190Y-105763855D02*
X105705714Y-105763855D01*
X105705714Y-105763855D02*
X105629524Y-105725760D01*
X105629524Y-105725760D02*
X105591428Y-105687664D01*
D12*
X111583333Y-93859580D02*
X111535714Y-93907200D01*
X111535714Y-93907200D02*
X111392857Y-93954819D01*
X111392857Y-93954819D02*
X111297619Y-93954819D01*
X111297619Y-93954819D02*
X111154762Y-93907200D01*
X111154762Y-93907200D02*
X111059524Y-93811961D01*
X111059524Y-93811961D02*
X111011905Y-93716723D01*
X111011905Y-93716723D02*
X110964286Y-93526247D01*
X110964286Y-93526247D02*
X110964286Y-93383390D01*
X110964286Y-93383390D02*
X111011905Y-93192914D01*
X111011905Y-93192914D02*
X111059524Y-93097676D01*
X111059524Y-93097676D02*
X111154762Y-93002438D01*
X111154762Y-93002438D02*
X111297619Y-92954819D01*
X111297619Y-92954819D02*
X111392857Y-92954819D01*
X111392857Y-92954819D02*
X111535714Y-93002438D01*
X111535714Y-93002438D02*
X111583333Y-93050057D01*
X111964286Y-93050057D02*
X112011905Y-93002438D01*
X112011905Y-93002438D02*
X112107143Y-92954819D01*
X112107143Y-92954819D02*
X112345238Y-92954819D01*
X112345238Y-92954819D02*
X112440476Y-93002438D01*
X112440476Y-93002438D02*
X112488095Y-93050057D01*
X112488095Y-93050057D02*
X112535714Y-93145295D01*
X112535714Y-93145295D02*
X112535714Y-93240533D01*
X112535714Y-93240533D02*
X112488095Y-93383390D01*
X112488095Y-93383390D02*
X111916667Y-93954819D01*
X111916667Y-93954819D02*
X112535714Y-93954819D01*
X131409580Y-95866666D02*
X131457200Y-95914285D01*
X131457200Y-95914285D02*
X131504819Y-96057142D01*
X131504819Y-96057142D02*
X131504819Y-96152380D01*
X131504819Y-96152380D02*
X131457200Y-96295237D01*
X131457200Y-96295237D02*
X131361961Y-96390475D01*
X131361961Y-96390475D02*
X131266723Y-96438094D01*
X131266723Y-96438094D02*
X131076247Y-96485713D01*
X131076247Y-96485713D02*
X130933390Y-96485713D01*
X130933390Y-96485713D02*
X130742914Y-96438094D01*
X130742914Y-96438094D02*
X130647676Y-96390475D01*
X130647676Y-96390475D02*
X130552438Y-96295237D01*
X130552438Y-96295237D02*
X130504819Y-96152380D01*
X130504819Y-96152380D02*
X130504819Y-96057142D01*
X130504819Y-96057142D02*
X130552438Y-95914285D01*
X130552438Y-95914285D02*
X130600057Y-95866666D01*
X130933390Y-95295237D02*
X130885771Y-95390475D01*
X130885771Y-95390475D02*
X130838152Y-95438094D01*
X130838152Y-95438094D02*
X130742914Y-95485713D01*
X130742914Y-95485713D02*
X130695295Y-95485713D01*
X130695295Y-95485713D02*
X130600057Y-95438094D01*
X130600057Y-95438094D02*
X130552438Y-95390475D01*
X130552438Y-95390475D02*
X130504819Y-95295237D01*
X130504819Y-95295237D02*
X130504819Y-95104761D01*
X130504819Y-95104761D02*
X130552438Y-95009523D01*
X130552438Y-95009523D02*
X130600057Y-94961904D01*
X130600057Y-94961904D02*
X130695295Y-94914285D01*
X130695295Y-94914285D02*
X130742914Y-94914285D01*
X130742914Y-94914285D02*
X130838152Y-94961904D01*
X130838152Y-94961904D02*
X130885771Y-95009523D01*
X130885771Y-95009523D02*
X130933390Y-95104761D01*
X130933390Y-95104761D02*
X130933390Y-95295237D01*
X130933390Y-95295237D02*
X130981009Y-95390475D01*
X130981009Y-95390475D02*
X131028628Y-95438094D01*
X131028628Y-95438094D02*
X131123866Y-95485713D01*
X131123866Y-95485713D02*
X131314342Y-95485713D01*
X131314342Y-95485713D02*
X131409580Y-95438094D01*
X131409580Y-95438094D02*
X131457200Y-95390475D01*
X131457200Y-95390475D02*
X131504819Y-95295237D01*
X131504819Y-95295237D02*
X131504819Y-95104761D01*
X131504819Y-95104761D02*
X131457200Y-95009523D01*
X131457200Y-95009523D02*
X131409580Y-94961904D01*
X131409580Y-94961904D02*
X131314342Y-94914285D01*
X131314342Y-94914285D02*
X131123866Y-94914285D01*
X131123866Y-94914285D02*
X131028628Y-94961904D01*
X131028628Y-94961904D02*
X130981009Y-95009523D01*
X130981009Y-95009523D02*
X130933390Y-95104761D01*
X123295894Y-89134419D02*
X123228550Y-89134419D01*
X123228550Y-89134419D02*
X123093863Y-89067075D01*
X123093863Y-89067075D02*
X123026520Y-88999732D01*
X123026520Y-88999732D02*
X122959176Y-88865045D01*
X122959176Y-88865045D02*
X122959176Y-88730358D01*
X122959176Y-88730358D02*
X122992848Y-88629343D01*
X122992848Y-88629343D02*
X123093863Y-88460984D01*
X123093863Y-88460984D02*
X123194878Y-88359969D01*
X123194878Y-88359969D02*
X123363237Y-88258953D01*
X123363237Y-88258953D02*
X123464252Y-88225282D01*
X123464252Y-88225282D02*
X123598939Y-88225282D01*
X123598939Y-88225282D02*
X123733626Y-88292625D01*
X123733626Y-88292625D02*
X123800970Y-88359969D01*
X123800970Y-88359969D02*
X123868313Y-88494656D01*
X123868313Y-88494656D02*
X123868313Y-88561999D01*
X124171359Y-88730358D02*
X124642764Y-89201762D01*
X124642764Y-89201762D02*
X123632611Y-89605823D01*
X131383333Y-87654819D02*
X131050000Y-87178628D01*
X130811905Y-87654819D02*
X130811905Y-86654819D01*
X130811905Y-86654819D02*
X131192857Y-86654819D01*
X131192857Y-86654819D02*
X131288095Y-86702438D01*
X131288095Y-86702438D02*
X131335714Y-86750057D01*
X131335714Y-86750057D02*
X131383333Y-86845295D01*
X131383333Y-86845295D02*
X131383333Y-86988152D01*
X131383333Y-86988152D02*
X131335714Y-87083390D01*
X131335714Y-87083390D02*
X131288095Y-87131009D01*
X131288095Y-87131009D02*
X131192857Y-87178628D01*
X131192857Y-87178628D02*
X130811905Y-87178628D01*
X132240476Y-86654819D02*
X132050000Y-86654819D01*
X132050000Y-86654819D02*
X131954762Y-86702438D01*
X131954762Y-86702438D02*
X131907143Y-86750057D01*
X131907143Y-86750057D02*
X131811905Y-86892914D01*
X131811905Y-86892914D02*
X131764286Y-87083390D01*
X131764286Y-87083390D02*
X131764286Y-87464342D01*
X131764286Y-87464342D02*
X131811905Y-87559580D01*
X131811905Y-87559580D02*
X131859524Y-87607200D01*
X131859524Y-87607200D02*
X131954762Y-87654819D01*
X131954762Y-87654819D02*
X132145238Y-87654819D01*
X132145238Y-87654819D02*
X132240476Y-87607200D01*
X132240476Y-87607200D02*
X132288095Y-87559580D01*
X132288095Y-87559580D02*
X132335714Y-87464342D01*
X132335714Y-87464342D02*
X132335714Y-87226247D01*
X132335714Y-87226247D02*
X132288095Y-87131009D01*
X132288095Y-87131009D02*
X132240476Y-87083390D01*
X132240476Y-87083390D02*
X132145238Y-87035771D01*
X132145238Y-87035771D02*
X131954762Y-87035771D01*
X131954762Y-87035771D02*
X131859524Y-87083390D01*
X131859524Y-87083390D02*
X131811905Y-87131009D01*
X131811905Y-87131009D02*
X131764286Y-87226247D01*
D11*
X121841667Y-104439895D02*
X121575000Y-104058942D01*
X121384524Y-104439895D02*
X121384524Y-103639895D01*
X121384524Y-103639895D02*
X121689286Y-103639895D01*
X121689286Y-103639895D02*
X121765476Y-103677990D01*
X121765476Y-103677990D02*
X121803571Y-103716085D01*
X121803571Y-103716085D02*
X121841667Y-103792276D01*
X121841667Y-103792276D02*
X121841667Y-103906561D01*
X121841667Y-103906561D02*
X121803571Y-103982752D01*
X121803571Y-103982752D02*
X121765476Y-104020847D01*
X121765476Y-104020847D02*
X121689286Y-104058942D01*
X121689286Y-104058942D02*
X121384524Y-104058942D01*
X122108333Y-103639895D02*
X122603571Y-103639895D01*
X122603571Y-103639895D02*
X122336905Y-103944657D01*
X122336905Y-103944657D02*
X122451190Y-103944657D01*
X122451190Y-103944657D02*
X122527381Y-103982752D01*
X122527381Y-103982752D02*
X122565476Y-104020847D01*
X122565476Y-104020847D02*
X122603571Y-104097038D01*
X122603571Y-104097038D02*
X122603571Y-104287514D01*
X122603571Y-104287514D02*
X122565476Y-104363704D01*
X122565476Y-104363704D02*
X122527381Y-104401800D01*
X122527381Y-104401800D02*
X122451190Y-104439895D01*
X122451190Y-104439895D02*
X122222619Y-104439895D01*
X122222619Y-104439895D02*
X122146428Y-104401800D01*
X122146428Y-104401800D02*
X122108333Y-104363704D01*
X120541667Y-103389895D02*
X120275000Y-103008942D01*
X120084524Y-103389895D02*
X120084524Y-102589895D01*
X120084524Y-102589895D02*
X120389286Y-102589895D01*
X120389286Y-102589895D02*
X120465476Y-102627990D01*
X120465476Y-102627990D02*
X120503571Y-102666085D01*
X120503571Y-102666085D02*
X120541667Y-102742276D01*
X120541667Y-102742276D02*
X120541667Y-102856561D01*
X120541667Y-102856561D02*
X120503571Y-102932752D01*
X120503571Y-102932752D02*
X120465476Y-102970847D01*
X120465476Y-102970847D02*
X120389286Y-103008942D01*
X120389286Y-103008942D02*
X120084524Y-103008942D01*
X121265476Y-102589895D02*
X120884524Y-102589895D01*
X120884524Y-102589895D02*
X120846428Y-102970847D01*
X120846428Y-102970847D02*
X120884524Y-102932752D01*
X120884524Y-102932752D02*
X120960714Y-102894657D01*
X120960714Y-102894657D02*
X121151190Y-102894657D01*
X121151190Y-102894657D02*
X121227381Y-102932752D01*
X121227381Y-102932752D02*
X121265476Y-102970847D01*
X121265476Y-102970847D02*
X121303571Y-103047038D01*
X121303571Y-103047038D02*
X121303571Y-103237514D01*
X121303571Y-103237514D02*
X121265476Y-103313704D01*
X121265476Y-103313704D02*
X121227381Y-103351800D01*
X121227381Y-103351800D02*
X121151190Y-103389895D01*
X121151190Y-103389895D02*
X120960714Y-103389895D01*
X120960714Y-103389895D02*
X120884524Y-103351800D01*
X120884524Y-103351800D02*
X120846428Y-103313704D01*
D12*
X110057142Y-75309580D02*
X110009523Y-75357200D01*
X110009523Y-75357200D02*
X109866666Y-75404819D01*
X109866666Y-75404819D02*
X109771428Y-75404819D01*
X109771428Y-75404819D02*
X109628571Y-75357200D01*
X109628571Y-75357200D02*
X109533333Y-75261961D01*
X109533333Y-75261961D02*
X109485714Y-75166723D01*
X109485714Y-75166723D02*
X109438095Y-74976247D01*
X109438095Y-74976247D02*
X109438095Y-74833390D01*
X109438095Y-74833390D02*
X109485714Y-74642914D01*
X109485714Y-74642914D02*
X109533333Y-74547676D01*
X109533333Y-74547676D02*
X109628571Y-74452438D01*
X109628571Y-74452438D02*
X109771428Y-74404819D01*
X109771428Y-74404819D02*
X109866666Y-74404819D01*
X109866666Y-74404819D02*
X110009523Y-74452438D01*
X110009523Y-74452438D02*
X110057142Y-74500057D01*
X111009523Y-75404819D02*
X110438095Y-75404819D01*
X110723809Y-75404819D02*
X110723809Y-74404819D01*
X110723809Y-74404819D02*
X110628571Y-74547676D01*
X110628571Y-74547676D02*
X110533333Y-74642914D01*
X110533333Y-74642914D02*
X110438095Y-74690533D01*
X111866666Y-74738152D02*
X111866666Y-75404819D01*
X111628571Y-74357200D02*
X111390476Y-75071485D01*
X111390476Y-75071485D02*
X112009523Y-75071485D01*
D11*
X121414895Y-100414285D02*
X121033942Y-100680952D01*
X121414895Y-100871428D02*
X120614895Y-100871428D01*
X120614895Y-100871428D02*
X120614895Y-100566666D01*
X120614895Y-100566666D02*
X120652990Y-100490476D01*
X120652990Y-100490476D02*
X120691085Y-100452381D01*
X120691085Y-100452381D02*
X120767276Y-100414285D01*
X120767276Y-100414285D02*
X120881561Y-100414285D01*
X120881561Y-100414285D02*
X120957752Y-100452381D01*
X120957752Y-100452381D02*
X120995847Y-100490476D01*
X120995847Y-100490476D02*
X121033942Y-100566666D01*
X121033942Y-100566666D02*
X121033942Y-100871428D01*
X121414895Y-99652381D02*
X121414895Y-100109524D01*
X121414895Y-99880952D02*
X120614895Y-99880952D01*
X120614895Y-99880952D02*
X120729180Y-99957143D01*
X120729180Y-99957143D02*
X120805371Y-100033333D01*
X120805371Y-100033333D02*
X120843466Y-100109524D01*
X120614895Y-98928571D02*
X120614895Y-99309523D01*
X120614895Y-99309523D02*
X120995847Y-99347619D01*
X120995847Y-99347619D02*
X120957752Y-99309523D01*
X120957752Y-99309523D02*
X120919657Y-99233333D01*
X120919657Y-99233333D02*
X120919657Y-99042857D01*
X120919657Y-99042857D02*
X120957752Y-98966666D01*
X120957752Y-98966666D02*
X120995847Y-98928571D01*
X120995847Y-98928571D02*
X121072038Y-98890476D01*
X121072038Y-98890476D02*
X121262514Y-98890476D01*
X121262514Y-98890476D02*
X121338704Y-98928571D01*
X121338704Y-98928571D02*
X121376800Y-98966666D01*
X121376800Y-98966666D02*
X121414895Y-99042857D01*
X121414895Y-99042857D02*
X121414895Y-99233333D01*
X121414895Y-99233333D02*
X121376800Y-99309523D01*
X121376800Y-99309523D02*
X121338704Y-99347619D01*
X112395714Y-71058704D02*
X112357618Y-71096800D01*
X112357618Y-71096800D02*
X112243333Y-71134895D01*
X112243333Y-71134895D02*
X112167142Y-71134895D01*
X112167142Y-71134895D02*
X112052856Y-71096800D01*
X112052856Y-71096800D02*
X111976666Y-71020609D01*
X111976666Y-71020609D02*
X111938571Y-70944419D01*
X111938571Y-70944419D02*
X111900475Y-70792038D01*
X111900475Y-70792038D02*
X111900475Y-70677752D01*
X111900475Y-70677752D02*
X111938571Y-70525371D01*
X111938571Y-70525371D02*
X111976666Y-70449180D01*
X111976666Y-70449180D02*
X112052856Y-70372990D01*
X112052856Y-70372990D02*
X112167142Y-70334895D01*
X112167142Y-70334895D02*
X112243333Y-70334895D01*
X112243333Y-70334895D02*
X112357618Y-70372990D01*
X112357618Y-70372990D02*
X112395714Y-70411085D01*
X113157618Y-71134895D02*
X112700475Y-71134895D01*
X112929047Y-71134895D02*
X112929047Y-70334895D01*
X112929047Y-70334895D02*
X112852856Y-70449180D01*
X112852856Y-70449180D02*
X112776666Y-70525371D01*
X112776666Y-70525371D02*
X112700475Y-70563466D01*
X113462380Y-70411085D02*
X113500476Y-70372990D01*
X113500476Y-70372990D02*
X113576666Y-70334895D01*
X113576666Y-70334895D02*
X113767142Y-70334895D01*
X113767142Y-70334895D02*
X113843333Y-70372990D01*
X113843333Y-70372990D02*
X113881428Y-70411085D01*
X113881428Y-70411085D02*
X113919523Y-70487276D01*
X113919523Y-70487276D02*
X113919523Y-70563466D01*
X113919523Y-70563466D02*
X113881428Y-70677752D01*
X113881428Y-70677752D02*
X113424285Y-71134895D01*
X113424285Y-71134895D02*
X113919523Y-71134895D01*
D12*
X118404761Y-104650057D02*
X118309523Y-104602438D01*
X118309523Y-104602438D02*
X118214285Y-104507200D01*
X118214285Y-104507200D02*
X118071428Y-104364342D01*
X118071428Y-104364342D02*
X117976190Y-104316723D01*
X117976190Y-104316723D02*
X117880952Y-104316723D01*
X117928571Y-104554819D02*
X117833333Y-104507200D01*
X117833333Y-104507200D02*
X117738095Y-104411961D01*
X117738095Y-104411961D02*
X117690476Y-104221485D01*
X117690476Y-104221485D02*
X117690476Y-103888152D01*
X117690476Y-103888152D02*
X117738095Y-103697676D01*
X117738095Y-103697676D02*
X117833333Y-103602438D01*
X117833333Y-103602438D02*
X117928571Y-103554819D01*
X117928571Y-103554819D02*
X118119047Y-103554819D01*
X118119047Y-103554819D02*
X118214285Y-103602438D01*
X118214285Y-103602438D02*
X118309523Y-103697676D01*
X118309523Y-103697676D02*
X118357142Y-103888152D01*
X118357142Y-103888152D02*
X118357142Y-104221485D01*
X118357142Y-104221485D02*
X118309523Y-104411961D01*
X118309523Y-104411961D02*
X118214285Y-104507200D01*
X118214285Y-104507200D02*
X118119047Y-104554819D01*
X118119047Y-104554819D02*
X117928571Y-104554819D01*
X118738095Y-103650057D02*
X118785714Y-103602438D01*
X118785714Y-103602438D02*
X118880952Y-103554819D01*
X118880952Y-103554819D02*
X119119047Y-103554819D01*
X119119047Y-103554819D02*
X119214285Y-103602438D01*
X119214285Y-103602438D02*
X119261904Y-103650057D01*
X119261904Y-103650057D02*
X119309523Y-103745295D01*
X119309523Y-103745295D02*
X119309523Y-103840533D01*
X119309523Y-103840533D02*
X119261904Y-103983390D01*
X119261904Y-103983390D02*
X118690476Y-104554819D01*
X118690476Y-104554819D02*
X119309523Y-104554819D01*
X112467142Y-114974819D02*
X112133809Y-114498628D01*
X111895714Y-114974819D02*
X111895714Y-113974819D01*
X111895714Y-113974819D02*
X112276666Y-113974819D01*
X112276666Y-113974819D02*
X112371904Y-114022438D01*
X112371904Y-114022438D02*
X112419523Y-114070057D01*
X112419523Y-114070057D02*
X112467142Y-114165295D01*
X112467142Y-114165295D02*
X112467142Y-114308152D01*
X112467142Y-114308152D02*
X112419523Y-114403390D01*
X112419523Y-114403390D02*
X112371904Y-114451009D01*
X112371904Y-114451009D02*
X112276666Y-114498628D01*
X112276666Y-114498628D02*
X111895714Y-114498628D01*
X113419523Y-114974819D02*
X112848095Y-114974819D01*
X113133809Y-114974819D02*
X113133809Y-113974819D01*
X113133809Y-113974819D02*
X113038571Y-114117676D01*
X113038571Y-114117676D02*
X112943333Y-114212914D01*
X112943333Y-114212914D02*
X112848095Y-114260533D01*
X113990952Y-114403390D02*
X113895714Y-114355771D01*
X113895714Y-114355771D02*
X113848095Y-114308152D01*
X113848095Y-114308152D02*
X113800476Y-114212914D01*
X113800476Y-114212914D02*
X113800476Y-114165295D01*
X113800476Y-114165295D02*
X113848095Y-114070057D01*
X113848095Y-114070057D02*
X113895714Y-114022438D01*
X113895714Y-114022438D02*
X113990952Y-113974819D01*
X113990952Y-113974819D02*
X114181428Y-113974819D01*
X114181428Y-113974819D02*
X114276666Y-114022438D01*
X114276666Y-114022438D02*
X114324285Y-114070057D01*
X114324285Y-114070057D02*
X114371904Y-114165295D01*
X114371904Y-114165295D02*
X114371904Y-114212914D01*
X114371904Y-114212914D02*
X114324285Y-114308152D01*
X114324285Y-114308152D02*
X114276666Y-114355771D01*
X114276666Y-114355771D02*
X114181428Y-114403390D01*
X114181428Y-114403390D02*
X113990952Y-114403390D01*
X113990952Y-114403390D02*
X113895714Y-114451009D01*
X113895714Y-114451009D02*
X113848095Y-114498628D01*
X113848095Y-114498628D02*
X113800476Y-114593866D01*
X113800476Y-114593866D02*
X113800476Y-114784342D01*
X113800476Y-114784342D02*
X113848095Y-114879580D01*
X113848095Y-114879580D02*
X113895714Y-114927200D01*
X113895714Y-114927200D02*
X113990952Y-114974819D01*
X113990952Y-114974819D02*
X114181428Y-114974819D01*
X114181428Y-114974819D02*
X114276666Y-114927200D01*
X114276666Y-114927200D02*
X114324285Y-114879580D01*
X114324285Y-114879580D02*
X114371904Y-114784342D01*
X114371904Y-114784342D02*
X114371904Y-114593866D01*
X114371904Y-114593866D02*
X114324285Y-114498628D01*
X114324285Y-114498628D02*
X114276666Y-114451009D01*
X114276666Y-114451009D02*
X114181428Y-114403390D01*
X130383754Y-88829456D02*
X129811335Y-88728441D01*
X129979693Y-89233517D02*
X129272587Y-88526410D01*
X129272587Y-88526410D02*
X129541961Y-88257036D01*
X129541961Y-88257036D02*
X129642976Y-88223364D01*
X129642976Y-88223364D02*
X129710319Y-88223364D01*
X129710319Y-88223364D02*
X129811335Y-88257036D01*
X129811335Y-88257036D02*
X129912350Y-88358051D01*
X129912350Y-88358051D02*
X129946022Y-88459067D01*
X129946022Y-88459067D02*
X129946022Y-88526410D01*
X129946022Y-88526410D02*
X129912350Y-88627425D01*
X129912350Y-88627425D02*
X129642976Y-88896799D01*
X130383754Y-88021334D02*
X130282739Y-88055006D01*
X130282739Y-88055006D02*
X130215396Y-88055006D01*
X130215396Y-88055006D02*
X130114380Y-88021334D01*
X130114380Y-88021334D02*
X130080709Y-87987662D01*
X130080709Y-87987662D02*
X130047037Y-87886647D01*
X130047037Y-87886647D02*
X130047037Y-87819303D01*
X130047037Y-87819303D02*
X130080709Y-87718288D01*
X130080709Y-87718288D02*
X130215396Y-87583601D01*
X130215396Y-87583601D02*
X130316411Y-87549929D01*
X130316411Y-87549929D02*
X130383754Y-87549929D01*
X130383754Y-87549929D02*
X130484770Y-87583601D01*
X130484770Y-87583601D02*
X130518441Y-87617273D01*
X130518441Y-87617273D02*
X130552113Y-87718288D01*
X130552113Y-87718288D02*
X130552113Y-87785632D01*
X130552113Y-87785632D02*
X130518441Y-87886647D01*
X130518441Y-87886647D02*
X130383754Y-88021334D01*
X130383754Y-88021334D02*
X130350083Y-88122349D01*
X130350083Y-88122349D02*
X130350083Y-88189693D01*
X130350083Y-88189693D02*
X130383754Y-88290708D01*
X130383754Y-88290708D02*
X130518441Y-88425395D01*
X130518441Y-88425395D02*
X130619457Y-88459067D01*
X130619457Y-88459067D02*
X130686800Y-88459067D01*
X130686800Y-88459067D02*
X130787815Y-88425395D01*
X130787815Y-88425395D02*
X130922502Y-88290708D01*
X130922502Y-88290708D02*
X130956174Y-88189693D01*
X130956174Y-88189693D02*
X130956174Y-88122349D01*
X130956174Y-88122349D02*
X130922502Y-88021334D01*
X130922502Y-88021334D02*
X130787815Y-87886647D01*
X130787815Y-87886647D02*
X130686800Y-87852975D01*
X130686800Y-87852975D02*
X130619457Y-87852975D01*
X130619457Y-87852975D02*
X130518441Y-87886647D01*
D11*
X104138704Y-115789285D02*
X104176800Y-115827381D01*
X104176800Y-115827381D02*
X104214895Y-115941666D01*
X104214895Y-115941666D02*
X104214895Y-116017857D01*
X104214895Y-116017857D02*
X104176800Y-116132143D01*
X104176800Y-116132143D02*
X104100609Y-116208333D01*
X104100609Y-116208333D02*
X104024419Y-116246428D01*
X104024419Y-116246428D02*
X103872038Y-116284524D01*
X103872038Y-116284524D02*
X103757752Y-116284524D01*
X103757752Y-116284524D02*
X103605371Y-116246428D01*
X103605371Y-116246428D02*
X103529180Y-116208333D01*
X103529180Y-116208333D02*
X103452990Y-116132143D01*
X103452990Y-116132143D02*
X103414895Y-116017857D01*
X103414895Y-116017857D02*
X103414895Y-115941666D01*
X103414895Y-115941666D02*
X103452990Y-115827381D01*
X103452990Y-115827381D02*
X103491085Y-115789285D01*
X104214895Y-115027381D02*
X104214895Y-115484524D01*
X104214895Y-115255952D02*
X103414895Y-115255952D01*
X103414895Y-115255952D02*
X103529180Y-115332143D01*
X103529180Y-115332143D02*
X103605371Y-115408333D01*
X103605371Y-115408333D02*
X103643466Y-115484524D01*
X103414895Y-114760714D02*
X103414895Y-114265476D01*
X103414895Y-114265476D02*
X103719657Y-114532142D01*
X103719657Y-114532142D02*
X103719657Y-114417857D01*
X103719657Y-114417857D02*
X103757752Y-114341666D01*
X103757752Y-114341666D02*
X103795847Y-114303571D01*
X103795847Y-114303571D02*
X103872038Y-114265476D01*
X103872038Y-114265476D02*
X104062514Y-114265476D01*
X104062514Y-114265476D02*
X104138704Y-114303571D01*
X104138704Y-114303571D02*
X104176800Y-114341666D01*
X104176800Y-114341666D02*
X104214895Y-114417857D01*
X104214895Y-114417857D02*
X104214895Y-114646428D01*
X104214895Y-114646428D02*
X104176800Y-114722619D01*
X104176800Y-114722619D02*
X104138704Y-114760714D01*
X108764285Y-114514895D02*
X108564285Y-114133942D01*
X108421428Y-114514895D02*
X108421428Y-113714895D01*
X108421428Y-113714895D02*
X108649999Y-113714895D01*
X108649999Y-113714895D02*
X108707142Y-113752990D01*
X108707142Y-113752990D02*
X108735713Y-113791085D01*
X108735713Y-113791085D02*
X108764285Y-113867276D01*
X108764285Y-113867276D02*
X108764285Y-113981561D01*
X108764285Y-113981561D02*
X108735713Y-114057752D01*
X108735713Y-114057752D02*
X108707142Y-114095847D01*
X108707142Y-114095847D02*
X108649999Y-114133942D01*
X108649999Y-114133942D02*
X108421428Y-114133942D01*
X109335713Y-114514895D02*
X108992856Y-114514895D01*
X109164285Y-114514895D02*
X109164285Y-113714895D01*
X109164285Y-113714895D02*
X109107142Y-113829180D01*
X109107142Y-113829180D02*
X109049999Y-113905371D01*
X109049999Y-113905371D02*
X108992856Y-113943466D01*
X109535714Y-113714895D02*
X109935714Y-113714895D01*
X109935714Y-113714895D02*
X109678571Y-114514895D01*
X114864895Y-100614285D02*
X114483942Y-100880952D01*
X114864895Y-101071428D02*
X114064895Y-101071428D01*
X114064895Y-101071428D02*
X114064895Y-100766666D01*
X114064895Y-100766666D02*
X114102990Y-100690476D01*
X114102990Y-100690476D02*
X114141085Y-100652381D01*
X114141085Y-100652381D02*
X114217276Y-100614285D01*
X114217276Y-100614285D02*
X114331561Y-100614285D01*
X114331561Y-100614285D02*
X114407752Y-100652381D01*
X114407752Y-100652381D02*
X114445847Y-100690476D01*
X114445847Y-100690476D02*
X114483942Y-100766666D01*
X114483942Y-100766666D02*
X114483942Y-101071428D01*
X114864895Y-99852381D02*
X114864895Y-100309524D01*
X114864895Y-100080952D02*
X114064895Y-100080952D01*
X114064895Y-100080952D02*
X114179180Y-100157143D01*
X114179180Y-100157143D02*
X114255371Y-100233333D01*
X114255371Y-100233333D02*
X114293466Y-100309524D01*
X114064895Y-99166666D02*
X114064895Y-99319047D01*
X114064895Y-99319047D02*
X114102990Y-99395238D01*
X114102990Y-99395238D02*
X114141085Y-99433333D01*
X114141085Y-99433333D02*
X114255371Y-99509523D01*
X114255371Y-99509523D02*
X114407752Y-99547619D01*
X114407752Y-99547619D02*
X114712514Y-99547619D01*
X114712514Y-99547619D02*
X114788704Y-99509523D01*
X114788704Y-99509523D02*
X114826800Y-99471428D01*
X114826800Y-99471428D02*
X114864895Y-99395238D01*
X114864895Y-99395238D02*
X114864895Y-99242857D01*
X114864895Y-99242857D02*
X114826800Y-99166666D01*
X114826800Y-99166666D02*
X114788704Y-99128571D01*
X114788704Y-99128571D02*
X114712514Y-99090476D01*
X114712514Y-99090476D02*
X114522038Y-99090476D01*
X114522038Y-99090476D02*
X114445847Y-99128571D01*
X114445847Y-99128571D02*
X114407752Y-99166666D01*
X114407752Y-99166666D02*
X114369657Y-99242857D01*
X114369657Y-99242857D02*
X114369657Y-99395238D01*
X114369657Y-99395238D02*
X114407752Y-99471428D01*
X114407752Y-99471428D02*
X114445847Y-99509523D01*
X114445847Y-99509523D02*
X114522038Y-99547619D01*
X112736667Y-69358704D02*
X112698571Y-69396800D01*
X112698571Y-69396800D02*
X112584286Y-69434895D01*
X112584286Y-69434895D02*
X112508095Y-69434895D01*
X112508095Y-69434895D02*
X112393809Y-69396800D01*
X112393809Y-69396800D02*
X112317619Y-69320609D01*
X112317619Y-69320609D02*
X112279524Y-69244419D01*
X112279524Y-69244419D02*
X112241428Y-69092038D01*
X112241428Y-69092038D02*
X112241428Y-68977752D01*
X112241428Y-68977752D02*
X112279524Y-68825371D01*
X112279524Y-68825371D02*
X112317619Y-68749180D01*
X112317619Y-68749180D02*
X112393809Y-68672990D01*
X112393809Y-68672990D02*
X112508095Y-68634895D01*
X112508095Y-68634895D02*
X112584286Y-68634895D01*
X112584286Y-68634895D02*
X112698571Y-68672990D01*
X112698571Y-68672990D02*
X112736667Y-68711085D01*
X113003333Y-68634895D02*
X113498571Y-68634895D01*
X113498571Y-68634895D02*
X113231905Y-68939657D01*
X113231905Y-68939657D02*
X113346190Y-68939657D01*
X113346190Y-68939657D02*
X113422381Y-68977752D01*
X113422381Y-68977752D02*
X113460476Y-69015847D01*
X113460476Y-69015847D02*
X113498571Y-69092038D01*
X113498571Y-69092038D02*
X113498571Y-69282514D01*
X113498571Y-69282514D02*
X113460476Y-69358704D01*
X113460476Y-69358704D02*
X113422381Y-69396800D01*
X113422381Y-69396800D02*
X113346190Y-69434895D01*
X113346190Y-69434895D02*
X113117619Y-69434895D01*
X113117619Y-69434895D02*
X113041428Y-69396800D01*
X113041428Y-69396800D02*
X113003333Y-69358704D01*
X103108704Y-97013332D02*
X103146800Y-97051428D01*
X103146800Y-97051428D02*
X103184895Y-97165713D01*
X103184895Y-97165713D02*
X103184895Y-97241904D01*
X103184895Y-97241904D02*
X103146800Y-97356190D01*
X103146800Y-97356190D02*
X103070609Y-97432380D01*
X103070609Y-97432380D02*
X102994419Y-97470475D01*
X102994419Y-97470475D02*
X102842038Y-97508571D01*
X102842038Y-97508571D02*
X102727752Y-97508571D01*
X102727752Y-97508571D02*
X102575371Y-97470475D01*
X102575371Y-97470475D02*
X102499180Y-97432380D01*
X102499180Y-97432380D02*
X102422990Y-97356190D01*
X102422990Y-97356190D02*
X102384895Y-97241904D01*
X102384895Y-97241904D02*
X102384895Y-97165713D01*
X102384895Y-97165713D02*
X102422990Y-97051428D01*
X102422990Y-97051428D02*
X102461085Y-97013332D01*
X103184895Y-96251428D02*
X103184895Y-96708571D01*
X103184895Y-96479999D02*
X102384895Y-96479999D01*
X102384895Y-96479999D02*
X102499180Y-96556190D01*
X102499180Y-96556190D02*
X102575371Y-96632380D01*
X102575371Y-96632380D02*
X102613466Y-96708571D01*
D12*
X114674819Y-111361904D02*
X115484342Y-111361904D01*
X115484342Y-111361904D02*
X115579580Y-111314285D01*
X115579580Y-111314285D02*
X115627200Y-111266666D01*
X115627200Y-111266666D02*
X115674819Y-111171428D01*
X115674819Y-111171428D02*
X115674819Y-110980952D01*
X115674819Y-110980952D02*
X115627200Y-110885714D01*
X115627200Y-110885714D02*
X115579580Y-110838095D01*
X115579580Y-110838095D02*
X115484342Y-110790476D01*
X115484342Y-110790476D02*
X114674819Y-110790476D01*
X115008152Y-109885714D02*
X115674819Y-109885714D01*
X114627200Y-110123809D02*
X115341485Y-110361904D01*
X115341485Y-110361904D02*
X115341485Y-109742857D01*
X123747887Y-87506411D02*
X123680543Y-87506411D01*
X123680543Y-87506411D02*
X123545856Y-87439067D01*
X123545856Y-87439067D02*
X123478513Y-87371724D01*
X123478513Y-87371724D02*
X123411169Y-87237037D01*
X123411169Y-87237037D02*
X123411169Y-87102350D01*
X123411169Y-87102350D02*
X123444841Y-87001335D01*
X123444841Y-87001335D02*
X123545856Y-86832976D01*
X123545856Y-86832976D02*
X123646871Y-86731961D01*
X123646871Y-86731961D02*
X123815230Y-86630945D01*
X123815230Y-86630945D02*
X123916245Y-86597274D01*
X123916245Y-86597274D02*
X124050932Y-86597274D01*
X124050932Y-86597274D02*
X124185619Y-86664617D01*
X124185619Y-86664617D02*
X124252963Y-86731961D01*
X124252963Y-86731961D02*
X124320306Y-86866648D01*
X124320306Y-86866648D02*
X124320306Y-86933991D01*
X124993741Y-87472739D02*
X124859054Y-87338052D01*
X124859054Y-87338052D02*
X124758039Y-87304380D01*
X124758039Y-87304380D02*
X124690696Y-87304380D01*
X124690696Y-87304380D02*
X124522337Y-87338052D01*
X124522337Y-87338052D02*
X124353978Y-87439067D01*
X124353978Y-87439067D02*
X124084604Y-87708441D01*
X124084604Y-87708441D02*
X124050932Y-87809457D01*
X124050932Y-87809457D02*
X124050932Y-87876800D01*
X124050932Y-87876800D02*
X124084604Y-87977815D01*
X124084604Y-87977815D02*
X124219291Y-88112502D01*
X124219291Y-88112502D02*
X124320306Y-88146174D01*
X124320306Y-88146174D02*
X124387650Y-88146174D01*
X124387650Y-88146174D02*
X124488665Y-88112502D01*
X124488665Y-88112502D02*
X124657024Y-87944144D01*
X124657024Y-87944144D02*
X124690696Y-87843128D01*
X124690696Y-87843128D02*
X124690696Y-87775785D01*
X124690696Y-87775785D02*
X124657024Y-87674770D01*
X124657024Y-87674770D02*
X124522337Y-87540083D01*
X124522337Y-87540083D02*
X124421322Y-87506411D01*
X124421322Y-87506411D02*
X124353978Y-87506411D01*
X124353978Y-87506411D02*
X124252963Y-87540083D01*
X107154819Y-104413094D02*
X106154819Y-104413094D01*
X106154819Y-104413094D02*
X106154819Y-104174999D01*
X106154819Y-104174999D02*
X106202438Y-104032142D01*
X106202438Y-104032142D02*
X106297676Y-103936904D01*
X106297676Y-103936904D02*
X106392914Y-103889285D01*
X106392914Y-103889285D02*
X106583390Y-103841666D01*
X106583390Y-103841666D02*
X106726247Y-103841666D01*
X106726247Y-103841666D02*
X106916723Y-103889285D01*
X106916723Y-103889285D02*
X107011961Y-103936904D01*
X107011961Y-103936904D02*
X107107200Y-104032142D01*
X107107200Y-104032142D02*
X107154819Y-104174999D01*
X107154819Y-104174999D02*
X107154819Y-104413094D01*
X107154819Y-102889285D02*
X107154819Y-103460713D01*
X107154819Y-103174999D02*
X106154819Y-103174999D01*
X106154819Y-103174999D02*
X106297676Y-103270237D01*
X106297676Y-103270237D02*
X106392914Y-103365475D01*
X106392914Y-103365475D02*
X106440533Y-103460713D01*
X112783333Y-72654819D02*
X112450000Y-72178628D01*
X112211905Y-72654819D02*
X112211905Y-71654819D01*
X112211905Y-71654819D02*
X112592857Y-71654819D01*
X112592857Y-71654819D02*
X112688095Y-71702438D01*
X112688095Y-71702438D02*
X112735714Y-71750057D01*
X112735714Y-71750057D02*
X112783333Y-71845295D01*
X112783333Y-71845295D02*
X112783333Y-71988152D01*
X112783333Y-71988152D02*
X112735714Y-72083390D01*
X112735714Y-72083390D02*
X112688095Y-72131009D01*
X112688095Y-72131009D02*
X112592857Y-72178628D01*
X112592857Y-72178628D02*
X112211905Y-72178628D01*
X113116667Y-71654819D02*
X113783333Y-71654819D01*
X113783333Y-71654819D02*
X113354762Y-72654819D01*
D11*
X120128325Y-88354363D02*
X120209137Y-87896427D01*
X119805076Y-88031114D02*
X120370761Y-87465429D01*
X120370761Y-87465429D02*
X120586260Y-87680928D01*
X120586260Y-87680928D02*
X120613198Y-87761740D01*
X120613198Y-87761740D02*
X120613198Y-87815615D01*
X120613198Y-87815615D02*
X120586260Y-87896427D01*
X120586260Y-87896427D02*
X120505448Y-87977240D01*
X120505448Y-87977240D02*
X120424636Y-88004177D01*
X120424636Y-88004177D02*
X120370761Y-88004177D01*
X120370761Y-88004177D02*
X120289949Y-87977240D01*
X120289949Y-87977240D02*
X120074450Y-87761740D01*
X120667073Y-88893111D02*
X120343824Y-88569863D01*
X120505448Y-88731487D02*
X121071134Y-88165802D01*
X121071134Y-88165802D02*
X120936447Y-88192739D01*
X120936447Y-88192739D02*
X120828697Y-88192739D01*
X120828697Y-88192739D02*
X120747885Y-88165802D01*
X121582944Y-88677612D02*
X121636819Y-88731487D01*
X121636819Y-88731487D02*
X121663757Y-88812299D01*
X121663757Y-88812299D02*
X121663757Y-88866174D01*
X121663757Y-88866174D02*
X121636819Y-88946986D01*
X121636819Y-88946986D02*
X121556007Y-89081673D01*
X121556007Y-89081673D02*
X121421320Y-89216360D01*
X121421320Y-89216360D02*
X121286633Y-89297173D01*
X121286633Y-89297173D02*
X121205821Y-89324110D01*
X121205821Y-89324110D02*
X121151946Y-89324110D01*
X121151946Y-89324110D02*
X121071134Y-89297173D01*
X121071134Y-89297173D02*
X121017259Y-89243298D01*
X121017259Y-89243298D02*
X120990322Y-89162486D01*
X120990322Y-89162486D02*
X120990322Y-89108611D01*
X120990322Y-89108611D02*
X121017259Y-89027799D01*
X121017259Y-89027799D02*
X121098071Y-88893112D01*
X121098071Y-88893112D02*
X121232758Y-88758424D01*
X121232758Y-88758424D02*
X121367445Y-88677612D01*
X121367445Y-88677612D02*
X121448257Y-88650675D01*
X121448257Y-88650675D02*
X121502132Y-88650675D01*
X121502132Y-88650675D02*
X121582944Y-88677612D01*
X123814895Y-99483332D02*
X123433942Y-99749999D01*
X123814895Y-99940475D02*
X123014895Y-99940475D01*
X123014895Y-99940475D02*
X123014895Y-99635713D01*
X123014895Y-99635713D02*
X123052990Y-99559523D01*
X123052990Y-99559523D02*
X123091085Y-99521428D01*
X123091085Y-99521428D02*
X123167276Y-99483332D01*
X123167276Y-99483332D02*
X123281561Y-99483332D01*
X123281561Y-99483332D02*
X123357752Y-99521428D01*
X123357752Y-99521428D02*
X123395847Y-99559523D01*
X123395847Y-99559523D02*
X123433942Y-99635713D01*
X123433942Y-99635713D02*
X123433942Y-99940475D01*
X123814895Y-98721428D02*
X123814895Y-99178571D01*
X123814895Y-98949999D02*
X123014895Y-98949999D01*
X123014895Y-98949999D02*
X123129180Y-99026190D01*
X123129180Y-99026190D02*
X123205371Y-99102380D01*
X123205371Y-99102380D02*
X123243466Y-99178571D01*
X123441667Y-100939895D02*
X123175000Y-100558942D01*
X122984524Y-100939895D02*
X122984524Y-100139895D01*
X122984524Y-100139895D02*
X123289286Y-100139895D01*
X123289286Y-100139895D02*
X123365476Y-100177990D01*
X123365476Y-100177990D02*
X123403571Y-100216085D01*
X123403571Y-100216085D02*
X123441667Y-100292276D01*
X123441667Y-100292276D02*
X123441667Y-100406561D01*
X123441667Y-100406561D02*
X123403571Y-100482752D01*
X123403571Y-100482752D02*
X123365476Y-100520847D01*
X123365476Y-100520847D02*
X123289286Y-100558942D01*
X123289286Y-100558942D02*
X122984524Y-100558942D01*
X123746428Y-100216085D02*
X123784524Y-100177990D01*
X123784524Y-100177990D02*
X123860714Y-100139895D01*
X123860714Y-100139895D02*
X124051190Y-100139895D01*
X124051190Y-100139895D02*
X124127381Y-100177990D01*
X124127381Y-100177990D02*
X124165476Y-100216085D01*
X124165476Y-100216085D02*
X124203571Y-100292276D01*
X124203571Y-100292276D02*
X124203571Y-100368466D01*
X124203571Y-100368466D02*
X124165476Y-100482752D01*
X124165476Y-100482752D02*
X123708333Y-100939895D01*
X123708333Y-100939895D02*
X124203571Y-100939895D01*
X130038704Y-96135714D02*
X130076800Y-96164286D01*
X130076800Y-96164286D02*
X130114895Y-96250000D01*
X130114895Y-96250000D02*
X130114895Y-96307143D01*
X130114895Y-96307143D02*
X130076800Y-96392857D01*
X130076800Y-96392857D02*
X130000609Y-96450000D01*
X130000609Y-96450000D02*
X129924419Y-96478571D01*
X129924419Y-96478571D02*
X129772038Y-96507143D01*
X129772038Y-96507143D02*
X129657752Y-96507143D01*
X129657752Y-96507143D02*
X129505371Y-96478571D01*
X129505371Y-96478571D02*
X129429180Y-96450000D01*
X129429180Y-96450000D02*
X129352990Y-96392857D01*
X129352990Y-96392857D02*
X129314895Y-96307143D01*
X129314895Y-96307143D02*
X129314895Y-96250000D01*
X129314895Y-96250000D02*
X129352990Y-96164286D01*
X129352990Y-96164286D02*
X129391085Y-96135714D01*
X130114895Y-95564286D02*
X130114895Y-95907143D01*
X130114895Y-95735714D02*
X129314895Y-95735714D01*
X129314895Y-95735714D02*
X129429180Y-95792857D01*
X129429180Y-95792857D02*
X129505371Y-95850000D01*
X129505371Y-95850000D02*
X129543466Y-95907143D01*
X129314895Y-95192857D02*
X129314895Y-95135714D01*
X129314895Y-95135714D02*
X129352990Y-95078571D01*
X129352990Y-95078571D02*
X129391085Y-95050000D01*
X129391085Y-95050000D02*
X129467276Y-95021428D01*
X129467276Y-95021428D02*
X129619657Y-94992857D01*
X129619657Y-94992857D02*
X129810133Y-94992857D01*
X129810133Y-94992857D02*
X129962514Y-95021428D01*
X129962514Y-95021428D02*
X130038704Y-95050000D01*
X130038704Y-95050000D02*
X130076800Y-95078571D01*
X130076800Y-95078571D02*
X130114895Y-95135714D01*
X130114895Y-95135714D02*
X130114895Y-95192857D01*
X130114895Y-95192857D02*
X130076800Y-95250000D01*
X130076800Y-95250000D02*
X130038704Y-95278571D01*
X130038704Y-95278571D02*
X129962514Y-95307142D01*
X129962514Y-95307142D02*
X129810133Y-95335714D01*
X129810133Y-95335714D02*
X129619657Y-95335714D01*
X129619657Y-95335714D02*
X129467276Y-95307142D01*
X129467276Y-95307142D02*
X129391085Y-95278571D01*
X129391085Y-95278571D02*
X129352990Y-95250000D01*
X129352990Y-95250000D02*
X129314895Y-95192857D01*
X127066667Y-103389895D02*
X126800000Y-103008942D01*
X126609524Y-103389895D02*
X126609524Y-102589895D01*
X126609524Y-102589895D02*
X126914286Y-102589895D01*
X126914286Y-102589895D02*
X126990476Y-102627990D01*
X126990476Y-102627990D02*
X127028571Y-102666085D01*
X127028571Y-102666085D02*
X127066667Y-102742276D01*
X127066667Y-102742276D02*
X127066667Y-102856561D01*
X127066667Y-102856561D02*
X127028571Y-102932752D01*
X127028571Y-102932752D02*
X126990476Y-102970847D01*
X126990476Y-102970847D02*
X126914286Y-103008942D01*
X126914286Y-103008942D02*
X126609524Y-103008942D01*
X127752381Y-102856561D02*
X127752381Y-103389895D01*
X127561905Y-102551800D02*
X127371428Y-103123228D01*
X127371428Y-103123228D02*
X127866667Y-103123228D01*
D12*
X117454761Y-96600057D02*
X117359523Y-96552438D01*
X117359523Y-96552438D02*
X117264285Y-96457200D01*
X117264285Y-96457200D02*
X117121428Y-96314342D01*
X117121428Y-96314342D02*
X117026190Y-96266723D01*
X117026190Y-96266723D02*
X116930952Y-96266723D01*
X116978571Y-96504819D02*
X116883333Y-96457200D01*
X116883333Y-96457200D02*
X116788095Y-96361961D01*
X116788095Y-96361961D02*
X116740476Y-96171485D01*
X116740476Y-96171485D02*
X116740476Y-95838152D01*
X116740476Y-95838152D02*
X116788095Y-95647676D01*
X116788095Y-95647676D02*
X116883333Y-95552438D01*
X116883333Y-95552438D02*
X116978571Y-95504819D01*
X116978571Y-95504819D02*
X117169047Y-95504819D01*
X117169047Y-95504819D02*
X117264285Y-95552438D01*
X117264285Y-95552438D02*
X117359523Y-95647676D01*
X117359523Y-95647676D02*
X117407142Y-95838152D01*
X117407142Y-95838152D02*
X117407142Y-96171485D01*
X117407142Y-96171485D02*
X117359523Y-96361961D01*
X117359523Y-96361961D02*
X117264285Y-96457200D01*
X117264285Y-96457200D02*
X117169047Y-96504819D01*
X117169047Y-96504819D02*
X116978571Y-96504819D01*
X118359523Y-96504819D02*
X117788095Y-96504819D01*
X118073809Y-96504819D02*
X118073809Y-95504819D01*
X118073809Y-95504819D02*
X117978571Y-95647676D01*
X117978571Y-95647676D02*
X117883333Y-95742914D01*
X117883333Y-95742914D02*
X117788095Y-95790533D01*
X116947142Y-92514819D02*
X116613809Y-92038628D01*
X116375714Y-92514819D02*
X116375714Y-91514819D01*
X116375714Y-91514819D02*
X116756666Y-91514819D01*
X116756666Y-91514819D02*
X116851904Y-91562438D01*
X116851904Y-91562438D02*
X116899523Y-91610057D01*
X116899523Y-91610057D02*
X116947142Y-91705295D01*
X116947142Y-91705295D02*
X116947142Y-91848152D01*
X116947142Y-91848152D02*
X116899523Y-91943390D01*
X116899523Y-91943390D02*
X116851904Y-91991009D01*
X116851904Y-91991009D02*
X116756666Y-92038628D01*
X116756666Y-92038628D02*
X116375714Y-92038628D01*
X117899523Y-92514819D02*
X117328095Y-92514819D01*
X117613809Y-92514819D02*
X117613809Y-91514819D01*
X117613809Y-91514819D02*
X117518571Y-91657676D01*
X117518571Y-91657676D02*
X117423333Y-91752914D01*
X117423333Y-91752914D02*
X117328095Y-91800533D01*
X118232857Y-91514819D02*
X118851904Y-91514819D01*
X118851904Y-91514819D02*
X118518571Y-91895771D01*
X118518571Y-91895771D02*
X118661428Y-91895771D01*
X118661428Y-91895771D02*
X118756666Y-91943390D01*
X118756666Y-91943390D02*
X118804285Y-91991009D01*
X118804285Y-91991009D02*
X118851904Y-92086247D01*
X118851904Y-92086247D02*
X118851904Y-92324342D01*
X118851904Y-92324342D02*
X118804285Y-92419580D01*
X118804285Y-92419580D02*
X118756666Y-92467200D01*
X118756666Y-92467200D02*
X118661428Y-92514819D01*
X118661428Y-92514819D02*
X118375714Y-92514819D01*
X118375714Y-92514819D02*
X118280476Y-92467200D01*
X118280476Y-92467200D02*
X118232857Y-92419580D01*
X132336411Y-90972112D02*
X132336411Y-91039456D01*
X132336411Y-91039456D02*
X132269067Y-91174143D01*
X132269067Y-91174143D02*
X132201724Y-91241486D01*
X132201724Y-91241486D02*
X132067037Y-91308830D01*
X132067037Y-91308830D02*
X131932350Y-91308830D01*
X131932350Y-91308830D02*
X131831335Y-91275158D01*
X131831335Y-91275158D02*
X131662976Y-91174143D01*
X131662976Y-91174143D02*
X131561961Y-91073128D01*
X131561961Y-91073128D02*
X131460945Y-90904769D01*
X131460945Y-90904769D02*
X131427274Y-90803754D01*
X131427274Y-90803754D02*
X131427274Y-90669067D01*
X131427274Y-90669067D02*
X131494617Y-90534380D01*
X131494617Y-90534380D02*
X131561961Y-90467036D01*
X131561961Y-90467036D02*
X131696648Y-90399693D01*
X131696648Y-90399693D02*
X131763991Y-90399693D01*
X132740472Y-90702738D02*
X132875159Y-90568051D01*
X132875159Y-90568051D02*
X132908831Y-90467036D01*
X132908831Y-90467036D02*
X132908831Y-90399693D01*
X132908831Y-90399693D02*
X132875159Y-90231334D01*
X132875159Y-90231334D02*
X132774144Y-90062975D01*
X132774144Y-90062975D02*
X132504770Y-89793601D01*
X132504770Y-89793601D02*
X132403754Y-89759929D01*
X132403754Y-89759929D02*
X132336411Y-89759929D01*
X132336411Y-89759929D02*
X132235396Y-89793601D01*
X132235396Y-89793601D02*
X132100709Y-89928288D01*
X132100709Y-89928288D02*
X132067037Y-90029303D01*
X132067037Y-90029303D02*
X132067037Y-90096647D01*
X132067037Y-90096647D02*
X132100709Y-90197662D01*
X132100709Y-90197662D02*
X132269067Y-90366021D01*
X132269067Y-90366021D02*
X132370083Y-90399693D01*
X132370083Y-90399693D02*
X132437426Y-90399693D01*
X132437426Y-90399693D02*
X132538441Y-90366021D01*
X132538441Y-90366021D02*
X132673128Y-90231334D01*
X132673128Y-90231334D02*
X132706800Y-90130319D01*
X132706800Y-90130319D02*
X132706800Y-90062975D01*
X132706800Y-90062975D02*
X132673128Y-89961960D01*
X108014819Y-101331904D02*
X108824342Y-101331904D01*
X108824342Y-101331904D02*
X108919580Y-101284285D01*
X108919580Y-101284285D02*
X108967200Y-101236666D01*
X108967200Y-101236666D02*
X109014819Y-101141428D01*
X109014819Y-101141428D02*
X109014819Y-100950952D01*
X109014819Y-100950952D02*
X108967200Y-100855714D01*
X108967200Y-100855714D02*
X108919580Y-100808095D01*
X108919580Y-100808095D02*
X108824342Y-100760476D01*
X108824342Y-100760476D02*
X108014819Y-100760476D01*
X109014819Y-99760476D02*
X109014819Y-100331904D01*
X109014819Y-100046190D02*
X108014819Y-100046190D01*
X108014819Y-100046190D02*
X108157676Y-100141428D01*
X108157676Y-100141428D02*
X108252914Y-100236666D01*
X108252914Y-100236666D02*
X108300533Y-100331904D01*
D11*
X117385714Y-93849895D02*
X117119047Y-93468942D01*
X116928571Y-93849895D02*
X116928571Y-93049895D01*
X116928571Y-93049895D02*
X117233333Y-93049895D01*
X117233333Y-93049895D02*
X117309523Y-93087990D01*
X117309523Y-93087990D02*
X117347618Y-93126085D01*
X117347618Y-93126085D02*
X117385714Y-93202276D01*
X117385714Y-93202276D02*
X117385714Y-93316561D01*
X117385714Y-93316561D02*
X117347618Y-93392752D01*
X117347618Y-93392752D02*
X117309523Y-93430847D01*
X117309523Y-93430847D02*
X117233333Y-93468942D01*
X117233333Y-93468942D02*
X116928571Y-93468942D01*
X118147618Y-93849895D02*
X117690475Y-93849895D01*
X117919047Y-93849895D02*
X117919047Y-93049895D01*
X117919047Y-93049895D02*
X117842856Y-93164180D01*
X117842856Y-93164180D02*
X117766666Y-93240371D01*
X117766666Y-93240371D02*
X117690475Y-93278466D01*
X118452380Y-93126085D02*
X118490476Y-93087990D01*
X118490476Y-93087990D02*
X118566666Y-93049895D01*
X118566666Y-93049895D02*
X118757142Y-93049895D01*
X118757142Y-93049895D02*
X118833333Y-93087990D01*
X118833333Y-93087990D02*
X118871428Y-93126085D01*
X118871428Y-93126085D02*
X118909523Y-93202276D01*
X118909523Y-93202276D02*
X118909523Y-93278466D01*
X118909523Y-93278466D02*
X118871428Y-93392752D01*
X118871428Y-93392752D02*
X118414285Y-93849895D01*
X118414285Y-93849895D02*
X118909523Y-93849895D01*
X119785714Y-96688704D02*
X119747618Y-96726800D01*
X119747618Y-96726800D02*
X119633333Y-96764895D01*
X119633333Y-96764895D02*
X119557142Y-96764895D01*
X119557142Y-96764895D02*
X119442856Y-96726800D01*
X119442856Y-96726800D02*
X119366666Y-96650609D01*
X119366666Y-96650609D02*
X119328571Y-96574419D01*
X119328571Y-96574419D02*
X119290475Y-96422038D01*
X119290475Y-96422038D02*
X119290475Y-96307752D01*
X119290475Y-96307752D02*
X119328571Y-96155371D01*
X119328571Y-96155371D02*
X119366666Y-96079180D01*
X119366666Y-96079180D02*
X119442856Y-96002990D01*
X119442856Y-96002990D02*
X119557142Y-95964895D01*
X119557142Y-95964895D02*
X119633333Y-95964895D01*
X119633333Y-95964895D02*
X119747618Y-96002990D01*
X119747618Y-96002990D02*
X119785714Y-96041085D01*
X120547618Y-96764895D02*
X120090475Y-96764895D01*
X120319047Y-96764895D02*
X120319047Y-95964895D01*
X120319047Y-95964895D02*
X120242856Y-96079180D01*
X120242856Y-96079180D02*
X120166666Y-96155371D01*
X120166666Y-96155371D02*
X120090475Y-96193466D01*
X121309523Y-96764895D02*
X120852380Y-96764895D01*
X121080952Y-96764895D02*
X121080952Y-95964895D01*
X121080952Y-95964895D02*
X121004761Y-96079180D01*
X121004761Y-96079180D02*
X120928571Y-96155371D01*
X120928571Y-96155371D02*
X120852380Y-96193466D01*
D13*
%TO.C,J5*%
X102970000Y-80270000D02*
X104300000Y-80270000D01*
X102970000Y-81600000D02*
X102970000Y-80270000D01*
X102970000Y-82870000D02*
X102970000Y-95630000D01*
X102970000Y-82870000D02*
X105570000Y-82870000D01*
X102970000Y-95630000D02*
X108170000Y-95630000D01*
X105570000Y-80270000D02*
X108170000Y-80270000D01*
X105570000Y-82870000D02*
X105570000Y-80270000D01*
X108170000Y-80270000D02*
X108170000Y-95630000D01*
%TO.C,J4*%
X108130000Y-79230000D02*
X106800000Y-79230000D01*
X108130000Y-77900000D02*
X108130000Y-79230000D01*
X108130000Y-76630000D02*
X108130000Y-63870000D01*
X108130000Y-76630000D02*
X105530000Y-76630000D01*
X108130000Y-63870000D02*
X102930000Y-63870000D01*
X105530000Y-79230000D02*
X102930000Y-79230000D01*
X105530000Y-76630000D02*
X105530000Y-79230000D01*
X102930000Y-79230000D02*
X102930000Y-63870000D01*
%TO.C,J2*%
X109320000Y-77270000D02*
X110650000Y-77270000D01*
X109320000Y-78600000D02*
X109320000Y-77270000D01*
X109320000Y-79870000D02*
X109320000Y-92630000D01*
X109320000Y-79870000D02*
X111980000Y-79870000D01*
X109320000Y-92630000D02*
X111980000Y-92630000D01*
X111980000Y-79870000D02*
X111980000Y-92630000D01*
%TO.C,R20*%
X102727500Y-109887258D02*
X102727500Y-109412742D01*
X103772500Y-109887258D02*
X103772500Y-109412742D01*
%TO.C,R19*%
X114937258Y-94972500D02*
X114462742Y-94972500D01*
X114937258Y-93927500D02*
X114462742Y-93927500D01*
D14*
%TO.C,J1*%
X132285000Y-126520000D02*
X132285000Y-114100000D01*
X132285000Y-111000000D02*
X132285000Y-105120000D01*
X116285000Y-126520000D02*
X132285000Y-126520000D01*
X116285000Y-126520000D02*
X116285000Y-114100000D01*
X116285000Y-111000000D02*
X116285000Y-105120000D01*
X116285000Y-105120000D02*
X132285000Y-105120000D01*
D15*
X115435000Y-109300000D02*
G75*
G02*
X115135000Y-109300000I-150000J0D01*
G01*
X115135000Y-109300000D02*
G75*
G02*
X115435000Y-109300000I150000J0D01*
G01*
D16*
%TO.C,USBC1*%
X104750000Y-117952500D02*
X104750000Y-119602500D01*
X104750000Y-121952500D02*
X104750000Y-123482500D01*
X104750000Y-123482500D02*
X113890000Y-123482500D01*
X113890000Y-117952500D02*
X113890000Y-119602500D01*
X113890000Y-123482500D02*
X113890000Y-121952500D01*
D13*
%TO.C,U2*%
X114380000Y-58585000D02*
X114380000Y-64745000D01*
X114380000Y-58585000D02*
X132620000Y-58585000D01*
X114380000Y-83545000D02*
X114380000Y-84325000D01*
X114380000Y-84325000D02*
X115380000Y-84325000D01*
X132620000Y-58585000D02*
X132620000Y-65000000D01*
X132620000Y-83545000D02*
X132620000Y-84325000D01*
X132620000Y-84325000D02*
X131620000Y-84325000D01*
X114375000Y-65470000D02*
X113875000Y-65470000D01*
X114375000Y-64970000D01*
X114375000Y-65470000D01*
G36*
X114375000Y-65470000D02*
G01*
X113875000Y-65470000D01*
X114375000Y-64970000D01*
X114375000Y-65470000D01*
G37*
%TO.C,U3*%
X128110000Y-96885000D02*
X128110000Y-97120000D01*
X128110000Y-93140000D02*
X128110000Y-93615000D01*
X127635000Y-97360000D02*
X127810000Y-97360000D01*
X127635000Y-93140000D02*
X128110000Y-93140000D01*
X124365000Y-97360000D02*
X123890000Y-97360000D01*
X124365000Y-93140000D02*
X123890000Y-93140000D01*
X123890000Y-97360000D02*
X123890000Y-96885000D01*
X123890000Y-93140000D02*
X123890000Y-93615000D01*
X128350000Y-97690000D02*
X127870000Y-97690000D01*
X128110000Y-97360000D01*
X128350000Y-97690000D01*
G36*
X128350000Y-97690000D02*
G01*
X127870000Y-97690000D01*
X128110000Y-97360000D01*
X128350000Y-97690000D01*
G37*
%TO.C,R14*%
X131812742Y-103477500D02*
X132287258Y-103477500D01*
X131812742Y-104522500D02*
X132287258Y-104522500D01*
%TO.C,L1*%
X121577500Y-98037258D02*
X121577500Y-97562742D01*
X122622500Y-98037258D02*
X122622500Y-97562742D01*
%TO.C,R11*%
X128472500Y-99162742D02*
X128472500Y-99637258D01*
X127427500Y-99162742D02*
X127427500Y-99637258D01*
%TO.C,R9*%
X129837230Y-91351697D02*
X129501697Y-91687230D01*
X129098303Y-90612770D02*
X128762770Y-90948303D01*
%TO.C,C4*%
X113610000Y-68010000D02*
X113610000Y-64990000D01*
X113610000Y-64990000D02*
X109400000Y-64990000D01*
X109400000Y-68010000D02*
X113610000Y-68010000D01*
%TO.C,C5*%
X103622164Y-104930000D02*
X103837836Y-104930000D01*
X103622164Y-105650000D02*
X103837836Y-105650000D01*
%TO.C,C2*%
X111109420Y-94740000D02*
X111390580Y-94740000D01*
X111109420Y-95760000D02*
X111390580Y-95760000D01*
%TO.C,C8*%
X131510000Y-97959420D02*
X131510000Y-98240580D01*
X130490000Y-97959420D02*
X130490000Y-98240580D01*
%TO.C,C7*%
X125711219Y-90239970D02*
X125910030Y-90438781D01*
X124989970Y-90961219D02*
X125188781Y-91160030D01*
%TO.C,R6*%
X131987258Y-86272500D02*
X131512742Y-86272500D01*
X131987258Y-85227500D02*
X131512742Y-85227500D01*
%TO.C,R3*%
X123937742Y-103552500D02*
X124412258Y-103552500D01*
X123937742Y-104597500D02*
X124412258Y-104597500D01*
%TO.C,R5*%
X121237258Y-101227500D02*
X120762742Y-101227500D01*
X121237258Y-102272500D02*
X120762742Y-102272500D01*
%TO.C,C14*%
X110409420Y-73140000D02*
X110690580Y-73140000D01*
X110409420Y-74160000D02*
X110690580Y-74160000D01*
%TO.C,R15*%
X120380000Y-100153641D02*
X120380000Y-99846359D01*
X119620000Y-100153641D02*
X119620000Y-99846359D01*
%TO.C,C12*%
X110409420Y-70040000D02*
X110690580Y-70040000D01*
X110409420Y-71060000D02*
X110690580Y-71060000D01*
%TO.C,Q2*%
X118235000Y-102460000D02*
X118235000Y-103350000D01*
X118235000Y-103350000D02*
X116385000Y-103350000D01*
X118250000Y-100230000D02*
X116400000Y-100230000D01*
X118250000Y-100230000D02*
X118250000Y-101120000D01*
X116010000Y-100220000D02*
X115770000Y-99890000D01*
X116250000Y-99890000D01*
X116010000Y-100220000D01*
G36*
X116010000Y-100220000D02*
G01*
X115770000Y-99890000D01*
X116250000Y-99890000D01*
X116010000Y-100220000D01*
G37*
%TO.C,R18*%
X110596359Y-114120000D02*
X110903641Y-114120000D01*
X110596359Y-114880000D02*
X110903641Y-114880000D01*
%TO.C,R8*%
X128737230Y-90301697D02*
X128401697Y-90637230D01*
X127998303Y-89562770D02*
X127662770Y-89898303D01*
%TO.C,C13*%
X105357836Y-114860000D02*
X105142164Y-114860000D01*
X105357836Y-114140000D02*
X105142164Y-114140000D01*
%TO.C,R17*%
X107653641Y-115130000D02*
X107346359Y-115130000D01*
X107653641Y-114370000D02*
X107346359Y-114370000D01*
%TO.C,R16*%
X114120000Y-102353641D02*
X114120000Y-102046359D01*
X114880000Y-102353641D02*
X114880000Y-102046359D01*
%TO.C,C3*%
X110690580Y-69510000D02*
X110409420Y-69510000D01*
X110690580Y-68490000D02*
X110409420Y-68490000D01*
%TO.C,C1*%
X105067258Y-97442500D02*
X104592742Y-97442500D01*
X105067258Y-96397500D02*
X104592742Y-96397500D01*
%TO.C,U4*%
X104340000Y-110000000D02*
X104340000Y-111950000D01*
X104340000Y-110000000D02*
X104340000Y-108050000D01*
X114460000Y-110000000D02*
X114460000Y-111950000D01*
X114460000Y-110000000D02*
X114460000Y-108050000D01*
X104395000Y-112700000D02*
X104065000Y-112940000D01*
X104065000Y-112460000D01*
X104395000Y-112700000D01*
G36*
X104395000Y-112700000D02*
G01*
X104065000Y-112940000D01*
X104065000Y-112460000D01*
X104395000Y-112700000D01*
G37*
%TO.C,C6*%
X126261219Y-88539970D02*
X126460030Y-88738781D01*
X125539970Y-89261219D02*
X125738781Y-89460030D01*
%TO.C,D1*%
X105900000Y-97740000D02*
X102600000Y-97740000D01*
X105900000Y-97740000D02*
X105900000Y-103250000D01*
X102600000Y-97740000D02*
X102600000Y-103250000D01*
%TO.C,R7*%
X110787258Y-72622500D02*
X110312742Y-72622500D01*
X110787258Y-71577500D02*
X110312742Y-71577500D01*
%TO.C,R10*%
X122951697Y-89712770D02*
X123287230Y-90048303D01*
X122212770Y-90451697D02*
X122548303Y-90787230D01*
%TO.C,R1*%
X125762258Y-100072500D02*
X125287742Y-100072500D01*
X125762258Y-99027500D02*
X125287742Y-99027500D01*
%TO.C,R2*%
X123862742Y-101227500D02*
X124337258Y-101227500D01*
X123862742Y-102272500D02*
X124337258Y-102272500D01*
%TO.C,C10*%
X129960000Y-97959420D02*
X129960000Y-98240580D01*
X128940000Y-97959420D02*
X128940000Y-98240580D01*
%TO.C,R4*%
X127387258Y-102272500D02*
X126912742Y-102272500D01*
X127387258Y-101227500D02*
X126912742Y-101227500D01*
%TO.C,Q1*%
X118245000Y-98990000D02*
X118245000Y-99880000D01*
X118245000Y-99880000D02*
X116395000Y-99880000D01*
X118260000Y-96760000D02*
X116410000Y-96760000D01*
X118260000Y-96760000D02*
X118260000Y-97650000D01*
X116020000Y-96750000D02*
X115780000Y-96420000D01*
X116260000Y-96420000D01*
X116020000Y-96750000D01*
G36*
X116020000Y-96750000D02*
G01*
X115780000Y-96420000D01*
X116260000Y-96420000D01*
X116020000Y-96750000D01*
G37*
%TO.C,R13*%
X120737258Y-92522500D02*
X120262742Y-92522500D01*
X120737258Y-91477500D02*
X120262742Y-91477500D01*
%TO.C,C9*%
X129939970Y-91988781D02*
X130138781Y-91789970D01*
X130661219Y-92710030D02*
X130860030Y-92511219D01*
%TO.C,U1*%
X113370000Y-98720000D02*
X113370000Y-102480000D01*
X106550000Y-98720000D02*
X106550000Y-102480000D01*
X113370000Y-102480000D02*
X112110000Y-102480000D01*
X106550000Y-102480000D02*
X107810000Y-102480000D01*
X113600000Y-97680000D02*
X113270000Y-97440000D01*
X113600000Y-97200000D01*
X113600000Y-97680000D01*
G36*
X113600000Y-97680000D02*
G01*
X113270000Y-97440000D01*
X113600000Y-97200000D01*
X113600000Y-97680000D01*
G37*
%TO.C,R12*%
X120262742Y-93002500D02*
X120737258Y-93002500D01*
X120262742Y-94047500D02*
X120737258Y-94047500D01*
%TO.C,C11*%
X120640580Y-95560000D02*
X120359420Y-95560000D01*
X120640580Y-94540000D02*
X120359420Y-94540000D01*
%TD*%
%LPC*%
D17*
%TO.C,J5*%
X104300000Y-81600000D03*
D18*
X106840000Y-81600000D03*
X104300000Y-84140000D03*
X106840000Y-84140000D03*
X104300000Y-86680000D03*
X106840000Y-86680000D03*
X104300000Y-89220000D03*
X106840000Y-89220000D03*
X104300000Y-91760000D03*
X106840000Y-91760000D03*
X104300000Y-94300000D03*
X106840000Y-94300000D03*
%TD*%
D17*
%TO.C,J4*%
X106800000Y-77900000D03*
D18*
X104260000Y-77900000D03*
X106800000Y-75360000D03*
X104260000Y-75360000D03*
X106800000Y-72820000D03*
X104260000Y-72820000D03*
X106800000Y-70280000D03*
X104260000Y-70280000D03*
X106800000Y-67740000D03*
X104260000Y-67740000D03*
X106800000Y-65200000D03*
X104260000Y-65200000D03*
%TD*%
D17*
%TO.C,J2*%
X110650000Y-78600000D03*
D18*
X110650000Y-81140000D03*
X110650000Y-83680000D03*
X110650000Y-86220000D03*
X110650000Y-88760000D03*
X110650000Y-91300000D03*
%TD*%
D19*
%TO.C,R20*%
X103250000Y-110475000D03*
X103250000Y-108825000D03*
%TD*%
D20*
%TO.C,R19*%
X115525000Y-94450000D03*
X113875000Y-94450000D03*
%TD*%
D21*
%TO.C,J1*%
X130000000Y-115600000D03*
X118570000Y-115600000D03*
D22*
X119835000Y-109250000D03*
D23*
X121105000Y-106710000D03*
X122375000Y-109250000D03*
X123645000Y-106710000D03*
X124915000Y-109250000D03*
X126185000Y-106710000D03*
X127455000Y-109250000D03*
X128725000Y-106710000D03*
D24*
X117660000Y-120500000D03*
X120200000Y-120500000D03*
X128370000Y-120500000D03*
X130910000Y-120500000D03*
D25*
X116540000Y-112550000D03*
X132030000Y-112550000D03*
%TD*%
D26*
%TO.C,USBC1*%
X106430000Y-117092500D03*
X112210000Y-117092500D03*
D27*
X105000000Y-116592500D03*
D28*
X105000000Y-120772500D03*
X113640000Y-120772500D03*
D27*
X113640000Y-116592500D03*
D29*
X106120000Y-116032500D03*
X106920000Y-116032500D03*
D30*
X108070000Y-116032500D03*
X109070000Y-116032500D03*
X109570000Y-116032500D03*
X110570000Y-116032500D03*
D29*
X112520000Y-116032500D03*
X111720000Y-116032500D03*
D30*
X111070000Y-116032500D03*
X110070000Y-116032500D03*
X108570000Y-116032500D03*
X107570000Y-116032500D03*
%TD*%
D31*
%TO.C,U2*%
X114750000Y-66195000D03*
X114750000Y-67465000D03*
X114750000Y-68735000D03*
X114750000Y-70005000D03*
X114750000Y-71275000D03*
X114750000Y-72545000D03*
X114750000Y-73815000D03*
X114750000Y-75085000D03*
X114750000Y-76355000D03*
X114750000Y-77625000D03*
X114750000Y-78895000D03*
X114750000Y-80165000D03*
X114750000Y-81435000D03*
X114750000Y-82705000D03*
D32*
X117790000Y-83955000D03*
X119060000Y-83955000D03*
X120330000Y-83955000D03*
X121600000Y-83955000D03*
X122870000Y-83955000D03*
X124140000Y-83955000D03*
X125410000Y-83955000D03*
X126680000Y-83955000D03*
X127950000Y-83955000D03*
X129220000Y-83955000D03*
D31*
X132250000Y-82705000D03*
X132250000Y-81435000D03*
X132250000Y-80165000D03*
X132250000Y-78895000D03*
X132250000Y-77625000D03*
X132250000Y-76355000D03*
X132250000Y-75085000D03*
X132250000Y-73815000D03*
X132250000Y-72545000D03*
X132250000Y-71275000D03*
X132250000Y-70005000D03*
X132250000Y-68735000D03*
X132250000Y-67465000D03*
X132250000Y-66195000D03*
D33*
X121295000Y-72772500D03*
X121295000Y-74297500D03*
X122057500Y-72010000D03*
X122057500Y-73535000D03*
X122057500Y-75060000D03*
X122820000Y-72772500D03*
D34*
X122820000Y-73535000D03*
D33*
X122820000Y-74297500D03*
X123582500Y-72010000D03*
X123582500Y-73535000D03*
X123582500Y-75060000D03*
X124345000Y-72772500D03*
X124345000Y-74297500D03*
%TD*%
D35*
%TO.C,U3*%
X127937500Y-96500000D03*
X127937500Y-96000000D03*
X127937500Y-95500000D03*
X127937500Y-95000000D03*
X127937500Y-94500000D03*
X127937500Y-94000000D03*
D36*
X127250000Y-93312500D03*
X126750000Y-93312500D03*
X126250000Y-93312500D03*
X125750000Y-93312500D03*
X125250000Y-93312500D03*
X124750000Y-93312500D03*
D35*
X124062500Y-94000000D03*
X124062500Y-94500000D03*
X124062500Y-95000000D03*
X124062500Y-95500000D03*
X124062500Y-96000000D03*
X124062500Y-96500000D03*
D36*
X124750000Y-97187500D03*
X125250000Y-97187500D03*
X125750000Y-97187500D03*
X126250000Y-97187500D03*
X126750000Y-97187500D03*
X127250000Y-97187500D03*
D37*
X126000000Y-95250000D03*
%TD*%
D38*
%TO.C,R14*%
X131225000Y-104000000D03*
X132875000Y-104000000D03*
%TD*%
D19*
%TO.C,L1*%
X122100000Y-98625000D03*
X122100000Y-96975000D03*
%TD*%
D39*
%TO.C,R11*%
X127950000Y-98575000D03*
X127950000Y-100225000D03*
%TD*%
D40*
%TO.C,R9*%
X129883363Y-90566637D03*
X128716637Y-91733363D03*
%TD*%
D41*
%TO.C,C4*%
X112687500Y-66500000D03*
X109612500Y-66500000D03*
%TD*%
D42*
%TO.C,C5*%
X103250000Y-105290000D03*
X104210000Y-105290000D03*
%TD*%
D43*
%TO.C,C2*%
X110475000Y-95250000D03*
X112025000Y-95250000D03*
%TD*%
D44*
%TO.C,C8*%
X131000000Y-97325000D03*
X131000000Y-98875000D03*
%TD*%
D45*
%TO.C,C7*%
X124901992Y-90151992D03*
X125998008Y-91248008D03*
%TD*%
D20*
%TO.C,R6*%
X132575000Y-85750000D03*
X130925000Y-85750000D03*
%TD*%
D38*
%TO.C,R3*%
X123350000Y-104075000D03*
X125000000Y-104075000D03*
%TD*%
D20*
%TO.C,R5*%
X120175000Y-101750000D03*
X121825000Y-101750000D03*
%TD*%
D43*
%TO.C,C14*%
X109775000Y-73650000D03*
X111325000Y-73650000D03*
%TD*%
D46*
%TO.C,R15*%
X120000000Y-99490000D03*
X120000000Y-100510000D03*
%TD*%
D43*
%TO.C,C12*%
X109775000Y-70550000D03*
X111325000Y-70550000D03*
%TD*%
D47*
%TO.C,Q2*%
X115980000Y-100820000D03*
X115980000Y-102720000D03*
X118600000Y-101770000D03*
%TD*%
D48*
%TO.C,R18*%
X110240000Y-114500000D03*
X111260000Y-114500000D03*
%TD*%
D40*
%TO.C,R8*%
X128783363Y-89516637D03*
X127616637Y-90683363D03*
%TD*%
D49*
%TO.C,C13*%
X105730000Y-114500000D03*
X104770000Y-114500000D03*
%TD*%
D50*
%TO.C,R17*%
X108010000Y-114750000D03*
X106990000Y-114750000D03*
%TD*%
D46*
%TO.C,R16*%
X114500000Y-102710000D03*
X114500000Y-101690000D03*
%TD*%
D51*
%TO.C,C3*%
X111325000Y-69000000D03*
X109775000Y-69000000D03*
%TD*%
D20*
%TO.C,C1*%
X105655000Y-96920000D03*
X104005000Y-96920000D03*
%TD*%
D52*
%TO.C,U4*%
X104955000Y-112475000D03*
X106225000Y-112475000D03*
X107495000Y-112475000D03*
X108765000Y-112475000D03*
X110035000Y-112475000D03*
X111305000Y-112475000D03*
X112575000Y-112475000D03*
X113845000Y-112475000D03*
X113845000Y-107525000D03*
X112575000Y-107525000D03*
X111305000Y-107525000D03*
X110035000Y-107525000D03*
X108765000Y-107525000D03*
X107495000Y-107525000D03*
X106225000Y-107525000D03*
X104955000Y-107525000D03*
%TD*%
D45*
%TO.C,C6*%
X125451992Y-88451992D03*
X126548008Y-89548008D03*
%TD*%
D53*
%TO.C,D1*%
X104250000Y-99250000D03*
X104250000Y-103250000D03*
%TD*%
D20*
%TO.C,R7*%
X111375000Y-72100000D03*
X109725000Y-72100000D03*
%TD*%
D54*
%TO.C,R10*%
X122166637Y-89666637D03*
X123333363Y-90833363D03*
%TD*%
D20*
%TO.C,R1*%
X126350000Y-99550000D03*
X124700000Y-99550000D03*
%TD*%
D38*
%TO.C,R2*%
X123275000Y-101750000D03*
X124925000Y-101750000D03*
%TD*%
D44*
%TO.C,C10*%
X129450000Y-97325000D03*
X129450000Y-98875000D03*
%TD*%
D20*
%TO.C,R4*%
X127975000Y-101750000D03*
X126325000Y-101750000D03*
%TD*%
D47*
%TO.C,Q1*%
X115990000Y-97350000D03*
X115990000Y-99250000D03*
X118610000Y-98300000D03*
%TD*%
D20*
%TO.C,R13*%
X121325000Y-92000000D03*
X119675000Y-92000000D03*
%TD*%
D55*
%TO.C,C9*%
X129851992Y-92798008D03*
X130948008Y-91701992D03*
%TD*%
D56*
%TO.C,U1*%
X112260000Y-97420000D03*
X109960000Y-97420000D03*
D57*
X109960000Y-103720000D03*
D56*
X107660000Y-97420000D03*
%TD*%
D38*
%TO.C,R12*%
X119675000Y-93525000D03*
X121325000Y-93525000D03*
%TD*%
D51*
%TO.C,C11*%
X121275000Y-95050000D03*
X119725000Y-95050000D03*
%TD*%
%LPD*%
M02*
